G04 EAGLE Gerber RS-274X export*
G75*
%MOMM*%
%FSLAX34Y34*%
%LPD*%
%IN*%
%IPPOS*%
%AMOC8*
5,1,8,0,0,1.08239X$1,22.5*%
G01*
%ADD10C,0.254000*%


D10*
X0Y0D02*
X1676200Y0D01*
X1676200Y1038100D01*
X0Y1038100D01*
X0Y0D01*
X64024Y993900D02*
X65069Y993832D01*
X66108Y993695D01*
X67135Y993490D01*
X68147Y993219D01*
X69139Y992883D01*
X70107Y992482D01*
X71046Y992018D01*
X71954Y991495D01*
X72825Y990913D01*
X73656Y990275D01*
X74443Y989584D01*
X75184Y988843D01*
X75875Y988056D01*
X76513Y987225D01*
X77095Y986354D01*
X77618Y985446D01*
X78082Y984507D01*
X78483Y983539D01*
X78819Y982547D01*
X79090Y981535D01*
X79295Y980508D01*
X79432Y979469D01*
X79500Y978424D01*
X79500Y977376D01*
X79432Y976331D01*
X79295Y975292D01*
X79090Y974265D01*
X78819Y973253D01*
X78483Y972261D01*
X78082Y971293D01*
X77618Y970354D01*
X77095Y969446D01*
X76513Y968575D01*
X75875Y967744D01*
X75184Y966957D01*
X74443Y966216D01*
X73656Y965525D01*
X72825Y964888D01*
X71954Y964306D01*
X71046Y963782D01*
X70107Y963318D01*
X69139Y962917D01*
X68147Y962581D01*
X67135Y962310D01*
X66108Y962105D01*
X65069Y961969D01*
X64024Y961900D01*
X62976Y961900D01*
X61931Y961969D01*
X60892Y962105D01*
X59865Y962310D01*
X58853Y962581D01*
X57861Y962917D01*
X56893Y963318D01*
X55954Y963782D01*
X55046Y964306D01*
X54175Y964888D01*
X53344Y965525D01*
X52557Y966216D01*
X51816Y966957D01*
X51125Y967744D01*
X50488Y968575D01*
X49906Y969446D01*
X49382Y970354D01*
X48918Y971293D01*
X48517Y972261D01*
X48181Y973253D01*
X47910Y974265D01*
X47705Y975292D01*
X47569Y976331D01*
X47500Y977376D01*
X47500Y978424D01*
X47569Y979469D01*
X47705Y980508D01*
X47910Y981535D01*
X48181Y982547D01*
X48517Y983539D01*
X48918Y984507D01*
X49382Y985446D01*
X49906Y986354D01*
X50488Y987225D01*
X51125Y988056D01*
X51816Y988843D01*
X52557Y989584D01*
X53344Y990275D01*
X54175Y990913D01*
X55046Y991495D01*
X55954Y992018D01*
X56893Y992482D01*
X57861Y992883D01*
X58853Y993219D01*
X59865Y993490D01*
X60892Y993695D01*
X61931Y993832D01*
X62976Y993900D01*
X64024Y993900D01*
X82802Y65516D02*
X82734Y64471D01*
X82597Y63432D01*
X82392Y62405D01*
X82121Y61393D01*
X81785Y60401D01*
X81384Y59433D01*
X80920Y58494D01*
X80397Y57586D01*
X79815Y56715D01*
X79177Y55884D01*
X78486Y55097D01*
X77745Y54356D01*
X76958Y53665D01*
X76127Y53028D01*
X75256Y52446D01*
X74348Y51922D01*
X73409Y51458D01*
X72441Y51057D01*
X71449Y50721D01*
X70437Y50450D01*
X69410Y50245D01*
X68371Y50109D01*
X67326Y50040D01*
X66278Y50040D01*
X65233Y50109D01*
X64194Y50245D01*
X63167Y50450D01*
X62155Y50721D01*
X61163Y51057D01*
X60195Y51458D01*
X59256Y51922D01*
X58348Y52446D01*
X57477Y53028D01*
X56646Y53665D01*
X55859Y54356D01*
X55118Y55097D01*
X54427Y55884D01*
X53790Y56715D01*
X53208Y57586D01*
X52684Y58494D01*
X52220Y59433D01*
X51819Y60401D01*
X51483Y61393D01*
X51212Y62405D01*
X51007Y63432D01*
X50871Y64471D01*
X50802Y65516D01*
X50802Y66564D01*
X50871Y67609D01*
X51007Y68648D01*
X51212Y69675D01*
X51483Y70687D01*
X51819Y71679D01*
X52220Y72647D01*
X52684Y73586D01*
X53208Y74494D01*
X53790Y75365D01*
X54427Y76196D01*
X55118Y76983D01*
X55859Y77724D01*
X56646Y78415D01*
X57477Y79053D01*
X58348Y79635D01*
X59256Y80158D01*
X60195Y80622D01*
X61163Y81023D01*
X62155Y81359D01*
X63167Y81630D01*
X64194Y81835D01*
X65233Y81972D01*
X66278Y82040D01*
X67326Y82040D01*
X68371Y81972D01*
X69410Y81835D01*
X70437Y81630D01*
X71449Y81359D01*
X72441Y81023D01*
X73409Y80622D01*
X74348Y80158D01*
X75256Y79635D01*
X76127Y79053D01*
X76958Y78415D01*
X77745Y77724D01*
X78486Y76983D01*
X79177Y76196D01*
X79815Y75365D01*
X80397Y74494D01*
X80920Y73586D01*
X81384Y72647D01*
X81785Y71679D01*
X82121Y70687D01*
X82392Y69675D01*
X82597Y68648D01*
X82734Y67609D01*
X82802Y66564D01*
X82802Y65516D01*
X1620772Y992235D02*
X1620704Y991190D01*
X1620567Y990151D01*
X1620362Y989124D01*
X1620091Y988112D01*
X1619755Y987120D01*
X1619354Y986152D01*
X1618890Y985213D01*
X1618367Y984305D01*
X1617785Y983434D01*
X1617147Y982603D01*
X1616456Y981816D01*
X1615715Y981075D01*
X1614928Y980384D01*
X1614097Y979747D01*
X1613226Y979165D01*
X1612318Y978641D01*
X1611379Y978177D01*
X1610411Y977776D01*
X1609419Y977440D01*
X1608407Y977169D01*
X1607380Y976964D01*
X1606341Y976828D01*
X1605296Y976759D01*
X1604248Y976759D01*
X1603203Y976828D01*
X1602164Y976964D01*
X1601137Y977169D01*
X1600125Y977440D01*
X1599133Y977776D01*
X1598165Y978177D01*
X1597226Y978641D01*
X1596318Y979165D01*
X1595447Y979747D01*
X1594616Y980384D01*
X1593829Y981075D01*
X1593088Y981816D01*
X1592397Y982603D01*
X1591760Y983434D01*
X1591178Y984305D01*
X1590654Y985213D01*
X1590190Y986152D01*
X1589789Y987120D01*
X1589453Y988112D01*
X1589182Y989124D01*
X1588977Y990151D01*
X1588841Y991190D01*
X1588772Y992235D01*
X1588772Y993283D01*
X1588841Y994328D01*
X1588977Y995367D01*
X1589182Y996394D01*
X1589453Y997406D01*
X1589789Y998398D01*
X1590190Y999366D01*
X1590654Y1000305D01*
X1591178Y1001213D01*
X1591760Y1002084D01*
X1592397Y1002915D01*
X1593088Y1003702D01*
X1593829Y1004443D01*
X1594616Y1005134D01*
X1595447Y1005772D01*
X1596318Y1006354D01*
X1597226Y1006877D01*
X1598165Y1007341D01*
X1599133Y1007742D01*
X1600125Y1008078D01*
X1601137Y1008349D01*
X1602164Y1008554D01*
X1603203Y1008691D01*
X1604248Y1008759D01*
X1605296Y1008759D01*
X1606341Y1008691D01*
X1607380Y1008554D01*
X1608407Y1008349D01*
X1609419Y1008078D01*
X1610411Y1007742D01*
X1611379Y1007341D01*
X1612318Y1006877D01*
X1613226Y1006354D01*
X1614097Y1005772D01*
X1614928Y1005134D01*
X1615715Y1004443D01*
X1616456Y1003702D01*
X1617147Y1002915D01*
X1617785Y1002084D01*
X1618367Y1001213D01*
X1618890Y1000305D01*
X1619354Y999366D01*
X1619755Y998398D01*
X1620091Y997406D01*
X1620362Y996394D01*
X1620567Y995367D01*
X1620704Y994328D01*
X1620772Y993283D01*
X1620772Y992235D01*
X1603518Y66356D02*
X1604563Y66287D01*
X1605602Y66150D01*
X1606629Y65946D01*
X1607641Y65675D01*
X1608633Y65338D01*
X1609601Y64937D01*
X1610540Y64474D01*
X1611448Y63950D01*
X1612319Y63368D01*
X1613150Y62730D01*
X1613937Y62040D01*
X1614678Y61299D01*
X1615369Y60511D01*
X1616007Y59680D01*
X1616589Y58809D01*
X1617112Y57902D01*
X1617576Y56962D01*
X1617977Y55995D01*
X1618313Y55003D01*
X1618584Y53991D01*
X1618789Y52963D01*
X1618926Y51925D01*
X1618994Y50879D01*
X1618994Y49832D01*
X1618926Y48786D01*
X1618789Y47748D01*
X1618584Y46720D01*
X1618313Y45708D01*
X1617977Y44716D01*
X1617576Y43749D01*
X1617112Y42809D01*
X1616589Y41902D01*
X1616007Y41031D01*
X1615369Y40200D01*
X1614678Y39412D01*
X1613937Y38671D01*
X1613150Y37981D01*
X1612319Y37343D01*
X1611448Y36761D01*
X1610540Y36237D01*
X1609601Y35774D01*
X1608633Y35373D01*
X1607641Y35036D01*
X1606629Y34765D01*
X1605602Y34561D01*
X1604563Y34424D01*
X1603518Y34356D01*
X1602470Y34356D01*
X1601425Y34424D01*
X1600386Y34561D01*
X1599359Y34765D01*
X1598347Y35036D01*
X1597355Y35373D01*
X1596387Y35774D01*
X1595448Y36237D01*
X1594540Y36761D01*
X1593669Y37343D01*
X1592838Y37981D01*
X1592051Y38671D01*
X1591310Y39412D01*
X1590619Y40200D01*
X1589982Y41031D01*
X1589400Y41902D01*
X1588876Y42809D01*
X1588412Y43749D01*
X1588011Y44716D01*
X1587675Y45708D01*
X1587404Y46720D01*
X1587199Y47748D01*
X1587063Y48786D01*
X1586994Y49832D01*
X1586994Y50879D01*
X1587063Y51925D01*
X1587199Y52963D01*
X1587404Y53991D01*
X1587675Y55003D01*
X1588011Y55995D01*
X1588412Y56962D01*
X1588876Y57902D01*
X1589400Y58809D01*
X1589982Y59680D01*
X1590619Y60511D01*
X1591310Y61299D01*
X1592051Y62040D01*
X1592838Y62730D01*
X1593669Y63368D01*
X1594540Y63950D01*
X1595448Y64474D01*
X1596387Y64937D01*
X1597355Y65338D01*
X1598347Y65675D01*
X1599359Y65946D01*
X1600386Y66150D01*
X1601425Y66287D01*
X1602470Y66356D01*
X1603518Y66356D01*
M02*
