G04 EAGLE Gerber RS-274X export*
G75*
%MOMM*%
%FSLAX34Y34*%
%LPD*%
%INSoldermask Top*%
%IPPOS*%
%AMOC8*
5,1,8,0,0,1.08239X$1,22.5*%
G01*
%ADD10C,2.550000*%
%ADD11R,1.500000X1.300000*%
%ADD12R,1.300000X1.500000*%
%ADD13R,1.800000X1.600000*%
%ADD14R,1.300000X1.600000*%
%ADD15R,2.400000X2.400000*%
%ADD16R,3.150000X2.200000*%
%ADD17C,1.397000*%
%ADD18C,3.200000*%
%ADD19R,2.032000X0.660400*%
%ADD20R,2.200000X0.600000*%
%ADD21C,3.290000*%
%ADD22C,1.770000*%
%ADD23R,1.200000X1.200000*%
%ADD24R,0.900000X1.200000*%
%ADD25R,1.200000X0.900000*%
%ADD26R,1.803000X1.600000*%
%ADD27P,2.763017X8X22.500000*%
%ADD28C,1.100000*%
%ADD29R,1.400000X1.400000*%
%ADD30C,1.400000*%
%ADD31C,4.800000*%
%ADD32C,1.755000*%
%ADD33C,3.090000*%
%ADD34C,3.300000*%
%ADD35R,2.032000X2.032000*%
%ADD36C,1.270000*%
%ADD37R,1.600000X1.803000*%
%ADD38C,1.300000*%
%ADD39C,1.905000*%
%ADD40C,0.900000*%
%ADD41C,2.540000*%
%ADD42C,1.200000*%


D10*
X1422450Y544600D02*
X1396950Y544600D01*
X1396950Y584200D02*
X1422450Y584200D01*
X1422450Y623800D02*
X1396950Y623800D01*
D11*
X576580Y620370D03*
X576580Y601370D03*
D12*
X587400Y825500D03*
X606400Y825500D03*
X895960Y806450D03*
X876960Y806450D03*
D11*
X906780Y697840D03*
X906780Y678840D03*
D13*
X988060Y787370D03*
X988060Y815370D03*
D11*
X722630Y793090D03*
X722630Y774090D03*
D14*
X525940Y647700D03*
X545940Y647700D03*
D15*
X987200Y469900D03*
X943200Y469900D03*
D16*
X1117600Y600000D03*
X1117600Y670000D03*
X1248410Y600000D03*
X1248410Y670000D03*
D15*
X308200Y457200D03*
X352200Y457200D03*
X764540Y546960D03*
X764540Y590960D03*
D10*
X822900Y939750D02*
X822900Y965250D01*
X783300Y965250D02*
X783300Y939750D01*
X743700Y939750D02*
X743700Y965250D01*
X704100Y965250D02*
X704100Y939750D01*
X664500Y939750D02*
X664500Y965250D01*
X624900Y965250D02*
X624900Y939750D01*
D17*
X1268730Y737030D03*
X1217930Y759030D03*
X1155700Y856820D03*
X1206500Y834820D03*
D18*
X63500Y977900D03*
X66802Y66040D03*
X1604772Y992759D03*
X1602994Y50356D03*
D19*
X479806Y614680D03*
X541274Y614680D03*
X479806Y601980D03*
X479806Y589280D03*
X541274Y601980D03*
X541274Y589280D03*
X479806Y576580D03*
X541274Y576580D03*
X479806Y563880D03*
X541274Y563880D03*
X479806Y551180D03*
X479806Y538480D03*
X541274Y551180D03*
X541274Y538480D03*
X479806Y525780D03*
X541274Y525780D03*
D20*
X855380Y770890D03*
X907380Y770890D03*
X855380Y783590D03*
X855380Y758190D03*
X855380Y745490D03*
X907380Y783590D03*
X907380Y758190D03*
X907380Y745490D03*
D19*
X614934Y723900D03*
X553466Y723900D03*
X614934Y736600D03*
X614934Y749300D03*
X553466Y736600D03*
X553466Y749300D03*
X614934Y762000D03*
X553466Y762000D03*
X614934Y774700D03*
X614934Y787400D03*
X553466Y774700D03*
X553466Y787400D03*
X614934Y800100D03*
X553466Y800100D03*
D21*
X1117600Y177800D03*
X939800Y152400D03*
X939800Y76200D03*
D22*
X1079500Y304800D03*
X977900Y304800D03*
D23*
X967400Y506730D03*
X988400Y506730D03*
X430530Y898230D03*
X430530Y877230D03*
X469900Y898230D03*
X469900Y877230D03*
X393700Y898230D03*
X393700Y877230D03*
D19*
X346456Y628650D03*
X407924Y628650D03*
X346456Y615950D03*
X346456Y603250D03*
X407924Y615950D03*
X407924Y603250D03*
X346456Y590550D03*
X407924Y590550D03*
D10*
X1396950Y709700D02*
X1422450Y709700D01*
X1422450Y749300D02*
X1396950Y749300D01*
X1396950Y788900D02*
X1422450Y788900D01*
X1566445Y811385D02*
X1584062Y829820D01*
X1555433Y857179D02*
X1537815Y838744D01*
X1509186Y866103D02*
X1526803Y884538D01*
X1498174Y911897D02*
X1480557Y893462D01*
X1451927Y920821D02*
X1469545Y939256D01*
X1440915Y966615D02*
X1423298Y948180D01*
D24*
X477520Y734760D03*
X468020Y758760D03*
X487020Y758760D03*
X626110Y648400D03*
X616610Y672400D03*
X635610Y672400D03*
X379730Y733490D03*
X370230Y757490D03*
X389230Y757490D03*
D25*
X419800Y457200D03*
X443800Y466700D03*
X443800Y447700D03*
D26*
X1231900Y293620D03*
X1231900Y265180D03*
D11*
X697230Y793090D03*
X697230Y774090D03*
X748030Y774090D03*
X748030Y793090D03*
X481330Y466700D03*
X481330Y447700D03*
D12*
X483260Y647700D03*
X502260Y647700D03*
D11*
X1026160Y488340D03*
X1026160Y507340D03*
X670560Y691490D03*
X670560Y672490D03*
X417830Y738530D03*
X417830Y757530D03*
X304800Y602590D03*
X304800Y583590D03*
D26*
X1282700Y293620D03*
X1282700Y265180D03*
D11*
X988060Y760070D03*
X988060Y741070D03*
X469900Y828700D03*
X469900Y847700D03*
X431800Y828700D03*
X431800Y847700D03*
X393700Y828700D03*
X393700Y847700D03*
X852170Y678840D03*
X852170Y697840D03*
D27*
X412750Y920750D03*
X312420Y668020D03*
X462280Y501650D03*
X457200Y924560D03*
D28*
X1016000Y927100D03*
X1016000Y901700D03*
D29*
X1562100Y469900D03*
D30*
X1562100Y497300D03*
X1562100Y524700D03*
X1562100Y552100D03*
X1562100Y579500D03*
X1590500Y483600D03*
X1590500Y511000D03*
X1590500Y538400D03*
X1590500Y565800D03*
D31*
X1576300Y399750D03*
X1576300Y649650D03*
D29*
X1397000Y203200D03*
D30*
X1397000Y230600D03*
X1397000Y258000D03*
X1397000Y285400D03*
X1397000Y312800D03*
X1425400Y216900D03*
X1425400Y244300D03*
X1425400Y271700D03*
X1425400Y299100D03*
D31*
X1411200Y133050D03*
X1411200Y382950D03*
D27*
X670560Y640080D03*
X515620Y690880D03*
X406400Y533400D03*
X935990Y546100D03*
X935990Y656590D03*
X561340Y670560D03*
X1143000Y482600D03*
D11*
X558800Y485800D03*
X558800Y504800D03*
D12*
X315570Y506730D03*
X296570Y506730D03*
D23*
X378800Y508000D03*
X357800Y508000D03*
D12*
X728370Y706120D03*
X747370Y706120D03*
D23*
X655320Y445430D03*
X655320Y466430D03*
D27*
X659130Y562610D03*
X499110Y922020D03*
X593090Y478790D03*
X544830Y848360D03*
X777240Y652780D03*
D32*
X304800Y317500D03*
X406400Y317500D03*
D33*
X444500Y190500D03*
D34*
X266700Y165100D03*
D32*
X660400Y317500D03*
X762000Y317500D03*
D33*
X800100Y190500D03*
D34*
X622300Y165100D03*
D35*
X190500Y990600D03*
D36*
X215392Y990600D03*
X240538Y990600D03*
X265430Y990600D03*
X290576Y990600D03*
X315468Y990600D03*
X340614Y990600D03*
X365506Y990600D03*
D35*
X101600Y406400D03*
D36*
X101600Y431292D03*
X101600Y456438D03*
X101600Y481330D03*
X101600Y506476D03*
X101600Y531368D03*
X101600Y556514D03*
X101600Y581406D03*
D35*
X1257300Y38100D03*
D36*
X1282192Y38100D03*
X1307338Y38100D03*
X1332230Y38100D03*
X1357376Y38100D03*
X1382268Y38100D03*
X1407414Y38100D03*
X1432306Y38100D03*
D35*
X1244600Y939800D03*
D36*
X1219708Y939800D03*
X1194562Y939800D03*
X1169670Y939800D03*
X1144524Y939800D03*
X1119632Y939800D03*
X1094486Y939800D03*
X1069594Y939800D03*
D35*
X88900Y863600D03*
D36*
X88900Y838708D03*
X88900Y813562D03*
X88900Y788670D03*
X88900Y763524D03*
X88900Y738632D03*
X88900Y713486D03*
X88900Y688594D03*
D37*
X1601720Y711200D03*
X1573280Y711200D03*
X1601720Y736600D03*
X1573280Y736600D03*
D38*
X765810Y688340D03*
D39*
X889000Y457200D03*
D40*
X800100Y622300D03*
D41*
X723900Y457200D03*
D42*
X256540Y515620D03*
X330200Y520700D03*
D38*
X1181100Y101600D03*
X869950Y130810D03*
X228600Y444500D03*
X270510Y558800D03*
D42*
X151130Y605790D03*
X177800Y673100D03*
X749300Y850900D03*
X939800Y850900D03*
X591820Y960120D03*
X541020Y1010920D03*
D41*
X850900Y584200D03*
D42*
X1625600Y774700D03*
D38*
X1651000Y812800D03*
X863600Y76200D03*
M02*
