G04 EAGLE Gerber RS-274X export*
G75*
%MOMM*%
%FSLAX34Y34*%
%LPD*%
%INSolderpaste Top*%
%IPPOS*%
%AMOC8*
5,1,8,0,0,1.08239X$1,22.5*%
G01*
%ADD10R,1.500000X1.300000*%
%ADD11R,1.300000X1.500000*%
%ADD12R,1.800000X1.600000*%
%ADD13R,1.300000X1.600000*%
%ADD14R,2.400000X2.400000*%
%ADD15R,3.150000X2.200000*%
%ADD16R,2.032000X0.660400*%
%ADD17R,2.200000X0.600000*%
%ADD18R,1.200000X1.200000*%
%ADD19R,0.900000X1.200000*%
%ADD20R,1.200000X0.900000*%
%ADD21R,1.803000X1.600000*%
%ADD22R,1.600000X1.803000*%


D10*
X576580Y620370D03*
X576580Y601370D03*
D11*
X587400Y825500D03*
X606400Y825500D03*
X895960Y806450D03*
X876960Y806450D03*
D10*
X906780Y697840D03*
X906780Y678840D03*
D12*
X988060Y787370D03*
X988060Y815370D03*
D10*
X722630Y793090D03*
X722630Y774090D03*
D13*
X525940Y647700D03*
X545940Y647700D03*
D14*
X987200Y469900D03*
X943200Y469900D03*
D15*
X1117600Y600000D03*
X1117600Y670000D03*
X1248410Y600000D03*
X1248410Y670000D03*
D14*
X308200Y457200D03*
X352200Y457200D03*
X764540Y546960D03*
X764540Y590960D03*
D16*
X479806Y614680D03*
X541274Y614680D03*
X479806Y601980D03*
X479806Y589280D03*
X541274Y601980D03*
X541274Y589280D03*
X479806Y576580D03*
X541274Y576580D03*
X479806Y563880D03*
X541274Y563880D03*
X479806Y551180D03*
X479806Y538480D03*
X541274Y551180D03*
X541274Y538480D03*
X479806Y525780D03*
X541274Y525780D03*
D17*
X855380Y770890D03*
X907380Y770890D03*
X855380Y783590D03*
X855380Y758190D03*
X855380Y745490D03*
X907380Y783590D03*
X907380Y758190D03*
X907380Y745490D03*
D16*
X614934Y723900D03*
X553466Y723900D03*
X614934Y736600D03*
X614934Y749300D03*
X553466Y736600D03*
X553466Y749300D03*
X614934Y762000D03*
X553466Y762000D03*
X614934Y774700D03*
X614934Y787400D03*
X553466Y774700D03*
X553466Y787400D03*
X614934Y800100D03*
X553466Y800100D03*
D18*
X967400Y506730D03*
X988400Y506730D03*
X430530Y898230D03*
X430530Y877230D03*
X469900Y898230D03*
X469900Y877230D03*
X393700Y898230D03*
X393700Y877230D03*
D16*
X346456Y628650D03*
X407924Y628650D03*
X346456Y615950D03*
X346456Y603250D03*
X407924Y615950D03*
X407924Y603250D03*
X346456Y590550D03*
X407924Y590550D03*
D19*
X477520Y734760D03*
X468020Y758760D03*
X487020Y758760D03*
X626110Y648400D03*
X616610Y672400D03*
X635610Y672400D03*
X379730Y733490D03*
X370230Y757490D03*
X389230Y757490D03*
D20*
X419800Y457200D03*
X443800Y466700D03*
X443800Y447700D03*
D21*
X1231900Y293620D03*
X1231900Y265180D03*
D10*
X697230Y793090D03*
X697230Y774090D03*
X748030Y774090D03*
X748030Y793090D03*
X481330Y466700D03*
X481330Y447700D03*
D11*
X483260Y647700D03*
X502260Y647700D03*
D10*
X1026160Y488340D03*
X1026160Y507340D03*
X670560Y691490D03*
X670560Y672490D03*
X417830Y738530D03*
X417830Y757530D03*
X304800Y602590D03*
X304800Y583590D03*
D21*
X1282700Y293620D03*
X1282700Y265180D03*
D10*
X988060Y760070D03*
X988060Y741070D03*
X469900Y828700D03*
X469900Y847700D03*
X431800Y828700D03*
X431800Y847700D03*
X393700Y828700D03*
X393700Y847700D03*
X852170Y678840D03*
X852170Y697840D03*
X558800Y485800D03*
X558800Y504800D03*
D11*
X315570Y506730D03*
X296570Y506730D03*
D18*
X378800Y508000D03*
X357800Y508000D03*
D11*
X728370Y706120D03*
X747370Y706120D03*
D18*
X655320Y445430D03*
X655320Y466430D03*
D22*
X1601720Y711200D03*
X1573280Y711200D03*
X1601720Y736600D03*
X1573280Y736600D03*
M02*
