M48
;GenerationSoftware,Autodesk,EAGLE,9.2.2*%
;CreationDate,2019-01-12T13:05:04Z*%
FMAT,2
ICI,OFF
METRIC,TZ,000.000
T5C0.813
T4C0.890
T3C1.000
T2C1.016
T1C1.321
%
G90
M71
T1
X45720Y54610
X45720Y49530
T2
X12141Y15519
X5639Y5359
X12141Y5359
X5639Y20041
X12141Y9881
X12141Y20041
X5639Y9881
X5639Y15519
T3
X35560Y66040
X38100Y66040
X35560Y63500
X35560Y60960
X38100Y60960
X35560Y58420
X38100Y58420
X8890Y66040
X8890Y58420
X8890Y63500
X6350Y60960
X8890Y60960
X6350Y58420
X38100Y63500
X6350Y63500
X6350Y66040
T4
X37825Y30380
X37825Y35460
X37825Y38000
X37825Y40540
X37825Y43080
X32745Y43080
X13695Y43080
X8615Y43080
X8615Y40540
X13695Y35460
X8615Y35460
X8615Y30380
X32745Y30380
X32745Y38000
X13695Y30380
X32745Y35460
X32745Y40540
X13695Y38000
X13695Y40540
X8615Y38000
T5
X21590Y7620
X20320Y5715
X24130Y29210
X24130Y44450
X19050Y7620
X45720Y29210
X17780Y48260
X2540Y48260
X21590Y17780
X20320Y15875
X19050Y17780
X45720Y44450
X27940Y20320
X27940Y5080
X17780Y69850
X17780Y54610
X22860Y69850
X22860Y54610
X35560Y21590
X35560Y19050
X35560Y6350
X43180Y6350
X35560Y16510
X35560Y13970
X35560Y8890
X35560Y11430
X43180Y8890
X43180Y11430
X43180Y13970
X43180Y16510
X43180Y19050
X43180Y21590
M30