G04 EAGLE Gerber RS-274X export*
G75*
%MOMM*%
%FSLAX34Y34*%
%LPD*%
%INTop Copper*%
%IPPOS*%
%AMOC8*
5,1,8,0,0,1.08239X$1,22.5*%
G01*
%ADD10C,0.758950*%
%ADD11C,5.842000*%
%ADD12R,0.740000X2.220000*%
%ADD13C,0.609600*%
%ADD14C,0.152400*%


D10*
X1214408Y157945D02*
X1214408Y147755D01*
X1212854Y147755D01*
X1212854Y157945D01*
X1214408Y157945D01*
X1214408Y154965D02*
X1212854Y154965D01*
X1212854Y173155D02*
X1212854Y183345D01*
X1214408Y183345D01*
X1214408Y173155D01*
X1212854Y173155D01*
X1212854Y180365D02*
X1214408Y180365D01*
X1034408Y157945D02*
X1034408Y147755D01*
X1032854Y147755D01*
X1032854Y157945D01*
X1034408Y157945D01*
X1034408Y154965D02*
X1032854Y154965D01*
X1032854Y173155D02*
X1032854Y183345D01*
X1034408Y183345D01*
X1034408Y173155D01*
X1032854Y173155D01*
X1032854Y180365D02*
X1034408Y180365D01*
X736666Y157945D02*
X736666Y147755D01*
X735112Y147755D01*
X735112Y157945D01*
X736666Y157945D01*
X736666Y154965D02*
X735112Y154965D01*
X735112Y173155D02*
X735112Y183345D01*
X736666Y183345D01*
X736666Y173155D01*
X735112Y173155D01*
X735112Y180365D02*
X736666Y180365D01*
X555666Y158945D02*
X555666Y148755D01*
X554112Y148755D01*
X554112Y158945D01*
X555666Y158945D01*
X555666Y155965D02*
X554112Y155965D01*
X554112Y174155D02*
X554112Y184345D01*
X555666Y184345D01*
X555666Y174155D01*
X554112Y174155D01*
X554112Y181365D02*
X555666Y181365D01*
X276666Y157945D02*
X276666Y147755D01*
X275112Y147755D01*
X275112Y157945D01*
X276666Y157945D01*
X276666Y154965D02*
X275112Y154965D01*
X275112Y173155D02*
X275112Y183345D01*
X276666Y183345D01*
X276666Y173155D01*
X275112Y173155D01*
X275112Y180365D02*
X276666Y180365D01*
X96666Y158445D02*
X96666Y148255D01*
X95112Y148255D01*
X95112Y158445D01*
X96666Y158445D01*
X96666Y155465D02*
X95112Y155465D01*
X95112Y173655D02*
X95112Y183845D01*
X96666Y183845D01*
X96666Y173655D01*
X95112Y173655D01*
X95112Y180865D02*
X96666Y180865D01*
D11*
X670600Y786000D03*
X214000Y786700D03*
X1149300Y234000D03*
X670600Y236000D03*
D12*
X568100Y516350D03*
X555400Y516350D03*
X542700Y516350D03*
X530000Y516350D03*
X517300Y516350D03*
X504600Y516350D03*
X491900Y516350D03*
X568100Y543650D03*
X555400Y543650D03*
X542700Y543650D03*
X530000Y543650D03*
X517300Y543650D03*
X504600Y543650D03*
X491900Y543650D03*
X734600Y543650D03*
X747300Y543650D03*
X760000Y543650D03*
X772700Y543650D03*
X785400Y543650D03*
X734600Y516350D03*
X747300Y516350D03*
X760000Y516350D03*
X772700Y516350D03*
X785400Y516350D03*
D13*
X491900Y516350D02*
X491900Y335900D01*
X453000Y297000D01*
X82000Y297000D01*
X82000Y150000D01*
X82000Y25970D01*
X268429Y25970D01*
X540000Y25970D01*
X730000Y25970D01*
X1017551Y25970D01*
D14*
X1013631Y36355D01*
X1013631Y132850D01*
X1033631Y152850D01*
X275889Y102850D02*
X271520Y101520D01*
X275889Y102850D02*
X275889Y152850D01*
X95889Y153350D02*
X92539Y150000D01*
X82000Y150000D01*
X271520Y101520D02*
X271520Y95245D01*
X270118Y93844D01*
X270118Y27659D02*
X268429Y25970D01*
X270118Y27659D02*
X270118Y93844D01*
X540000Y140000D02*
X550000Y150000D01*
X540000Y140000D02*
X540000Y25970D01*
X551039Y150000D02*
X554889Y153850D01*
X551039Y150000D02*
X550000Y150000D01*
X735889Y152850D02*
X735889Y103155D01*
X726578Y93844D01*
X726578Y66156D01*
X730000Y62734D01*
X730000Y25970D01*
D13*
X1017551Y25970D02*
X1195970Y25970D01*
D14*
X1206578Y93844D02*
X1213631Y100897D01*
X1213631Y152850D01*
X1206578Y93844D02*
X1206578Y36578D01*
D13*
X1195970Y25970D01*
X747300Y312700D02*
X670600Y236000D01*
X747300Y312700D02*
X747300Y516350D01*
X1103300Y280000D02*
X1149300Y234000D01*
X785400Y354600D02*
X785400Y516350D01*
X860000Y280000D02*
X1103300Y280000D01*
X860000Y280000D02*
X785400Y354600D01*
X770000Y713600D02*
X670600Y786000D01*
X770000Y713600D02*
X770000Y540000D01*
X734600Y543650D02*
X538250Y740000D01*
X260700Y740000D02*
X214000Y786700D01*
X260700Y740000D02*
X538250Y740000D01*
D14*
X517300Y516350D02*
X517300Y347300D01*
X460000Y290000D01*
X90000Y290000D01*
X90000Y184639D02*
X95889Y178750D01*
X90000Y184639D02*
X90000Y290000D01*
X542700Y340000D02*
X542700Y516350D01*
X542700Y340000D02*
X542700Y338434D01*
X542700Y340000D02*
X482700Y280000D01*
X150000Y280000D01*
X150000Y255766D01*
X157422Y248344D01*
X157422Y220656D01*
X150000Y213234D01*
X150000Y140000D01*
X170000Y120000D01*
X260000Y120000D01*
X260000Y170000D01*
X268250Y178250D01*
X275889Y178250D01*
X568100Y348100D02*
X568100Y516350D01*
X568100Y348100D02*
X489422Y269422D01*
X349422Y269422D01*
X340000Y260000D01*
X340000Y80000D02*
X380000Y40000D01*
X520000Y40000D01*
X530000Y50000D01*
X530000Y160000D01*
X549250Y179250D01*
X554889Y179250D01*
X340000Y260000D02*
X340000Y80000D01*
X568100Y543650D02*
X570000Y545550D01*
X570000Y570000D01*
X600000Y200000D02*
X620000Y180000D01*
X600000Y570000D02*
X570000Y570000D01*
X600000Y570000D02*
X600000Y539346D01*
X601922Y537424D01*
X601922Y522576D01*
X600000Y520654D01*
X600000Y350000D02*
X520000Y270000D01*
X520000Y254766D01*
X524922Y249844D01*
X524922Y205078D02*
X530000Y200000D01*
X524922Y205078D02*
X524922Y249844D01*
X600000Y350000D02*
X600000Y520654D01*
X600000Y200000D02*
X530000Y200000D01*
X620000Y60000D02*
X640000Y40000D01*
X700000Y40000D01*
X720000Y60000D01*
X720000Y162361D02*
X735889Y178250D01*
X620000Y180000D02*
X620000Y60000D01*
X720000Y60000D02*
X720000Y162361D01*
X542700Y543650D02*
X540000Y546350D01*
X540000Y570000D01*
X514311Y570000D01*
X511263Y573048D01*
X456421Y573048D01*
X452684Y569311D01*
X452684Y315160D02*
X445840Y308316D01*
X70000Y308316D02*
X70000Y11684D01*
X452684Y315160D02*
X452684Y569311D01*
X445840Y308316D02*
X70000Y308316D01*
X70000Y11684D02*
X1230000Y11684D01*
X1280000Y61684D01*
X1280000Y183000D02*
X1261500Y201500D01*
X1280000Y183000D02*
X1280000Y61684D01*
X1190000Y40000D02*
X1190000Y170000D01*
X1026578Y93844D02*
X1026578Y66156D01*
X1026578Y93844D02*
X1030000Y97266D01*
X1026578Y66156D02*
X1052734Y40000D01*
X1030000Y131000D02*
X1046000Y147000D01*
X1046000Y165881D01*
X1033631Y178250D01*
X1190000Y170000D02*
X1222048Y202048D01*
X1190000Y40000D02*
X1052734Y40000D01*
X1030000Y97266D02*
X1030000Y131000D01*
X1260952Y202048D02*
X1261500Y201500D01*
X1260952Y202048D02*
X1222048Y202048D01*
X517300Y543650D02*
X517300Y562700D01*
X510000Y570000D01*
X457684Y570000D01*
X451982Y304316D02*
X76000Y304316D01*
X76000Y20000D01*
X76000Y17684D01*
X457684Y310018D02*
X457684Y570000D01*
X457684Y310018D02*
X451982Y304316D01*
X1273422Y93844D02*
X1273422Y66156D01*
X76636Y20636D02*
X76000Y20000D01*
X76636Y20636D02*
X1227902Y20636D01*
X1273422Y66156D01*
X1273422Y93844D02*
X1260000Y107266D01*
X1253000Y199000D02*
X1226000Y199000D01*
X1213631Y186631D01*
X1213631Y178250D01*
X1260000Y192000D02*
X1260000Y107266D01*
X1260000Y192000D02*
X1253000Y199000D01*
M02*
