G04 EAGLE Gerber RS-274X export*
G75*
%MOMM*%
%FSLAX34Y34*%
%LPD*%
%INSilkscreen Top*%
%IPPOS*%
%AMOC8*
5,1,8,0,0,1.08239X$1,22.5*%
G01*
%ADD10C,0.152400*%
%ADD11C,0.200000*%
%ADD12C,0.101600*%


D10*
X636310Y786000D02*
X636320Y786842D01*
X636351Y787683D01*
X636403Y788523D01*
X636475Y789361D01*
X636568Y790197D01*
X636681Y791031D01*
X636815Y791862D01*
X636969Y792690D01*
X637143Y793513D01*
X637338Y794332D01*
X637552Y795146D01*
X637787Y795954D01*
X638041Y796756D01*
X638314Y797552D01*
X638608Y798341D01*
X638920Y799122D01*
X639252Y799896D01*
X639602Y800661D01*
X639971Y801417D01*
X640359Y802164D01*
X640765Y802901D01*
X641188Y803629D01*
X641630Y804345D01*
X642089Y805051D01*
X642565Y805744D01*
X643058Y806427D01*
X643568Y807096D01*
X644093Y807753D01*
X644635Y808397D01*
X645193Y809028D01*
X645766Y809644D01*
X646353Y810247D01*
X646956Y810834D01*
X647572Y811407D01*
X648203Y811965D01*
X648847Y812507D01*
X649504Y813032D01*
X650173Y813542D01*
X650856Y814035D01*
X651549Y814511D01*
X652255Y814970D01*
X652971Y815412D01*
X653699Y815835D01*
X654436Y816241D01*
X655183Y816629D01*
X655939Y816998D01*
X656704Y817348D01*
X657478Y817680D01*
X658259Y817992D01*
X659048Y818286D01*
X659844Y818559D01*
X660646Y818813D01*
X661454Y819048D01*
X662268Y819262D01*
X663087Y819457D01*
X663910Y819631D01*
X664738Y819785D01*
X665569Y819919D01*
X666403Y820032D01*
X667239Y820125D01*
X668077Y820197D01*
X668917Y820249D01*
X669758Y820280D01*
X670600Y820290D01*
X671442Y820280D01*
X672283Y820249D01*
X673123Y820197D01*
X673961Y820125D01*
X674797Y820032D01*
X675631Y819919D01*
X676462Y819785D01*
X677290Y819631D01*
X678113Y819457D01*
X678932Y819262D01*
X679746Y819048D01*
X680554Y818813D01*
X681356Y818559D01*
X682152Y818286D01*
X682941Y817992D01*
X683722Y817680D01*
X684496Y817348D01*
X685261Y816998D01*
X686017Y816629D01*
X686764Y816241D01*
X687501Y815835D01*
X688229Y815412D01*
X688945Y814970D01*
X689651Y814511D01*
X690344Y814035D01*
X691027Y813542D01*
X691696Y813032D01*
X692353Y812507D01*
X692997Y811965D01*
X693628Y811407D01*
X694244Y810834D01*
X694847Y810247D01*
X695434Y809644D01*
X696007Y809028D01*
X696565Y808397D01*
X697107Y807753D01*
X697632Y807096D01*
X698142Y806427D01*
X698635Y805744D01*
X699111Y805051D01*
X699570Y804345D01*
X700012Y803629D01*
X700435Y802901D01*
X700841Y802164D01*
X701229Y801417D01*
X701598Y800661D01*
X701948Y799896D01*
X702280Y799122D01*
X702592Y798341D01*
X702886Y797552D01*
X703159Y796756D01*
X703413Y795954D01*
X703648Y795146D01*
X703862Y794332D01*
X704057Y793513D01*
X704231Y792690D01*
X704385Y791862D01*
X704519Y791031D01*
X704632Y790197D01*
X704725Y789361D01*
X704797Y788523D01*
X704849Y787683D01*
X704880Y786842D01*
X704890Y786000D01*
X704880Y785158D01*
X704849Y784317D01*
X704797Y783477D01*
X704725Y782639D01*
X704632Y781803D01*
X704519Y780969D01*
X704385Y780138D01*
X704231Y779310D01*
X704057Y778487D01*
X703862Y777668D01*
X703648Y776854D01*
X703413Y776046D01*
X703159Y775244D01*
X702886Y774448D01*
X702592Y773659D01*
X702280Y772878D01*
X701948Y772104D01*
X701598Y771339D01*
X701229Y770583D01*
X700841Y769836D01*
X700435Y769099D01*
X700012Y768371D01*
X699570Y767655D01*
X699111Y766949D01*
X698635Y766256D01*
X698142Y765573D01*
X697632Y764904D01*
X697107Y764247D01*
X696565Y763603D01*
X696007Y762972D01*
X695434Y762356D01*
X694847Y761753D01*
X694244Y761166D01*
X693628Y760593D01*
X692997Y760035D01*
X692353Y759493D01*
X691696Y758968D01*
X691027Y758458D01*
X690344Y757965D01*
X689651Y757489D01*
X688945Y757030D01*
X688229Y756588D01*
X687501Y756165D01*
X686764Y755759D01*
X686017Y755371D01*
X685261Y755002D01*
X684496Y754652D01*
X683722Y754320D01*
X682941Y754008D01*
X682152Y753714D01*
X681356Y753441D01*
X680554Y753187D01*
X679746Y752952D01*
X678932Y752738D01*
X678113Y752543D01*
X677290Y752369D01*
X676462Y752215D01*
X675631Y752081D01*
X674797Y751968D01*
X673961Y751875D01*
X673123Y751803D01*
X672283Y751751D01*
X671442Y751720D01*
X670600Y751710D01*
X669758Y751720D01*
X668917Y751751D01*
X668077Y751803D01*
X667239Y751875D01*
X666403Y751968D01*
X665569Y752081D01*
X664738Y752215D01*
X663910Y752369D01*
X663087Y752543D01*
X662268Y752738D01*
X661454Y752952D01*
X660646Y753187D01*
X659844Y753441D01*
X659048Y753714D01*
X658259Y754008D01*
X657478Y754320D01*
X656704Y754652D01*
X655939Y755002D01*
X655183Y755371D01*
X654436Y755759D01*
X653699Y756165D01*
X652971Y756588D01*
X652255Y757030D01*
X651549Y757489D01*
X650856Y757965D01*
X650173Y758458D01*
X649504Y758968D01*
X648847Y759493D01*
X648203Y760035D01*
X647572Y760593D01*
X646956Y761166D01*
X646353Y761753D01*
X645766Y762356D01*
X645193Y762972D01*
X644635Y763603D01*
X644093Y764247D01*
X643568Y764904D01*
X643058Y765573D01*
X642565Y766256D01*
X642089Y766949D01*
X641630Y767655D01*
X641188Y768371D01*
X640765Y769099D01*
X640359Y769836D01*
X639971Y770583D01*
X639602Y771339D01*
X639252Y772104D01*
X638920Y772878D01*
X638608Y773659D01*
X638314Y774448D01*
X638041Y775244D01*
X637787Y776046D01*
X637552Y776854D01*
X637338Y777668D01*
X637143Y778487D01*
X636969Y779310D01*
X636815Y780138D01*
X636681Y780969D01*
X636568Y781803D01*
X636475Y782639D01*
X636403Y783477D01*
X636351Y784317D01*
X636320Y785158D01*
X636310Y786000D01*
X653600Y786000D02*
X653605Y786417D01*
X653620Y786834D01*
X653646Y787251D01*
X653682Y787666D01*
X653728Y788081D01*
X653784Y788494D01*
X653850Y788906D01*
X653927Y789317D01*
X654013Y789725D01*
X654109Y790131D01*
X654216Y790534D01*
X654332Y790935D01*
X654458Y791333D01*
X654594Y791727D01*
X654739Y792118D01*
X654894Y792506D01*
X655058Y792889D01*
X655232Y793268D01*
X655415Y793643D01*
X655607Y794014D01*
X655809Y794379D01*
X656019Y794740D01*
X656237Y795095D01*
X656465Y795445D01*
X656701Y795789D01*
X656945Y796127D01*
X657198Y796459D01*
X657459Y796785D01*
X657727Y797104D01*
X658004Y797417D01*
X658288Y797722D01*
X658579Y798021D01*
X658878Y798312D01*
X659183Y798596D01*
X659496Y798873D01*
X659815Y799141D01*
X660141Y799402D01*
X660473Y799655D01*
X660811Y799899D01*
X661155Y800135D01*
X661505Y800363D01*
X661860Y800581D01*
X662221Y800791D01*
X662586Y800993D01*
X662957Y801185D01*
X663332Y801368D01*
X663711Y801542D01*
X664094Y801706D01*
X664482Y801861D01*
X664873Y802006D01*
X665267Y802142D01*
X665665Y802268D01*
X666066Y802384D01*
X666469Y802491D01*
X666875Y802587D01*
X667283Y802673D01*
X667694Y802750D01*
X668106Y802816D01*
X668519Y802872D01*
X668934Y802918D01*
X669349Y802954D01*
X669766Y802980D01*
X670183Y802995D01*
X670600Y803000D01*
X671017Y802995D01*
X671434Y802980D01*
X671851Y802954D01*
X672266Y802918D01*
X672681Y802872D01*
X673094Y802816D01*
X673506Y802750D01*
X673917Y802673D01*
X674325Y802587D01*
X674731Y802491D01*
X675134Y802384D01*
X675535Y802268D01*
X675933Y802142D01*
X676327Y802006D01*
X676718Y801861D01*
X677106Y801706D01*
X677489Y801542D01*
X677868Y801368D01*
X678243Y801185D01*
X678614Y800993D01*
X678979Y800791D01*
X679340Y800581D01*
X679695Y800363D01*
X680045Y800135D01*
X680389Y799899D01*
X680727Y799655D01*
X681059Y799402D01*
X681385Y799141D01*
X681704Y798873D01*
X682017Y798596D01*
X682322Y798312D01*
X682621Y798021D01*
X682912Y797722D01*
X683196Y797417D01*
X683473Y797104D01*
X683741Y796785D01*
X684002Y796459D01*
X684255Y796127D01*
X684499Y795789D01*
X684735Y795445D01*
X684963Y795095D01*
X685181Y794740D01*
X685391Y794379D01*
X685593Y794014D01*
X685785Y793643D01*
X685968Y793268D01*
X686142Y792889D01*
X686306Y792506D01*
X686461Y792118D01*
X686606Y791727D01*
X686742Y791333D01*
X686868Y790935D01*
X686984Y790534D01*
X687091Y790131D01*
X687187Y789725D01*
X687273Y789317D01*
X687350Y788906D01*
X687416Y788494D01*
X687472Y788081D01*
X687518Y787666D01*
X687554Y787251D01*
X687580Y786834D01*
X687595Y786417D01*
X687600Y786000D01*
X687595Y785583D01*
X687580Y785166D01*
X687554Y784749D01*
X687518Y784334D01*
X687472Y783919D01*
X687416Y783506D01*
X687350Y783094D01*
X687273Y782683D01*
X687187Y782275D01*
X687091Y781869D01*
X686984Y781466D01*
X686868Y781065D01*
X686742Y780667D01*
X686606Y780273D01*
X686461Y779882D01*
X686306Y779494D01*
X686142Y779111D01*
X685968Y778732D01*
X685785Y778357D01*
X685593Y777986D01*
X685391Y777621D01*
X685181Y777260D01*
X684963Y776905D01*
X684735Y776555D01*
X684499Y776211D01*
X684255Y775873D01*
X684002Y775541D01*
X683741Y775215D01*
X683473Y774896D01*
X683196Y774583D01*
X682912Y774278D01*
X682621Y773979D01*
X682322Y773688D01*
X682017Y773404D01*
X681704Y773127D01*
X681385Y772859D01*
X681059Y772598D01*
X680727Y772345D01*
X680389Y772101D01*
X680045Y771865D01*
X679695Y771637D01*
X679340Y771419D01*
X678979Y771209D01*
X678614Y771007D01*
X678243Y770815D01*
X677868Y770632D01*
X677489Y770458D01*
X677106Y770294D01*
X676718Y770139D01*
X676327Y769994D01*
X675933Y769858D01*
X675535Y769732D01*
X675134Y769616D01*
X674731Y769509D01*
X674325Y769413D01*
X673917Y769327D01*
X673506Y769250D01*
X673094Y769184D01*
X672681Y769128D01*
X672266Y769082D01*
X671851Y769046D01*
X671434Y769020D01*
X671017Y769005D01*
X670600Y769000D01*
X670183Y769005D01*
X669766Y769020D01*
X669349Y769046D01*
X668934Y769082D01*
X668519Y769128D01*
X668106Y769184D01*
X667694Y769250D01*
X667283Y769327D01*
X666875Y769413D01*
X666469Y769509D01*
X666066Y769616D01*
X665665Y769732D01*
X665267Y769858D01*
X664873Y769994D01*
X664482Y770139D01*
X664094Y770294D01*
X663711Y770458D01*
X663332Y770632D01*
X662957Y770815D01*
X662586Y771007D01*
X662221Y771209D01*
X661860Y771419D01*
X661505Y771637D01*
X661155Y771865D01*
X660811Y772101D01*
X660473Y772345D01*
X660141Y772598D01*
X659815Y772859D01*
X659496Y773127D01*
X659183Y773404D01*
X658878Y773688D01*
X658579Y773979D01*
X658288Y774278D01*
X658004Y774583D01*
X657727Y774896D01*
X657459Y775215D01*
X657198Y775541D01*
X656945Y775873D01*
X656701Y776211D01*
X656465Y776555D01*
X656237Y776905D01*
X656019Y777260D01*
X655809Y777621D01*
X655607Y777986D01*
X655415Y778357D01*
X655232Y778732D01*
X655058Y779111D01*
X654894Y779494D01*
X654739Y779882D01*
X654594Y780273D01*
X654458Y780667D01*
X654332Y781065D01*
X654216Y781466D01*
X654109Y781869D01*
X654013Y782275D01*
X653927Y782683D01*
X653850Y783094D01*
X653784Y783506D01*
X653728Y783919D01*
X653682Y784334D01*
X653646Y784749D01*
X653620Y785166D01*
X653605Y785583D01*
X653600Y786000D01*
X179710Y786700D02*
X179720Y787542D01*
X179751Y788383D01*
X179803Y789223D01*
X179875Y790061D01*
X179968Y790897D01*
X180081Y791731D01*
X180215Y792562D01*
X180369Y793390D01*
X180543Y794213D01*
X180738Y795032D01*
X180952Y795846D01*
X181187Y796654D01*
X181441Y797456D01*
X181714Y798252D01*
X182008Y799041D01*
X182320Y799822D01*
X182652Y800596D01*
X183002Y801361D01*
X183371Y802117D01*
X183759Y802864D01*
X184165Y803601D01*
X184588Y804329D01*
X185030Y805045D01*
X185489Y805751D01*
X185965Y806444D01*
X186458Y807127D01*
X186968Y807796D01*
X187493Y808453D01*
X188035Y809097D01*
X188593Y809728D01*
X189166Y810344D01*
X189753Y810947D01*
X190356Y811534D01*
X190972Y812107D01*
X191603Y812665D01*
X192247Y813207D01*
X192904Y813732D01*
X193573Y814242D01*
X194256Y814735D01*
X194949Y815211D01*
X195655Y815670D01*
X196371Y816112D01*
X197099Y816535D01*
X197836Y816941D01*
X198583Y817329D01*
X199339Y817698D01*
X200104Y818048D01*
X200878Y818380D01*
X201659Y818692D01*
X202448Y818986D01*
X203244Y819259D01*
X204046Y819513D01*
X204854Y819748D01*
X205668Y819962D01*
X206487Y820157D01*
X207310Y820331D01*
X208138Y820485D01*
X208969Y820619D01*
X209803Y820732D01*
X210639Y820825D01*
X211477Y820897D01*
X212317Y820949D01*
X213158Y820980D01*
X214000Y820990D01*
X214842Y820980D01*
X215683Y820949D01*
X216523Y820897D01*
X217361Y820825D01*
X218197Y820732D01*
X219031Y820619D01*
X219862Y820485D01*
X220690Y820331D01*
X221513Y820157D01*
X222332Y819962D01*
X223146Y819748D01*
X223954Y819513D01*
X224756Y819259D01*
X225552Y818986D01*
X226341Y818692D01*
X227122Y818380D01*
X227896Y818048D01*
X228661Y817698D01*
X229417Y817329D01*
X230164Y816941D01*
X230901Y816535D01*
X231629Y816112D01*
X232345Y815670D01*
X233051Y815211D01*
X233744Y814735D01*
X234427Y814242D01*
X235096Y813732D01*
X235753Y813207D01*
X236397Y812665D01*
X237028Y812107D01*
X237644Y811534D01*
X238247Y810947D01*
X238834Y810344D01*
X239407Y809728D01*
X239965Y809097D01*
X240507Y808453D01*
X241032Y807796D01*
X241542Y807127D01*
X242035Y806444D01*
X242511Y805751D01*
X242970Y805045D01*
X243412Y804329D01*
X243835Y803601D01*
X244241Y802864D01*
X244629Y802117D01*
X244998Y801361D01*
X245348Y800596D01*
X245680Y799822D01*
X245992Y799041D01*
X246286Y798252D01*
X246559Y797456D01*
X246813Y796654D01*
X247048Y795846D01*
X247262Y795032D01*
X247457Y794213D01*
X247631Y793390D01*
X247785Y792562D01*
X247919Y791731D01*
X248032Y790897D01*
X248125Y790061D01*
X248197Y789223D01*
X248249Y788383D01*
X248280Y787542D01*
X248290Y786700D01*
X248280Y785858D01*
X248249Y785017D01*
X248197Y784177D01*
X248125Y783339D01*
X248032Y782503D01*
X247919Y781669D01*
X247785Y780838D01*
X247631Y780010D01*
X247457Y779187D01*
X247262Y778368D01*
X247048Y777554D01*
X246813Y776746D01*
X246559Y775944D01*
X246286Y775148D01*
X245992Y774359D01*
X245680Y773578D01*
X245348Y772804D01*
X244998Y772039D01*
X244629Y771283D01*
X244241Y770536D01*
X243835Y769799D01*
X243412Y769071D01*
X242970Y768355D01*
X242511Y767649D01*
X242035Y766956D01*
X241542Y766273D01*
X241032Y765604D01*
X240507Y764947D01*
X239965Y764303D01*
X239407Y763672D01*
X238834Y763056D01*
X238247Y762453D01*
X237644Y761866D01*
X237028Y761293D01*
X236397Y760735D01*
X235753Y760193D01*
X235096Y759668D01*
X234427Y759158D01*
X233744Y758665D01*
X233051Y758189D01*
X232345Y757730D01*
X231629Y757288D01*
X230901Y756865D01*
X230164Y756459D01*
X229417Y756071D01*
X228661Y755702D01*
X227896Y755352D01*
X227122Y755020D01*
X226341Y754708D01*
X225552Y754414D01*
X224756Y754141D01*
X223954Y753887D01*
X223146Y753652D01*
X222332Y753438D01*
X221513Y753243D01*
X220690Y753069D01*
X219862Y752915D01*
X219031Y752781D01*
X218197Y752668D01*
X217361Y752575D01*
X216523Y752503D01*
X215683Y752451D01*
X214842Y752420D01*
X214000Y752410D01*
X213158Y752420D01*
X212317Y752451D01*
X211477Y752503D01*
X210639Y752575D01*
X209803Y752668D01*
X208969Y752781D01*
X208138Y752915D01*
X207310Y753069D01*
X206487Y753243D01*
X205668Y753438D01*
X204854Y753652D01*
X204046Y753887D01*
X203244Y754141D01*
X202448Y754414D01*
X201659Y754708D01*
X200878Y755020D01*
X200104Y755352D01*
X199339Y755702D01*
X198583Y756071D01*
X197836Y756459D01*
X197099Y756865D01*
X196371Y757288D01*
X195655Y757730D01*
X194949Y758189D01*
X194256Y758665D01*
X193573Y759158D01*
X192904Y759668D01*
X192247Y760193D01*
X191603Y760735D01*
X190972Y761293D01*
X190356Y761866D01*
X189753Y762453D01*
X189166Y763056D01*
X188593Y763672D01*
X188035Y764303D01*
X187493Y764947D01*
X186968Y765604D01*
X186458Y766273D01*
X185965Y766956D01*
X185489Y767649D01*
X185030Y768355D01*
X184588Y769071D01*
X184165Y769799D01*
X183759Y770536D01*
X183371Y771283D01*
X183002Y772039D01*
X182652Y772804D01*
X182320Y773578D01*
X182008Y774359D01*
X181714Y775148D01*
X181441Y775944D01*
X181187Y776746D01*
X180952Y777554D01*
X180738Y778368D01*
X180543Y779187D01*
X180369Y780010D01*
X180215Y780838D01*
X180081Y781669D01*
X179968Y782503D01*
X179875Y783339D01*
X179803Y784177D01*
X179751Y785017D01*
X179720Y785858D01*
X179710Y786700D01*
X197000Y786700D02*
X197005Y787117D01*
X197020Y787534D01*
X197046Y787951D01*
X197082Y788366D01*
X197128Y788781D01*
X197184Y789194D01*
X197250Y789606D01*
X197327Y790017D01*
X197413Y790425D01*
X197509Y790831D01*
X197616Y791234D01*
X197732Y791635D01*
X197858Y792033D01*
X197994Y792427D01*
X198139Y792818D01*
X198294Y793206D01*
X198458Y793589D01*
X198632Y793968D01*
X198815Y794343D01*
X199007Y794714D01*
X199209Y795079D01*
X199419Y795440D01*
X199637Y795795D01*
X199865Y796145D01*
X200101Y796489D01*
X200345Y796827D01*
X200598Y797159D01*
X200859Y797485D01*
X201127Y797804D01*
X201404Y798117D01*
X201688Y798422D01*
X201979Y798721D01*
X202278Y799012D01*
X202583Y799296D01*
X202896Y799573D01*
X203215Y799841D01*
X203541Y800102D01*
X203873Y800355D01*
X204211Y800599D01*
X204555Y800835D01*
X204905Y801063D01*
X205260Y801281D01*
X205621Y801491D01*
X205986Y801693D01*
X206357Y801885D01*
X206732Y802068D01*
X207111Y802242D01*
X207494Y802406D01*
X207882Y802561D01*
X208273Y802706D01*
X208667Y802842D01*
X209065Y802968D01*
X209466Y803084D01*
X209869Y803191D01*
X210275Y803287D01*
X210683Y803373D01*
X211094Y803450D01*
X211506Y803516D01*
X211919Y803572D01*
X212334Y803618D01*
X212749Y803654D01*
X213166Y803680D01*
X213583Y803695D01*
X214000Y803700D01*
X214417Y803695D01*
X214834Y803680D01*
X215251Y803654D01*
X215666Y803618D01*
X216081Y803572D01*
X216494Y803516D01*
X216906Y803450D01*
X217317Y803373D01*
X217725Y803287D01*
X218131Y803191D01*
X218534Y803084D01*
X218935Y802968D01*
X219333Y802842D01*
X219727Y802706D01*
X220118Y802561D01*
X220506Y802406D01*
X220889Y802242D01*
X221268Y802068D01*
X221643Y801885D01*
X222014Y801693D01*
X222379Y801491D01*
X222740Y801281D01*
X223095Y801063D01*
X223445Y800835D01*
X223789Y800599D01*
X224127Y800355D01*
X224459Y800102D01*
X224785Y799841D01*
X225104Y799573D01*
X225417Y799296D01*
X225722Y799012D01*
X226021Y798721D01*
X226312Y798422D01*
X226596Y798117D01*
X226873Y797804D01*
X227141Y797485D01*
X227402Y797159D01*
X227655Y796827D01*
X227899Y796489D01*
X228135Y796145D01*
X228363Y795795D01*
X228581Y795440D01*
X228791Y795079D01*
X228993Y794714D01*
X229185Y794343D01*
X229368Y793968D01*
X229542Y793589D01*
X229706Y793206D01*
X229861Y792818D01*
X230006Y792427D01*
X230142Y792033D01*
X230268Y791635D01*
X230384Y791234D01*
X230491Y790831D01*
X230587Y790425D01*
X230673Y790017D01*
X230750Y789606D01*
X230816Y789194D01*
X230872Y788781D01*
X230918Y788366D01*
X230954Y787951D01*
X230980Y787534D01*
X230995Y787117D01*
X231000Y786700D01*
X230995Y786283D01*
X230980Y785866D01*
X230954Y785449D01*
X230918Y785034D01*
X230872Y784619D01*
X230816Y784206D01*
X230750Y783794D01*
X230673Y783383D01*
X230587Y782975D01*
X230491Y782569D01*
X230384Y782166D01*
X230268Y781765D01*
X230142Y781367D01*
X230006Y780973D01*
X229861Y780582D01*
X229706Y780194D01*
X229542Y779811D01*
X229368Y779432D01*
X229185Y779057D01*
X228993Y778686D01*
X228791Y778321D01*
X228581Y777960D01*
X228363Y777605D01*
X228135Y777255D01*
X227899Y776911D01*
X227655Y776573D01*
X227402Y776241D01*
X227141Y775915D01*
X226873Y775596D01*
X226596Y775283D01*
X226312Y774978D01*
X226021Y774679D01*
X225722Y774388D01*
X225417Y774104D01*
X225104Y773827D01*
X224785Y773559D01*
X224459Y773298D01*
X224127Y773045D01*
X223789Y772801D01*
X223445Y772565D01*
X223095Y772337D01*
X222740Y772119D01*
X222379Y771909D01*
X222014Y771707D01*
X221643Y771515D01*
X221268Y771332D01*
X220889Y771158D01*
X220506Y770994D01*
X220118Y770839D01*
X219727Y770694D01*
X219333Y770558D01*
X218935Y770432D01*
X218534Y770316D01*
X218131Y770209D01*
X217725Y770113D01*
X217317Y770027D01*
X216906Y769950D01*
X216494Y769884D01*
X216081Y769828D01*
X215666Y769782D01*
X215251Y769746D01*
X214834Y769720D01*
X214417Y769705D01*
X214000Y769700D01*
X213583Y769705D01*
X213166Y769720D01*
X212749Y769746D01*
X212334Y769782D01*
X211919Y769828D01*
X211506Y769884D01*
X211094Y769950D01*
X210683Y770027D01*
X210275Y770113D01*
X209869Y770209D01*
X209466Y770316D01*
X209065Y770432D01*
X208667Y770558D01*
X208273Y770694D01*
X207882Y770839D01*
X207494Y770994D01*
X207111Y771158D01*
X206732Y771332D01*
X206357Y771515D01*
X205986Y771707D01*
X205621Y771909D01*
X205260Y772119D01*
X204905Y772337D01*
X204555Y772565D01*
X204211Y772801D01*
X203873Y773045D01*
X203541Y773298D01*
X203215Y773559D01*
X202896Y773827D01*
X202583Y774104D01*
X202278Y774388D01*
X201979Y774679D01*
X201688Y774978D01*
X201404Y775283D01*
X201127Y775596D01*
X200859Y775915D01*
X200598Y776241D01*
X200345Y776573D01*
X200101Y776911D01*
X199865Y777255D01*
X199637Y777605D01*
X199419Y777960D01*
X199209Y778321D01*
X199007Y778686D01*
X198815Y779057D01*
X198632Y779432D01*
X198458Y779811D01*
X198294Y780194D01*
X198139Y780582D01*
X197994Y780973D01*
X197858Y781367D01*
X197732Y781765D01*
X197616Y782166D01*
X197509Y782569D01*
X197413Y782975D01*
X197327Y783383D01*
X197250Y783794D01*
X197184Y784206D01*
X197128Y784619D01*
X197082Y785034D01*
X197046Y785449D01*
X197020Y785866D01*
X197005Y786283D01*
X197000Y786700D01*
X1115010Y234000D02*
X1115020Y234842D01*
X1115051Y235683D01*
X1115103Y236523D01*
X1115175Y237361D01*
X1115268Y238197D01*
X1115381Y239031D01*
X1115515Y239862D01*
X1115669Y240690D01*
X1115843Y241513D01*
X1116038Y242332D01*
X1116252Y243146D01*
X1116487Y243954D01*
X1116741Y244756D01*
X1117014Y245552D01*
X1117308Y246341D01*
X1117620Y247122D01*
X1117952Y247896D01*
X1118302Y248661D01*
X1118671Y249417D01*
X1119059Y250164D01*
X1119465Y250901D01*
X1119888Y251629D01*
X1120330Y252345D01*
X1120789Y253051D01*
X1121265Y253744D01*
X1121758Y254427D01*
X1122268Y255096D01*
X1122793Y255753D01*
X1123335Y256397D01*
X1123893Y257028D01*
X1124466Y257644D01*
X1125053Y258247D01*
X1125656Y258834D01*
X1126272Y259407D01*
X1126903Y259965D01*
X1127547Y260507D01*
X1128204Y261032D01*
X1128873Y261542D01*
X1129556Y262035D01*
X1130249Y262511D01*
X1130955Y262970D01*
X1131671Y263412D01*
X1132399Y263835D01*
X1133136Y264241D01*
X1133883Y264629D01*
X1134639Y264998D01*
X1135404Y265348D01*
X1136178Y265680D01*
X1136959Y265992D01*
X1137748Y266286D01*
X1138544Y266559D01*
X1139346Y266813D01*
X1140154Y267048D01*
X1140968Y267262D01*
X1141787Y267457D01*
X1142610Y267631D01*
X1143438Y267785D01*
X1144269Y267919D01*
X1145103Y268032D01*
X1145939Y268125D01*
X1146777Y268197D01*
X1147617Y268249D01*
X1148458Y268280D01*
X1149300Y268290D01*
X1150142Y268280D01*
X1150983Y268249D01*
X1151823Y268197D01*
X1152661Y268125D01*
X1153497Y268032D01*
X1154331Y267919D01*
X1155162Y267785D01*
X1155990Y267631D01*
X1156813Y267457D01*
X1157632Y267262D01*
X1158446Y267048D01*
X1159254Y266813D01*
X1160056Y266559D01*
X1160852Y266286D01*
X1161641Y265992D01*
X1162422Y265680D01*
X1163196Y265348D01*
X1163961Y264998D01*
X1164717Y264629D01*
X1165464Y264241D01*
X1166201Y263835D01*
X1166929Y263412D01*
X1167645Y262970D01*
X1168351Y262511D01*
X1169044Y262035D01*
X1169727Y261542D01*
X1170396Y261032D01*
X1171053Y260507D01*
X1171697Y259965D01*
X1172328Y259407D01*
X1172944Y258834D01*
X1173547Y258247D01*
X1174134Y257644D01*
X1174707Y257028D01*
X1175265Y256397D01*
X1175807Y255753D01*
X1176332Y255096D01*
X1176842Y254427D01*
X1177335Y253744D01*
X1177811Y253051D01*
X1178270Y252345D01*
X1178712Y251629D01*
X1179135Y250901D01*
X1179541Y250164D01*
X1179929Y249417D01*
X1180298Y248661D01*
X1180648Y247896D01*
X1180980Y247122D01*
X1181292Y246341D01*
X1181586Y245552D01*
X1181859Y244756D01*
X1182113Y243954D01*
X1182348Y243146D01*
X1182562Y242332D01*
X1182757Y241513D01*
X1182931Y240690D01*
X1183085Y239862D01*
X1183219Y239031D01*
X1183332Y238197D01*
X1183425Y237361D01*
X1183497Y236523D01*
X1183549Y235683D01*
X1183580Y234842D01*
X1183590Y234000D01*
X1183580Y233158D01*
X1183549Y232317D01*
X1183497Y231477D01*
X1183425Y230639D01*
X1183332Y229803D01*
X1183219Y228969D01*
X1183085Y228138D01*
X1182931Y227310D01*
X1182757Y226487D01*
X1182562Y225668D01*
X1182348Y224854D01*
X1182113Y224046D01*
X1181859Y223244D01*
X1181586Y222448D01*
X1181292Y221659D01*
X1180980Y220878D01*
X1180648Y220104D01*
X1180298Y219339D01*
X1179929Y218583D01*
X1179541Y217836D01*
X1179135Y217099D01*
X1178712Y216371D01*
X1178270Y215655D01*
X1177811Y214949D01*
X1177335Y214256D01*
X1176842Y213573D01*
X1176332Y212904D01*
X1175807Y212247D01*
X1175265Y211603D01*
X1174707Y210972D01*
X1174134Y210356D01*
X1173547Y209753D01*
X1172944Y209166D01*
X1172328Y208593D01*
X1171697Y208035D01*
X1171053Y207493D01*
X1170396Y206968D01*
X1169727Y206458D01*
X1169044Y205965D01*
X1168351Y205489D01*
X1167645Y205030D01*
X1166929Y204588D01*
X1166201Y204165D01*
X1165464Y203759D01*
X1164717Y203371D01*
X1163961Y203002D01*
X1163196Y202652D01*
X1162422Y202320D01*
X1161641Y202008D01*
X1160852Y201714D01*
X1160056Y201441D01*
X1159254Y201187D01*
X1158446Y200952D01*
X1157632Y200738D01*
X1156813Y200543D01*
X1155990Y200369D01*
X1155162Y200215D01*
X1154331Y200081D01*
X1153497Y199968D01*
X1152661Y199875D01*
X1151823Y199803D01*
X1150983Y199751D01*
X1150142Y199720D01*
X1149300Y199710D01*
X1148458Y199720D01*
X1147617Y199751D01*
X1146777Y199803D01*
X1145939Y199875D01*
X1145103Y199968D01*
X1144269Y200081D01*
X1143438Y200215D01*
X1142610Y200369D01*
X1141787Y200543D01*
X1140968Y200738D01*
X1140154Y200952D01*
X1139346Y201187D01*
X1138544Y201441D01*
X1137748Y201714D01*
X1136959Y202008D01*
X1136178Y202320D01*
X1135404Y202652D01*
X1134639Y203002D01*
X1133883Y203371D01*
X1133136Y203759D01*
X1132399Y204165D01*
X1131671Y204588D01*
X1130955Y205030D01*
X1130249Y205489D01*
X1129556Y205965D01*
X1128873Y206458D01*
X1128204Y206968D01*
X1127547Y207493D01*
X1126903Y208035D01*
X1126272Y208593D01*
X1125656Y209166D01*
X1125053Y209753D01*
X1124466Y210356D01*
X1123893Y210972D01*
X1123335Y211603D01*
X1122793Y212247D01*
X1122268Y212904D01*
X1121758Y213573D01*
X1121265Y214256D01*
X1120789Y214949D01*
X1120330Y215655D01*
X1119888Y216371D01*
X1119465Y217099D01*
X1119059Y217836D01*
X1118671Y218583D01*
X1118302Y219339D01*
X1117952Y220104D01*
X1117620Y220878D01*
X1117308Y221659D01*
X1117014Y222448D01*
X1116741Y223244D01*
X1116487Y224046D01*
X1116252Y224854D01*
X1116038Y225668D01*
X1115843Y226487D01*
X1115669Y227310D01*
X1115515Y228138D01*
X1115381Y228969D01*
X1115268Y229803D01*
X1115175Y230639D01*
X1115103Y231477D01*
X1115051Y232317D01*
X1115020Y233158D01*
X1115010Y234000D01*
X1132300Y234000D02*
X1132305Y234417D01*
X1132320Y234834D01*
X1132346Y235251D01*
X1132382Y235666D01*
X1132428Y236081D01*
X1132484Y236494D01*
X1132550Y236906D01*
X1132627Y237317D01*
X1132713Y237725D01*
X1132809Y238131D01*
X1132916Y238534D01*
X1133032Y238935D01*
X1133158Y239333D01*
X1133294Y239727D01*
X1133439Y240118D01*
X1133594Y240506D01*
X1133758Y240889D01*
X1133932Y241268D01*
X1134115Y241643D01*
X1134307Y242014D01*
X1134509Y242379D01*
X1134719Y242740D01*
X1134937Y243095D01*
X1135165Y243445D01*
X1135401Y243789D01*
X1135645Y244127D01*
X1135898Y244459D01*
X1136159Y244785D01*
X1136427Y245104D01*
X1136704Y245417D01*
X1136988Y245722D01*
X1137279Y246021D01*
X1137578Y246312D01*
X1137883Y246596D01*
X1138196Y246873D01*
X1138515Y247141D01*
X1138841Y247402D01*
X1139173Y247655D01*
X1139511Y247899D01*
X1139855Y248135D01*
X1140205Y248363D01*
X1140560Y248581D01*
X1140921Y248791D01*
X1141286Y248993D01*
X1141657Y249185D01*
X1142032Y249368D01*
X1142411Y249542D01*
X1142794Y249706D01*
X1143182Y249861D01*
X1143573Y250006D01*
X1143967Y250142D01*
X1144365Y250268D01*
X1144766Y250384D01*
X1145169Y250491D01*
X1145575Y250587D01*
X1145983Y250673D01*
X1146394Y250750D01*
X1146806Y250816D01*
X1147219Y250872D01*
X1147634Y250918D01*
X1148049Y250954D01*
X1148466Y250980D01*
X1148883Y250995D01*
X1149300Y251000D01*
X1149717Y250995D01*
X1150134Y250980D01*
X1150551Y250954D01*
X1150966Y250918D01*
X1151381Y250872D01*
X1151794Y250816D01*
X1152206Y250750D01*
X1152617Y250673D01*
X1153025Y250587D01*
X1153431Y250491D01*
X1153834Y250384D01*
X1154235Y250268D01*
X1154633Y250142D01*
X1155027Y250006D01*
X1155418Y249861D01*
X1155806Y249706D01*
X1156189Y249542D01*
X1156568Y249368D01*
X1156943Y249185D01*
X1157314Y248993D01*
X1157679Y248791D01*
X1158040Y248581D01*
X1158395Y248363D01*
X1158745Y248135D01*
X1159089Y247899D01*
X1159427Y247655D01*
X1159759Y247402D01*
X1160085Y247141D01*
X1160404Y246873D01*
X1160717Y246596D01*
X1161022Y246312D01*
X1161321Y246021D01*
X1161612Y245722D01*
X1161896Y245417D01*
X1162173Y245104D01*
X1162441Y244785D01*
X1162702Y244459D01*
X1162955Y244127D01*
X1163199Y243789D01*
X1163435Y243445D01*
X1163663Y243095D01*
X1163881Y242740D01*
X1164091Y242379D01*
X1164293Y242014D01*
X1164485Y241643D01*
X1164668Y241268D01*
X1164842Y240889D01*
X1165006Y240506D01*
X1165161Y240118D01*
X1165306Y239727D01*
X1165442Y239333D01*
X1165568Y238935D01*
X1165684Y238534D01*
X1165791Y238131D01*
X1165887Y237725D01*
X1165973Y237317D01*
X1166050Y236906D01*
X1166116Y236494D01*
X1166172Y236081D01*
X1166218Y235666D01*
X1166254Y235251D01*
X1166280Y234834D01*
X1166295Y234417D01*
X1166300Y234000D01*
X1166295Y233583D01*
X1166280Y233166D01*
X1166254Y232749D01*
X1166218Y232334D01*
X1166172Y231919D01*
X1166116Y231506D01*
X1166050Y231094D01*
X1165973Y230683D01*
X1165887Y230275D01*
X1165791Y229869D01*
X1165684Y229466D01*
X1165568Y229065D01*
X1165442Y228667D01*
X1165306Y228273D01*
X1165161Y227882D01*
X1165006Y227494D01*
X1164842Y227111D01*
X1164668Y226732D01*
X1164485Y226357D01*
X1164293Y225986D01*
X1164091Y225621D01*
X1163881Y225260D01*
X1163663Y224905D01*
X1163435Y224555D01*
X1163199Y224211D01*
X1162955Y223873D01*
X1162702Y223541D01*
X1162441Y223215D01*
X1162173Y222896D01*
X1161896Y222583D01*
X1161612Y222278D01*
X1161321Y221979D01*
X1161022Y221688D01*
X1160717Y221404D01*
X1160404Y221127D01*
X1160085Y220859D01*
X1159759Y220598D01*
X1159427Y220345D01*
X1159089Y220101D01*
X1158745Y219865D01*
X1158395Y219637D01*
X1158040Y219419D01*
X1157679Y219209D01*
X1157314Y219007D01*
X1156943Y218815D01*
X1156568Y218632D01*
X1156189Y218458D01*
X1155806Y218294D01*
X1155418Y218139D01*
X1155027Y217994D01*
X1154633Y217858D01*
X1154235Y217732D01*
X1153834Y217616D01*
X1153431Y217509D01*
X1153025Y217413D01*
X1152617Y217327D01*
X1152206Y217250D01*
X1151794Y217184D01*
X1151381Y217128D01*
X1150966Y217082D01*
X1150551Y217046D01*
X1150134Y217020D01*
X1149717Y217005D01*
X1149300Y217000D01*
X1148883Y217005D01*
X1148466Y217020D01*
X1148049Y217046D01*
X1147634Y217082D01*
X1147219Y217128D01*
X1146806Y217184D01*
X1146394Y217250D01*
X1145983Y217327D01*
X1145575Y217413D01*
X1145169Y217509D01*
X1144766Y217616D01*
X1144365Y217732D01*
X1143967Y217858D01*
X1143573Y217994D01*
X1143182Y218139D01*
X1142794Y218294D01*
X1142411Y218458D01*
X1142032Y218632D01*
X1141657Y218815D01*
X1141286Y219007D01*
X1140921Y219209D01*
X1140560Y219419D01*
X1140205Y219637D01*
X1139855Y219865D01*
X1139511Y220101D01*
X1139173Y220345D01*
X1138841Y220598D01*
X1138515Y220859D01*
X1138196Y221127D01*
X1137883Y221404D01*
X1137578Y221688D01*
X1137279Y221979D01*
X1136988Y222278D01*
X1136704Y222583D01*
X1136427Y222896D01*
X1136159Y223215D01*
X1135898Y223541D01*
X1135645Y223873D01*
X1135401Y224211D01*
X1135165Y224555D01*
X1134937Y224905D01*
X1134719Y225260D01*
X1134509Y225621D01*
X1134307Y225986D01*
X1134115Y226357D01*
X1133932Y226732D01*
X1133758Y227111D01*
X1133594Y227494D01*
X1133439Y227882D01*
X1133294Y228273D01*
X1133158Y228667D01*
X1133032Y229065D01*
X1132916Y229466D01*
X1132809Y229869D01*
X1132713Y230275D01*
X1132627Y230683D01*
X1132550Y231094D01*
X1132484Y231506D01*
X1132428Y231919D01*
X1132382Y232334D01*
X1132346Y232749D01*
X1132320Y233166D01*
X1132305Y233583D01*
X1132300Y234000D01*
X636310Y236000D02*
X636320Y236842D01*
X636351Y237683D01*
X636403Y238523D01*
X636475Y239361D01*
X636568Y240197D01*
X636681Y241031D01*
X636815Y241862D01*
X636969Y242690D01*
X637143Y243513D01*
X637338Y244332D01*
X637552Y245146D01*
X637787Y245954D01*
X638041Y246756D01*
X638314Y247552D01*
X638608Y248341D01*
X638920Y249122D01*
X639252Y249896D01*
X639602Y250661D01*
X639971Y251417D01*
X640359Y252164D01*
X640765Y252901D01*
X641188Y253629D01*
X641630Y254345D01*
X642089Y255051D01*
X642565Y255744D01*
X643058Y256427D01*
X643568Y257096D01*
X644093Y257753D01*
X644635Y258397D01*
X645193Y259028D01*
X645766Y259644D01*
X646353Y260247D01*
X646956Y260834D01*
X647572Y261407D01*
X648203Y261965D01*
X648847Y262507D01*
X649504Y263032D01*
X650173Y263542D01*
X650856Y264035D01*
X651549Y264511D01*
X652255Y264970D01*
X652971Y265412D01*
X653699Y265835D01*
X654436Y266241D01*
X655183Y266629D01*
X655939Y266998D01*
X656704Y267348D01*
X657478Y267680D01*
X658259Y267992D01*
X659048Y268286D01*
X659844Y268559D01*
X660646Y268813D01*
X661454Y269048D01*
X662268Y269262D01*
X663087Y269457D01*
X663910Y269631D01*
X664738Y269785D01*
X665569Y269919D01*
X666403Y270032D01*
X667239Y270125D01*
X668077Y270197D01*
X668917Y270249D01*
X669758Y270280D01*
X670600Y270290D01*
X671442Y270280D01*
X672283Y270249D01*
X673123Y270197D01*
X673961Y270125D01*
X674797Y270032D01*
X675631Y269919D01*
X676462Y269785D01*
X677290Y269631D01*
X678113Y269457D01*
X678932Y269262D01*
X679746Y269048D01*
X680554Y268813D01*
X681356Y268559D01*
X682152Y268286D01*
X682941Y267992D01*
X683722Y267680D01*
X684496Y267348D01*
X685261Y266998D01*
X686017Y266629D01*
X686764Y266241D01*
X687501Y265835D01*
X688229Y265412D01*
X688945Y264970D01*
X689651Y264511D01*
X690344Y264035D01*
X691027Y263542D01*
X691696Y263032D01*
X692353Y262507D01*
X692997Y261965D01*
X693628Y261407D01*
X694244Y260834D01*
X694847Y260247D01*
X695434Y259644D01*
X696007Y259028D01*
X696565Y258397D01*
X697107Y257753D01*
X697632Y257096D01*
X698142Y256427D01*
X698635Y255744D01*
X699111Y255051D01*
X699570Y254345D01*
X700012Y253629D01*
X700435Y252901D01*
X700841Y252164D01*
X701229Y251417D01*
X701598Y250661D01*
X701948Y249896D01*
X702280Y249122D01*
X702592Y248341D01*
X702886Y247552D01*
X703159Y246756D01*
X703413Y245954D01*
X703648Y245146D01*
X703862Y244332D01*
X704057Y243513D01*
X704231Y242690D01*
X704385Y241862D01*
X704519Y241031D01*
X704632Y240197D01*
X704725Y239361D01*
X704797Y238523D01*
X704849Y237683D01*
X704880Y236842D01*
X704890Y236000D01*
X704880Y235158D01*
X704849Y234317D01*
X704797Y233477D01*
X704725Y232639D01*
X704632Y231803D01*
X704519Y230969D01*
X704385Y230138D01*
X704231Y229310D01*
X704057Y228487D01*
X703862Y227668D01*
X703648Y226854D01*
X703413Y226046D01*
X703159Y225244D01*
X702886Y224448D01*
X702592Y223659D01*
X702280Y222878D01*
X701948Y222104D01*
X701598Y221339D01*
X701229Y220583D01*
X700841Y219836D01*
X700435Y219099D01*
X700012Y218371D01*
X699570Y217655D01*
X699111Y216949D01*
X698635Y216256D01*
X698142Y215573D01*
X697632Y214904D01*
X697107Y214247D01*
X696565Y213603D01*
X696007Y212972D01*
X695434Y212356D01*
X694847Y211753D01*
X694244Y211166D01*
X693628Y210593D01*
X692997Y210035D01*
X692353Y209493D01*
X691696Y208968D01*
X691027Y208458D01*
X690344Y207965D01*
X689651Y207489D01*
X688945Y207030D01*
X688229Y206588D01*
X687501Y206165D01*
X686764Y205759D01*
X686017Y205371D01*
X685261Y205002D01*
X684496Y204652D01*
X683722Y204320D01*
X682941Y204008D01*
X682152Y203714D01*
X681356Y203441D01*
X680554Y203187D01*
X679746Y202952D01*
X678932Y202738D01*
X678113Y202543D01*
X677290Y202369D01*
X676462Y202215D01*
X675631Y202081D01*
X674797Y201968D01*
X673961Y201875D01*
X673123Y201803D01*
X672283Y201751D01*
X671442Y201720D01*
X670600Y201710D01*
X669758Y201720D01*
X668917Y201751D01*
X668077Y201803D01*
X667239Y201875D01*
X666403Y201968D01*
X665569Y202081D01*
X664738Y202215D01*
X663910Y202369D01*
X663087Y202543D01*
X662268Y202738D01*
X661454Y202952D01*
X660646Y203187D01*
X659844Y203441D01*
X659048Y203714D01*
X658259Y204008D01*
X657478Y204320D01*
X656704Y204652D01*
X655939Y205002D01*
X655183Y205371D01*
X654436Y205759D01*
X653699Y206165D01*
X652971Y206588D01*
X652255Y207030D01*
X651549Y207489D01*
X650856Y207965D01*
X650173Y208458D01*
X649504Y208968D01*
X648847Y209493D01*
X648203Y210035D01*
X647572Y210593D01*
X646956Y211166D01*
X646353Y211753D01*
X645766Y212356D01*
X645193Y212972D01*
X644635Y213603D01*
X644093Y214247D01*
X643568Y214904D01*
X643058Y215573D01*
X642565Y216256D01*
X642089Y216949D01*
X641630Y217655D01*
X641188Y218371D01*
X640765Y219099D01*
X640359Y219836D01*
X639971Y220583D01*
X639602Y221339D01*
X639252Y222104D01*
X638920Y222878D01*
X638608Y223659D01*
X638314Y224448D01*
X638041Y225244D01*
X637787Y226046D01*
X637552Y226854D01*
X637338Y227668D01*
X637143Y228487D01*
X636969Y229310D01*
X636815Y230138D01*
X636681Y230969D01*
X636568Y231803D01*
X636475Y232639D01*
X636403Y233477D01*
X636351Y234317D01*
X636320Y235158D01*
X636310Y236000D01*
X653600Y236000D02*
X653605Y236417D01*
X653620Y236834D01*
X653646Y237251D01*
X653682Y237666D01*
X653728Y238081D01*
X653784Y238494D01*
X653850Y238906D01*
X653927Y239317D01*
X654013Y239725D01*
X654109Y240131D01*
X654216Y240534D01*
X654332Y240935D01*
X654458Y241333D01*
X654594Y241727D01*
X654739Y242118D01*
X654894Y242506D01*
X655058Y242889D01*
X655232Y243268D01*
X655415Y243643D01*
X655607Y244014D01*
X655809Y244379D01*
X656019Y244740D01*
X656237Y245095D01*
X656465Y245445D01*
X656701Y245789D01*
X656945Y246127D01*
X657198Y246459D01*
X657459Y246785D01*
X657727Y247104D01*
X658004Y247417D01*
X658288Y247722D01*
X658579Y248021D01*
X658878Y248312D01*
X659183Y248596D01*
X659496Y248873D01*
X659815Y249141D01*
X660141Y249402D01*
X660473Y249655D01*
X660811Y249899D01*
X661155Y250135D01*
X661505Y250363D01*
X661860Y250581D01*
X662221Y250791D01*
X662586Y250993D01*
X662957Y251185D01*
X663332Y251368D01*
X663711Y251542D01*
X664094Y251706D01*
X664482Y251861D01*
X664873Y252006D01*
X665267Y252142D01*
X665665Y252268D01*
X666066Y252384D01*
X666469Y252491D01*
X666875Y252587D01*
X667283Y252673D01*
X667694Y252750D01*
X668106Y252816D01*
X668519Y252872D01*
X668934Y252918D01*
X669349Y252954D01*
X669766Y252980D01*
X670183Y252995D01*
X670600Y253000D01*
X671017Y252995D01*
X671434Y252980D01*
X671851Y252954D01*
X672266Y252918D01*
X672681Y252872D01*
X673094Y252816D01*
X673506Y252750D01*
X673917Y252673D01*
X674325Y252587D01*
X674731Y252491D01*
X675134Y252384D01*
X675535Y252268D01*
X675933Y252142D01*
X676327Y252006D01*
X676718Y251861D01*
X677106Y251706D01*
X677489Y251542D01*
X677868Y251368D01*
X678243Y251185D01*
X678614Y250993D01*
X678979Y250791D01*
X679340Y250581D01*
X679695Y250363D01*
X680045Y250135D01*
X680389Y249899D01*
X680727Y249655D01*
X681059Y249402D01*
X681385Y249141D01*
X681704Y248873D01*
X682017Y248596D01*
X682322Y248312D01*
X682621Y248021D01*
X682912Y247722D01*
X683196Y247417D01*
X683473Y247104D01*
X683741Y246785D01*
X684002Y246459D01*
X684255Y246127D01*
X684499Y245789D01*
X684735Y245445D01*
X684963Y245095D01*
X685181Y244740D01*
X685391Y244379D01*
X685593Y244014D01*
X685785Y243643D01*
X685968Y243268D01*
X686142Y242889D01*
X686306Y242506D01*
X686461Y242118D01*
X686606Y241727D01*
X686742Y241333D01*
X686868Y240935D01*
X686984Y240534D01*
X687091Y240131D01*
X687187Y239725D01*
X687273Y239317D01*
X687350Y238906D01*
X687416Y238494D01*
X687472Y238081D01*
X687518Y237666D01*
X687554Y237251D01*
X687580Y236834D01*
X687595Y236417D01*
X687600Y236000D01*
X687595Y235583D01*
X687580Y235166D01*
X687554Y234749D01*
X687518Y234334D01*
X687472Y233919D01*
X687416Y233506D01*
X687350Y233094D01*
X687273Y232683D01*
X687187Y232275D01*
X687091Y231869D01*
X686984Y231466D01*
X686868Y231065D01*
X686742Y230667D01*
X686606Y230273D01*
X686461Y229882D01*
X686306Y229494D01*
X686142Y229111D01*
X685968Y228732D01*
X685785Y228357D01*
X685593Y227986D01*
X685391Y227621D01*
X685181Y227260D01*
X684963Y226905D01*
X684735Y226555D01*
X684499Y226211D01*
X684255Y225873D01*
X684002Y225541D01*
X683741Y225215D01*
X683473Y224896D01*
X683196Y224583D01*
X682912Y224278D01*
X682621Y223979D01*
X682322Y223688D01*
X682017Y223404D01*
X681704Y223127D01*
X681385Y222859D01*
X681059Y222598D01*
X680727Y222345D01*
X680389Y222101D01*
X680045Y221865D01*
X679695Y221637D01*
X679340Y221419D01*
X678979Y221209D01*
X678614Y221007D01*
X678243Y220815D01*
X677868Y220632D01*
X677489Y220458D01*
X677106Y220294D01*
X676718Y220139D01*
X676327Y219994D01*
X675933Y219858D01*
X675535Y219732D01*
X675134Y219616D01*
X674731Y219509D01*
X674325Y219413D01*
X673917Y219327D01*
X673506Y219250D01*
X673094Y219184D01*
X672681Y219128D01*
X672266Y219082D01*
X671851Y219046D01*
X671434Y219020D01*
X671017Y219005D01*
X670600Y219000D01*
X670183Y219005D01*
X669766Y219020D01*
X669349Y219046D01*
X668934Y219082D01*
X668519Y219128D01*
X668106Y219184D01*
X667694Y219250D01*
X667283Y219327D01*
X666875Y219413D01*
X666469Y219509D01*
X666066Y219616D01*
X665665Y219732D01*
X665267Y219858D01*
X664873Y219994D01*
X664482Y220139D01*
X664094Y220294D01*
X663711Y220458D01*
X663332Y220632D01*
X662957Y220815D01*
X662586Y221007D01*
X662221Y221209D01*
X661860Y221419D01*
X661505Y221637D01*
X661155Y221865D01*
X660811Y222101D01*
X660473Y222345D01*
X660141Y222598D01*
X659815Y222859D01*
X659496Y223127D01*
X659183Y223404D01*
X658878Y223688D01*
X658579Y223979D01*
X658288Y224278D01*
X658004Y224583D01*
X657727Y224896D01*
X657459Y225215D01*
X657198Y225541D01*
X656945Y225873D01*
X656701Y226211D01*
X656465Y226555D01*
X656237Y226905D01*
X656019Y227260D01*
X655809Y227621D01*
X655607Y227986D01*
X655415Y228357D01*
X655232Y228732D01*
X655058Y229111D01*
X654894Y229494D01*
X654739Y229882D01*
X654594Y230273D01*
X654458Y230667D01*
X654332Y231065D01*
X654216Y231466D01*
X654109Y231869D01*
X654013Y232275D01*
X653927Y232683D01*
X653850Y233094D01*
X653784Y233506D01*
X653728Y233919D01*
X653682Y234334D01*
X653646Y234749D01*
X653620Y235166D01*
X653605Y235583D01*
X653600Y236000D01*
D11*
X483650Y536350D02*
X483650Y545250D01*
X576350Y545250D02*
X576350Y536350D01*
X483650Y523650D02*
X483650Y514750D01*
X576350Y514750D02*
X576350Y523650D01*
X576350Y514750D02*
X575300Y514750D01*
X484700Y514750D02*
X483650Y514750D01*
X575300Y545250D02*
X576350Y545250D01*
X484700Y545250D02*
X483650Y545250D01*
X567100Y499250D02*
X567102Y499313D01*
X567108Y499375D01*
X567118Y499437D01*
X567131Y499499D01*
X567149Y499559D01*
X567170Y499618D01*
X567195Y499676D01*
X567224Y499732D01*
X567256Y499786D01*
X567291Y499838D01*
X567329Y499887D01*
X567371Y499935D01*
X567415Y499979D01*
X567463Y500021D01*
X567512Y500059D01*
X567564Y500094D01*
X567618Y500126D01*
X567674Y500155D01*
X567732Y500180D01*
X567791Y500201D01*
X567851Y500219D01*
X567913Y500232D01*
X567975Y500242D01*
X568037Y500248D01*
X568100Y500250D01*
X568163Y500248D01*
X568225Y500242D01*
X568287Y500232D01*
X568349Y500219D01*
X568409Y500201D01*
X568468Y500180D01*
X568526Y500155D01*
X568582Y500126D01*
X568636Y500094D01*
X568688Y500059D01*
X568737Y500021D01*
X568785Y499979D01*
X568829Y499935D01*
X568871Y499887D01*
X568909Y499838D01*
X568944Y499786D01*
X568976Y499732D01*
X569005Y499676D01*
X569030Y499618D01*
X569051Y499559D01*
X569069Y499499D01*
X569082Y499437D01*
X569092Y499375D01*
X569098Y499313D01*
X569100Y499250D01*
X569098Y499187D01*
X569092Y499125D01*
X569082Y499063D01*
X569069Y499001D01*
X569051Y498941D01*
X569030Y498882D01*
X569005Y498824D01*
X568976Y498768D01*
X568944Y498714D01*
X568909Y498662D01*
X568871Y498613D01*
X568829Y498565D01*
X568785Y498521D01*
X568737Y498479D01*
X568688Y498441D01*
X568636Y498406D01*
X568582Y498374D01*
X568526Y498345D01*
X568468Y498320D01*
X568409Y498299D01*
X568349Y498281D01*
X568287Y498268D01*
X568225Y498258D01*
X568163Y498252D01*
X568100Y498250D01*
X568037Y498252D01*
X567975Y498258D01*
X567913Y498268D01*
X567851Y498281D01*
X567791Y498299D01*
X567732Y498320D01*
X567674Y498345D01*
X567618Y498374D01*
X567564Y498406D01*
X567512Y498441D01*
X567463Y498479D01*
X567415Y498521D01*
X567371Y498565D01*
X567329Y498613D01*
X567291Y498662D01*
X567256Y498714D01*
X567224Y498768D01*
X567195Y498824D01*
X567170Y498882D01*
X567149Y498941D01*
X567131Y499001D01*
X567118Y499063D01*
X567108Y499125D01*
X567102Y499187D01*
X567100Y499250D01*
D12*
X564078Y501742D02*
X564078Y492654D01*
X564077Y492654D02*
X564075Y492555D01*
X564069Y492455D01*
X564060Y492356D01*
X564047Y492258D01*
X564030Y492160D01*
X564009Y492062D01*
X563984Y491966D01*
X563956Y491871D01*
X563924Y491777D01*
X563889Y491684D01*
X563850Y491592D01*
X563807Y491502D01*
X563762Y491414D01*
X563712Y491327D01*
X563660Y491243D01*
X563604Y491160D01*
X563546Y491080D01*
X563484Y491002D01*
X563419Y490927D01*
X563351Y490854D01*
X563281Y490784D01*
X563208Y490716D01*
X563133Y490651D01*
X563055Y490589D01*
X562975Y490531D01*
X562892Y490475D01*
X562808Y490423D01*
X562721Y490373D01*
X562633Y490328D01*
X562543Y490285D01*
X562451Y490246D01*
X562358Y490211D01*
X562264Y490179D01*
X562169Y490151D01*
X562073Y490126D01*
X561975Y490105D01*
X561877Y490088D01*
X561779Y490075D01*
X561680Y490066D01*
X561580Y490060D01*
X561481Y490058D01*
X560183Y490058D01*
X569351Y499146D02*
X572596Y501742D01*
X572596Y490058D01*
X569351Y490058D02*
X575842Y490058D01*
D11*
X793650Y514750D02*
X793650Y523650D01*
X726350Y523650D02*
X726350Y514750D01*
X793650Y536350D02*
X793650Y545250D01*
X726350Y545250D02*
X726350Y536350D01*
X726350Y545250D02*
X727400Y545250D01*
X792600Y545250D02*
X793650Y545250D01*
X727400Y514750D02*
X726350Y514750D01*
X792600Y514750D02*
X793650Y514750D01*
X733600Y560750D02*
X733602Y560813D01*
X733608Y560875D01*
X733618Y560937D01*
X733631Y560999D01*
X733649Y561059D01*
X733670Y561118D01*
X733695Y561176D01*
X733724Y561232D01*
X733756Y561286D01*
X733791Y561338D01*
X733829Y561387D01*
X733871Y561435D01*
X733915Y561479D01*
X733963Y561521D01*
X734012Y561559D01*
X734064Y561594D01*
X734118Y561626D01*
X734174Y561655D01*
X734232Y561680D01*
X734291Y561701D01*
X734351Y561719D01*
X734413Y561732D01*
X734475Y561742D01*
X734537Y561748D01*
X734600Y561750D01*
X734663Y561748D01*
X734725Y561742D01*
X734787Y561732D01*
X734849Y561719D01*
X734909Y561701D01*
X734968Y561680D01*
X735026Y561655D01*
X735082Y561626D01*
X735136Y561594D01*
X735188Y561559D01*
X735237Y561521D01*
X735285Y561479D01*
X735329Y561435D01*
X735371Y561387D01*
X735409Y561338D01*
X735444Y561286D01*
X735476Y561232D01*
X735505Y561176D01*
X735530Y561118D01*
X735551Y561059D01*
X735569Y560999D01*
X735582Y560937D01*
X735592Y560875D01*
X735598Y560813D01*
X735600Y560750D01*
X735598Y560687D01*
X735592Y560625D01*
X735582Y560563D01*
X735569Y560501D01*
X735551Y560441D01*
X735530Y560382D01*
X735505Y560324D01*
X735476Y560268D01*
X735444Y560214D01*
X735409Y560162D01*
X735371Y560113D01*
X735329Y560065D01*
X735285Y560021D01*
X735237Y559979D01*
X735188Y559941D01*
X735136Y559906D01*
X735082Y559874D01*
X735026Y559845D01*
X734968Y559820D01*
X734909Y559799D01*
X734849Y559781D01*
X734787Y559768D01*
X734725Y559758D01*
X734663Y559752D01*
X734600Y559750D01*
X734537Y559752D01*
X734475Y559758D01*
X734413Y559768D01*
X734351Y559781D01*
X734291Y559799D01*
X734232Y559820D01*
X734174Y559845D01*
X734118Y559874D01*
X734064Y559906D01*
X734012Y559941D01*
X733963Y559979D01*
X733915Y560021D01*
X733871Y560065D01*
X733829Y560113D01*
X733791Y560162D01*
X733756Y560214D01*
X733724Y560268D01*
X733695Y560324D01*
X733670Y560382D01*
X733649Y560441D01*
X733631Y560501D01*
X733618Y560563D01*
X733608Y560625D01*
X733602Y560687D01*
X733600Y560750D01*
D12*
X730753Y560854D02*
X730753Y569942D01*
X730752Y560854D02*
X730750Y560755D01*
X730744Y560655D01*
X730735Y560556D01*
X730722Y560458D01*
X730705Y560360D01*
X730684Y560262D01*
X730659Y560166D01*
X730631Y560071D01*
X730599Y559977D01*
X730564Y559884D01*
X730525Y559792D01*
X730482Y559702D01*
X730437Y559614D01*
X730387Y559527D01*
X730335Y559443D01*
X730279Y559360D01*
X730221Y559280D01*
X730159Y559202D01*
X730094Y559127D01*
X730026Y559054D01*
X729956Y558984D01*
X729883Y558916D01*
X729808Y558851D01*
X729730Y558789D01*
X729650Y558731D01*
X729567Y558675D01*
X729483Y558623D01*
X729396Y558573D01*
X729308Y558528D01*
X729218Y558485D01*
X729126Y558446D01*
X729033Y558411D01*
X728939Y558379D01*
X728844Y558351D01*
X728748Y558326D01*
X728650Y558305D01*
X728552Y558288D01*
X728454Y558275D01*
X728355Y558266D01*
X728255Y558260D01*
X728156Y558258D01*
X726858Y558258D01*
X739596Y569942D02*
X739703Y569940D01*
X739809Y569934D01*
X739915Y569924D01*
X740021Y569911D01*
X740127Y569893D01*
X740231Y569872D01*
X740335Y569847D01*
X740438Y569818D01*
X740539Y569786D01*
X740639Y569749D01*
X740738Y569709D01*
X740836Y569666D01*
X740932Y569619D01*
X741026Y569568D01*
X741118Y569514D01*
X741208Y569457D01*
X741296Y569397D01*
X741381Y569333D01*
X741464Y569266D01*
X741545Y569196D01*
X741623Y569124D01*
X741699Y569048D01*
X741771Y568970D01*
X741841Y568889D01*
X741908Y568806D01*
X741972Y568721D01*
X742032Y568633D01*
X742089Y568543D01*
X742143Y568451D01*
X742194Y568357D01*
X742241Y568261D01*
X742284Y568163D01*
X742324Y568064D01*
X742361Y567964D01*
X742393Y567863D01*
X742422Y567760D01*
X742447Y567656D01*
X742468Y567552D01*
X742486Y567446D01*
X742499Y567340D01*
X742509Y567234D01*
X742515Y567128D01*
X742517Y567021D01*
X739596Y569942D02*
X739475Y569940D01*
X739354Y569934D01*
X739234Y569924D01*
X739113Y569911D01*
X738994Y569893D01*
X738874Y569872D01*
X738756Y569847D01*
X738639Y569818D01*
X738522Y569785D01*
X738407Y569749D01*
X738293Y569708D01*
X738180Y569665D01*
X738068Y569617D01*
X737959Y569566D01*
X737851Y569511D01*
X737744Y569453D01*
X737640Y569392D01*
X737538Y569327D01*
X737438Y569259D01*
X737340Y569188D01*
X737244Y569114D01*
X737151Y569037D01*
X737061Y568956D01*
X736973Y568873D01*
X736888Y568787D01*
X736805Y568698D01*
X736726Y568607D01*
X736649Y568513D01*
X736576Y568417D01*
X736506Y568319D01*
X736439Y568218D01*
X736375Y568115D01*
X736315Y568010D01*
X736258Y567903D01*
X736204Y567795D01*
X736154Y567685D01*
X736108Y567573D01*
X736065Y567460D01*
X736026Y567345D01*
X741544Y564749D02*
X741623Y564826D01*
X741699Y564907D01*
X741772Y564990D01*
X741842Y565075D01*
X741909Y565163D01*
X741973Y565253D01*
X742033Y565345D01*
X742090Y565440D01*
X742144Y565536D01*
X742195Y565634D01*
X742242Y565734D01*
X742286Y565836D01*
X742326Y565939D01*
X742362Y566043D01*
X742394Y566149D01*
X742423Y566255D01*
X742448Y566363D01*
X742470Y566471D01*
X742487Y566581D01*
X742501Y566690D01*
X742510Y566800D01*
X742516Y566911D01*
X742518Y567021D01*
X741544Y564749D02*
X736026Y558258D01*
X742517Y558258D01*
M02*
