G04 EAGLE Gerber RS-274X export*
G75*
%MOMM*%
%FSLAX34Y34*%
%LPD*%
%INSolderpaste Top*%
%IPPOS*%
%AMOC8*
5,1,8,0,0,1.08239X$1,22.5*%
G01*
%ADD10C,0.758950*%
%ADD11R,0.740000X2.220000*%


D10*
X1214408Y157945D02*
X1214408Y147755D01*
X1212854Y147755D01*
X1212854Y157945D01*
X1214408Y157945D01*
X1214408Y154965D02*
X1212854Y154965D01*
X1212854Y173155D02*
X1212854Y183345D01*
X1214408Y183345D01*
X1214408Y173155D01*
X1212854Y173155D01*
X1212854Y180365D02*
X1214408Y180365D01*
X1034408Y157945D02*
X1034408Y147755D01*
X1032854Y147755D01*
X1032854Y157945D01*
X1034408Y157945D01*
X1034408Y154965D02*
X1032854Y154965D01*
X1032854Y173155D02*
X1032854Y183345D01*
X1034408Y183345D01*
X1034408Y173155D01*
X1032854Y173155D01*
X1032854Y180365D02*
X1034408Y180365D01*
X736666Y157945D02*
X736666Y147755D01*
X735112Y147755D01*
X735112Y157945D01*
X736666Y157945D01*
X736666Y154965D02*
X735112Y154965D01*
X735112Y173155D02*
X735112Y183345D01*
X736666Y183345D01*
X736666Y173155D01*
X735112Y173155D01*
X735112Y180365D02*
X736666Y180365D01*
X555666Y158945D02*
X555666Y148755D01*
X554112Y148755D01*
X554112Y158945D01*
X555666Y158945D01*
X555666Y155965D02*
X554112Y155965D01*
X554112Y174155D02*
X554112Y184345D01*
X555666Y184345D01*
X555666Y174155D01*
X554112Y174155D01*
X554112Y181365D02*
X555666Y181365D01*
X276666Y157945D02*
X276666Y147755D01*
X275112Y147755D01*
X275112Y157945D01*
X276666Y157945D01*
X276666Y154965D02*
X275112Y154965D01*
X275112Y173155D02*
X275112Y183345D01*
X276666Y183345D01*
X276666Y173155D01*
X275112Y173155D01*
X275112Y180365D02*
X276666Y180365D01*
X96666Y158445D02*
X96666Y148255D01*
X95112Y148255D01*
X95112Y158445D01*
X96666Y158445D01*
X96666Y155465D02*
X95112Y155465D01*
X95112Y173655D02*
X95112Y183845D01*
X96666Y183845D01*
X96666Y173655D01*
X95112Y173655D01*
X95112Y180865D02*
X96666Y180865D01*
D11*
X568100Y516350D03*
X555400Y516350D03*
X542700Y516350D03*
X530000Y516350D03*
X517300Y516350D03*
X504600Y516350D03*
X491900Y516350D03*
X568100Y543650D03*
X555400Y543650D03*
X542700Y543650D03*
X530000Y543650D03*
X517300Y543650D03*
X504600Y543650D03*
X491900Y543650D03*
X734600Y543650D03*
X747300Y543650D03*
X760000Y543650D03*
X772700Y543650D03*
X785400Y543650D03*
X734600Y516350D03*
X747300Y516350D03*
X760000Y516350D03*
X772700Y516350D03*
X785400Y516350D03*
M02*
