G04 EAGLE Gerber RS-274X export*
G75*
%MOMM*%
%FSLAX34Y34*%
%LPD*%
%INSoldermask Top*%
%IPPOS*%
%AMOC8*
5,1,8,0,0,1.08239X$1,22.5*%
G01*
%ADD10C,4.703200*%
%ADD11C,0.961134*%
%ADD12C,6.045200*%
%ADD13C,1.603200*%
%ADD14R,0.943200X2.423200*%


D10*
X35000Y236000D03*
X124000Y234500D03*
X214000Y234100D03*
X303540Y236000D03*
X393000Y236000D03*
X491500Y236000D03*
X581040Y236000D03*
X760037Y236000D03*
X850000Y236000D03*
X970270Y236000D03*
X1060000Y236000D03*
X1240000Y236000D03*
X1329500Y236000D03*
X304000Y786700D03*
X393000Y784500D03*
X491500Y784500D03*
X581040Y784500D03*
X787000Y784500D03*
X876600Y784500D03*
X35000Y80000D03*
X128500Y80000D03*
X214000Y80000D03*
X303540Y80000D03*
X393000Y80000D03*
X491500Y80000D03*
X581040Y80000D03*
X670600Y80000D03*
X760000Y80000D03*
X850000Y80000D03*
X970270Y80000D03*
X1060000Y80000D03*
X1149300Y80000D03*
X1240000Y80000D03*
X1329500Y80000D03*
D11*
X1214414Y147749D02*
X1214414Y157951D01*
X1214414Y147749D02*
X1212848Y147749D01*
X1212848Y157951D01*
X1214414Y157951D01*
X1214414Y156879D02*
X1212848Y156879D01*
X1212848Y173149D02*
X1212848Y183351D01*
X1214414Y183351D01*
X1214414Y173149D01*
X1212848Y173149D01*
X1212848Y182279D02*
X1214414Y182279D01*
X1034414Y157951D02*
X1034414Y147749D01*
X1032848Y147749D01*
X1032848Y157951D01*
X1034414Y157951D01*
X1034414Y156879D02*
X1032848Y156879D01*
X1032848Y173149D02*
X1032848Y183351D01*
X1034414Y183351D01*
X1034414Y173149D01*
X1032848Y173149D01*
X1032848Y182279D02*
X1034414Y182279D01*
X736672Y157951D02*
X736672Y147749D01*
X735106Y147749D01*
X735106Y157951D01*
X736672Y157951D01*
X736672Y156879D02*
X735106Y156879D01*
X735106Y173149D02*
X735106Y183351D01*
X736672Y183351D01*
X736672Y173149D01*
X735106Y173149D01*
X735106Y182279D02*
X736672Y182279D01*
X555672Y158951D02*
X555672Y148749D01*
X554106Y148749D01*
X554106Y158951D01*
X555672Y158951D01*
X555672Y157879D02*
X554106Y157879D01*
X554106Y174149D02*
X554106Y184351D01*
X555672Y184351D01*
X555672Y174149D01*
X554106Y174149D01*
X554106Y183279D02*
X555672Y183279D01*
X276672Y157951D02*
X276672Y147749D01*
X275106Y147749D01*
X275106Y157951D01*
X276672Y157951D01*
X276672Y156879D02*
X275106Y156879D01*
X275106Y173149D02*
X275106Y183351D01*
X276672Y183351D01*
X276672Y173149D01*
X275106Y173149D01*
X275106Y182279D02*
X276672Y182279D01*
X96672Y158451D02*
X96672Y148249D01*
X95106Y148249D01*
X95106Y158451D01*
X96672Y158451D01*
X96672Y157379D02*
X95106Y157379D01*
X95106Y173649D02*
X95106Y183851D01*
X96672Y183851D01*
X96672Y173649D01*
X95106Y173649D01*
X95106Y182779D02*
X96672Y182779D01*
D12*
X670600Y786000D03*
X214000Y786700D03*
X1149300Y234000D03*
X670600Y236000D03*
D13*
X584000Y530000D03*
X476000Y530000D03*
D14*
X568100Y516350D03*
X555400Y516350D03*
X542700Y516350D03*
X530000Y516350D03*
X517300Y516350D03*
X504600Y516350D03*
X491900Y516350D03*
X568100Y543650D03*
X555400Y543650D03*
X542700Y543650D03*
X530000Y543650D03*
X517300Y543650D03*
X504600Y543650D03*
X491900Y543650D03*
D13*
X718700Y530000D03*
X801300Y530000D03*
D14*
X734600Y543650D03*
X747300Y543650D03*
X760000Y543650D03*
X772700Y543650D03*
X785400Y543650D03*
X734600Y516350D03*
X747300Y516350D03*
X760000Y516350D03*
X772700Y516350D03*
X785400Y516350D03*
M02*
