M48
;GenerationSoftware,Autodesk,EAGLE,9.2.2*%
;CreationDate,2019-01-10T17:45:42Z*%
FMAT,2
ICI,OFF
METRIC,TZ,000.000
T5C0.813
T4C1.000
T3C1.016
T2C1.300
T1C1.321
%
G90
M71
T1
X24130Y3810
X24130Y10160
T2
X12670Y8950
X5110Y3910
X5110Y29110
X12670Y29110
X12670Y3910
X5110Y8950
T3
X19329Y15799
X23851Y15799
X19329Y22301
X23851Y22301
T4
X8890Y43180
X8890Y45720
X11430Y43180
X11430Y45720
X13970Y43180
X13970Y45720
X16510Y43180
X16510Y45720
T5
X5080Y34290
X20320Y34290
M30