%
M48
M72
T01C0.03200
T02C0.03937
T03C0.04000
T04C0.05118
T05C0.05200
%
T01
X22600Y137600
X82600Y137600
T02
X67600Y172600
X67600Y182600
X57600Y182600
X57600Y172600
X47600Y172600
X47600Y182600
X37600Y182600
X37600Y172600
T03
X78700Y90400
X78700Y64800
X96500Y64800
X96500Y90400
T04
X22718Y17994
X22718Y37836
X52482Y37836
X52482Y17994
X52482Y117206
X22718Y117206
T05
X97600Y42600
X97600Y17600
M30
