G75*
%MOIN*%
%OFA0B0*%
%FSLAX25Y25*%
%IPPOS*%
%LPD*%
%AMOC8*
5,1,8,0,0,1.08239X$1,22.5*
%
%ADD10R,0.07600X0.07600*%
%ADD11C,0.07600*%
%ADD12C,0.09843*%
%ADD13C,0.07677*%
%ADD14OC8,0.05200*%
%ADD15C,0.06000*%
%ADD16OC8,0.08500*%
%ADD17C,0.03200*%
D10*
X0037600Y0172600D03*
D11*
X0037600Y0182600D03*
X0047600Y0182600D03*
X0047600Y0172600D03*
X0057600Y0172600D03*
X0057600Y0182600D03*
X0067600Y0182600D03*
X0067600Y0172600D03*
D12*
X0052482Y0037836D03*
X0052482Y0017994D03*
X0022718Y0017994D03*
X0022718Y0037836D03*
D13*
X0022718Y0117206D03*
X0052482Y0117206D03*
D14*
X0022600Y0137600D03*
X0082600Y0137600D03*
D15*
X0078700Y0093400D02*
X0078700Y0087400D01*
X0078700Y0067800D02*
X0078700Y0061800D01*
X0096500Y0061800D02*
X0096500Y0067800D01*
X0096500Y0087400D02*
X0096500Y0093400D01*
D16*
X0097600Y0042600D03*
X0097600Y0017600D03*
D17*
X0008200Y0008200D02*
X0008200Y0201444D01*
X0008216Y0201483D01*
X0008216Y0206984D01*
X0111921Y0206984D01*
X0111921Y0008200D01*
X0008200Y0008200D01*
X0008200Y0008997D02*
X0111921Y0008997D01*
X0111921Y0012196D02*
X0101317Y0012196D01*
X0100272Y0011150D02*
X0104050Y0014928D01*
X0104050Y0020272D01*
X0100272Y0024050D01*
X0094928Y0024050D01*
X0092278Y0021400D01*
X0061004Y0021400D01*
X0061400Y0022356D01*
X0061400Y0023868D01*
X0060821Y0025264D01*
X0054940Y0031146D01*
X0056516Y0031799D01*
X0058519Y0033802D01*
X0058616Y0034036D01*
X0093592Y0034036D01*
X0094989Y0034615D01*
X0096524Y0036150D01*
X0100272Y0036150D01*
X0104050Y0039928D01*
X0104050Y0043676D01*
X0109753Y0049379D01*
X0110821Y0050447D01*
X0111400Y0051844D01*
X0111400Y0151061D01*
X0110821Y0152457D01*
X0109753Y0153526D01*
X0109753Y0153526D01*
X0077373Y0185905D01*
X0076821Y0187238D01*
X0075753Y0188307D01*
X0075753Y0188307D01*
X0073307Y0190753D01*
X0072238Y0191821D01*
X0070841Y0192400D01*
X0064359Y0192400D01*
X0062962Y0191821D01*
X0061893Y0190753D01*
X0061893Y0190753D01*
X0059463Y0188323D01*
X0058793Y0188600D01*
X0056407Y0188600D01*
X0054201Y0187687D01*
X0052600Y0186085D01*
X0050999Y0187687D01*
X0048793Y0188600D01*
X0046407Y0188600D01*
X0045737Y0188323D01*
X0042238Y0191821D01*
X0040841Y0192400D01*
X0034359Y0192400D01*
X0032962Y0191821D01*
X0015647Y0174507D01*
X0014579Y0173438D01*
X0014000Y0172041D01*
X0014000Y0134856D01*
X0014579Y0133459D01*
X0015647Y0132390D01*
X0015647Y0132390D01*
X0018918Y0129120D01*
X0018918Y0121946D01*
X0017599Y0120627D01*
X0016680Y0118407D01*
X0016680Y0116005D01*
X0017599Y0113786D01*
X0018918Y0112466D01*
X0018918Y0049481D01*
X0012375Y0042938D01*
X0011797Y0041542D01*
X0011797Y0034131D01*
X0012375Y0032734D01*
X0018918Y0026191D01*
X0018918Y0024128D01*
X0018684Y0024031D01*
X0016681Y0022028D01*
X0015597Y0019410D01*
X0015597Y0016577D01*
X0016681Y0013960D01*
X0018684Y0011957D01*
X0021302Y0010872D01*
X0024135Y0010872D01*
X0026752Y0011957D01*
X0028755Y0013960D01*
X0029839Y0016577D01*
X0029839Y0019410D01*
X0028755Y0022028D01*
X0026752Y0024031D01*
X0026518Y0024128D01*
X0026518Y0028521D01*
X0025940Y0029918D01*
X0024847Y0031010D01*
X0026752Y0031799D01*
X0028755Y0033802D01*
X0029839Y0036420D01*
X0029839Y0039253D01*
X0029742Y0039487D01*
X0074501Y0084245D01*
X0075754Y0082992D01*
X0077666Y0082200D01*
X0079734Y0082200D01*
X0081646Y0082992D01*
X0083108Y0084454D01*
X0083900Y0086366D01*
X0083900Y0094434D01*
X0083108Y0096346D01*
X0081646Y0097808D01*
X0079734Y0098600D01*
X0077666Y0098600D01*
X0075754Y0097808D01*
X0074292Y0096346D01*
X0073500Y0094434D01*
X0073500Y0093775D01*
X0073129Y0093621D01*
X0072060Y0092553D01*
X0026418Y0046910D01*
X0026518Y0047151D01*
X0026518Y0112466D01*
X0027837Y0113786D01*
X0028757Y0116005D01*
X0028757Y0118407D01*
X0027837Y0120627D01*
X0026518Y0121946D01*
X0026518Y0131450D01*
X0025940Y0132846D01*
X0025570Y0133216D01*
X0027800Y0135446D01*
X0027800Y0137600D01*
X0027800Y0139754D01*
X0024754Y0142800D01*
X0022600Y0142800D01*
X0022600Y0137600D01*
X0022600Y0168311D01*
X0032889Y0178600D01*
X0033600Y0178600D01*
X0037600Y0182600D01*
X0035115Y0188600D02*
X0017800Y0171285D01*
X0017800Y0135612D01*
X0022718Y0130694D01*
X0022718Y0117206D01*
X0022718Y0047907D01*
X0015597Y0040786D01*
X0015597Y0034886D01*
X0022718Y0027765D01*
X0022718Y0017994D01*
X0018445Y0012196D02*
X0008200Y0012196D01*
X0008200Y0015394D02*
X0016087Y0015394D01*
X0015597Y0018593D02*
X0008200Y0018593D01*
X0008200Y0021791D02*
X0016583Y0021791D01*
X0018918Y0024990D02*
X0008200Y0024990D01*
X0008200Y0028188D02*
X0016921Y0028188D01*
X0013723Y0031387D02*
X0008200Y0031387D01*
X0008200Y0034585D02*
X0011797Y0034585D01*
X0011797Y0037784D02*
X0008200Y0037784D01*
X0008200Y0040982D02*
X0011797Y0040982D01*
X0013618Y0044181D02*
X0008200Y0044181D01*
X0008200Y0047379D02*
X0016816Y0047379D01*
X0018918Y0050578D02*
X0008200Y0050578D01*
X0008200Y0053776D02*
X0018918Y0053776D01*
X0018918Y0056975D02*
X0008200Y0056975D01*
X0008200Y0060173D02*
X0018918Y0060173D01*
X0018918Y0063372D02*
X0008200Y0063372D01*
X0008200Y0066570D02*
X0018918Y0066570D01*
X0018918Y0069769D02*
X0008200Y0069769D01*
X0008200Y0072967D02*
X0018918Y0072967D01*
X0018918Y0076166D02*
X0008200Y0076166D01*
X0008200Y0079364D02*
X0018918Y0079364D01*
X0018918Y0082563D02*
X0008200Y0082563D01*
X0008200Y0085761D02*
X0018918Y0085761D01*
X0018918Y0088960D02*
X0008200Y0088960D01*
X0008200Y0092158D02*
X0018918Y0092158D01*
X0018918Y0095357D02*
X0008200Y0095357D01*
X0008200Y0098555D02*
X0018918Y0098555D01*
X0018918Y0101754D02*
X0008200Y0101754D01*
X0008200Y0104952D02*
X0018918Y0104952D01*
X0018918Y0108151D02*
X0008200Y0108151D01*
X0008200Y0111349D02*
X0018918Y0111349D01*
X0017283Y0114548D02*
X0008200Y0114548D01*
X0008200Y0117746D02*
X0016680Y0117746D01*
X0017917Y0120945D02*
X0008200Y0120945D01*
X0008200Y0124143D02*
X0018918Y0124143D01*
X0018918Y0127342D02*
X0008200Y0127342D01*
X0008200Y0130540D02*
X0017497Y0130540D01*
X0014463Y0133739D02*
X0008200Y0133739D01*
X0008200Y0136937D02*
X0014000Y0136937D01*
X0014000Y0140136D02*
X0008200Y0140136D01*
X0008200Y0143334D02*
X0014000Y0143334D01*
X0014000Y0146533D02*
X0008200Y0146533D01*
X0008200Y0149732D02*
X0014000Y0149732D01*
X0014000Y0152930D02*
X0008200Y0152930D01*
X0008200Y0156129D02*
X0014000Y0156129D01*
X0014000Y0159327D02*
X0008200Y0159327D01*
X0008200Y0162526D02*
X0014000Y0162526D01*
X0014000Y0165724D02*
X0008200Y0165724D01*
X0008200Y0168923D02*
X0014000Y0168923D01*
X0014033Y0172121D02*
X0008200Y0172121D01*
X0008200Y0175320D02*
X0016460Y0175320D01*
X0019659Y0178518D02*
X0008200Y0178518D01*
X0008200Y0181717D02*
X0022857Y0181717D01*
X0026056Y0184915D02*
X0008200Y0184915D01*
X0008200Y0188114D02*
X0029254Y0188114D01*
X0032453Y0191312D02*
X0008200Y0191312D01*
X0008200Y0194511D02*
X0111921Y0194511D01*
X0111921Y0197709D02*
X0008200Y0197709D01*
X0008200Y0200908D02*
X0111921Y0200908D01*
X0111921Y0204106D02*
X0008216Y0204106D01*
X0024010Y0172121D02*
X0031600Y0172121D01*
X0031600Y0168923D02*
X0021600Y0168923D01*
X0021600Y0169711D02*
X0031790Y0179902D01*
X0031848Y0179763D01*
X0032267Y0179037D01*
X0032727Y0178438D01*
X0031600Y0177311D01*
X0031600Y0167889D01*
X0032889Y0166600D01*
X0042311Y0166600D01*
X0043600Y0167889D01*
X0043600Y0168115D01*
X0043800Y0167915D01*
X0043800Y0164174D01*
X0029379Y0149753D01*
X0028800Y0148356D01*
X0028800Y0126844D01*
X0029379Y0125447D01*
X0030447Y0124379D01*
X0031844Y0123800D01*
X0031974Y0123800D01*
X0047828Y0107946D01*
X0049225Y0107368D01*
X0055739Y0107368D01*
X0057136Y0107946D01*
X0058205Y0109015D01*
X0060673Y0111484D01*
X0061742Y0112552D01*
X0062320Y0113949D01*
X0062320Y0115246D01*
X0064300Y0117226D01*
X0091300Y0090226D01*
X0091300Y0086366D01*
X0092092Y0084454D01*
X0093554Y0082992D01*
X0095466Y0082200D01*
X0097534Y0082200D01*
X0099446Y0082992D01*
X0100000Y0083546D01*
X0100000Y0072179D01*
X0099435Y0072590D01*
X0098650Y0072990D01*
X0097811Y0073262D01*
X0096941Y0073400D01*
X0096500Y0073400D01*
X0096500Y0064800D01*
X0083900Y0077400D01*
X0083900Y0095554D01*
X0072086Y0107368D01*
X0047458Y0107368D01*
X0028800Y0126026D01*
X0028800Y0132500D01*
X0023700Y0137600D01*
X0022600Y0137600D01*
X0027800Y0137600D01*
X0022600Y0137600D01*
X0022600Y0137600D01*
X0022600Y0137600D01*
X0022600Y0142800D01*
X0021600Y0142800D01*
X0021600Y0169711D01*
X0021600Y0165724D02*
X0043800Y0165724D01*
X0042152Y0162526D02*
X0021600Y0162526D01*
X0021600Y0159327D02*
X0038953Y0159327D01*
X0035755Y0156129D02*
X0021600Y0156129D01*
X0021600Y0152930D02*
X0032556Y0152930D01*
X0029370Y0149732D02*
X0021600Y0149732D01*
X0021600Y0146533D02*
X0028800Y0146533D01*
X0028800Y0143334D02*
X0021600Y0143334D01*
X0022600Y0140136D02*
X0022600Y0140136D01*
X0026093Y0133739D02*
X0028800Y0133739D01*
X0028800Y0136937D02*
X0027800Y0136937D01*
X0027418Y0140136D02*
X0028800Y0140136D01*
X0032600Y0147600D02*
X0047600Y0162600D01*
X0047600Y0172600D01*
X0037600Y0172600D01*
X0032665Y0178518D02*
X0030407Y0178518D01*
X0031600Y0175320D02*
X0027208Y0175320D01*
X0035115Y0188600D02*
X0040085Y0188600D01*
X0046085Y0182600D01*
X0047600Y0182600D01*
X0049968Y0188114D02*
X0055232Y0188114D01*
X0057600Y0182600D02*
X0059115Y0182600D01*
X0065115Y0188600D01*
X0070085Y0188600D01*
X0073600Y0185085D01*
X0073600Y0184305D01*
X0107600Y0150305D01*
X0107600Y0052600D01*
X0097600Y0042600D01*
X0092836Y0037836D01*
X0052482Y0037836D01*
X0055520Y0031387D02*
X0111921Y0031387D01*
X0111921Y0028188D02*
X0057898Y0028188D01*
X0060935Y0024990D02*
X0111921Y0024990D01*
X0111921Y0021791D02*
X0102531Y0021791D01*
X0104050Y0018593D02*
X0111921Y0018593D01*
X0111921Y0015394D02*
X0104050Y0015394D01*
X0100272Y0011150D02*
X0094928Y0011150D01*
X0092278Y0013800D01*
X0058359Y0013800D01*
X0056516Y0011957D01*
X0053898Y0010872D01*
X0051065Y0010872D01*
X0048448Y0011957D01*
X0046445Y0013960D01*
X0045361Y0016577D01*
X0045361Y0019410D01*
X0046445Y0022028D01*
X0048448Y0024031D01*
X0050470Y0024868D01*
X0048173Y0027165D01*
X0047380Y0027493D01*
X0046311Y0028562D01*
X0042139Y0032734D01*
X0041561Y0034131D01*
X0041561Y0041542D01*
X0042139Y0042938D01*
X0043208Y0044007D01*
X0046311Y0047110D01*
X0047380Y0048179D01*
X0048776Y0048757D01*
X0089262Y0048757D01*
X0096704Y0056200D01*
X0096500Y0056200D01*
X0096500Y0064800D01*
X0078700Y0064800D01*
X0084300Y0064800D01*
X0084300Y0068241D01*
X0084162Y0069111D01*
X0083890Y0069950D01*
X0083490Y0070735D01*
X0082971Y0071448D01*
X0082348Y0072071D01*
X0081635Y0072590D01*
X0080850Y0072990D01*
X0080011Y0073262D01*
X0079141Y0073400D01*
X0078700Y0073400D01*
X0078700Y0064800D01*
X0078700Y0064800D01*
X0078700Y0064800D01*
X0084300Y0064800D01*
X0084300Y0061359D01*
X0084162Y0060489D01*
X0083890Y0059650D01*
X0083490Y0058865D01*
X0082971Y0058152D01*
X0082348Y0057529D01*
X0081635Y0057010D01*
X0080850Y0056610D01*
X0080011Y0056338D01*
X0079141Y0056200D01*
X0078700Y0056200D01*
X0078700Y0064800D01*
X0078700Y0064800D01*
X0078700Y0064800D01*
X0073100Y0064800D01*
X0073100Y0068241D01*
X0073238Y0069111D01*
X0073510Y0069950D01*
X0073910Y0070735D01*
X0074429Y0071448D01*
X0075052Y0072071D01*
X0075765Y0072590D01*
X0076550Y0072990D01*
X0077389Y0073262D01*
X0078259Y0073400D01*
X0078700Y0073400D01*
X0078700Y0064800D01*
X0078700Y0056200D01*
X0078259Y0056200D01*
X0077389Y0056338D01*
X0076550Y0056610D01*
X0075765Y0057010D01*
X0075052Y0057529D01*
X0074429Y0058152D01*
X0073910Y0058865D01*
X0073510Y0059650D01*
X0073238Y0060489D01*
X0073100Y0061359D01*
X0073100Y0064800D01*
X0078700Y0064800D01*
X0078700Y0063372D02*
X0078700Y0063372D01*
X0078700Y0066570D02*
X0078700Y0066570D01*
X0078700Y0069769D02*
X0078700Y0069769D01*
X0078700Y0072967D02*
X0078700Y0072967D01*
X0076506Y0072967D02*
X0063223Y0072967D01*
X0060025Y0069769D02*
X0073452Y0069769D01*
X0073100Y0066570D02*
X0056826Y0066570D01*
X0053628Y0063372D02*
X0073100Y0063372D01*
X0073340Y0060173D02*
X0050429Y0060173D01*
X0047231Y0056975D02*
X0075835Y0056975D01*
X0078700Y0056975D02*
X0078700Y0056975D01*
X0078700Y0060173D02*
X0078700Y0060173D01*
X0081565Y0056975D02*
X0093635Y0056975D01*
X0093565Y0057010D02*
X0094350Y0056610D01*
X0095189Y0056338D01*
X0096059Y0056200D01*
X0096500Y0056200D01*
X0096500Y0064800D01*
X0096500Y0064800D01*
X0096500Y0064800D01*
X0096500Y0064800D01*
X0090900Y0064800D01*
X0090900Y0068241D01*
X0091038Y0069111D01*
X0091310Y0069950D01*
X0091710Y0070735D01*
X0092229Y0071448D01*
X0092852Y0072071D01*
X0093565Y0072590D01*
X0094350Y0072990D01*
X0095189Y0073262D01*
X0096059Y0073400D01*
X0096500Y0073400D01*
X0096500Y0064800D01*
X0090900Y0064800D01*
X0090900Y0061359D01*
X0091038Y0060489D01*
X0091310Y0059650D01*
X0091710Y0058865D01*
X0092229Y0058152D01*
X0092852Y0057529D01*
X0093565Y0057010D01*
X0094281Y0053776D02*
X0044032Y0053776D01*
X0046580Y0047379D02*
X0037635Y0047379D01*
X0040834Y0050578D02*
X0091082Y0050578D01*
X0090836Y0044957D02*
X0049532Y0044957D01*
X0045361Y0040786D01*
X0045361Y0034886D01*
X0049532Y0030715D01*
X0049997Y0030715D01*
X0057600Y0023112D01*
X0052482Y0017994D01*
X0052876Y0017600D01*
X0097600Y0017600D01*
X0093883Y0012196D02*
X0056755Y0012196D01*
X0061166Y0021791D02*
X0092669Y0021791D01*
X0094917Y0034585D02*
X0111921Y0034585D01*
X0111921Y0037784D02*
X0101905Y0037784D01*
X0104050Y0040982D02*
X0111921Y0040982D01*
X0111921Y0044181D02*
X0104555Y0044181D01*
X0107753Y0047379D02*
X0111921Y0047379D01*
X0111921Y0050578D02*
X0110875Y0050578D01*
X0111400Y0053776D02*
X0111921Y0053776D01*
X0111921Y0056975D02*
X0111400Y0056975D01*
X0111400Y0060173D02*
X0111921Y0060173D01*
X0111921Y0063372D02*
X0111400Y0063372D01*
X0111400Y0066570D02*
X0111921Y0066570D01*
X0111921Y0069769D02*
X0111400Y0069769D01*
X0111400Y0072967D02*
X0111921Y0072967D01*
X0111921Y0076166D02*
X0111400Y0076166D01*
X0111400Y0079364D02*
X0111921Y0079364D01*
X0111921Y0082563D02*
X0111400Y0082563D01*
X0111400Y0085761D02*
X0111921Y0085761D01*
X0111921Y0088960D02*
X0111400Y0088960D01*
X0111400Y0092158D02*
X0111921Y0092158D01*
X0111921Y0095357D02*
X0111400Y0095357D01*
X0111400Y0098555D02*
X0111921Y0098555D01*
X0111921Y0101754D02*
X0111400Y0101754D01*
X0111400Y0104952D02*
X0111921Y0104952D01*
X0111921Y0108151D02*
X0111400Y0108151D01*
X0111400Y0111349D02*
X0111921Y0111349D01*
X0111921Y0114548D02*
X0111400Y0114548D01*
X0111400Y0117746D02*
X0111921Y0117746D01*
X0111921Y0120945D02*
X0111400Y0120945D01*
X0111400Y0124143D02*
X0111921Y0124143D01*
X0111921Y0127342D02*
X0111400Y0127342D01*
X0111400Y0130540D02*
X0111921Y0130540D01*
X0111921Y0133739D02*
X0111400Y0133739D01*
X0111400Y0136937D02*
X0111921Y0136937D01*
X0111921Y0140136D02*
X0111400Y0140136D01*
X0111400Y0143334D02*
X0111921Y0143334D01*
X0111921Y0146533D02*
X0111400Y0146533D01*
X0111400Y0149732D02*
X0111921Y0149732D01*
X0111921Y0152930D02*
X0110349Y0152930D01*
X0111921Y0156129D02*
X0107150Y0156129D01*
X0103952Y0159327D02*
X0111921Y0159327D01*
X0111921Y0162526D02*
X0100753Y0162526D01*
X0097555Y0165724D02*
X0111921Y0165724D01*
X0111921Y0168923D02*
X0094356Y0168923D01*
X0091158Y0172121D02*
X0111921Y0172121D01*
X0111921Y0175320D02*
X0087959Y0175320D01*
X0084761Y0178518D02*
X0111921Y0178518D01*
X0111921Y0181717D02*
X0081562Y0181717D01*
X0078364Y0184915D02*
X0111921Y0184915D01*
X0111921Y0188114D02*
X0075946Y0188114D01*
X0073307Y0190753D02*
X0073307Y0190753D01*
X0072747Y0191312D02*
X0111921Y0191312D01*
X0082600Y0137600D02*
X0072876Y0137600D01*
X0052482Y0117206D01*
X0054983Y0111168D02*
X0049981Y0111168D01*
X0033548Y0127600D01*
X0032600Y0127600D01*
X0032600Y0147600D01*
X0028800Y0130540D02*
X0026518Y0130540D01*
X0026518Y0127342D02*
X0028800Y0127342D01*
X0031015Y0124143D02*
X0026518Y0124143D01*
X0027519Y0120945D02*
X0034829Y0120945D01*
X0038028Y0117746D02*
X0028757Y0117746D01*
X0028153Y0114548D02*
X0041226Y0114548D01*
X0044425Y0111349D02*
X0026518Y0111349D01*
X0026518Y0108151D02*
X0047623Y0108151D01*
X0054983Y0111168D02*
X0058520Y0114705D01*
X0058520Y0116820D01*
X0064300Y0122600D01*
X0096500Y0090400D01*
X0091550Y0085761D02*
X0083650Y0085761D01*
X0083900Y0088960D02*
X0091300Y0088960D01*
X0089368Y0092158D02*
X0083900Y0092158D01*
X0083518Y0095357D02*
X0086169Y0095357D01*
X0082971Y0098555D02*
X0079842Y0098555D01*
X0077558Y0098555D02*
X0026518Y0098555D01*
X0026518Y0095357D02*
X0073882Y0095357D01*
X0071666Y0092158D02*
X0026518Y0092158D01*
X0026518Y0088960D02*
X0068468Y0088960D01*
X0065269Y0085761D02*
X0026518Y0085761D01*
X0026518Y0082563D02*
X0062071Y0082563D01*
X0058872Y0079364D02*
X0026518Y0079364D01*
X0026518Y0076166D02*
X0055674Y0076166D01*
X0052475Y0072967D02*
X0026518Y0072967D01*
X0026518Y0069769D02*
X0049277Y0069769D01*
X0046078Y0066570D02*
X0026518Y0066570D01*
X0026518Y0063372D02*
X0042880Y0063372D01*
X0039681Y0060173D02*
X0026518Y0060173D01*
X0026518Y0056975D02*
X0036483Y0056975D01*
X0033284Y0053776D02*
X0026518Y0053776D01*
X0026518Y0050578D02*
X0030086Y0050578D01*
X0026887Y0047379D02*
X0026518Y0047379D01*
X0031238Y0040982D02*
X0041561Y0040982D01*
X0041561Y0037784D02*
X0029839Y0037784D01*
X0029079Y0034585D02*
X0041561Y0034585D01*
X0043487Y0031387D02*
X0025756Y0031387D01*
X0026518Y0028188D02*
X0046685Y0028188D01*
X0050348Y0024990D02*
X0026518Y0024990D01*
X0028853Y0021791D02*
X0046347Y0021791D01*
X0045361Y0018593D02*
X0029839Y0018593D01*
X0029349Y0015394D02*
X0045851Y0015394D01*
X0048209Y0012196D02*
X0026991Y0012196D01*
X0022718Y0037836D02*
X0075282Y0090400D01*
X0078700Y0090400D01*
X0080610Y0082563D02*
X0094590Y0082563D01*
X0098410Y0082563D02*
X0100000Y0082563D01*
X0100000Y0079364D02*
X0069620Y0079364D01*
X0066422Y0076166D02*
X0100000Y0076166D01*
X0100000Y0072967D02*
X0098694Y0072967D01*
X0096500Y0072967D02*
X0096500Y0072967D01*
X0096500Y0069769D02*
X0096500Y0069769D01*
X0096500Y0066570D02*
X0096500Y0066570D01*
X0096500Y0063372D02*
X0096500Y0063372D01*
X0096500Y0060173D02*
X0096500Y0060173D01*
X0096500Y0056975D02*
X0096500Y0056975D01*
X0091140Y0060173D02*
X0084060Y0060173D01*
X0084300Y0063372D02*
X0090900Y0063372D01*
X0090900Y0066570D02*
X0084300Y0066570D01*
X0083948Y0069769D02*
X0091252Y0069769D01*
X0094306Y0072967D02*
X0080894Y0072967D01*
X0076790Y0082563D02*
X0072819Y0082563D01*
X0079772Y0101754D02*
X0026518Y0101754D01*
X0026518Y0104952D02*
X0076574Y0104952D01*
X0073375Y0108151D02*
X0057340Y0108151D01*
X0060539Y0111349D02*
X0070177Y0111349D01*
X0066978Y0114548D02*
X0062320Y0114548D01*
X0103800Y0126400D02*
X0057600Y0172600D01*
X0062453Y0191312D02*
X0042747Y0191312D01*
X0103800Y0126400D02*
X0103800Y0057922D01*
X0090836Y0044957D01*
X0043381Y0044181D02*
X0034437Y0044181D01*
M02*
