G75*
%MOIN*%
%OFA0B0*%
%FSLAX25Y25*%
%IPPOS*%
%LPD*%
%AMOC8*
5,1,8,0,0,1.08239X$1,22.5*
%
%ADD10OC8,0.08500*%
%ADD11R,0.07600X0.07600*%
%ADD12C,0.07600*%
%ADD13C,0.05694*%
%ADD14OC8,0.05200*%
%ADD15C,0.06000*%
%ADD16C,0.05200*%
%ADD17C,0.03200*%
%ADD18C,0.00800*%
D10*
X0181400Y0196400D03*
X0181400Y0216400D03*
D11*
X0141400Y0261400D03*
X0026400Y0261400D03*
D12*
X0026400Y0251400D03*
X0026400Y0241400D03*
X0026400Y0231400D03*
X0036400Y0231400D03*
X0036400Y0241400D03*
X0036400Y0251400D03*
X0036400Y0261400D03*
X0141400Y0251400D03*
X0141400Y0241400D03*
X0141400Y0231400D03*
X0151400Y0231400D03*
X0151400Y0241400D03*
X0151400Y0251400D03*
X0151400Y0261400D03*
D13*
X0150317Y0171006D03*
X0150317Y0161006D03*
X0150317Y0151006D03*
X0150317Y0141006D03*
X0150317Y0121006D03*
X0130317Y0121006D03*
X0130317Y0141006D03*
X0130317Y0151006D03*
X0130317Y0161006D03*
X0130317Y0171006D03*
X0055317Y0171006D03*
X0055317Y0161006D03*
X0055317Y0151006D03*
X0055317Y0141006D03*
X0055317Y0121006D03*
X0035317Y0121006D03*
X0035317Y0141006D03*
X0035317Y0151006D03*
X0035317Y0161006D03*
X0035317Y0171006D03*
D14*
X0011400Y0191400D03*
X0071400Y0191400D03*
X0071400Y0216400D03*
X0091400Y0216400D03*
X0096400Y0176400D03*
X0096400Y0116400D03*
X0111400Y0081400D03*
X0086400Y0071400D03*
X0081400Y0063900D03*
X0076400Y0071400D03*
X0076400Y0031400D03*
X0081400Y0023900D03*
X0086400Y0031400D03*
X0111400Y0021400D03*
X0181400Y0116400D03*
X0181400Y0176400D03*
X0091400Y0276400D03*
X0071400Y0276400D03*
D15*
X0052200Y0080300D02*
X0046200Y0080300D01*
X0046200Y0062500D02*
X0052200Y0062500D01*
X0052200Y0040300D02*
X0046200Y0040300D01*
X0046200Y0022500D02*
X0052200Y0022500D01*
X0026600Y0022500D02*
X0020600Y0022500D01*
X0020600Y0040300D02*
X0026600Y0040300D01*
X0026600Y0062500D02*
X0020600Y0062500D01*
X0020600Y0080300D02*
X0026600Y0080300D01*
D16*
X0138800Y0076400D02*
X0144000Y0076400D01*
X0144000Y0086400D02*
X0138800Y0086400D01*
X0138800Y0066400D02*
X0144000Y0066400D01*
X0144000Y0056400D02*
X0138800Y0056400D01*
X0138800Y0046400D02*
X0144000Y0046400D01*
X0144000Y0036400D02*
X0138800Y0036400D01*
X0138800Y0026400D02*
X0144000Y0026400D01*
X0168800Y0026400D02*
X0174000Y0026400D01*
X0174000Y0036400D02*
X0168800Y0036400D01*
X0168800Y0046400D02*
X0174000Y0046400D01*
X0174000Y0056400D02*
X0168800Y0056400D01*
X0168800Y0066400D02*
X0174000Y0066400D01*
X0174000Y0076400D02*
X0168800Y0076400D01*
X0168800Y0086400D02*
X0174000Y0086400D01*
D17*
X0171400Y0086400D02*
X0170000Y0085000D01*
X0165238Y0085000D01*
X0156519Y0076281D01*
X0156400Y0076400D01*
X0156400Y0064000D01*
X0148800Y0056400D01*
X0148800Y0054412D01*
X0145988Y0051600D01*
X0136600Y0051600D01*
X0126400Y0041400D01*
X0126400Y0036400D01*
X0111400Y0021400D01*
X0106400Y0016400D01*
X0103700Y0019100D01*
X0079412Y0019100D01*
X0076600Y0021912D01*
X0076600Y0031200D01*
X0076400Y0031400D01*
X0076400Y0071400D01*
X0081400Y0063900D02*
X0116026Y0063900D01*
X0123326Y0071200D01*
X0145988Y0071200D01*
X0148800Y0068388D01*
X0148800Y0064412D01*
X0141400Y0057012D01*
X0141400Y0056400D01*
X0141400Y0066400D02*
X0123900Y0066400D01*
X0091200Y0033700D01*
X0091200Y0029412D01*
X0088388Y0026600D01*
X0084100Y0026600D01*
X0081400Y0023900D01*
X0049200Y0022500D02*
X0049200Y0040300D01*
X0049200Y0062500D01*
X0049200Y0080300D01*
X0051500Y0082600D01*
X0052974Y0082600D01*
X0060364Y0089990D01*
X0060364Y0123097D01*
X0057408Y0126053D01*
X0047502Y0126053D01*
X0037408Y0115959D01*
X0033227Y0115959D01*
X0030270Y0118916D01*
X0030270Y0145959D01*
X0035317Y0151006D01*
X0035317Y0141006D02*
X0050270Y0155959D01*
X0050270Y0195270D01*
X0071400Y0216400D01*
X0091400Y0216400D02*
X0130317Y0177483D01*
X0128888Y0176053D01*
X0128227Y0176053D01*
X0125270Y0173097D01*
X0125270Y0148916D01*
X0130317Y0143869D01*
X0130317Y0141006D01*
X0139164Y0139853D02*
X0139164Y0122716D01*
X0132408Y0115959D01*
X0128227Y0115959D01*
X0093180Y0151006D01*
X0065317Y0151006D01*
X0055317Y0161006D01*
X0061400Y0131400D02*
X0045711Y0131400D01*
X0035317Y0121006D01*
X0055317Y0121006D02*
X0055317Y0090317D01*
X0051400Y0086400D01*
X0044946Y0086400D01*
X0041000Y0082454D01*
X0041000Y0079900D01*
X0023600Y0062500D01*
X0015400Y0064654D02*
X0023600Y0072854D01*
X0023600Y0080300D01*
X0011400Y0092500D01*
X0011400Y0191400D01*
X0042400Y0222400D01*
X0042400Y0253885D01*
X0036400Y0259885D01*
X0036400Y0261400D01*
X0141400Y0261400D01*
X0151400Y0251400D02*
X0179950Y0222850D01*
X0184072Y0222850D01*
X0187850Y0219072D01*
X0187850Y0206598D01*
X0181400Y0200148D01*
X0181400Y0196400D01*
X0196400Y0181400D01*
X0196400Y0171400D01*
X0186400Y0161400D01*
X0186400Y0091400D01*
X0176200Y0081200D01*
X0166812Y0081200D01*
X0164000Y0078388D01*
X0164000Y0069000D01*
X0160200Y0065200D01*
X0160200Y0055200D01*
X0151400Y0046400D01*
X0141400Y0046400D01*
X0141400Y0036400D01*
X0141400Y0026400D02*
X0171400Y0026400D01*
X0171400Y0036400D01*
X0171400Y0037012D01*
X0164000Y0044412D01*
X0164000Y0058388D01*
X0171400Y0065788D01*
X0171400Y0066400D01*
X0171400Y0076400D01*
X0141400Y0076400D02*
X0136400Y0081400D01*
X0141400Y0086400D01*
X0182600Y0127600D01*
X0182600Y0162974D01*
X0191400Y0171774D01*
X0191400Y0181026D01*
X0182476Y0189950D01*
X0178728Y0189950D01*
X0174950Y0193728D01*
X0174950Y0199072D01*
X0182600Y0206722D01*
X0182600Y0215200D01*
X0181400Y0216400D01*
X0171150Y0221650D02*
X0171150Y0192154D01*
X0176400Y0186904D01*
X0176400Y0181400D01*
X0176600Y0181200D01*
X0183388Y0181200D01*
X0186200Y0178388D01*
X0186200Y0174412D01*
X0183388Y0171600D01*
X0156861Y0171600D01*
X0152408Y0176053D01*
X0148227Y0176053D01*
X0145270Y0173097D01*
X0145270Y0168916D01*
X0150317Y0163869D01*
X0150317Y0161006D01*
X0155364Y0165959D02*
X0150317Y0171006D01*
X0155364Y0165959D02*
X0155364Y0118916D01*
X0122648Y0086200D01*
X0109412Y0086200D01*
X0106600Y0083388D01*
X0106600Y0079412D01*
X0107848Y0078163D01*
X0107848Y0071400D01*
X0086400Y0071400D01*
X0111400Y0081400D02*
X0136400Y0081400D01*
X0130317Y0121006D02*
X0135364Y0126053D01*
X0135364Y0163097D01*
X0132408Y0166053D01*
X0131747Y0166053D01*
X0131400Y0166400D01*
X0131400Y0169924D01*
X0142876Y0181400D01*
X0156400Y0181400D01*
X0161400Y0176400D01*
X0181400Y0176400D01*
X0150317Y0151006D02*
X0139164Y0139853D01*
X0131400Y0169924D02*
X0130317Y0171006D01*
X0096400Y0116400D02*
X0076400Y0116400D01*
X0061400Y0131400D01*
X0015400Y0064654D02*
X0015400Y0060346D01*
X0023600Y0052146D01*
X0023600Y0040300D01*
X0171150Y0221650D02*
X0151400Y0241400D01*
X0091400Y0276400D02*
X0078188Y0276400D01*
X0073388Y0281200D01*
X0035489Y0281200D01*
X0020400Y0266111D01*
X0020400Y0256689D01*
X0021689Y0255400D01*
X0022400Y0255400D01*
X0026400Y0251400D01*
X0026400Y0261400D02*
X0041400Y0276400D01*
X0071400Y0276400D01*
D18*
X0006200Y0006200D02*
X0201600Y0006200D01*
X0201600Y0286600D01*
X0006200Y0286600D01*
X0006200Y0006200D01*
X0006200Y0006990D02*
X0201600Y0006990D01*
X0201600Y0007788D02*
X0006200Y0007788D01*
X0006200Y0008587D02*
X0201600Y0008587D01*
X0201600Y0009385D02*
X0006200Y0009385D01*
X0006200Y0010184D02*
X0201600Y0010184D01*
X0201600Y0010982D02*
X0006200Y0010982D01*
X0006200Y0011781D02*
X0201600Y0011781D01*
X0201600Y0012579D02*
X0006200Y0012579D01*
X0006200Y0013378D02*
X0201600Y0013378D01*
X0201600Y0014176D02*
X0107825Y0014176D01*
X0107873Y0014196D02*
X0111477Y0017800D01*
X0112891Y0017800D01*
X0115000Y0019909D01*
X0115000Y0021323D01*
X0128604Y0034927D01*
X0129000Y0035883D01*
X0129000Y0040323D01*
X0135200Y0046523D01*
X0135200Y0045684D01*
X0135748Y0044361D01*
X0136761Y0043348D01*
X0138084Y0042800D01*
X0138800Y0042800D01*
X0138800Y0040000D01*
X0138084Y0040000D01*
X0136761Y0039452D01*
X0135748Y0038439D01*
X0135200Y0037116D01*
X0135200Y0035684D01*
X0135748Y0034361D01*
X0136761Y0033348D01*
X0138084Y0032800D01*
X0144716Y0032800D01*
X0146039Y0033348D01*
X0147052Y0034361D01*
X0147600Y0035684D01*
X0147600Y0037116D01*
X0147052Y0038439D01*
X0146039Y0039452D01*
X0144716Y0040000D01*
X0144000Y0040000D01*
X0144000Y0042800D01*
X0144716Y0042800D01*
X0146039Y0043348D01*
X0146491Y0043800D01*
X0151917Y0043800D01*
X0152873Y0044196D01*
X0161673Y0052996D01*
X0162404Y0053727D01*
X0162800Y0054683D01*
X0162800Y0064123D01*
X0165477Y0066800D01*
X0171000Y0066800D01*
X0171000Y0070400D01*
X0168406Y0070400D01*
X0167633Y0070246D01*
X0166905Y0069945D01*
X0166600Y0069741D01*
X0166600Y0073059D01*
X0166905Y0072855D01*
X0167633Y0072554D01*
X0168406Y0072400D01*
X0171000Y0072400D01*
X0171000Y0076000D01*
X0171800Y0076000D01*
X0171800Y0076800D01*
X0177999Y0076800D01*
X0177846Y0077567D01*
X0177545Y0078295D01*
X0177206Y0078802D01*
X0177673Y0078996D01*
X0178404Y0079727D01*
X0188604Y0089927D01*
X0189000Y0090883D01*
X0189000Y0160323D01*
X0198604Y0169927D01*
X0199000Y0170883D01*
X0199000Y0181917D01*
X0198604Y0182873D01*
X0186650Y0194827D01*
X0186650Y0198575D01*
X0185077Y0200148D01*
X0189323Y0204393D01*
X0190054Y0205125D01*
X0190450Y0206080D01*
X0190450Y0219589D01*
X0190054Y0220544D01*
X0189323Y0221276D01*
X0186276Y0224323D01*
X0185544Y0225054D01*
X0184589Y0225450D01*
X0181027Y0225450D01*
X0156151Y0250326D01*
X0156200Y0250445D01*
X0156200Y0252355D01*
X0155469Y0254119D01*
X0154119Y0255469D01*
X0152355Y0256200D01*
X0150445Y0256200D01*
X0148681Y0255469D01*
X0147331Y0254119D01*
X0146600Y0252355D01*
X0146600Y0250445D01*
X0147331Y0248681D01*
X0148681Y0247331D01*
X0150445Y0246600D01*
X0152355Y0246600D01*
X0152474Y0246649D01*
X0153325Y0245798D01*
X0152355Y0246200D01*
X0150445Y0246200D01*
X0148681Y0245469D01*
X0147331Y0244119D01*
X0146600Y0242355D01*
X0146600Y0240445D01*
X0147331Y0238681D01*
X0148681Y0237331D01*
X0150445Y0236600D01*
X0152355Y0236600D01*
X0152474Y0236649D01*
X0153325Y0235798D01*
X0152355Y0236200D01*
X0150445Y0236200D01*
X0148681Y0235469D01*
X0147331Y0234119D01*
X0146600Y0232355D01*
X0146600Y0230445D01*
X0147331Y0228681D01*
X0148681Y0227331D01*
X0150445Y0226600D01*
X0152355Y0226600D01*
X0154119Y0227331D01*
X0155469Y0228681D01*
X0156200Y0230445D01*
X0156200Y0232355D01*
X0155798Y0233325D01*
X0168550Y0220573D01*
X0168550Y0191637D01*
X0168946Y0190682D01*
X0169677Y0189950D01*
X0173800Y0185827D01*
X0173800Y0180883D01*
X0174196Y0179927D01*
X0174396Y0179727D01*
X0175123Y0179000D01*
X0162477Y0179000D01*
X0158604Y0182873D01*
X0157873Y0183604D01*
X0156917Y0184000D01*
X0142359Y0184000D01*
X0141404Y0183604D01*
X0140672Y0182873D01*
X0132193Y0174393D01*
X0131282Y0174771D01*
X0132521Y0176010D01*
X0132917Y0176965D01*
X0132917Y0178000D01*
X0132521Y0178955D01*
X0131790Y0179687D01*
X0095000Y0216477D01*
X0095000Y0217891D01*
X0092891Y0220000D01*
X0089909Y0220000D01*
X0087800Y0217891D01*
X0087800Y0214909D01*
X0089909Y0212800D01*
X0091323Y0212800D01*
X0126310Y0177813D01*
X0126023Y0177526D01*
X0123798Y0175301D01*
X0123066Y0174570D01*
X0122670Y0173614D01*
X0122670Y0148399D01*
X0123066Y0147443D01*
X0123798Y0146712D01*
X0127190Y0143319D01*
X0127056Y0143185D01*
X0126470Y0141772D01*
X0126470Y0140241D01*
X0127056Y0138827D01*
X0128138Y0137745D01*
X0129552Y0137159D01*
X0131083Y0137159D01*
X0132496Y0137745D01*
X0132764Y0138013D01*
X0132764Y0127130D01*
X0130487Y0124853D01*
X0129552Y0124853D01*
X0128138Y0124268D01*
X0127056Y0123185D01*
X0126470Y0121772D01*
X0126470Y0121393D01*
X0094653Y0153210D01*
X0093697Y0153606D01*
X0066394Y0153606D01*
X0059164Y0160836D01*
X0059164Y0161772D01*
X0058579Y0163185D01*
X0057496Y0164268D01*
X0056083Y0164853D01*
X0054552Y0164853D01*
X0053138Y0164268D01*
X0052870Y0164000D01*
X0052870Y0168013D01*
X0053138Y0167745D01*
X0054552Y0167159D01*
X0056083Y0167159D01*
X0057496Y0167745D01*
X0058579Y0168827D01*
X0059164Y0170241D01*
X0059164Y0171772D01*
X0058579Y0173185D01*
X0057496Y0174268D01*
X0056083Y0174853D01*
X0054552Y0174853D01*
X0053138Y0174268D01*
X0052870Y0174000D01*
X0052870Y0194193D01*
X0071477Y0212800D01*
X0072891Y0212800D01*
X0075000Y0214909D01*
X0075000Y0217891D01*
X0072891Y0220000D01*
X0069909Y0220000D01*
X0067800Y0217891D01*
X0067800Y0216477D01*
X0048798Y0197475D01*
X0048066Y0196743D01*
X0047670Y0195788D01*
X0047670Y0157036D01*
X0035487Y0144853D01*
X0034552Y0144853D01*
X0033138Y0144268D01*
X0032056Y0143185D01*
X0031470Y0141772D01*
X0031470Y0140241D01*
X0032056Y0138827D01*
X0033138Y0137745D01*
X0034552Y0137159D01*
X0036083Y0137159D01*
X0037496Y0137745D01*
X0038579Y0138827D01*
X0039164Y0140241D01*
X0039164Y0141176D01*
X0051743Y0153755D01*
X0051743Y0153755D01*
X0052475Y0154487D01*
X0052870Y0155442D01*
X0052870Y0158013D01*
X0053138Y0157745D01*
X0054552Y0157159D01*
X0055487Y0157159D01*
X0063113Y0149534D01*
X0063845Y0148802D01*
X0064800Y0148406D01*
X0092103Y0148406D01*
X0126754Y0113755D01*
X0127710Y0113359D01*
X0132925Y0113359D01*
X0133881Y0113755D01*
X0134612Y0114487D01*
X0141368Y0121243D01*
X0141764Y0122199D01*
X0141764Y0138776D01*
X0150147Y0147159D01*
X0151083Y0147159D01*
X0152496Y0147745D01*
X0152764Y0148013D01*
X0152764Y0144000D01*
X0152496Y0144268D01*
X0151083Y0144853D01*
X0149552Y0144853D01*
X0148138Y0144268D01*
X0147056Y0143185D01*
X0146470Y0141772D01*
X0146470Y0140241D01*
X0147056Y0138827D01*
X0148138Y0137745D01*
X0149552Y0137159D01*
X0151083Y0137159D01*
X0152496Y0137745D01*
X0152764Y0138013D01*
X0152764Y0124000D01*
X0152496Y0124268D01*
X0151083Y0124853D01*
X0149552Y0124853D01*
X0148138Y0124268D01*
X0147056Y0123185D01*
X0146470Y0121772D01*
X0146470Y0120241D01*
X0147056Y0118827D01*
X0148138Y0117745D01*
X0149552Y0117159D01*
X0149931Y0117159D01*
X0121572Y0088800D01*
X0108895Y0088800D01*
X0107939Y0088404D01*
X0107208Y0087673D01*
X0107208Y0087673D01*
X0104396Y0084861D01*
X0104000Y0083905D01*
X0104000Y0078895D01*
X0104396Y0077939D01*
X0105248Y0077086D01*
X0105248Y0074000D01*
X0088891Y0074000D01*
X0087891Y0075000D01*
X0084909Y0075000D01*
X0082800Y0072891D01*
X0082800Y0069909D01*
X0084909Y0067800D01*
X0087891Y0067800D01*
X0088891Y0068800D01*
X0108366Y0068800D01*
X0109321Y0069196D01*
X0110053Y0069927D01*
X0110448Y0070883D01*
X0110448Y0077800D01*
X0112891Y0077800D01*
X0113891Y0078800D01*
X0135323Y0078800D01*
X0135729Y0078394D01*
X0135200Y0077116D01*
X0135200Y0075684D01*
X0135748Y0074361D01*
X0136309Y0073800D01*
X0122809Y0073800D01*
X0121853Y0073404D01*
X0114949Y0066500D01*
X0083891Y0066500D01*
X0082891Y0067500D01*
X0079909Y0067500D01*
X0079000Y0066591D01*
X0079000Y0068909D01*
X0080000Y0069909D01*
X0080000Y0072891D01*
X0077891Y0075000D01*
X0074909Y0075000D01*
X0072800Y0072891D01*
X0072800Y0069909D01*
X0073800Y0068909D01*
X0073800Y0033891D01*
X0072800Y0032891D01*
X0072800Y0029909D01*
X0074000Y0028709D01*
X0074000Y0021395D01*
X0074396Y0020439D01*
X0075127Y0019708D01*
X0077208Y0017627D01*
X0077939Y0016896D01*
X0078895Y0016500D01*
X0102623Y0016500D01*
X0104196Y0014927D01*
X0104927Y0014196D01*
X0105883Y0013800D01*
X0106917Y0013800D01*
X0107873Y0014196D01*
X0108652Y0014975D02*
X0201600Y0014975D01*
X0201600Y0015773D02*
X0109450Y0015773D01*
X0110249Y0016572D02*
X0201600Y0016572D01*
X0201600Y0017370D02*
X0111047Y0017370D01*
X0113260Y0018169D02*
X0201600Y0018169D01*
X0201600Y0018967D02*
X0114058Y0018967D01*
X0114857Y0019766D02*
X0201600Y0019766D01*
X0201600Y0020564D02*
X0115000Y0020564D01*
X0115040Y0021363D02*
X0201600Y0021363D01*
X0201600Y0022161D02*
X0115838Y0022161D01*
X0116637Y0022960D02*
X0136749Y0022960D01*
X0136905Y0022855D02*
X0137633Y0022554D01*
X0138406Y0022400D01*
X0141000Y0022400D01*
X0141000Y0026000D01*
X0141800Y0026000D01*
X0141800Y0026800D01*
X0141000Y0026800D01*
X0141000Y0030400D01*
X0138406Y0030400D01*
X0137633Y0030246D01*
X0136905Y0029945D01*
X0136250Y0029507D01*
X0135693Y0028950D01*
X0135255Y0028295D01*
X0134954Y0027567D01*
X0134801Y0026800D01*
X0141000Y0026800D01*
X0141000Y0026000D01*
X0134801Y0026000D01*
X0134954Y0025233D01*
X0135255Y0024505D01*
X0135693Y0023850D01*
X0136250Y0023293D01*
X0136905Y0022855D01*
X0135785Y0023758D02*
X0117435Y0023758D01*
X0118234Y0024557D02*
X0135234Y0024557D01*
X0134929Y0025355D02*
X0119032Y0025355D01*
X0119831Y0026154D02*
X0141000Y0026154D01*
X0141000Y0026952D02*
X0141800Y0026952D01*
X0141800Y0026800D02*
X0141800Y0030400D01*
X0144394Y0030400D01*
X0145167Y0030246D01*
X0145895Y0029945D01*
X0146550Y0029507D01*
X0147107Y0028950D01*
X0147545Y0028295D01*
X0147846Y0027567D01*
X0147999Y0026800D01*
X0141800Y0026800D01*
X0141800Y0026154D02*
X0171000Y0026154D01*
X0171000Y0026000D02*
X0164801Y0026000D01*
X0164954Y0025233D01*
X0165255Y0024505D01*
X0165693Y0023850D01*
X0166250Y0023293D01*
X0166905Y0022855D01*
X0167633Y0022554D01*
X0168406Y0022400D01*
X0171000Y0022400D01*
X0171000Y0026000D01*
X0171800Y0026000D01*
X0171800Y0026800D01*
X0171000Y0026800D01*
X0171000Y0030400D01*
X0168406Y0030400D01*
X0167633Y0030246D01*
X0166905Y0029945D01*
X0166250Y0029507D01*
X0165693Y0028950D01*
X0165255Y0028295D01*
X0164954Y0027567D01*
X0164801Y0026800D01*
X0171000Y0026800D01*
X0171000Y0026000D01*
X0171000Y0025355D02*
X0171800Y0025355D01*
X0171800Y0026000D02*
X0171800Y0022400D01*
X0174394Y0022400D01*
X0175167Y0022554D01*
X0175895Y0022855D01*
X0176550Y0023293D01*
X0177107Y0023850D01*
X0177545Y0024505D01*
X0177846Y0025233D01*
X0177999Y0026000D01*
X0171800Y0026000D01*
X0171800Y0026154D02*
X0201600Y0026154D01*
X0201600Y0026952D02*
X0177968Y0026952D01*
X0177999Y0026800D02*
X0177846Y0027567D01*
X0177545Y0028295D01*
X0177107Y0028950D01*
X0176550Y0029507D01*
X0175895Y0029945D01*
X0175167Y0030246D01*
X0174394Y0030400D01*
X0171800Y0030400D01*
X0171800Y0026800D01*
X0177999Y0026800D01*
X0177770Y0027751D02*
X0201600Y0027751D01*
X0201600Y0028549D02*
X0177375Y0028549D01*
X0176709Y0029348D02*
X0201600Y0029348D01*
X0201600Y0030146D02*
X0175408Y0030146D01*
X0175108Y0032542D02*
X0201600Y0032542D01*
X0201600Y0033340D02*
X0176597Y0033340D01*
X0176550Y0033293D02*
X0177107Y0033850D01*
X0177545Y0034505D01*
X0177846Y0035233D01*
X0177999Y0036000D01*
X0171800Y0036000D01*
X0171800Y0036800D01*
X0171000Y0036800D01*
X0171000Y0040400D01*
X0168406Y0040400D01*
X0167633Y0040246D01*
X0166905Y0039945D01*
X0166250Y0039507D01*
X0165693Y0038950D01*
X0165255Y0038295D01*
X0164954Y0037567D01*
X0164801Y0036800D01*
X0171000Y0036800D01*
X0171000Y0036000D01*
X0171800Y0036000D01*
X0171800Y0032400D01*
X0174394Y0032400D01*
X0175167Y0032554D01*
X0175895Y0032855D01*
X0176550Y0033293D01*
X0177300Y0034139D02*
X0201600Y0034139D01*
X0201600Y0034937D02*
X0177724Y0034937D01*
X0177946Y0035736D02*
X0201600Y0035736D01*
X0201600Y0036534D02*
X0171800Y0036534D01*
X0171800Y0036800D02*
X0177999Y0036800D01*
X0177846Y0037567D01*
X0177545Y0038295D01*
X0177107Y0038950D01*
X0176550Y0039507D01*
X0175895Y0039945D01*
X0175167Y0040246D01*
X0174394Y0040400D01*
X0171800Y0040400D01*
X0171800Y0036800D01*
X0171800Y0037333D02*
X0171000Y0037333D01*
X0171000Y0036534D02*
X0147600Y0036534D01*
X0147600Y0035736D02*
X0164854Y0035736D01*
X0164801Y0036000D02*
X0164954Y0035233D01*
X0165255Y0034505D01*
X0165693Y0033850D01*
X0166250Y0033293D01*
X0166905Y0032855D01*
X0167633Y0032554D01*
X0168406Y0032400D01*
X0171000Y0032400D01*
X0171000Y0036000D01*
X0164801Y0036000D01*
X0165076Y0034937D02*
X0147291Y0034937D01*
X0146830Y0034139D02*
X0165500Y0034139D01*
X0166203Y0033340D02*
X0146021Y0033340D01*
X0145408Y0030146D02*
X0167392Y0030146D01*
X0166091Y0029348D02*
X0146709Y0029348D01*
X0147375Y0028549D02*
X0165425Y0028549D01*
X0165030Y0027751D02*
X0147770Y0027751D01*
X0147968Y0026952D02*
X0164832Y0026952D01*
X0164929Y0025355D02*
X0147871Y0025355D01*
X0147846Y0025233D02*
X0147545Y0024505D01*
X0147107Y0023850D01*
X0146550Y0023293D01*
X0145895Y0022855D01*
X0145167Y0022554D01*
X0144394Y0022400D01*
X0141800Y0022400D01*
X0141800Y0026000D01*
X0147999Y0026000D01*
X0147846Y0025233D01*
X0147566Y0024557D02*
X0165234Y0024557D01*
X0165785Y0023758D02*
X0147015Y0023758D01*
X0146051Y0022960D02*
X0166749Y0022960D01*
X0171000Y0022960D02*
X0171800Y0022960D01*
X0171800Y0023758D02*
X0171000Y0023758D01*
X0171000Y0024557D02*
X0171800Y0024557D01*
X0171800Y0026952D02*
X0171000Y0026952D01*
X0171000Y0027751D02*
X0171800Y0027751D01*
X0171800Y0028549D02*
X0171000Y0028549D01*
X0171000Y0029348D02*
X0171800Y0029348D01*
X0171800Y0030146D02*
X0171000Y0030146D01*
X0171000Y0032542D02*
X0171800Y0032542D01*
X0171800Y0033340D02*
X0171000Y0033340D01*
X0171000Y0034139D02*
X0171800Y0034139D01*
X0171800Y0034937D02*
X0171000Y0034937D01*
X0171000Y0035736D02*
X0171800Y0035736D01*
X0171800Y0038132D02*
X0171000Y0038132D01*
X0171000Y0038930D02*
X0171800Y0038930D01*
X0171800Y0039729D02*
X0171000Y0039729D01*
X0168084Y0042800D02*
X0174716Y0042800D01*
X0176039Y0043348D01*
X0177052Y0044361D01*
X0177600Y0045684D01*
X0177600Y0047116D01*
X0177052Y0048439D01*
X0176039Y0049452D01*
X0174716Y0050000D01*
X0168084Y0050000D01*
X0166761Y0049452D01*
X0165748Y0048439D01*
X0165200Y0047116D01*
X0165200Y0045684D01*
X0165748Y0044361D01*
X0166761Y0043348D01*
X0168084Y0042800D01*
X0167788Y0042923D02*
X0145012Y0042923D01*
X0144000Y0042124D02*
X0201600Y0042124D01*
X0201600Y0041326D02*
X0144000Y0041326D01*
X0144000Y0040527D02*
X0201600Y0040527D01*
X0201600Y0039729D02*
X0176218Y0039729D01*
X0177120Y0038930D02*
X0201600Y0038930D01*
X0201600Y0038132D02*
X0177612Y0038132D01*
X0177893Y0037333D02*
X0201600Y0037333D01*
X0201600Y0031743D02*
X0125420Y0031743D01*
X0124622Y0030945D02*
X0201600Y0030945D01*
X0201600Y0025355D02*
X0177871Y0025355D01*
X0177566Y0024557D02*
X0201600Y0024557D01*
X0201600Y0023758D02*
X0177015Y0023758D01*
X0176051Y0022960D02*
X0201600Y0022960D01*
X0201600Y0042923D02*
X0175012Y0042923D01*
X0176412Y0043721D02*
X0201600Y0043721D01*
X0201600Y0044520D02*
X0177118Y0044520D01*
X0177448Y0045318D02*
X0201600Y0045318D01*
X0201600Y0046117D02*
X0177600Y0046117D01*
X0177600Y0046915D02*
X0201600Y0046915D01*
X0201600Y0047714D02*
X0177352Y0047714D01*
X0176979Y0048512D02*
X0201600Y0048512D01*
X0201600Y0049311D02*
X0176180Y0049311D01*
X0174716Y0052800D02*
X0176039Y0053348D01*
X0177052Y0054361D01*
X0177600Y0055684D01*
X0177600Y0057116D01*
X0177052Y0058439D01*
X0176039Y0059452D01*
X0174716Y0060000D01*
X0168084Y0060000D01*
X0166761Y0059452D01*
X0165748Y0058439D01*
X0165200Y0057116D01*
X0165200Y0055684D01*
X0165748Y0054361D01*
X0166761Y0053348D01*
X0168084Y0052800D01*
X0174716Y0052800D01*
X0175931Y0053303D02*
X0201600Y0053303D01*
X0201600Y0052505D02*
X0161182Y0052505D01*
X0161980Y0053303D02*
X0166869Y0053303D01*
X0166007Y0054102D02*
X0162559Y0054102D01*
X0162800Y0054900D02*
X0165525Y0054900D01*
X0165200Y0055699D02*
X0162800Y0055699D01*
X0162800Y0056497D02*
X0165200Y0056497D01*
X0165274Y0057296D02*
X0162800Y0057296D01*
X0162800Y0058094D02*
X0165605Y0058094D01*
X0166202Y0058893D02*
X0162800Y0058893D01*
X0162800Y0059691D02*
X0167339Y0059691D01*
X0167633Y0062554D02*
X0168406Y0062400D01*
X0171000Y0062400D01*
X0171000Y0066000D01*
X0171800Y0066000D01*
X0171800Y0066800D01*
X0171000Y0066800D01*
X0171000Y0066000D01*
X0164801Y0066000D01*
X0164954Y0065233D01*
X0165255Y0064505D01*
X0165693Y0063850D01*
X0166250Y0063293D01*
X0166905Y0062855D01*
X0167633Y0062554D01*
X0166860Y0062885D02*
X0162800Y0062885D01*
X0162800Y0062087D02*
X0201600Y0062087D01*
X0201600Y0062885D02*
X0175940Y0062885D01*
X0175895Y0062855D02*
X0176550Y0063293D01*
X0177107Y0063850D01*
X0177545Y0064505D01*
X0177846Y0065233D01*
X0177999Y0066000D01*
X0171800Y0066000D01*
X0171800Y0062400D01*
X0174394Y0062400D01*
X0175167Y0062554D01*
X0175895Y0062855D01*
X0176941Y0063684D02*
X0201600Y0063684D01*
X0201600Y0064482D02*
X0177529Y0064482D01*
X0177856Y0065281D02*
X0201600Y0065281D01*
X0201600Y0066079D02*
X0171800Y0066079D01*
X0171800Y0066800D02*
X0177999Y0066800D01*
X0177846Y0067567D01*
X0177545Y0068295D01*
X0177107Y0068950D01*
X0176550Y0069507D01*
X0175895Y0069945D01*
X0175167Y0070246D01*
X0174394Y0070400D01*
X0171800Y0070400D01*
X0171800Y0066800D01*
X0171800Y0066878D02*
X0171000Y0066878D01*
X0171000Y0067676D02*
X0171800Y0067676D01*
X0171800Y0068475D02*
X0171000Y0068475D01*
X0171000Y0069273D02*
X0171800Y0069273D01*
X0171800Y0070072D02*
X0171000Y0070072D01*
X0171000Y0072468D02*
X0171800Y0072468D01*
X0171800Y0072400D02*
X0174394Y0072400D01*
X0175167Y0072554D01*
X0175895Y0072855D01*
X0176550Y0073293D01*
X0177107Y0073850D01*
X0177545Y0074505D01*
X0177846Y0075233D01*
X0177999Y0076000D01*
X0171800Y0076000D01*
X0171800Y0072400D01*
X0171800Y0073266D02*
X0171000Y0073266D01*
X0171000Y0074065D02*
X0171800Y0074065D01*
X0171800Y0074863D02*
X0171000Y0074863D01*
X0171000Y0075662D02*
X0171800Y0075662D01*
X0171800Y0076460D02*
X0201600Y0076460D01*
X0201600Y0075662D02*
X0177931Y0075662D01*
X0177693Y0074863D02*
X0201600Y0074863D01*
X0201600Y0074065D02*
X0177250Y0074065D01*
X0176509Y0073266D02*
X0201600Y0073266D01*
X0201600Y0072468D02*
X0174733Y0072468D01*
X0175588Y0070072D02*
X0201600Y0070072D01*
X0201600Y0070870D02*
X0166600Y0070870D01*
X0166600Y0070072D02*
X0167212Y0070072D01*
X0166600Y0071669D02*
X0201600Y0071669D01*
X0201600Y0069273D02*
X0176783Y0069273D01*
X0177424Y0068475D02*
X0201600Y0068475D01*
X0201600Y0067676D02*
X0177801Y0067676D01*
X0177983Y0066878D02*
X0201600Y0066878D01*
X0201600Y0061288D02*
X0162800Y0061288D01*
X0162800Y0060490D02*
X0201600Y0060490D01*
X0201600Y0059691D02*
X0175461Y0059691D01*
X0176598Y0058893D02*
X0201600Y0058893D01*
X0201600Y0058094D02*
X0177195Y0058094D01*
X0177526Y0057296D02*
X0201600Y0057296D01*
X0201600Y0056497D02*
X0177600Y0056497D01*
X0177600Y0055699D02*
X0201600Y0055699D01*
X0201600Y0054900D02*
X0177275Y0054900D01*
X0176793Y0054102D02*
X0201600Y0054102D01*
X0201600Y0051706D02*
X0160383Y0051706D01*
X0159585Y0050908D02*
X0201600Y0050908D01*
X0201600Y0050109D02*
X0158786Y0050109D01*
X0157988Y0049311D02*
X0166620Y0049311D01*
X0165821Y0048512D02*
X0157189Y0048512D01*
X0156391Y0047714D02*
X0165448Y0047714D01*
X0165200Y0046915D02*
X0155592Y0046915D01*
X0154794Y0046117D02*
X0165200Y0046117D01*
X0165352Y0045318D02*
X0153995Y0045318D01*
X0153197Y0044520D02*
X0165682Y0044520D01*
X0166388Y0043721D02*
X0146412Y0043721D01*
X0145371Y0039729D02*
X0166582Y0039729D01*
X0165680Y0038930D02*
X0146561Y0038930D01*
X0147179Y0038132D02*
X0165188Y0038132D01*
X0164907Y0037333D02*
X0147510Y0037333D01*
X0141800Y0030146D02*
X0141000Y0030146D01*
X0141000Y0029348D02*
X0141800Y0029348D01*
X0141800Y0028549D02*
X0141000Y0028549D01*
X0141000Y0027751D02*
X0141800Y0027751D01*
X0141800Y0025355D02*
X0141000Y0025355D01*
X0141000Y0024557D02*
X0141800Y0024557D01*
X0141800Y0023758D02*
X0141000Y0023758D01*
X0141000Y0022960D02*
X0141800Y0022960D01*
X0137392Y0030146D02*
X0123823Y0030146D01*
X0123025Y0029348D02*
X0136091Y0029348D01*
X0135425Y0028549D02*
X0122226Y0028549D01*
X0121428Y0027751D02*
X0135030Y0027751D01*
X0134832Y0026952D02*
X0120629Y0026952D01*
X0126219Y0032542D02*
X0167692Y0032542D01*
X0147616Y0058893D02*
X0146958Y0058893D01*
X0146778Y0058713D02*
X0151004Y0062939D01*
X0151400Y0063895D01*
X0151400Y0068905D01*
X0151004Y0069861D01*
X0148192Y0072673D01*
X0147461Y0073404D01*
X0146505Y0073800D01*
X0146491Y0073800D01*
X0147052Y0074361D01*
X0147600Y0075684D01*
X0147600Y0077116D01*
X0147052Y0078439D01*
X0146039Y0079452D01*
X0144716Y0080000D01*
X0141477Y0080000D01*
X0140077Y0081400D01*
X0141477Y0082800D01*
X0144716Y0082800D01*
X0146039Y0083348D01*
X0147052Y0084361D01*
X0147600Y0085684D01*
X0147600Y0087116D01*
X0147071Y0088394D01*
X0183800Y0125123D01*
X0183800Y0119657D01*
X0183057Y0120400D01*
X0181800Y0120400D01*
X0181800Y0116800D01*
X0181000Y0116800D01*
X0181000Y0120400D01*
X0179743Y0120400D01*
X0177400Y0118057D01*
X0177400Y0116800D01*
X0181000Y0116800D01*
X0181000Y0116000D01*
X0181800Y0116000D01*
X0181800Y0112400D01*
X0183057Y0112400D01*
X0183800Y0113143D01*
X0183800Y0092477D01*
X0177600Y0086277D01*
X0177600Y0087116D01*
X0177052Y0088439D01*
X0176039Y0089452D01*
X0174716Y0090000D01*
X0168084Y0090000D01*
X0166761Y0089452D01*
X0165748Y0088439D01*
X0165400Y0087600D01*
X0164721Y0087600D01*
X0163765Y0087204D01*
X0155333Y0078772D01*
X0154927Y0078604D01*
X0154196Y0077873D01*
X0153800Y0076917D01*
X0153800Y0065077D01*
X0147327Y0058604D01*
X0147084Y0058361D01*
X0147052Y0058439D01*
X0146778Y0058713D01*
X0147327Y0058604D02*
X0147327Y0058604D01*
X0147757Y0059691D02*
X0148414Y0059691D01*
X0148555Y0060490D02*
X0149213Y0060490D01*
X0149354Y0061288D02*
X0150011Y0061288D01*
X0150152Y0062087D02*
X0150810Y0062087D01*
X0150951Y0062885D02*
X0151608Y0062885D01*
X0151313Y0063684D02*
X0152407Y0063684D01*
X0153205Y0064482D02*
X0151400Y0064482D01*
X0151400Y0065281D02*
X0153800Y0065281D01*
X0153800Y0066079D02*
X0151400Y0066079D01*
X0151400Y0066878D02*
X0153800Y0066878D01*
X0153800Y0067676D02*
X0151400Y0067676D01*
X0151400Y0068475D02*
X0153800Y0068475D01*
X0153800Y0069273D02*
X0151248Y0069273D01*
X0150793Y0070072D02*
X0153800Y0070072D01*
X0153800Y0070870D02*
X0149995Y0070870D01*
X0149196Y0071669D02*
X0153800Y0071669D01*
X0153800Y0072468D02*
X0148398Y0072468D01*
X0147599Y0073266D02*
X0153800Y0073266D01*
X0153800Y0074065D02*
X0146756Y0074065D01*
X0147260Y0074863D02*
X0153800Y0074863D01*
X0153800Y0075662D02*
X0147591Y0075662D01*
X0147600Y0076460D02*
X0153800Y0076460D01*
X0153941Y0077259D02*
X0147541Y0077259D01*
X0147210Y0078057D02*
X0154380Y0078057D01*
X0155416Y0078856D02*
X0146636Y0078856D01*
X0145551Y0079654D02*
X0156215Y0079654D01*
X0157013Y0080453D02*
X0141024Y0080453D01*
X0140226Y0081251D02*
X0157812Y0081251D01*
X0158610Y0082050D02*
X0140727Y0082050D01*
X0144832Y0082848D02*
X0159409Y0082848D01*
X0160207Y0083647D02*
X0146338Y0083647D01*
X0147087Y0084445D02*
X0161006Y0084445D01*
X0161804Y0085244D02*
X0147418Y0085244D01*
X0147600Y0086042D02*
X0162603Y0086042D01*
X0163402Y0086841D02*
X0147600Y0086841D01*
X0147383Y0087639D02*
X0165417Y0087639D01*
X0165747Y0088438D02*
X0147115Y0088438D01*
X0147913Y0089236D02*
X0166545Y0089236D01*
X0176255Y0089236D02*
X0180559Y0089236D01*
X0179761Y0088438D02*
X0177053Y0088438D01*
X0177383Y0087639D02*
X0178962Y0087639D01*
X0178164Y0086841D02*
X0177600Y0086841D01*
X0181358Y0090035D02*
X0148712Y0090035D01*
X0149510Y0090833D02*
X0182156Y0090833D01*
X0182955Y0091632D02*
X0150309Y0091632D01*
X0151107Y0092430D02*
X0183753Y0092430D01*
X0183800Y0093229D02*
X0151906Y0093229D01*
X0152704Y0094027D02*
X0183800Y0094027D01*
X0183800Y0094826D02*
X0153503Y0094826D01*
X0154301Y0095624D02*
X0183800Y0095624D01*
X0183800Y0096423D02*
X0155100Y0096423D01*
X0155898Y0097221D02*
X0183800Y0097221D01*
X0183800Y0098020D02*
X0156697Y0098020D01*
X0157495Y0098818D02*
X0183800Y0098818D01*
X0183800Y0099617D02*
X0158294Y0099617D01*
X0159092Y0100415D02*
X0183800Y0100415D01*
X0183800Y0101214D02*
X0159891Y0101214D01*
X0160689Y0102012D02*
X0183800Y0102012D01*
X0183800Y0102811D02*
X0161488Y0102811D01*
X0162286Y0103609D02*
X0183800Y0103609D01*
X0183800Y0104408D02*
X0163085Y0104408D01*
X0163883Y0105206D02*
X0183800Y0105206D01*
X0183800Y0106005D02*
X0164682Y0106005D01*
X0165480Y0106803D02*
X0183800Y0106803D01*
X0183800Y0107602D02*
X0166279Y0107602D01*
X0167077Y0108401D02*
X0183800Y0108401D01*
X0183800Y0109199D02*
X0167876Y0109199D01*
X0168674Y0109998D02*
X0183800Y0109998D01*
X0183800Y0110796D02*
X0169473Y0110796D01*
X0170271Y0111595D02*
X0183800Y0111595D01*
X0183800Y0112393D02*
X0171070Y0112393D01*
X0171869Y0113192D02*
X0178952Y0113192D01*
X0179743Y0112400D02*
X0181000Y0112400D01*
X0181000Y0116000D01*
X0177400Y0116000D01*
X0177400Y0114743D01*
X0179743Y0112400D01*
X0181000Y0113192D02*
X0181800Y0113192D01*
X0181800Y0113990D02*
X0181000Y0113990D01*
X0181000Y0114789D02*
X0181800Y0114789D01*
X0181800Y0115587D02*
X0181000Y0115587D01*
X0181000Y0116386D02*
X0175063Y0116386D01*
X0175861Y0117184D02*
X0177400Y0117184D01*
X0177400Y0117983D02*
X0176660Y0117983D01*
X0177458Y0118781D02*
X0178124Y0118781D01*
X0178257Y0119580D02*
X0178923Y0119580D01*
X0179055Y0120378D02*
X0179721Y0120378D01*
X0179854Y0121177D02*
X0183800Y0121177D01*
X0183800Y0121975D02*
X0180652Y0121975D01*
X0181451Y0122774D02*
X0183800Y0122774D01*
X0183800Y0123572D02*
X0182249Y0123572D01*
X0183048Y0124371D02*
X0183800Y0124371D01*
X0183800Y0120378D02*
X0183079Y0120378D01*
X0181800Y0120378D02*
X0181000Y0120378D01*
X0181000Y0119580D02*
X0181800Y0119580D01*
X0181800Y0118781D02*
X0181000Y0118781D01*
X0181000Y0117983D02*
X0181800Y0117983D01*
X0181800Y0117184D02*
X0181000Y0117184D01*
X0177400Y0115587D02*
X0174264Y0115587D01*
X0173466Y0114789D02*
X0177400Y0114789D01*
X0178153Y0113990D02*
X0172667Y0113990D01*
X0189000Y0113990D02*
X0201600Y0113990D01*
X0201600Y0113192D02*
X0189000Y0113192D01*
X0189000Y0112393D02*
X0201600Y0112393D01*
X0201600Y0111595D02*
X0189000Y0111595D01*
X0189000Y0110796D02*
X0201600Y0110796D01*
X0201600Y0109998D02*
X0189000Y0109998D01*
X0189000Y0109199D02*
X0201600Y0109199D01*
X0201600Y0108401D02*
X0189000Y0108401D01*
X0189000Y0107602D02*
X0201600Y0107602D01*
X0201600Y0106803D02*
X0189000Y0106803D01*
X0189000Y0106005D02*
X0201600Y0106005D01*
X0201600Y0105206D02*
X0189000Y0105206D01*
X0189000Y0104408D02*
X0201600Y0104408D01*
X0201600Y0103609D02*
X0189000Y0103609D01*
X0189000Y0102811D02*
X0201600Y0102811D01*
X0201600Y0102012D02*
X0189000Y0102012D01*
X0189000Y0101214D02*
X0201600Y0101214D01*
X0201600Y0100415D02*
X0189000Y0100415D01*
X0189000Y0099617D02*
X0201600Y0099617D01*
X0201600Y0098818D02*
X0189000Y0098818D01*
X0189000Y0098020D02*
X0201600Y0098020D01*
X0201600Y0097221D02*
X0189000Y0097221D01*
X0189000Y0096423D02*
X0201600Y0096423D01*
X0201600Y0095624D02*
X0189000Y0095624D01*
X0189000Y0094826D02*
X0201600Y0094826D01*
X0201600Y0094027D02*
X0189000Y0094027D01*
X0189000Y0093229D02*
X0201600Y0093229D01*
X0201600Y0092430D02*
X0189000Y0092430D01*
X0189000Y0091632D02*
X0201600Y0091632D01*
X0201600Y0090833D02*
X0188979Y0090833D01*
X0188649Y0090035D02*
X0201600Y0090035D01*
X0201600Y0089236D02*
X0187913Y0089236D01*
X0187115Y0088438D02*
X0201600Y0088438D01*
X0201600Y0087639D02*
X0186316Y0087639D01*
X0185518Y0086841D02*
X0201600Y0086841D01*
X0201600Y0086042D02*
X0184719Y0086042D01*
X0183921Y0085244D02*
X0201600Y0085244D01*
X0201600Y0084445D02*
X0183122Y0084445D01*
X0182324Y0083647D02*
X0201600Y0083647D01*
X0201600Y0082848D02*
X0181525Y0082848D01*
X0180727Y0082050D02*
X0201600Y0082050D01*
X0201600Y0081251D02*
X0179928Y0081251D01*
X0179130Y0080453D02*
X0201600Y0080453D01*
X0201600Y0079654D02*
X0178331Y0079654D01*
X0177334Y0078856D02*
X0201600Y0078856D01*
X0201600Y0078057D02*
X0177643Y0078057D01*
X0177908Y0077259D02*
X0201600Y0077259D01*
X0201600Y0114789D02*
X0189000Y0114789D01*
X0189000Y0115587D02*
X0201600Y0115587D01*
X0201600Y0116386D02*
X0189000Y0116386D01*
X0189000Y0117184D02*
X0201600Y0117184D01*
X0201600Y0117983D02*
X0189000Y0117983D01*
X0189000Y0118781D02*
X0201600Y0118781D01*
X0201600Y0119580D02*
X0189000Y0119580D01*
X0189000Y0120378D02*
X0201600Y0120378D01*
X0201600Y0121177D02*
X0189000Y0121177D01*
X0189000Y0121975D02*
X0201600Y0121975D01*
X0201600Y0122774D02*
X0189000Y0122774D01*
X0189000Y0123572D02*
X0201600Y0123572D01*
X0201600Y0124371D02*
X0189000Y0124371D01*
X0189000Y0125169D02*
X0201600Y0125169D01*
X0201600Y0125968D02*
X0189000Y0125968D01*
X0189000Y0126766D02*
X0201600Y0126766D01*
X0201600Y0127565D02*
X0189000Y0127565D01*
X0189000Y0128363D02*
X0201600Y0128363D01*
X0201600Y0129162D02*
X0189000Y0129162D01*
X0189000Y0129960D02*
X0201600Y0129960D01*
X0201600Y0130759D02*
X0189000Y0130759D01*
X0189000Y0131557D02*
X0201600Y0131557D01*
X0201600Y0132356D02*
X0189000Y0132356D01*
X0189000Y0133154D02*
X0201600Y0133154D01*
X0201600Y0133953D02*
X0189000Y0133953D01*
X0189000Y0134751D02*
X0201600Y0134751D01*
X0201600Y0135550D02*
X0189000Y0135550D01*
X0189000Y0136348D02*
X0201600Y0136348D01*
X0201600Y0137147D02*
X0189000Y0137147D01*
X0189000Y0137945D02*
X0201600Y0137945D01*
X0201600Y0138744D02*
X0189000Y0138744D01*
X0189000Y0139542D02*
X0201600Y0139542D01*
X0201600Y0140341D02*
X0189000Y0140341D01*
X0189000Y0141139D02*
X0201600Y0141139D01*
X0201600Y0141938D02*
X0189000Y0141938D01*
X0189000Y0142737D02*
X0201600Y0142737D01*
X0201600Y0143535D02*
X0189000Y0143535D01*
X0189000Y0144334D02*
X0201600Y0144334D01*
X0201600Y0145132D02*
X0189000Y0145132D01*
X0189000Y0145931D02*
X0201600Y0145931D01*
X0201600Y0146729D02*
X0189000Y0146729D01*
X0189000Y0147528D02*
X0201600Y0147528D01*
X0201600Y0148326D02*
X0189000Y0148326D01*
X0189000Y0149125D02*
X0201600Y0149125D01*
X0201600Y0149923D02*
X0189000Y0149923D01*
X0189000Y0150722D02*
X0201600Y0150722D01*
X0201600Y0151520D02*
X0189000Y0151520D01*
X0189000Y0152319D02*
X0201600Y0152319D01*
X0201600Y0153117D02*
X0189000Y0153117D01*
X0189000Y0153916D02*
X0201600Y0153916D01*
X0201600Y0154714D02*
X0189000Y0154714D01*
X0189000Y0155513D02*
X0201600Y0155513D01*
X0201600Y0156311D02*
X0189000Y0156311D01*
X0189000Y0157110D02*
X0201600Y0157110D01*
X0201600Y0157908D02*
X0189000Y0157908D01*
X0189000Y0158707D02*
X0201600Y0158707D01*
X0201600Y0159505D02*
X0189000Y0159505D01*
X0189000Y0160304D02*
X0201600Y0160304D01*
X0201600Y0161102D02*
X0189779Y0161102D01*
X0190578Y0161901D02*
X0201600Y0161901D01*
X0201600Y0162699D02*
X0191376Y0162699D01*
X0192175Y0163498D02*
X0201600Y0163498D01*
X0201600Y0164296D02*
X0192973Y0164296D01*
X0193772Y0165095D02*
X0201600Y0165095D01*
X0201600Y0165893D02*
X0194570Y0165893D01*
X0195369Y0166692D02*
X0201600Y0166692D01*
X0201600Y0167490D02*
X0196167Y0167490D01*
X0196966Y0168289D02*
X0201600Y0168289D01*
X0201600Y0169087D02*
X0197764Y0169087D01*
X0198563Y0169886D02*
X0201600Y0169886D01*
X0201600Y0170684D02*
X0198918Y0170684D01*
X0199000Y0171483D02*
X0201600Y0171483D01*
X0201600Y0172281D02*
X0199000Y0172281D01*
X0199000Y0173080D02*
X0201600Y0173080D01*
X0201600Y0173878D02*
X0199000Y0173878D01*
X0199000Y0174677D02*
X0201600Y0174677D01*
X0201600Y0175475D02*
X0199000Y0175475D01*
X0199000Y0176274D02*
X0201600Y0176274D01*
X0201600Y0177072D02*
X0199000Y0177072D01*
X0199000Y0177871D02*
X0201600Y0177871D01*
X0201600Y0178670D02*
X0199000Y0178670D01*
X0199000Y0179468D02*
X0201600Y0179468D01*
X0201600Y0180267D02*
X0199000Y0180267D01*
X0199000Y0181065D02*
X0201600Y0181065D01*
X0201600Y0181864D02*
X0199000Y0181864D01*
X0198691Y0182662D02*
X0201600Y0182662D01*
X0201600Y0183461D02*
X0198016Y0183461D01*
X0197218Y0184259D02*
X0201600Y0184259D01*
X0201600Y0185058D02*
X0196419Y0185058D01*
X0195621Y0185856D02*
X0201600Y0185856D01*
X0201600Y0186655D02*
X0194822Y0186655D01*
X0194024Y0187453D02*
X0201600Y0187453D01*
X0201600Y0188252D02*
X0193225Y0188252D01*
X0192427Y0189050D02*
X0201600Y0189050D01*
X0201600Y0189849D02*
X0191628Y0189849D01*
X0190830Y0190647D02*
X0201600Y0190647D01*
X0201600Y0191446D02*
X0190031Y0191446D01*
X0189233Y0192244D02*
X0201600Y0192244D01*
X0201600Y0193043D02*
X0188434Y0193043D01*
X0187636Y0193841D02*
X0201600Y0193841D01*
X0201600Y0194640D02*
X0186837Y0194640D01*
X0186650Y0195438D02*
X0201600Y0195438D01*
X0201600Y0196237D02*
X0186650Y0196237D01*
X0186650Y0197035D02*
X0201600Y0197035D01*
X0201600Y0197834D02*
X0186650Y0197834D01*
X0186592Y0198632D02*
X0201600Y0198632D01*
X0201600Y0199431D02*
X0185794Y0199431D01*
X0185159Y0200229D02*
X0201600Y0200229D01*
X0201600Y0201028D02*
X0185957Y0201028D01*
X0186756Y0201826D02*
X0201600Y0201826D01*
X0201600Y0202625D02*
X0187554Y0202625D01*
X0188353Y0203423D02*
X0201600Y0203423D01*
X0201600Y0204222D02*
X0189151Y0204222D01*
X0189950Y0205020D02*
X0201600Y0205020D01*
X0201600Y0205819D02*
X0190342Y0205819D01*
X0190450Y0206617D02*
X0201600Y0206617D01*
X0201600Y0207416D02*
X0190450Y0207416D01*
X0190450Y0208214D02*
X0201600Y0208214D01*
X0201600Y0209013D02*
X0190450Y0209013D01*
X0190450Y0209811D02*
X0201600Y0209811D01*
X0201600Y0210610D02*
X0190450Y0210610D01*
X0190450Y0211408D02*
X0201600Y0211408D01*
X0201600Y0212207D02*
X0190450Y0212207D01*
X0190450Y0213005D02*
X0201600Y0213005D01*
X0201600Y0213804D02*
X0190450Y0213804D01*
X0190450Y0214603D02*
X0201600Y0214603D01*
X0201600Y0215401D02*
X0190450Y0215401D01*
X0190450Y0216200D02*
X0201600Y0216200D01*
X0201600Y0216998D02*
X0190450Y0216998D01*
X0190450Y0217797D02*
X0201600Y0217797D01*
X0201600Y0218595D02*
X0190450Y0218595D01*
X0190450Y0219394D02*
X0201600Y0219394D01*
X0201600Y0220192D02*
X0190200Y0220192D01*
X0189608Y0220991D02*
X0201600Y0220991D01*
X0201600Y0221789D02*
X0188809Y0221789D01*
X0188011Y0222588D02*
X0201600Y0222588D01*
X0201600Y0223386D02*
X0187212Y0223386D01*
X0186414Y0224185D02*
X0201600Y0224185D01*
X0201600Y0224983D02*
X0185615Y0224983D01*
X0180695Y0225782D02*
X0201600Y0225782D01*
X0201600Y0226580D02*
X0179897Y0226580D01*
X0179098Y0227379D02*
X0201600Y0227379D01*
X0201600Y0228177D02*
X0178300Y0228177D01*
X0177501Y0228976D02*
X0201600Y0228976D01*
X0201600Y0229774D02*
X0176703Y0229774D01*
X0175904Y0230573D02*
X0201600Y0230573D01*
X0201600Y0231371D02*
X0175106Y0231371D01*
X0174307Y0232170D02*
X0201600Y0232170D01*
X0201600Y0232968D02*
X0173509Y0232968D01*
X0172710Y0233767D02*
X0201600Y0233767D01*
X0201600Y0234565D02*
X0171912Y0234565D01*
X0171113Y0235364D02*
X0201600Y0235364D01*
X0201600Y0236162D02*
X0170315Y0236162D01*
X0169516Y0236961D02*
X0201600Y0236961D01*
X0201600Y0237759D02*
X0168718Y0237759D01*
X0167919Y0238558D02*
X0201600Y0238558D01*
X0201600Y0239356D02*
X0167121Y0239356D01*
X0166322Y0240155D02*
X0201600Y0240155D01*
X0201600Y0240953D02*
X0165524Y0240953D01*
X0164725Y0241752D02*
X0201600Y0241752D01*
X0201600Y0242550D02*
X0163927Y0242550D01*
X0163128Y0243349D02*
X0201600Y0243349D01*
X0201600Y0244147D02*
X0162329Y0244147D01*
X0161531Y0244946D02*
X0201600Y0244946D01*
X0201600Y0245744D02*
X0160732Y0245744D01*
X0159934Y0246543D02*
X0201600Y0246543D01*
X0201600Y0247341D02*
X0159135Y0247341D01*
X0158337Y0248140D02*
X0201600Y0248140D01*
X0201600Y0248939D02*
X0157538Y0248939D01*
X0156740Y0249737D02*
X0201600Y0249737D01*
X0201600Y0250536D02*
X0156200Y0250536D01*
X0156200Y0251334D02*
X0201600Y0251334D01*
X0201600Y0252133D02*
X0156200Y0252133D01*
X0155961Y0252931D02*
X0201600Y0252931D01*
X0201600Y0253730D02*
X0155631Y0253730D01*
X0155060Y0254528D02*
X0201600Y0254528D01*
X0201600Y0255327D02*
X0154262Y0255327D01*
X0153396Y0256581D02*
X0154125Y0256953D01*
X0154788Y0257434D01*
X0155366Y0258012D01*
X0155847Y0258675D01*
X0156219Y0259404D01*
X0156472Y0260182D01*
X0156600Y0260991D01*
X0156600Y0261000D01*
X0151800Y0261000D01*
X0151800Y0261800D01*
X0151000Y0261800D01*
X0151000Y0266600D01*
X0150991Y0266600D01*
X0150182Y0266472D01*
X0149404Y0266219D01*
X0148675Y0265847D01*
X0148012Y0265366D01*
X0147434Y0264788D01*
X0146953Y0264125D01*
X0146581Y0263396D01*
X0146328Y0262618D01*
X0146200Y0261809D01*
X0146200Y0261800D01*
X0151000Y0261800D01*
X0151000Y0261000D01*
X0146200Y0261000D01*
X0146200Y0260991D01*
X0146328Y0260182D01*
X0146581Y0259404D01*
X0146953Y0258675D01*
X0147434Y0258012D01*
X0148012Y0257434D01*
X0148675Y0256953D01*
X0149404Y0256581D01*
X0150182Y0256328D01*
X0150991Y0256200D01*
X0151000Y0256200D01*
X0151000Y0261000D01*
X0151800Y0261000D01*
X0151800Y0256200D01*
X0151809Y0256200D01*
X0152618Y0256328D01*
X0153396Y0256581D01*
X0154069Y0256924D02*
X0201600Y0256924D01*
X0201600Y0257722D02*
X0155076Y0257722D01*
X0155736Y0258521D02*
X0201600Y0258521D01*
X0201600Y0259319D02*
X0156176Y0259319D01*
X0156451Y0260118D02*
X0201600Y0260118D01*
X0201600Y0260916D02*
X0156588Y0260916D01*
X0156600Y0261800D02*
X0156600Y0261809D01*
X0156472Y0262618D01*
X0156219Y0263396D01*
X0155847Y0264125D01*
X0155366Y0264788D01*
X0154788Y0265366D01*
X0154125Y0265847D01*
X0153396Y0266219D01*
X0152618Y0266472D01*
X0151809Y0266600D01*
X0151800Y0266600D01*
X0151800Y0261800D01*
X0156600Y0261800D01*
X0156488Y0262513D02*
X0201600Y0262513D01*
X0201600Y0261715D02*
X0151800Y0261715D01*
X0151800Y0262513D02*
X0151000Y0262513D01*
X0151000Y0261715D02*
X0146200Y0261715D01*
X0146200Y0262513D02*
X0146312Y0262513D01*
X0146200Y0263312D02*
X0146554Y0263312D01*
X0146200Y0264110D02*
X0146945Y0264110D01*
X0147555Y0264909D02*
X0146200Y0264909D01*
X0146200Y0265614D02*
X0145614Y0266200D01*
X0137186Y0266200D01*
X0136600Y0265614D01*
X0136600Y0264000D01*
X0040519Y0264000D01*
X0040469Y0264119D01*
X0039119Y0265469D01*
X0037355Y0266200D01*
X0035445Y0266200D01*
X0034475Y0265798D01*
X0042477Y0273800D01*
X0068909Y0273800D01*
X0069909Y0272800D01*
X0072891Y0272800D01*
X0075000Y0274909D01*
X0075000Y0275911D01*
X0076715Y0274196D01*
X0077671Y0273800D01*
X0088909Y0273800D01*
X0089909Y0272800D01*
X0092891Y0272800D01*
X0095000Y0274909D01*
X0095000Y0277891D01*
X0092891Y0280000D01*
X0089909Y0280000D01*
X0088909Y0279000D01*
X0079265Y0279000D01*
X0075592Y0282673D01*
X0074861Y0283404D01*
X0073905Y0283800D01*
X0034972Y0283800D01*
X0034016Y0283404D01*
X0033285Y0282673D01*
X0018196Y0267584D01*
X0017800Y0266628D01*
X0017800Y0256172D01*
X0018196Y0255216D01*
X0018927Y0254485D01*
X0019485Y0253927D01*
X0020216Y0253196D01*
X0021172Y0252800D01*
X0021323Y0252800D01*
X0021649Y0252474D01*
X0021600Y0252355D01*
X0021600Y0250445D01*
X0022331Y0248681D01*
X0023681Y0247331D01*
X0025445Y0246600D01*
X0027355Y0246600D01*
X0029119Y0247331D01*
X0030469Y0248681D01*
X0031200Y0250445D01*
X0031200Y0252355D01*
X0030469Y0254119D01*
X0029119Y0255469D01*
X0027355Y0256200D01*
X0025445Y0256200D01*
X0025326Y0256151D01*
X0024877Y0256600D01*
X0030614Y0256600D01*
X0031200Y0257186D01*
X0031200Y0262523D01*
X0032002Y0263325D01*
X0031600Y0262355D01*
X0031600Y0260445D01*
X0032331Y0258681D01*
X0033681Y0257331D01*
X0035445Y0256600D01*
X0036008Y0256600D01*
X0036408Y0256200D01*
X0035445Y0256200D01*
X0033681Y0255469D01*
X0032331Y0254119D01*
X0031600Y0252355D01*
X0031600Y0250445D01*
X0032331Y0248681D01*
X0033681Y0247331D01*
X0035445Y0246600D01*
X0037355Y0246600D01*
X0039119Y0247331D01*
X0039800Y0248012D01*
X0039800Y0244788D01*
X0039119Y0245469D01*
X0037355Y0246200D01*
X0035445Y0246200D01*
X0033681Y0245469D01*
X0032331Y0244119D01*
X0031600Y0242355D01*
X0031600Y0240445D01*
X0032331Y0238681D01*
X0033681Y0237331D01*
X0035445Y0236600D01*
X0037355Y0236600D01*
X0039119Y0237331D01*
X0039800Y0238012D01*
X0039800Y0234788D01*
X0039119Y0235469D01*
X0037355Y0236200D01*
X0035445Y0236200D01*
X0033681Y0235469D01*
X0032331Y0234119D01*
X0031600Y0232355D01*
X0031600Y0230445D01*
X0032331Y0228681D01*
X0033681Y0227331D01*
X0035445Y0226600D01*
X0037355Y0226600D01*
X0039119Y0227331D01*
X0039800Y0228012D01*
X0039800Y0223477D01*
X0011323Y0195000D01*
X0009909Y0195000D01*
X0007800Y0192891D01*
X0007800Y0189909D01*
X0008800Y0188909D01*
X0008800Y0091983D01*
X0009196Y0091027D01*
X0009927Y0090296D01*
X0017433Y0082790D01*
X0017209Y0082566D01*
X0016600Y0081096D01*
X0016600Y0079504D01*
X0017209Y0078034D01*
X0018334Y0076909D01*
X0019804Y0076300D01*
X0021000Y0076300D01*
X0021000Y0073931D01*
X0013196Y0066127D01*
X0012800Y0065171D01*
X0012800Y0059829D01*
X0013196Y0058873D01*
X0021000Y0051069D01*
X0021000Y0044300D01*
X0019804Y0044300D01*
X0018334Y0043691D01*
X0017209Y0042566D01*
X0016600Y0041096D01*
X0016600Y0039504D01*
X0017209Y0038034D01*
X0018334Y0036909D01*
X0019804Y0036300D01*
X0027396Y0036300D01*
X0028866Y0036909D01*
X0029991Y0038034D01*
X0030600Y0039504D01*
X0030600Y0041096D01*
X0029991Y0042566D01*
X0028866Y0043691D01*
X0027396Y0044300D01*
X0026200Y0044300D01*
X0026200Y0052663D01*
X0025804Y0053619D01*
X0020923Y0058500D01*
X0027396Y0058500D01*
X0028866Y0059109D01*
X0029991Y0060234D01*
X0030600Y0061704D01*
X0030600Y0063296D01*
X0029991Y0064766D01*
X0029767Y0064990D01*
X0042473Y0077696D01*
X0042577Y0077800D01*
X0042844Y0077434D01*
X0043334Y0076944D01*
X0043894Y0076537D01*
X0044511Y0076222D01*
X0045170Y0076008D01*
X0045854Y0075900D01*
X0048800Y0075900D01*
X0048800Y0079900D01*
X0049600Y0079900D01*
X0049600Y0080700D01*
X0056591Y0080700D01*
X0056492Y0081330D01*
X0056278Y0081989D01*
X0055963Y0082606D01*
X0055556Y0083166D01*
X0055066Y0083656D01*
X0054506Y0084063D01*
X0053889Y0084378D01*
X0053259Y0084582D01*
X0056790Y0088113D01*
X0057521Y0088845D01*
X0057917Y0089800D01*
X0057917Y0118166D01*
X0058579Y0118827D01*
X0059164Y0120241D01*
X0059164Y0121772D01*
X0058579Y0123185D01*
X0057496Y0124268D01*
X0056083Y0124853D01*
X0054552Y0124853D01*
X0053138Y0124268D01*
X0052056Y0123185D01*
X0051470Y0121772D01*
X0051470Y0120241D01*
X0052056Y0118827D01*
X0052717Y0118166D01*
X0052717Y0091394D01*
X0050323Y0089000D01*
X0044429Y0089000D01*
X0043473Y0088604D01*
X0042742Y0087873D01*
X0038796Y0083927D01*
X0038400Y0082971D01*
X0038400Y0080977D01*
X0023923Y0066500D01*
X0020923Y0066500D01*
X0025804Y0071381D01*
X0026200Y0072337D01*
X0026200Y0076300D01*
X0027396Y0076300D01*
X0028866Y0076909D01*
X0029991Y0078034D01*
X0030600Y0079504D01*
X0030600Y0081096D01*
X0029991Y0082566D01*
X0028866Y0083691D01*
X0027396Y0084300D01*
X0023277Y0084300D01*
X0014000Y0093577D01*
X0014000Y0188909D01*
X0015000Y0189909D01*
X0015000Y0191323D01*
X0044604Y0220927D01*
X0045000Y0221883D01*
X0045000Y0254402D01*
X0044604Y0255358D01*
X0043873Y0256089D01*
X0041162Y0258800D01*
X0136600Y0258800D01*
X0136600Y0257186D01*
X0137186Y0256600D01*
X0145614Y0256600D01*
X0146200Y0257186D01*
X0146200Y0265614D01*
X0146107Y0265707D02*
X0148482Y0265707D01*
X0150396Y0266506D02*
X0035183Y0266506D01*
X0035981Y0267304D02*
X0201600Y0267304D01*
X0201600Y0266506D02*
X0152404Y0266506D01*
X0151800Y0266506D02*
X0151000Y0266506D01*
X0151000Y0265707D02*
X0151800Y0265707D01*
X0151800Y0264909D02*
X0151000Y0264909D01*
X0151000Y0264110D02*
X0151800Y0264110D01*
X0151800Y0263312D02*
X0151000Y0263312D01*
X0151000Y0260916D02*
X0151800Y0260916D01*
X0151800Y0260118D02*
X0151000Y0260118D01*
X0151000Y0259319D02*
X0151800Y0259319D01*
X0151800Y0258521D02*
X0151000Y0258521D01*
X0151000Y0257722D02*
X0151800Y0257722D01*
X0151800Y0256924D02*
X0151000Y0256924D01*
X0150264Y0256125D02*
X0142536Y0256125D01*
X0142355Y0256200D02*
X0140445Y0256200D01*
X0138681Y0255469D01*
X0137331Y0254119D01*
X0136600Y0252355D01*
X0136600Y0250445D01*
X0137331Y0248681D01*
X0138681Y0247331D01*
X0140445Y0246600D01*
X0142355Y0246600D01*
X0144119Y0247331D01*
X0145469Y0248681D01*
X0146200Y0250445D01*
X0146200Y0252355D01*
X0145469Y0254119D01*
X0144119Y0255469D01*
X0142355Y0256200D01*
X0140264Y0256125D02*
X0043837Y0256125D01*
X0044617Y0255327D02*
X0138538Y0255327D01*
X0137740Y0254528D02*
X0044948Y0254528D01*
X0045000Y0253730D02*
X0137169Y0253730D01*
X0136839Y0252931D02*
X0045000Y0252931D01*
X0045000Y0252133D02*
X0136600Y0252133D01*
X0136600Y0251334D02*
X0045000Y0251334D01*
X0045000Y0250536D02*
X0136600Y0250536D01*
X0136893Y0249737D02*
X0045000Y0249737D01*
X0045000Y0248939D02*
X0137224Y0248939D01*
X0137872Y0248140D02*
X0045000Y0248140D01*
X0045000Y0247341D02*
X0138670Y0247341D01*
X0139345Y0245744D02*
X0045000Y0245744D01*
X0045000Y0244946D02*
X0138158Y0244946D01*
X0138681Y0245469D02*
X0137331Y0244119D01*
X0136600Y0242355D01*
X0136600Y0240445D01*
X0137331Y0238681D01*
X0138681Y0237331D01*
X0140445Y0236600D01*
X0142355Y0236600D01*
X0144119Y0237331D01*
X0145469Y0238681D01*
X0146200Y0240445D01*
X0146200Y0242355D01*
X0145469Y0244119D01*
X0144119Y0245469D01*
X0142355Y0246200D01*
X0140445Y0246200D01*
X0138681Y0245469D01*
X0137359Y0244147D02*
X0045000Y0244147D01*
X0045000Y0243349D02*
X0137012Y0243349D01*
X0136681Y0242550D02*
X0045000Y0242550D01*
X0045000Y0241752D02*
X0136600Y0241752D01*
X0136600Y0240953D02*
X0045000Y0240953D01*
X0045000Y0240155D02*
X0136720Y0240155D01*
X0137051Y0239356D02*
X0045000Y0239356D01*
X0045000Y0238558D02*
X0137454Y0238558D01*
X0138252Y0237759D02*
X0045000Y0237759D01*
X0045000Y0236961D02*
X0139574Y0236961D01*
X0140354Y0236162D02*
X0045000Y0236162D01*
X0045000Y0235364D02*
X0138576Y0235364D01*
X0138681Y0235469D02*
X0137331Y0234119D01*
X0136600Y0232355D01*
X0136600Y0230445D01*
X0137331Y0228681D01*
X0138681Y0227331D01*
X0140445Y0226600D01*
X0142355Y0226600D01*
X0144119Y0227331D01*
X0145469Y0228681D01*
X0146200Y0230445D01*
X0146200Y0232355D01*
X0145469Y0234119D01*
X0144119Y0235469D01*
X0142355Y0236200D01*
X0140445Y0236200D01*
X0138681Y0235469D01*
X0137777Y0234565D02*
X0045000Y0234565D01*
X0045000Y0233767D02*
X0137185Y0233767D01*
X0136854Y0232968D02*
X0045000Y0232968D01*
X0045000Y0232170D02*
X0136600Y0232170D01*
X0136600Y0231371D02*
X0045000Y0231371D01*
X0045000Y0230573D02*
X0136600Y0230573D01*
X0136878Y0229774D02*
X0045000Y0229774D01*
X0045000Y0228976D02*
X0137209Y0228976D01*
X0137835Y0228177D02*
X0045000Y0228177D01*
X0045000Y0227379D02*
X0138633Y0227379D01*
X0144167Y0227379D02*
X0148633Y0227379D01*
X0147835Y0228177D02*
X0144965Y0228177D01*
X0145591Y0228976D02*
X0147209Y0228976D01*
X0146878Y0229774D02*
X0145922Y0229774D01*
X0146200Y0230573D02*
X0146600Y0230573D01*
X0146600Y0231371D02*
X0146200Y0231371D01*
X0146200Y0232170D02*
X0146600Y0232170D01*
X0146854Y0232968D02*
X0145946Y0232968D01*
X0145615Y0233767D02*
X0147185Y0233767D01*
X0147777Y0234565D02*
X0145023Y0234565D01*
X0144224Y0235364D02*
X0148576Y0235364D01*
X0149574Y0236961D02*
X0143226Y0236961D01*
X0142446Y0236162D02*
X0150354Y0236162D01*
X0152446Y0236162D02*
X0152961Y0236162D01*
X0155946Y0232968D02*
X0156155Y0232968D01*
X0156200Y0232170D02*
X0156953Y0232170D01*
X0156200Y0231371D02*
X0157752Y0231371D01*
X0158550Y0230573D02*
X0156200Y0230573D01*
X0155922Y0229774D02*
X0159349Y0229774D01*
X0160147Y0228976D02*
X0155591Y0228976D01*
X0154965Y0228177D02*
X0160946Y0228177D01*
X0161744Y0227379D02*
X0154167Y0227379D01*
X0162543Y0226580D02*
X0045000Y0226580D01*
X0045000Y0225782D02*
X0163341Y0225782D01*
X0164140Y0224983D02*
X0045000Y0224983D01*
X0045000Y0224185D02*
X0164938Y0224185D01*
X0165737Y0223386D02*
X0045000Y0223386D01*
X0045000Y0222588D02*
X0166535Y0222588D01*
X0167334Y0221789D02*
X0044961Y0221789D01*
X0044630Y0220991D02*
X0168132Y0220991D01*
X0168550Y0220192D02*
X0043869Y0220192D01*
X0043071Y0219394D02*
X0069302Y0219394D01*
X0068504Y0218595D02*
X0042272Y0218595D01*
X0041473Y0217797D02*
X0067800Y0217797D01*
X0067800Y0216998D02*
X0040675Y0216998D01*
X0039876Y0216200D02*
X0067523Y0216200D01*
X0066724Y0215401D02*
X0039078Y0215401D01*
X0038279Y0214603D02*
X0065926Y0214603D01*
X0065127Y0213804D02*
X0037481Y0213804D01*
X0036682Y0213005D02*
X0064329Y0213005D01*
X0063530Y0212207D02*
X0035884Y0212207D01*
X0035085Y0211408D02*
X0062732Y0211408D01*
X0061933Y0210610D02*
X0034287Y0210610D01*
X0033488Y0209811D02*
X0061135Y0209811D01*
X0060336Y0209013D02*
X0032690Y0209013D01*
X0031891Y0208214D02*
X0059537Y0208214D01*
X0058739Y0207416D02*
X0031093Y0207416D01*
X0030294Y0206617D02*
X0057940Y0206617D01*
X0057142Y0205819D02*
X0029496Y0205819D01*
X0028697Y0205020D02*
X0056343Y0205020D01*
X0055545Y0204222D02*
X0027899Y0204222D01*
X0027100Y0203423D02*
X0054746Y0203423D01*
X0053948Y0202625D02*
X0026302Y0202625D01*
X0025503Y0201826D02*
X0053149Y0201826D01*
X0052351Y0201028D02*
X0024705Y0201028D01*
X0023906Y0200229D02*
X0051552Y0200229D01*
X0050754Y0199431D02*
X0023108Y0199431D01*
X0022309Y0198632D02*
X0049955Y0198632D01*
X0049157Y0197834D02*
X0021511Y0197834D01*
X0020712Y0197035D02*
X0048358Y0197035D01*
X0047856Y0196237D02*
X0019914Y0196237D01*
X0019115Y0195438D02*
X0047670Y0195438D01*
X0047670Y0194640D02*
X0018317Y0194640D01*
X0017518Y0193841D02*
X0047670Y0193841D01*
X0047670Y0193043D02*
X0016720Y0193043D01*
X0015921Y0192244D02*
X0047670Y0192244D01*
X0047670Y0191446D02*
X0015123Y0191446D01*
X0015000Y0190647D02*
X0047670Y0190647D01*
X0047670Y0189849D02*
X0014940Y0189849D01*
X0014141Y0189050D02*
X0047670Y0189050D01*
X0047670Y0188252D02*
X0014000Y0188252D01*
X0014000Y0187453D02*
X0047670Y0187453D01*
X0047670Y0186655D02*
X0014000Y0186655D01*
X0014000Y0185856D02*
X0047670Y0185856D01*
X0047670Y0185058D02*
X0014000Y0185058D01*
X0014000Y0184259D02*
X0047670Y0184259D01*
X0047670Y0183461D02*
X0014000Y0183461D01*
X0014000Y0182662D02*
X0047670Y0182662D01*
X0047670Y0181864D02*
X0014000Y0181864D01*
X0014000Y0181065D02*
X0047670Y0181065D01*
X0047670Y0180267D02*
X0014000Y0180267D01*
X0014000Y0179468D02*
X0047670Y0179468D01*
X0047670Y0178670D02*
X0014000Y0178670D01*
X0014000Y0177871D02*
X0047670Y0177871D01*
X0047670Y0177072D02*
X0014000Y0177072D01*
X0014000Y0176274D02*
X0047670Y0176274D01*
X0047670Y0175475D02*
X0014000Y0175475D01*
X0014000Y0174677D02*
X0034127Y0174677D01*
X0034552Y0174853D02*
X0033138Y0174268D01*
X0032056Y0173185D01*
X0031470Y0171772D01*
X0031470Y0170241D01*
X0032056Y0168827D01*
X0033138Y0167745D01*
X0034552Y0167159D01*
X0036083Y0167159D01*
X0037496Y0167745D01*
X0038579Y0168827D01*
X0039164Y0170241D01*
X0039164Y0171772D01*
X0038579Y0173185D01*
X0037496Y0174268D01*
X0036083Y0174853D01*
X0034552Y0174853D01*
X0036508Y0174677D02*
X0047670Y0174677D01*
X0047670Y0173878D02*
X0037886Y0173878D01*
X0038622Y0173080D02*
X0047670Y0173080D01*
X0047670Y0172281D02*
X0038953Y0172281D01*
X0039164Y0171483D02*
X0047670Y0171483D01*
X0047670Y0170684D02*
X0039164Y0170684D01*
X0039017Y0169886D02*
X0047670Y0169886D01*
X0047670Y0169087D02*
X0038686Y0169087D01*
X0038040Y0168289D02*
X0047670Y0168289D01*
X0047670Y0167490D02*
X0036882Y0167490D01*
X0036083Y0164853D02*
X0034552Y0164853D01*
X0033138Y0164268D01*
X0032056Y0163185D01*
X0031470Y0161772D01*
X0031470Y0160241D01*
X0032056Y0158827D01*
X0033138Y0157745D01*
X0034552Y0157159D01*
X0036083Y0157159D01*
X0037496Y0157745D01*
X0038579Y0158827D01*
X0039164Y0160241D01*
X0039164Y0161772D01*
X0038579Y0163185D01*
X0037496Y0164268D01*
X0036083Y0164853D01*
X0037427Y0164296D02*
X0047670Y0164296D01*
X0047670Y0163498D02*
X0038266Y0163498D01*
X0038780Y0162699D02*
X0047670Y0162699D01*
X0047670Y0161901D02*
X0039111Y0161901D01*
X0039164Y0161102D02*
X0047670Y0161102D01*
X0047670Y0160304D02*
X0039164Y0160304D01*
X0038859Y0159505D02*
X0047670Y0159505D01*
X0047670Y0158707D02*
X0038458Y0158707D01*
X0037660Y0157908D02*
X0047670Y0157908D01*
X0047670Y0157110D02*
X0014000Y0157110D01*
X0014000Y0157908D02*
X0032975Y0157908D01*
X0032176Y0158707D02*
X0014000Y0158707D01*
X0014000Y0159505D02*
X0031775Y0159505D01*
X0031470Y0160304D02*
X0014000Y0160304D01*
X0014000Y0161102D02*
X0031470Y0161102D01*
X0031524Y0161901D02*
X0014000Y0161901D01*
X0014000Y0162699D02*
X0031855Y0162699D01*
X0032368Y0163498D02*
X0014000Y0163498D01*
X0014000Y0164296D02*
X0033208Y0164296D01*
X0033753Y0167490D02*
X0014000Y0167490D01*
X0014000Y0166692D02*
X0047670Y0166692D01*
X0047670Y0165893D02*
X0014000Y0165893D01*
X0014000Y0165095D02*
X0047670Y0165095D01*
X0052870Y0165095D02*
X0122670Y0165095D01*
X0122670Y0165893D02*
X0052870Y0165893D01*
X0052870Y0166692D02*
X0122670Y0166692D01*
X0122670Y0167490D02*
X0056882Y0167490D01*
X0058040Y0168289D02*
X0122670Y0168289D01*
X0122670Y0169087D02*
X0058686Y0169087D01*
X0059017Y0169886D02*
X0122670Y0169886D01*
X0122670Y0170684D02*
X0059164Y0170684D01*
X0059164Y0171483D02*
X0122670Y0171483D01*
X0122670Y0172281D02*
X0058953Y0172281D01*
X0058622Y0173080D02*
X0094063Y0173080D01*
X0094743Y0172400D02*
X0092400Y0174743D01*
X0092400Y0176000D01*
X0096000Y0176000D01*
X0096000Y0176800D01*
X0096000Y0180400D01*
X0094743Y0180400D01*
X0092400Y0178057D01*
X0092400Y0176800D01*
X0096000Y0176800D01*
X0096800Y0176800D01*
X0096800Y0180400D01*
X0098057Y0180400D01*
X0100400Y0178057D01*
X0100400Y0176800D01*
X0096800Y0176800D01*
X0096800Y0176000D01*
X0100400Y0176000D01*
X0100400Y0174743D01*
X0098057Y0172400D01*
X0096800Y0172400D01*
X0096800Y0176000D01*
X0096000Y0176000D01*
X0096000Y0172400D01*
X0094743Y0172400D01*
X0096000Y0173080D02*
X0096800Y0173080D01*
X0096800Y0173878D02*
X0096000Y0173878D01*
X0096000Y0174677D02*
X0096800Y0174677D01*
X0096800Y0175475D02*
X0096000Y0175475D01*
X0096000Y0176274D02*
X0052870Y0176274D01*
X0052870Y0177072D02*
X0092400Y0177072D01*
X0092400Y0177871D02*
X0052870Y0177871D01*
X0052870Y0178670D02*
X0093013Y0178670D01*
X0093811Y0179468D02*
X0052870Y0179468D01*
X0052870Y0180267D02*
X0094610Y0180267D01*
X0096000Y0180267D02*
X0096800Y0180267D01*
X0096800Y0179468D02*
X0096000Y0179468D01*
X0096000Y0178670D02*
X0096800Y0178670D01*
X0096800Y0177871D02*
X0096000Y0177871D01*
X0096000Y0177072D02*
X0096800Y0177072D01*
X0096800Y0176274D02*
X0124771Y0176274D01*
X0125569Y0177072D02*
X0100400Y0177072D01*
X0100400Y0177871D02*
X0126252Y0177871D01*
X0125454Y0178670D02*
X0099787Y0178670D01*
X0098989Y0179468D02*
X0124655Y0179468D01*
X0123857Y0180267D02*
X0098190Y0180267D01*
X0100400Y0175475D02*
X0123972Y0175475D01*
X0123174Y0174677D02*
X0100334Y0174677D01*
X0099535Y0173878D02*
X0122780Y0173878D01*
X0122670Y0173080D02*
X0098737Y0173080D01*
X0093265Y0173878D02*
X0057886Y0173878D01*
X0056508Y0174677D02*
X0092466Y0174677D01*
X0092400Y0175475D02*
X0052870Y0175475D01*
X0052870Y0174677D02*
X0054127Y0174677D01*
X0052870Y0181065D02*
X0123058Y0181065D01*
X0122259Y0181864D02*
X0052870Y0181864D01*
X0052870Y0182662D02*
X0121461Y0182662D01*
X0120662Y0183461D02*
X0052870Y0183461D01*
X0052870Y0184259D02*
X0119864Y0184259D01*
X0119065Y0185058D02*
X0052870Y0185058D01*
X0052870Y0185856D02*
X0118267Y0185856D01*
X0117468Y0186655D02*
X0052870Y0186655D01*
X0052870Y0187453D02*
X0116670Y0187453D01*
X0115871Y0188252D02*
X0073343Y0188252D01*
X0072891Y0187800D02*
X0075000Y0189909D01*
X0075000Y0192891D01*
X0072891Y0195000D01*
X0069909Y0195000D01*
X0067800Y0192891D01*
X0067800Y0189909D01*
X0069909Y0187800D01*
X0072891Y0187800D01*
X0074141Y0189050D02*
X0115073Y0189050D01*
X0114274Y0189849D02*
X0074940Y0189849D01*
X0075000Y0190647D02*
X0113476Y0190647D01*
X0112677Y0191446D02*
X0075000Y0191446D01*
X0075000Y0192244D02*
X0111879Y0192244D01*
X0111080Y0193043D02*
X0074848Y0193043D01*
X0074050Y0193841D02*
X0110282Y0193841D01*
X0109483Y0194640D02*
X0073251Y0194640D01*
X0069549Y0194640D02*
X0053317Y0194640D01*
X0052870Y0193841D02*
X0068750Y0193841D01*
X0067952Y0193043D02*
X0052870Y0193043D01*
X0052870Y0192244D02*
X0067800Y0192244D01*
X0067800Y0191446D02*
X0052870Y0191446D01*
X0052870Y0190647D02*
X0067800Y0190647D01*
X0067860Y0189849D02*
X0052870Y0189849D01*
X0052870Y0189050D02*
X0068659Y0189050D01*
X0069457Y0188252D02*
X0052870Y0188252D01*
X0054115Y0195438D02*
X0108685Y0195438D01*
X0107886Y0196237D02*
X0054914Y0196237D01*
X0055712Y0197035D02*
X0107088Y0197035D01*
X0106289Y0197834D02*
X0056511Y0197834D01*
X0057309Y0198632D02*
X0105491Y0198632D01*
X0104692Y0199431D02*
X0058108Y0199431D01*
X0058906Y0200229D02*
X0103894Y0200229D01*
X0103095Y0201028D02*
X0059705Y0201028D01*
X0060503Y0201826D02*
X0102297Y0201826D01*
X0101498Y0202625D02*
X0061302Y0202625D01*
X0062100Y0203423D02*
X0100700Y0203423D01*
X0099901Y0204222D02*
X0062899Y0204222D01*
X0063697Y0205020D02*
X0099103Y0205020D01*
X0098304Y0205819D02*
X0064496Y0205819D01*
X0065294Y0206617D02*
X0097506Y0206617D01*
X0096707Y0207416D02*
X0066093Y0207416D01*
X0066891Y0208214D02*
X0095909Y0208214D01*
X0095110Y0209013D02*
X0067690Y0209013D01*
X0068488Y0209811D02*
X0094312Y0209811D01*
X0093513Y0210610D02*
X0069287Y0210610D01*
X0070085Y0211408D02*
X0092715Y0211408D01*
X0091916Y0212207D02*
X0070884Y0212207D01*
X0073097Y0213005D02*
X0089703Y0213005D01*
X0088905Y0213804D02*
X0073895Y0213804D01*
X0074694Y0214603D02*
X0088106Y0214603D01*
X0087800Y0215401D02*
X0075000Y0215401D01*
X0075000Y0216200D02*
X0087800Y0216200D01*
X0087800Y0216998D02*
X0075000Y0216998D01*
X0075000Y0217797D02*
X0087800Y0217797D01*
X0088504Y0218595D02*
X0074296Y0218595D01*
X0073498Y0219394D02*
X0089302Y0219394D01*
X0093498Y0219394D02*
X0168550Y0219394D01*
X0168550Y0218595D02*
X0094296Y0218595D01*
X0095000Y0217797D02*
X0168550Y0217797D01*
X0168550Y0216998D02*
X0095000Y0216998D01*
X0095277Y0216200D02*
X0168550Y0216200D01*
X0168550Y0215401D02*
X0096076Y0215401D01*
X0096874Y0214603D02*
X0168550Y0214603D01*
X0168550Y0213804D02*
X0097673Y0213804D01*
X0098471Y0213005D02*
X0168550Y0213005D01*
X0168550Y0212207D02*
X0099270Y0212207D01*
X0100068Y0211408D02*
X0168550Y0211408D01*
X0168550Y0210610D02*
X0100867Y0210610D01*
X0101665Y0209811D02*
X0168550Y0209811D01*
X0168550Y0209013D02*
X0102464Y0209013D01*
X0103262Y0208214D02*
X0168550Y0208214D01*
X0168550Y0207416D02*
X0104061Y0207416D01*
X0104860Y0206617D02*
X0168550Y0206617D01*
X0168550Y0205819D02*
X0105658Y0205819D01*
X0106457Y0205020D02*
X0168550Y0205020D01*
X0168550Y0204222D02*
X0107255Y0204222D01*
X0108054Y0203423D02*
X0168550Y0203423D01*
X0168550Y0202625D02*
X0108852Y0202625D01*
X0109651Y0201826D02*
X0168550Y0201826D01*
X0168550Y0201028D02*
X0110449Y0201028D01*
X0111248Y0200229D02*
X0168550Y0200229D01*
X0168550Y0199431D02*
X0112046Y0199431D01*
X0112845Y0198632D02*
X0168550Y0198632D01*
X0168550Y0197834D02*
X0113643Y0197834D01*
X0114442Y0197035D02*
X0168550Y0197035D01*
X0168550Y0196237D02*
X0115240Y0196237D01*
X0116039Y0195438D02*
X0168550Y0195438D01*
X0168550Y0194640D02*
X0116837Y0194640D01*
X0117636Y0193841D02*
X0168550Y0193841D01*
X0168550Y0193043D02*
X0118434Y0193043D01*
X0119233Y0192244D02*
X0168550Y0192244D01*
X0168629Y0191446D02*
X0120031Y0191446D01*
X0120830Y0190647D02*
X0168980Y0190647D01*
X0169779Y0189849D02*
X0121628Y0189849D01*
X0122427Y0189050D02*
X0170577Y0189050D01*
X0171376Y0188252D02*
X0123225Y0188252D01*
X0124024Y0187453D02*
X0172174Y0187453D01*
X0172973Y0186655D02*
X0124822Y0186655D01*
X0125621Y0185856D02*
X0173771Y0185856D01*
X0173800Y0185058D02*
X0126419Y0185058D01*
X0127218Y0184259D02*
X0173800Y0184259D01*
X0173800Y0183461D02*
X0158016Y0183461D01*
X0158815Y0182662D02*
X0173800Y0182662D01*
X0173800Y0181864D02*
X0159613Y0181864D01*
X0160412Y0181065D02*
X0173800Y0181065D01*
X0174055Y0180267D02*
X0161210Y0180267D01*
X0162009Y0179468D02*
X0174655Y0179468D01*
X0152764Y0147528D02*
X0151971Y0147528D01*
X0152764Y0146729D02*
X0149717Y0146729D01*
X0148919Y0145931D02*
X0152764Y0145931D01*
X0152764Y0145132D02*
X0148120Y0145132D01*
X0148297Y0144334D02*
X0147321Y0144334D01*
X0147406Y0143535D02*
X0146523Y0143535D01*
X0146870Y0142737D02*
X0145724Y0142737D01*
X0144926Y0141938D02*
X0146539Y0141938D01*
X0146470Y0141139D02*
X0144127Y0141139D01*
X0143329Y0140341D02*
X0146470Y0140341D01*
X0146760Y0139542D02*
X0142530Y0139542D01*
X0141764Y0138744D02*
X0147139Y0138744D01*
X0147938Y0137945D02*
X0141764Y0137945D01*
X0141764Y0137147D02*
X0152764Y0137147D01*
X0152764Y0137945D02*
X0152697Y0137945D01*
X0152764Y0136348D02*
X0141764Y0136348D01*
X0141764Y0135550D02*
X0152764Y0135550D01*
X0152764Y0134751D02*
X0141764Y0134751D01*
X0141764Y0133953D02*
X0152764Y0133953D01*
X0152764Y0133154D02*
X0141764Y0133154D01*
X0141764Y0132356D02*
X0152764Y0132356D01*
X0152764Y0131557D02*
X0141764Y0131557D01*
X0141764Y0130759D02*
X0152764Y0130759D01*
X0152764Y0129960D02*
X0141764Y0129960D01*
X0141764Y0129162D02*
X0152764Y0129162D01*
X0152764Y0128363D02*
X0141764Y0128363D01*
X0141764Y0127565D02*
X0152764Y0127565D01*
X0152764Y0126766D02*
X0141764Y0126766D01*
X0141764Y0125968D02*
X0152764Y0125968D01*
X0152764Y0125169D02*
X0141764Y0125169D01*
X0141764Y0124371D02*
X0148387Y0124371D01*
X0147443Y0123572D02*
X0141764Y0123572D01*
X0141764Y0122774D02*
X0146886Y0122774D01*
X0146555Y0121975D02*
X0141672Y0121975D01*
X0141302Y0121177D02*
X0146470Y0121177D01*
X0146470Y0120378D02*
X0140504Y0120378D01*
X0139705Y0119580D02*
X0146744Y0119580D01*
X0147102Y0118781D02*
X0138907Y0118781D01*
X0138108Y0117983D02*
X0147901Y0117983D01*
X0149492Y0117184D02*
X0137310Y0117184D01*
X0136511Y0116386D02*
X0149157Y0116386D01*
X0148359Y0115587D02*
X0135713Y0115587D01*
X0134914Y0114789D02*
X0147560Y0114789D01*
X0146762Y0113990D02*
X0134116Y0113990D01*
X0134612Y0114487D02*
X0134612Y0114487D01*
X0141172Y0108401D02*
X0057917Y0108401D01*
X0057917Y0109199D02*
X0141971Y0109199D01*
X0142769Y0109998D02*
X0057917Y0109998D01*
X0057917Y0110796D02*
X0143568Y0110796D01*
X0144366Y0111595D02*
X0057917Y0111595D01*
X0057917Y0112393D02*
X0145165Y0112393D01*
X0145963Y0113192D02*
X0098283Y0113192D01*
X0097891Y0112800D02*
X0100000Y0114909D01*
X0100000Y0117891D01*
X0097891Y0120000D01*
X0094909Y0120000D01*
X0093909Y0119000D01*
X0077477Y0119000D01*
X0062873Y0133604D01*
X0061917Y0134000D01*
X0045194Y0134000D01*
X0044238Y0133604D01*
X0043507Y0132873D01*
X0035487Y0124853D01*
X0034552Y0124853D01*
X0033138Y0124268D01*
X0032056Y0123185D01*
X0031470Y0121772D01*
X0031470Y0120241D01*
X0032056Y0118827D01*
X0033138Y0117745D01*
X0034552Y0117159D01*
X0036083Y0117159D01*
X0037496Y0117745D01*
X0038579Y0118827D01*
X0039164Y0120241D01*
X0039164Y0121176D01*
X0046788Y0128800D01*
X0060323Y0128800D01*
X0074927Y0114196D01*
X0075883Y0113800D01*
X0093909Y0113800D01*
X0094909Y0112800D01*
X0097891Y0112800D01*
X0099081Y0113990D02*
X0126519Y0113990D01*
X0125721Y0114789D02*
X0099880Y0114789D01*
X0100000Y0115587D02*
X0124922Y0115587D01*
X0124124Y0116386D02*
X0100000Y0116386D01*
X0100000Y0117184D02*
X0123325Y0117184D01*
X0122527Y0117983D02*
X0099908Y0117983D01*
X0099110Y0118781D02*
X0121728Y0118781D01*
X0120930Y0119580D02*
X0098311Y0119580D01*
X0094489Y0119580D02*
X0076897Y0119580D01*
X0076099Y0120378D02*
X0120131Y0120378D01*
X0119332Y0121177D02*
X0075300Y0121177D01*
X0074502Y0121975D02*
X0118534Y0121975D01*
X0117735Y0122774D02*
X0073703Y0122774D01*
X0072905Y0123572D02*
X0116937Y0123572D01*
X0116138Y0124371D02*
X0072106Y0124371D01*
X0071308Y0125169D02*
X0115340Y0125169D01*
X0114541Y0125968D02*
X0070509Y0125968D01*
X0069711Y0126766D02*
X0113743Y0126766D01*
X0112944Y0127565D02*
X0068912Y0127565D01*
X0068114Y0128363D02*
X0112146Y0128363D01*
X0111347Y0129162D02*
X0067315Y0129162D01*
X0066517Y0129960D02*
X0110549Y0129960D01*
X0109750Y0130759D02*
X0065718Y0130759D01*
X0064920Y0131557D02*
X0108952Y0131557D01*
X0108153Y0132356D02*
X0064121Y0132356D01*
X0063323Y0133154D02*
X0107355Y0133154D01*
X0106556Y0133953D02*
X0062031Y0133953D01*
X0060760Y0128363D02*
X0046351Y0128363D01*
X0045553Y0127565D02*
X0061558Y0127565D01*
X0062357Y0126766D02*
X0044754Y0126766D01*
X0043956Y0125968D02*
X0063155Y0125968D01*
X0063954Y0125169D02*
X0043157Y0125169D01*
X0042359Y0124371D02*
X0053387Y0124371D01*
X0052443Y0123572D02*
X0041560Y0123572D01*
X0040762Y0122774D02*
X0051886Y0122774D01*
X0051555Y0121975D02*
X0039963Y0121975D01*
X0039165Y0121177D02*
X0051470Y0121177D01*
X0051470Y0120378D02*
X0039164Y0120378D01*
X0038890Y0119580D02*
X0051744Y0119580D01*
X0052102Y0118781D02*
X0038533Y0118781D01*
X0037734Y0117983D02*
X0052717Y0117983D01*
X0052717Y0117184D02*
X0036142Y0117184D01*
X0034492Y0117184D02*
X0014000Y0117184D01*
X0014000Y0116386D02*
X0052717Y0116386D01*
X0052717Y0115587D02*
X0014000Y0115587D01*
X0014000Y0114789D02*
X0052717Y0114789D01*
X0052717Y0113990D02*
X0014000Y0113990D01*
X0014000Y0113192D02*
X0052717Y0113192D01*
X0052717Y0112393D02*
X0014000Y0112393D01*
X0014000Y0111595D02*
X0052717Y0111595D01*
X0052717Y0110796D02*
X0014000Y0110796D01*
X0014000Y0109998D02*
X0052717Y0109998D01*
X0052717Y0109199D02*
X0014000Y0109199D01*
X0014000Y0108401D02*
X0052717Y0108401D01*
X0052717Y0107602D02*
X0014000Y0107602D01*
X0014000Y0106803D02*
X0052717Y0106803D01*
X0052717Y0106005D02*
X0014000Y0106005D01*
X0014000Y0105206D02*
X0052717Y0105206D01*
X0052717Y0104408D02*
X0014000Y0104408D01*
X0014000Y0103609D02*
X0052717Y0103609D01*
X0052717Y0102811D02*
X0014000Y0102811D01*
X0014000Y0102012D02*
X0052717Y0102012D01*
X0052717Y0101214D02*
X0014000Y0101214D01*
X0014000Y0100415D02*
X0052717Y0100415D01*
X0052717Y0099617D02*
X0014000Y0099617D01*
X0014000Y0098818D02*
X0052717Y0098818D01*
X0052717Y0098020D02*
X0014000Y0098020D01*
X0014000Y0097221D02*
X0052717Y0097221D01*
X0052717Y0096423D02*
X0014000Y0096423D01*
X0014000Y0095624D02*
X0052717Y0095624D01*
X0052717Y0094826D02*
X0014000Y0094826D01*
X0014000Y0094027D02*
X0052717Y0094027D01*
X0052717Y0093229D02*
X0014348Y0093229D01*
X0015147Y0092430D02*
X0052717Y0092430D01*
X0052717Y0091632D02*
X0015945Y0091632D01*
X0016744Y0090833D02*
X0052156Y0090833D01*
X0051358Y0090035D02*
X0017542Y0090035D01*
X0018341Y0089236D02*
X0050559Y0089236D01*
X0053921Y0085244D02*
X0104779Y0085244D01*
X0104224Y0084445D02*
X0053681Y0084445D01*
X0055076Y0083647D02*
X0104000Y0083647D01*
X0104000Y0082848D02*
X0055787Y0082848D01*
X0056247Y0082050D02*
X0104000Y0082050D01*
X0104000Y0081251D02*
X0056504Y0081251D01*
X0056591Y0079900D02*
X0049600Y0079900D01*
X0049600Y0075900D01*
X0052546Y0075900D01*
X0053230Y0076008D01*
X0053889Y0076222D01*
X0054506Y0076537D01*
X0055066Y0076944D01*
X0055556Y0077434D01*
X0055963Y0077994D01*
X0056278Y0078611D01*
X0056492Y0079270D01*
X0056591Y0079900D01*
X0056553Y0079654D02*
X0104000Y0079654D01*
X0104016Y0078856D02*
X0056357Y0078856D01*
X0055995Y0078057D02*
X0104347Y0078057D01*
X0105076Y0077259D02*
X0055381Y0077259D01*
X0054356Y0076460D02*
X0105248Y0076460D01*
X0105248Y0075662D02*
X0040438Y0075662D01*
X0039640Y0074863D02*
X0074772Y0074863D01*
X0073973Y0074065D02*
X0038841Y0074065D01*
X0038043Y0073266D02*
X0073175Y0073266D01*
X0072800Y0072468D02*
X0037244Y0072468D01*
X0036446Y0071669D02*
X0072800Y0071669D01*
X0072800Y0070870D02*
X0035647Y0070870D01*
X0034849Y0070072D02*
X0072800Y0070072D01*
X0073435Y0069273D02*
X0034050Y0069273D01*
X0033252Y0068475D02*
X0073800Y0068475D01*
X0073800Y0067676D02*
X0032453Y0067676D01*
X0031655Y0066878D02*
X0045714Y0066878D01*
X0045854Y0066900D02*
X0045170Y0066792D01*
X0044511Y0066578D01*
X0043894Y0066263D01*
X0043334Y0065856D01*
X0042844Y0065366D01*
X0042437Y0064806D01*
X0042122Y0064189D01*
X0041908Y0063530D01*
X0041809Y0062900D01*
X0048800Y0062900D01*
X0048800Y0066900D01*
X0045854Y0066900D01*
X0043641Y0066079D02*
X0030856Y0066079D01*
X0030058Y0065281D02*
X0042782Y0065281D01*
X0042272Y0064482D02*
X0030108Y0064482D01*
X0030439Y0063684D02*
X0041958Y0063684D01*
X0041809Y0062100D02*
X0041908Y0061470D01*
X0042122Y0060811D01*
X0042437Y0060194D01*
X0042844Y0059634D01*
X0043334Y0059144D01*
X0043894Y0058737D01*
X0044511Y0058422D01*
X0045170Y0058208D01*
X0045854Y0058100D01*
X0048800Y0058100D01*
X0048800Y0062100D01*
X0049600Y0062100D01*
X0049600Y0062900D01*
X0048800Y0062900D01*
X0048800Y0062100D01*
X0041809Y0062100D01*
X0041811Y0062087D02*
X0030600Y0062087D01*
X0030600Y0062885D02*
X0048800Y0062885D01*
X0048800Y0062087D02*
X0049600Y0062087D01*
X0049600Y0062100D02*
X0049600Y0058100D01*
X0052546Y0058100D01*
X0053230Y0058208D01*
X0053889Y0058422D01*
X0054506Y0058737D01*
X0055066Y0059144D01*
X0055556Y0059634D01*
X0055963Y0060194D01*
X0056278Y0060811D01*
X0056492Y0061470D01*
X0056591Y0062100D01*
X0049600Y0062100D01*
X0049600Y0062885D02*
X0073800Y0062885D01*
X0073800Y0062087D02*
X0056589Y0062087D01*
X0056591Y0062900D02*
X0056492Y0063530D01*
X0056278Y0064189D01*
X0055963Y0064806D01*
X0055556Y0065366D01*
X0055066Y0065856D01*
X0054506Y0066263D01*
X0053889Y0066578D01*
X0053230Y0066792D01*
X0052546Y0066900D01*
X0049600Y0066900D01*
X0049600Y0062900D01*
X0056591Y0062900D01*
X0056442Y0063684D02*
X0073800Y0063684D01*
X0073800Y0064482D02*
X0056128Y0064482D01*
X0055618Y0065281D02*
X0073800Y0065281D01*
X0073800Y0066079D02*
X0054759Y0066079D01*
X0052686Y0066878D02*
X0073800Y0066878D01*
X0073800Y0061288D02*
X0056433Y0061288D01*
X0056114Y0060490D02*
X0073800Y0060490D01*
X0073800Y0059691D02*
X0055598Y0059691D01*
X0054721Y0058893D02*
X0073800Y0058893D01*
X0073800Y0058094D02*
X0021329Y0058094D01*
X0022127Y0057296D02*
X0073800Y0057296D01*
X0073800Y0056497D02*
X0022926Y0056497D01*
X0023724Y0055699D02*
X0073800Y0055699D01*
X0073800Y0054900D02*
X0024523Y0054900D01*
X0025321Y0054102D02*
X0073800Y0054102D01*
X0073800Y0053303D02*
X0025935Y0053303D01*
X0026200Y0052505D02*
X0073800Y0052505D01*
X0073800Y0051706D02*
X0026200Y0051706D01*
X0026200Y0050908D02*
X0073800Y0050908D01*
X0073800Y0050109D02*
X0026200Y0050109D01*
X0026200Y0049311D02*
X0073800Y0049311D01*
X0073800Y0048512D02*
X0026200Y0048512D01*
X0026200Y0047714D02*
X0073800Y0047714D01*
X0073800Y0046915D02*
X0026200Y0046915D01*
X0026200Y0046117D02*
X0073800Y0046117D01*
X0073800Y0045318D02*
X0026200Y0045318D01*
X0026200Y0044520D02*
X0044948Y0044520D01*
X0045170Y0044592D02*
X0044511Y0044378D01*
X0043894Y0044063D01*
X0043334Y0043656D01*
X0042844Y0043166D01*
X0042437Y0042606D01*
X0042122Y0041989D01*
X0041908Y0041330D01*
X0041809Y0040700D01*
X0048800Y0040700D01*
X0048800Y0044700D01*
X0045854Y0044700D01*
X0045170Y0044592D01*
X0043423Y0043721D02*
X0028793Y0043721D01*
X0029634Y0042923D02*
X0042667Y0042923D01*
X0042191Y0042124D02*
X0030174Y0042124D01*
X0030505Y0041326D02*
X0041908Y0041326D01*
X0041809Y0039900D02*
X0041908Y0039270D01*
X0042122Y0038611D01*
X0042437Y0037994D01*
X0042844Y0037434D01*
X0043334Y0036944D01*
X0043894Y0036537D01*
X0044511Y0036222D01*
X0045170Y0036008D01*
X0045854Y0035900D01*
X0048800Y0035900D01*
X0048800Y0039900D01*
X0049600Y0039900D01*
X0049600Y0040700D01*
X0048800Y0040700D01*
X0048800Y0039900D01*
X0041809Y0039900D01*
X0041836Y0039729D02*
X0030600Y0039729D01*
X0030600Y0040527D02*
X0048800Y0040527D01*
X0048800Y0039729D02*
X0049600Y0039729D01*
X0049600Y0039900D02*
X0049600Y0035900D01*
X0052546Y0035900D01*
X0053230Y0036008D01*
X0053889Y0036222D01*
X0054506Y0036537D01*
X0055066Y0036944D01*
X0055556Y0037434D01*
X0055963Y0037994D01*
X0056278Y0038611D01*
X0056492Y0039270D01*
X0056591Y0039900D01*
X0049600Y0039900D01*
X0049600Y0040527D02*
X0073800Y0040527D01*
X0073800Y0039729D02*
X0056564Y0039729D01*
X0056381Y0038930D02*
X0073800Y0038930D01*
X0073800Y0038132D02*
X0056033Y0038132D01*
X0055456Y0037333D02*
X0073800Y0037333D01*
X0073800Y0036534D02*
X0054502Y0036534D01*
X0056591Y0040700D02*
X0056492Y0041330D01*
X0056278Y0041989D01*
X0055963Y0042606D01*
X0055556Y0043166D01*
X0055066Y0043656D01*
X0054506Y0044063D01*
X0053889Y0044378D01*
X0053230Y0044592D01*
X0052546Y0044700D01*
X0049600Y0044700D01*
X0049600Y0040700D01*
X0056591Y0040700D01*
X0056492Y0041326D02*
X0073800Y0041326D01*
X0073800Y0042124D02*
X0056209Y0042124D01*
X0055733Y0042923D02*
X0073800Y0042923D01*
X0073800Y0043721D02*
X0054977Y0043721D01*
X0053452Y0044520D02*
X0073800Y0044520D01*
X0073800Y0035736D02*
X0006200Y0035736D01*
X0006200Y0036534D02*
X0019238Y0036534D01*
X0017910Y0037333D02*
X0006200Y0037333D01*
X0006200Y0038132D02*
X0017169Y0038132D01*
X0016838Y0038930D02*
X0006200Y0038930D01*
X0006200Y0039729D02*
X0016600Y0039729D01*
X0016600Y0040527D02*
X0006200Y0040527D01*
X0006200Y0041326D02*
X0016695Y0041326D01*
X0017026Y0042124D02*
X0006200Y0042124D01*
X0006200Y0042923D02*
X0017566Y0042923D01*
X0018407Y0043721D02*
X0006200Y0043721D01*
X0006200Y0044520D02*
X0021000Y0044520D01*
X0021000Y0045318D02*
X0006200Y0045318D01*
X0006200Y0046117D02*
X0021000Y0046117D01*
X0021000Y0046915D02*
X0006200Y0046915D01*
X0006200Y0047714D02*
X0021000Y0047714D01*
X0021000Y0048512D02*
X0006200Y0048512D01*
X0006200Y0049311D02*
X0021000Y0049311D01*
X0021000Y0050109D02*
X0006200Y0050109D01*
X0006200Y0050908D02*
X0021000Y0050908D01*
X0020363Y0051706D02*
X0006200Y0051706D01*
X0006200Y0052505D02*
X0019564Y0052505D01*
X0018766Y0053303D02*
X0006200Y0053303D01*
X0006200Y0054102D02*
X0017967Y0054102D01*
X0017169Y0054900D02*
X0006200Y0054900D01*
X0006200Y0055699D02*
X0016370Y0055699D01*
X0015572Y0056497D02*
X0006200Y0056497D01*
X0006200Y0057296D02*
X0014773Y0057296D01*
X0013975Y0058094D02*
X0006200Y0058094D01*
X0006200Y0058893D02*
X0013188Y0058893D01*
X0012857Y0059691D02*
X0006200Y0059691D01*
X0006200Y0060490D02*
X0012800Y0060490D01*
X0012800Y0061288D02*
X0006200Y0061288D01*
X0006200Y0062087D02*
X0012800Y0062087D01*
X0012800Y0062885D02*
X0006200Y0062885D01*
X0006200Y0063684D02*
X0012800Y0063684D01*
X0012800Y0064482D02*
X0006200Y0064482D01*
X0006200Y0065281D02*
X0012845Y0065281D01*
X0013176Y0066079D02*
X0006200Y0066079D01*
X0006200Y0066878D02*
X0013947Y0066878D01*
X0014746Y0067676D02*
X0006200Y0067676D01*
X0006200Y0068475D02*
X0015544Y0068475D01*
X0016343Y0069273D02*
X0006200Y0069273D01*
X0006200Y0070072D02*
X0017141Y0070072D01*
X0017940Y0070870D02*
X0006200Y0070870D01*
X0006200Y0071669D02*
X0018738Y0071669D01*
X0019537Y0072468D02*
X0006200Y0072468D01*
X0006200Y0073266D02*
X0020335Y0073266D01*
X0021000Y0074065D02*
X0006200Y0074065D01*
X0006200Y0074863D02*
X0021000Y0074863D01*
X0021000Y0075662D02*
X0006200Y0075662D01*
X0006200Y0076460D02*
X0019418Y0076460D01*
X0017985Y0077259D02*
X0006200Y0077259D01*
X0006200Y0078057D02*
X0017199Y0078057D01*
X0016869Y0078856D02*
X0006200Y0078856D01*
X0006200Y0079654D02*
X0016600Y0079654D01*
X0016600Y0080453D02*
X0006200Y0080453D01*
X0006200Y0081251D02*
X0016664Y0081251D01*
X0016995Y0082050D02*
X0006200Y0082050D01*
X0006200Y0082848D02*
X0017375Y0082848D01*
X0016576Y0083647D02*
X0006200Y0083647D01*
X0006200Y0084445D02*
X0015778Y0084445D01*
X0014979Y0085244D02*
X0006200Y0085244D01*
X0006200Y0086042D02*
X0014181Y0086042D01*
X0013382Y0086841D02*
X0006200Y0086841D01*
X0006200Y0087639D02*
X0012584Y0087639D01*
X0011785Y0088438D02*
X0006200Y0088438D01*
X0006200Y0089236D02*
X0010987Y0089236D01*
X0010188Y0090035D02*
X0006200Y0090035D01*
X0006200Y0090833D02*
X0009390Y0090833D01*
X0008945Y0091632D02*
X0006200Y0091632D01*
X0006200Y0092430D02*
X0008800Y0092430D01*
X0008800Y0093229D02*
X0006200Y0093229D01*
X0006200Y0094027D02*
X0008800Y0094027D01*
X0008800Y0094826D02*
X0006200Y0094826D01*
X0006200Y0095624D02*
X0008800Y0095624D01*
X0008800Y0096423D02*
X0006200Y0096423D01*
X0006200Y0097221D02*
X0008800Y0097221D01*
X0008800Y0098020D02*
X0006200Y0098020D01*
X0006200Y0098818D02*
X0008800Y0098818D01*
X0008800Y0099617D02*
X0006200Y0099617D01*
X0006200Y0100415D02*
X0008800Y0100415D01*
X0008800Y0101214D02*
X0006200Y0101214D01*
X0006200Y0102012D02*
X0008800Y0102012D01*
X0008800Y0102811D02*
X0006200Y0102811D01*
X0006200Y0103609D02*
X0008800Y0103609D01*
X0008800Y0104408D02*
X0006200Y0104408D01*
X0006200Y0105206D02*
X0008800Y0105206D01*
X0008800Y0106005D02*
X0006200Y0106005D01*
X0006200Y0106803D02*
X0008800Y0106803D01*
X0008800Y0107602D02*
X0006200Y0107602D01*
X0006200Y0108401D02*
X0008800Y0108401D01*
X0008800Y0109199D02*
X0006200Y0109199D01*
X0006200Y0109998D02*
X0008800Y0109998D01*
X0008800Y0110796D02*
X0006200Y0110796D01*
X0006200Y0111595D02*
X0008800Y0111595D01*
X0008800Y0112393D02*
X0006200Y0112393D01*
X0006200Y0113192D02*
X0008800Y0113192D01*
X0008800Y0113990D02*
X0006200Y0113990D01*
X0006200Y0114789D02*
X0008800Y0114789D01*
X0008800Y0115587D02*
X0006200Y0115587D01*
X0006200Y0116386D02*
X0008800Y0116386D01*
X0008800Y0117184D02*
X0006200Y0117184D01*
X0006200Y0117983D02*
X0008800Y0117983D01*
X0008800Y0118781D02*
X0006200Y0118781D01*
X0006200Y0119580D02*
X0008800Y0119580D01*
X0008800Y0120378D02*
X0006200Y0120378D01*
X0006200Y0121177D02*
X0008800Y0121177D01*
X0008800Y0121975D02*
X0006200Y0121975D01*
X0006200Y0122774D02*
X0008800Y0122774D01*
X0008800Y0123572D02*
X0006200Y0123572D01*
X0006200Y0124371D02*
X0008800Y0124371D01*
X0008800Y0125169D02*
X0006200Y0125169D01*
X0006200Y0125968D02*
X0008800Y0125968D01*
X0008800Y0126766D02*
X0006200Y0126766D01*
X0006200Y0127565D02*
X0008800Y0127565D01*
X0008800Y0128363D02*
X0006200Y0128363D01*
X0006200Y0129162D02*
X0008800Y0129162D01*
X0008800Y0129960D02*
X0006200Y0129960D01*
X0006200Y0130759D02*
X0008800Y0130759D01*
X0008800Y0131557D02*
X0006200Y0131557D01*
X0006200Y0132356D02*
X0008800Y0132356D01*
X0008800Y0133154D02*
X0006200Y0133154D01*
X0006200Y0133953D02*
X0008800Y0133953D01*
X0008800Y0134751D02*
X0006200Y0134751D01*
X0006200Y0135550D02*
X0008800Y0135550D01*
X0008800Y0136348D02*
X0006200Y0136348D01*
X0006200Y0137147D02*
X0008800Y0137147D01*
X0008800Y0137945D02*
X0006200Y0137945D01*
X0006200Y0138744D02*
X0008800Y0138744D01*
X0008800Y0139542D02*
X0006200Y0139542D01*
X0006200Y0140341D02*
X0008800Y0140341D01*
X0008800Y0141139D02*
X0006200Y0141139D01*
X0006200Y0141938D02*
X0008800Y0141938D01*
X0008800Y0142737D02*
X0006200Y0142737D01*
X0006200Y0143535D02*
X0008800Y0143535D01*
X0008800Y0144334D02*
X0006200Y0144334D01*
X0006200Y0145132D02*
X0008800Y0145132D01*
X0008800Y0145931D02*
X0006200Y0145931D01*
X0006200Y0146729D02*
X0008800Y0146729D01*
X0008800Y0147528D02*
X0006200Y0147528D01*
X0006200Y0148326D02*
X0008800Y0148326D01*
X0008800Y0149125D02*
X0006200Y0149125D01*
X0006200Y0149923D02*
X0008800Y0149923D01*
X0008800Y0150722D02*
X0006200Y0150722D01*
X0006200Y0151520D02*
X0008800Y0151520D01*
X0008800Y0152319D02*
X0006200Y0152319D01*
X0006200Y0153117D02*
X0008800Y0153117D01*
X0008800Y0153916D02*
X0006200Y0153916D01*
X0006200Y0154714D02*
X0008800Y0154714D01*
X0008800Y0155513D02*
X0006200Y0155513D01*
X0006200Y0156311D02*
X0008800Y0156311D01*
X0008800Y0157110D02*
X0006200Y0157110D01*
X0006200Y0157908D02*
X0008800Y0157908D01*
X0008800Y0158707D02*
X0006200Y0158707D01*
X0006200Y0159505D02*
X0008800Y0159505D01*
X0008800Y0160304D02*
X0006200Y0160304D01*
X0006200Y0161102D02*
X0008800Y0161102D01*
X0008800Y0161901D02*
X0006200Y0161901D01*
X0006200Y0162699D02*
X0008800Y0162699D01*
X0008800Y0163498D02*
X0006200Y0163498D01*
X0006200Y0164296D02*
X0008800Y0164296D01*
X0008800Y0165095D02*
X0006200Y0165095D01*
X0006200Y0165893D02*
X0008800Y0165893D01*
X0008800Y0166692D02*
X0006200Y0166692D01*
X0006200Y0167490D02*
X0008800Y0167490D01*
X0008800Y0168289D02*
X0006200Y0168289D01*
X0006200Y0169087D02*
X0008800Y0169087D01*
X0008800Y0169886D02*
X0006200Y0169886D01*
X0006200Y0170684D02*
X0008800Y0170684D01*
X0008800Y0171483D02*
X0006200Y0171483D01*
X0006200Y0172281D02*
X0008800Y0172281D01*
X0008800Y0173080D02*
X0006200Y0173080D01*
X0006200Y0173878D02*
X0008800Y0173878D01*
X0008800Y0174677D02*
X0006200Y0174677D01*
X0006200Y0175475D02*
X0008800Y0175475D01*
X0008800Y0176274D02*
X0006200Y0176274D01*
X0006200Y0177072D02*
X0008800Y0177072D01*
X0008800Y0177871D02*
X0006200Y0177871D01*
X0006200Y0178670D02*
X0008800Y0178670D01*
X0008800Y0179468D02*
X0006200Y0179468D01*
X0006200Y0180267D02*
X0008800Y0180267D01*
X0008800Y0181065D02*
X0006200Y0181065D01*
X0006200Y0181864D02*
X0008800Y0181864D01*
X0008800Y0182662D02*
X0006200Y0182662D01*
X0006200Y0183461D02*
X0008800Y0183461D01*
X0008800Y0184259D02*
X0006200Y0184259D01*
X0006200Y0185058D02*
X0008800Y0185058D01*
X0008800Y0185856D02*
X0006200Y0185856D01*
X0006200Y0186655D02*
X0008800Y0186655D01*
X0008800Y0187453D02*
X0006200Y0187453D01*
X0006200Y0188252D02*
X0008800Y0188252D01*
X0008659Y0189050D02*
X0006200Y0189050D01*
X0006200Y0189849D02*
X0007860Y0189849D01*
X0007800Y0190647D02*
X0006200Y0190647D01*
X0006200Y0191446D02*
X0007800Y0191446D01*
X0007800Y0192244D02*
X0006200Y0192244D01*
X0006200Y0193043D02*
X0007952Y0193043D01*
X0008750Y0193841D02*
X0006200Y0193841D01*
X0006200Y0194640D02*
X0009549Y0194640D01*
X0011761Y0195438D02*
X0006200Y0195438D01*
X0006200Y0196237D02*
X0012560Y0196237D01*
X0013358Y0197035D02*
X0006200Y0197035D01*
X0006200Y0197834D02*
X0014157Y0197834D01*
X0014955Y0198632D02*
X0006200Y0198632D01*
X0006200Y0199431D02*
X0015754Y0199431D01*
X0016552Y0200229D02*
X0006200Y0200229D01*
X0006200Y0201028D02*
X0017351Y0201028D01*
X0018149Y0201826D02*
X0006200Y0201826D01*
X0006200Y0202625D02*
X0018948Y0202625D01*
X0019746Y0203423D02*
X0006200Y0203423D01*
X0006200Y0204222D02*
X0020545Y0204222D01*
X0021343Y0205020D02*
X0006200Y0205020D01*
X0006200Y0205819D02*
X0022142Y0205819D01*
X0022940Y0206617D02*
X0006200Y0206617D01*
X0006200Y0207416D02*
X0023739Y0207416D01*
X0024537Y0208214D02*
X0006200Y0208214D01*
X0006200Y0209013D02*
X0025336Y0209013D01*
X0026135Y0209811D02*
X0006200Y0209811D01*
X0006200Y0210610D02*
X0026933Y0210610D01*
X0027732Y0211408D02*
X0006200Y0211408D01*
X0006200Y0212207D02*
X0028530Y0212207D01*
X0029329Y0213005D02*
X0006200Y0213005D01*
X0006200Y0213804D02*
X0030127Y0213804D01*
X0030926Y0214603D02*
X0006200Y0214603D01*
X0006200Y0215401D02*
X0031724Y0215401D01*
X0032523Y0216200D02*
X0006200Y0216200D01*
X0006200Y0216998D02*
X0033321Y0216998D01*
X0034120Y0217797D02*
X0006200Y0217797D01*
X0006200Y0218595D02*
X0034918Y0218595D01*
X0035717Y0219394D02*
X0006200Y0219394D01*
X0006200Y0220192D02*
X0036515Y0220192D01*
X0037314Y0220991D02*
X0006200Y0220991D01*
X0006200Y0221789D02*
X0038112Y0221789D01*
X0038911Y0222588D02*
X0006200Y0222588D01*
X0006200Y0223386D02*
X0039709Y0223386D01*
X0039800Y0224185D02*
X0006200Y0224185D01*
X0006200Y0224983D02*
X0039800Y0224983D01*
X0039800Y0225782D02*
X0006200Y0225782D01*
X0006200Y0226580D02*
X0039800Y0226580D01*
X0039800Y0227379D02*
X0039167Y0227379D01*
X0033633Y0227379D02*
X0029167Y0227379D01*
X0029119Y0227331D02*
X0030469Y0228681D01*
X0031200Y0230445D01*
X0031200Y0232355D01*
X0030469Y0234119D01*
X0029119Y0235469D01*
X0027355Y0236200D01*
X0025445Y0236200D01*
X0023681Y0235469D01*
X0022331Y0234119D01*
X0021600Y0232355D01*
X0021600Y0230445D01*
X0022331Y0228681D01*
X0023681Y0227331D01*
X0025445Y0226600D01*
X0027355Y0226600D01*
X0029119Y0227331D01*
X0029965Y0228177D02*
X0032835Y0228177D01*
X0032209Y0228976D02*
X0030591Y0228976D01*
X0030922Y0229774D02*
X0031878Y0229774D01*
X0031600Y0230573D02*
X0031200Y0230573D01*
X0031200Y0231371D02*
X0031600Y0231371D01*
X0031600Y0232170D02*
X0031200Y0232170D01*
X0030946Y0232968D02*
X0031854Y0232968D01*
X0032185Y0233767D02*
X0030615Y0233767D01*
X0030023Y0234565D02*
X0032777Y0234565D01*
X0033576Y0235364D02*
X0029224Y0235364D01*
X0028226Y0236961D02*
X0034574Y0236961D01*
X0035354Y0236162D02*
X0027446Y0236162D01*
X0027355Y0236600D02*
X0029119Y0237331D01*
X0030469Y0238681D01*
X0031200Y0240445D01*
X0031200Y0242355D01*
X0030469Y0244119D01*
X0029119Y0245469D01*
X0027355Y0246200D01*
X0025445Y0246200D01*
X0023681Y0245469D01*
X0022331Y0244119D01*
X0021600Y0242355D01*
X0021600Y0240445D01*
X0022331Y0238681D01*
X0023681Y0237331D01*
X0025445Y0236600D01*
X0027355Y0236600D01*
X0025354Y0236162D02*
X0006200Y0236162D01*
X0006200Y0235364D02*
X0023576Y0235364D01*
X0022777Y0234565D02*
X0006200Y0234565D01*
X0006200Y0233767D02*
X0022185Y0233767D01*
X0021854Y0232968D02*
X0006200Y0232968D01*
X0006200Y0232170D02*
X0021600Y0232170D01*
X0021600Y0231371D02*
X0006200Y0231371D01*
X0006200Y0230573D02*
X0021600Y0230573D01*
X0021878Y0229774D02*
X0006200Y0229774D01*
X0006200Y0228976D02*
X0022209Y0228976D01*
X0022835Y0228177D02*
X0006200Y0228177D01*
X0006200Y0227379D02*
X0023633Y0227379D01*
X0024574Y0236961D02*
X0006200Y0236961D01*
X0006200Y0237759D02*
X0023252Y0237759D01*
X0022454Y0238558D02*
X0006200Y0238558D01*
X0006200Y0239356D02*
X0022051Y0239356D01*
X0021720Y0240155D02*
X0006200Y0240155D01*
X0006200Y0240953D02*
X0021600Y0240953D01*
X0021600Y0241752D02*
X0006200Y0241752D01*
X0006200Y0242550D02*
X0021681Y0242550D01*
X0022012Y0243349D02*
X0006200Y0243349D01*
X0006200Y0244147D02*
X0022359Y0244147D01*
X0023158Y0244946D02*
X0006200Y0244946D01*
X0006200Y0245744D02*
X0024345Y0245744D01*
X0023670Y0247341D02*
X0006200Y0247341D01*
X0006200Y0246543D02*
X0039800Y0246543D01*
X0039800Y0247341D02*
X0039130Y0247341D01*
X0039800Y0245744D02*
X0038455Y0245744D01*
X0039642Y0244946D02*
X0039800Y0244946D01*
X0045000Y0246543D02*
X0152580Y0246543D01*
X0149345Y0245744D02*
X0143455Y0245744D01*
X0144642Y0244946D02*
X0148158Y0244946D01*
X0147359Y0244147D02*
X0145441Y0244147D01*
X0145788Y0243349D02*
X0147012Y0243349D01*
X0146681Y0242550D02*
X0146119Y0242550D01*
X0146200Y0241752D02*
X0146600Y0241752D01*
X0146600Y0240953D02*
X0146200Y0240953D01*
X0146080Y0240155D02*
X0146720Y0240155D01*
X0147051Y0239356D02*
X0145749Y0239356D01*
X0145346Y0238558D02*
X0147454Y0238558D01*
X0148252Y0237759D02*
X0144548Y0237759D01*
X0144130Y0247341D02*
X0148670Y0247341D01*
X0147872Y0248140D02*
X0144928Y0248140D01*
X0145576Y0248939D02*
X0147224Y0248939D01*
X0146893Y0249737D02*
X0145907Y0249737D01*
X0146200Y0250536D02*
X0146600Y0250536D01*
X0146600Y0251334D02*
X0146200Y0251334D01*
X0146200Y0252133D02*
X0146600Y0252133D01*
X0146839Y0252931D02*
X0145961Y0252931D01*
X0145631Y0253730D02*
X0147169Y0253730D01*
X0147740Y0254528D02*
X0145060Y0254528D01*
X0144262Y0255327D02*
X0148538Y0255327D01*
X0148731Y0256924D02*
X0145938Y0256924D01*
X0146200Y0257722D02*
X0147724Y0257722D01*
X0147064Y0258521D02*
X0146200Y0258521D01*
X0146200Y0259319D02*
X0146624Y0259319D01*
X0146349Y0260118D02*
X0146200Y0260118D01*
X0146200Y0260916D02*
X0146212Y0260916D01*
X0152536Y0256125D02*
X0201600Y0256125D01*
X0201600Y0263312D02*
X0156246Y0263312D01*
X0155855Y0264110D02*
X0201600Y0264110D01*
X0201600Y0264909D02*
X0155245Y0264909D01*
X0154318Y0265707D02*
X0201600Y0265707D01*
X0201600Y0268103D02*
X0036780Y0268103D01*
X0037578Y0268901D02*
X0201600Y0268901D01*
X0201600Y0269700D02*
X0038377Y0269700D01*
X0039175Y0270498D02*
X0201600Y0270498D01*
X0201600Y0271297D02*
X0039974Y0271297D01*
X0040772Y0272095D02*
X0201600Y0272095D01*
X0201600Y0272894D02*
X0092985Y0272894D01*
X0093784Y0273692D02*
X0201600Y0273692D01*
X0201600Y0274491D02*
X0094582Y0274491D01*
X0095000Y0275289D02*
X0201600Y0275289D01*
X0201600Y0276088D02*
X0095000Y0276088D01*
X0095000Y0276886D02*
X0201600Y0276886D01*
X0201600Y0277685D02*
X0095000Y0277685D01*
X0094408Y0278483D02*
X0201600Y0278483D01*
X0201600Y0279282D02*
X0093609Y0279282D01*
X0089815Y0272894D02*
X0072985Y0272894D01*
X0073784Y0273692D02*
X0089016Y0273692D01*
X0089191Y0279282D02*
X0078983Y0279282D01*
X0078185Y0280080D02*
X0201600Y0280080D01*
X0201600Y0280879D02*
X0077386Y0280879D01*
X0076588Y0281677D02*
X0201600Y0281677D01*
X0201600Y0282476D02*
X0075789Y0282476D01*
X0074991Y0283274D02*
X0201600Y0283274D01*
X0201600Y0284073D02*
X0006200Y0284073D01*
X0006200Y0283274D02*
X0033886Y0283274D01*
X0033088Y0282476D02*
X0006200Y0282476D01*
X0006200Y0281677D02*
X0032289Y0281677D01*
X0031491Y0280879D02*
X0006200Y0280879D01*
X0006200Y0280080D02*
X0030692Y0280080D01*
X0029894Y0279282D02*
X0006200Y0279282D01*
X0006200Y0278483D02*
X0029095Y0278483D01*
X0028297Y0277685D02*
X0006200Y0277685D01*
X0006200Y0276886D02*
X0027498Y0276886D01*
X0026700Y0276088D02*
X0006200Y0276088D01*
X0006200Y0275289D02*
X0025901Y0275289D01*
X0025103Y0274491D02*
X0006200Y0274491D01*
X0006200Y0273692D02*
X0024304Y0273692D01*
X0023506Y0272894D02*
X0006200Y0272894D01*
X0006200Y0272095D02*
X0022707Y0272095D01*
X0021909Y0271297D02*
X0006200Y0271297D01*
X0006200Y0270498D02*
X0021110Y0270498D01*
X0020312Y0269700D02*
X0006200Y0269700D01*
X0006200Y0268901D02*
X0019513Y0268901D01*
X0018715Y0268103D02*
X0006200Y0268103D01*
X0006200Y0267304D02*
X0018080Y0267304D01*
X0017800Y0266506D02*
X0006200Y0266506D01*
X0006200Y0265707D02*
X0017800Y0265707D01*
X0017800Y0264909D02*
X0006200Y0264909D01*
X0006200Y0264110D02*
X0017800Y0264110D01*
X0017800Y0263312D02*
X0006200Y0263312D01*
X0006200Y0262513D02*
X0017800Y0262513D01*
X0017800Y0261715D02*
X0006200Y0261715D01*
X0006200Y0260916D02*
X0017800Y0260916D01*
X0017800Y0260118D02*
X0006200Y0260118D01*
X0006200Y0259319D02*
X0017800Y0259319D01*
X0017800Y0258521D02*
X0006200Y0258521D01*
X0006200Y0257722D02*
X0017800Y0257722D01*
X0017800Y0256924D02*
X0006200Y0256924D01*
X0006200Y0256125D02*
X0017819Y0256125D01*
X0018150Y0255327D02*
X0006200Y0255327D01*
X0006200Y0254528D02*
X0018884Y0254528D01*
X0019485Y0253927D02*
X0019485Y0253927D01*
X0019682Y0253730D02*
X0006200Y0253730D01*
X0006200Y0252931D02*
X0020855Y0252931D01*
X0021600Y0252133D02*
X0006200Y0252133D01*
X0006200Y0251334D02*
X0021600Y0251334D01*
X0021600Y0250536D02*
X0006200Y0250536D01*
X0006200Y0249737D02*
X0021893Y0249737D01*
X0022224Y0248939D02*
X0006200Y0248939D01*
X0006200Y0248140D02*
X0022872Y0248140D01*
X0028455Y0245744D02*
X0034345Y0245744D01*
X0033158Y0244946D02*
X0029642Y0244946D01*
X0030441Y0244147D02*
X0032359Y0244147D01*
X0032012Y0243349D02*
X0030788Y0243349D01*
X0031119Y0242550D02*
X0031681Y0242550D01*
X0031600Y0241752D02*
X0031200Y0241752D01*
X0031200Y0240953D02*
X0031600Y0240953D01*
X0031720Y0240155D02*
X0031080Y0240155D01*
X0030749Y0239356D02*
X0032051Y0239356D01*
X0032454Y0238558D02*
X0030346Y0238558D01*
X0029548Y0237759D02*
X0033252Y0237759D01*
X0037446Y0236162D02*
X0039800Y0236162D01*
X0039800Y0235364D02*
X0039224Y0235364D01*
X0039800Y0236961D02*
X0038226Y0236961D01*
X0039548Y0237759D02*
X0039800Y0237759D01*
X0033670Y0247341D02*
X0029130Y0247341D01*
X0029928Y0248140D02*
X0032872Y0248140D01*
X0032224Y0248939D02*
X0030576Y0248939D01*
X0030907Y0249737D02*
X0031893Y0249737D01*
X0031600Y0250536D02*
X0031200Y0250536D01*
X0031200Y0251334D02*
X0031600Y0251334D01*
X0031600Y0252133D02*
X0031200Y0252133D01*
X0030961Y0252931D02*
X0031839Y0252931D01*
X0032169Y0253730D02*
X0030631Y0253730D01*
X0030060Y0254528D02*
X0032740Y0254528D01*
X0033538Y0255327D02*
X0029262Y0255327D01*
X0027536Y0256125D02*
X0035264Y0256125D01*
X0034664Y0256924D02*
X0030938Y0256924D01*
X0031200Y0257722D02*
X0033290Y0257722D01*
X0032491Y0258521D02*
X0031200Y0258521D01*
X0031200Y0259319D02*
X0032066Y0259319D01*
X0031736Y0260118D02*
X0031200Y0260118D01*
X0031200Y0260916D02*
X0031600Y0260916D01*
X0031600Y0261715D02*
X0031200Y0261715D01*
X0031200Y0262513D02*
X0031666Y0262513D01*
X0031989Y0263312D02*
X0031996Y0263312D01*
X0038544Y0265707D02*
X0136693Y0265707D01*
X0136600Y0264909D02*
X0039679Y0264909D01*
X0040473Y0264110D02*
X0136600Y0264110D01*
X0136600Y0258521D02*
X0041442Y0258521D01*
X0042240Y0257722D02*
X0136600Y0257722D01*
X0136862Y0256924D02*
X0043039Y0256924D01*
X0041571Y0272894D02*
X0069815Y0272894D01*
X0069016Y0273692D02*
X0042369Y0273692D01*
X0074582Y0274491D02*
X0076420Y0274491D01*
X0075622Y0275289D02*
X0075000Y0275289D01*
X0128016Y0183461D02*
X0141260Y0183461D01*
X0140462Y0182662D02*
X0128815Y0182662D01*
X0129613Y0181864D02*
X0139663Y0181864D01*
X0138864Y0181065D02*
X0130412Y0181065D01*
X0131210Y0180267D02*
X0138066Y0180267D01*
X0137267Y0179468D02*
X0132009Y0179468D01*
X0132640Y0178670D02*
X0136469Y0178670D01*
X0135670Y0177871D02*
X0132917Y0177871D01*
X0132917Y0177072D02*
X0134872Y0177072D01*
X0134073Y0176274D02*
X0132631Y0176274D01*
X0131987Y0175475D02*
X0133275Y0175475D01*
X0132476Y0174677D02*
X0131508Y0174677D01*
X0122670Y0164296D02*
X0057427Y0164296D01*
X0058266Y0163498D02*
X0122670Y0163498D01*
X0122670Y0162699D02*
X0058780Y0162699D01*
X0059111Y0161901D02*
X0122670Y0161901D01*
X0122670Y0161102D02*
X0059164Y0161102D01*
X0059697Y0160304D02*
X0122670Y0160304D01*
X0122670Y0159505D02*
X0060495Y0159505D01*
X0061294Y0158707D02*
X0122670Y0158707D01*
X0122670Y0157908D02*
X0062092Y0157908D01*
X0062891Y0157110D02*
X0122670Y0157110D01*
X0122670Y0156311D02*
X0063689Y0156311D01*
X0064488Y0155513D02*
X0122670Y0155513D01*
X0122670Y0154714D02*
X0065286Y0154714D01*
X0066085Y0153916D02*
X0122670Y0153916D01*
X0122670Y0153117D02*
X0094746Y0153117D01*
X0095544Y0152319D02*
X0122670Y0152319D01*
X0122670Y0151520D02*
X0096343Y0151520D01*
X0097141Y0150722D02*
X0122670Y0150722D01*
X0122670Y0149923D02*
X0097940Y0149923D01*
X0098738Y0149125D02*
X0122670Y0149125D01*
X0122700Y0148326D02*
X0099537Y0148326D01*
X0100336Y0147528D02*
X0123031Y0147528D01*
X0123780Y0146729D02*
X0101134Y0146729D01*
X0101933Y0145931D02*
X0124579Y0145931D01*
X0125377Y0145132D02*
X0102731Y0145132D01*
X0103530Y0144334D02*
X0126176Y0144334D01*
X0126974Y0143535D02*
X0104328Y0143535D01*
X0105127Y0142737D02*
X0126870Y0142737D01*
X0126539Y0141938D02*
X0105925Y0141938D01*
X0106724Y0141139D02*
X0126470Y0141139D01*
X0126470Y0140341D02*
X0107522Y0140341D01*
X0108321Y0139542D02*
X0126760Y0139542D01*
X0127139Y0138744D02*
X0109119Y0138744D01*
X0109918Y0137945D02*
X0127938Y0137945D01*
X0132697Y0137945D02*
X0132764Y0137945D01*
X0132764Y0137147D02*
X0110716Y0137147D01*
X0111515Y0136348D02*
X0132764Y0136348D01*
X0132764Y0135550D02*
X0112313Y0135550D01*
X0113112Y0134751D02*
X0132764Y0134751D01*
X0132764Y0133953D02*
X0113910Y0133953D01*
X0114709Y0133154D02*
X0132764Y0133154D01*
X0132764Y0132356D02*
X0115507Y0132356D01*
X0116306Y0131557D02*
X0132764Y0131557D01*
X0132764Y0130759D02*
X0117104Y0130759D01*
X0117903Y0129960D02*
X0132764Y0129960D01*
X0132764Y0129162D02*
X0118701Y0129162D01*
X0119500Y0128363D02*
X0132764Y0128363D01*
X0132764Y0127565D02*
X0120298Y0127565D01*
X0121097Y0126766D02*
X0132400Y0126766D01*
X0131602Y0125968D02*
X0121895Y0125968D01*
X0122694Y0125169D02*
X0130803Y0125169D01*
X0128387Y0124371D02*
X0123492Y0124371D01*
X0124291Y0123572D02*
X0127443Y0123572D01*
X0126886Y0122774D02*
X0125089Y0122774D01*
X0125888Y0121975D02*
X0126555Y0121975D01*
X0138777Y0106005D02*
X0057917Y0106005D01*
X0057917Y0106803D02*
X0139575Y0106803D01*
X0140374Y0107602D02*
X0057917Y0107602D01*
X0057917Y0105206D02*
X0137978Y0105206D01*
X0137180Y0104408D02*
X0057917Y0104408D01*
X0057917Y0103609D02*
X0136381Y0103609D01*
X0135583Y0102811D02*
X0057917Y0102811D01*
X0057917Y0102012D02*
X0134784Y0102012D01*
X0133985Y0101214D02*
X0057917Y0101214D01*
X0057917Y0100415D02*
X0133187Y0100415D01*
X0132388Y0099617D02*
X0057917Y0099617D01*
X0057917Y0098818D02*
X0131590Y0098818D01*
X0130791Y0098020D02*
X0057917Y0098020D01*
X0057917Y0097221D02*
X0129993Y0097221D01*
X0129194Y0096423D02*
X0057917Y0096423D01*
X0057917Y0095624D02*
X0128396Y0095624D01*
X0127597Y0094826D02*
X0057917Y0094826D01*
X0057917Y0094027D02*
X0126799Y0094027D01*
X0126000Y0093229D02*
X0057917Y0093229D01*
X0057917Y0092430D02*
X0125202Y0092430D01*
X0124403Y0091632D02*
X0057917Y0091632D01*
X0057917Y0090833D02*
X0123605Y0090833D01*
X0122806Y0090035D02*
X0057917Y0090035D01*
X0057684Y0089236D02*
X0122008Y0089236D01*
X0113148Y0078057D02*
X0135590Y0078057D01*
X0135259Y0077259D02*
X0110448Y0077259D01*
X0110448Y0076460D02*
X0135200Y0076460D01*
X0135209Y0075662D02*
X0110448Y0075662D01*
X0110448Y0074863D02*
X0135540Y0074863D01*
X0136044Y0074065D02*
X0110448Y0074065D01*
X0110448Y0073266D02*
X0121715Y0073266D01*
X0120917Y0072468D02*
X0110448Y0072468D01*
X0110448Y0071669D02*
X0120118Y0071669D01*
X0119320Y0070870D02*
X0110443Y0070870D01*
X0110113Y0070072D02*
X0118521Y0070072D01*
X0117723Y0069273D02*
X0109399Y0069273D01*
X0105248Y0074065D02*
X0088827Y0074065D01*
X0088028Y0074863D02*
X0105248Y0074863D01*
X0104000Y0080453D02*
X0049600Y0080453D01*
X0049600Y0079654D02*
X0048800Y0079654D01*
X0048800Y0078856D02*
X0049600Y0078856D01*
X0049600Y0078057D02*
X0048800Y0078057D01*
X0048800Y0077259D02*
X0049600Y0077259D01*
X0049600Y0076460D02*
X0048800Y0076460D01*
X0044044Y0076460D02*
X0041237Y0076460D01*
X0042036Y0077259D02*
X0043019Y0077259D01*
X0037876Y0080453D02*
X0030600Y0080453D01*
X0030600Y0079654D02*
X0037077Y0079654D01*
X0036279Y0078856D02*
X0030331Y0078856D01*
X0030001Y0078057D02*
X0035480Y0078057D01*
X0034682Y0077259D02*
X0029215Y0077259D01*
X0027782Y0076460D02*
X0033883Y0076460D01*
X0033085Y0075662D02*
X0026200Y0075662D01*
X0026200Y0074863D02*
X0032286Y0074863D01*
X0031488Y0074065D02*
X0026200Y0074065D01*
X0026200Y0073266D02*
X0030689Y0073266D01*
X0029891Y0072468D02*
X0026200Y0072468D01*
X0025923Y0071669D02*
X0029092Y0071669D01*
X0028294Y0070870D02*
X0025294Y0070870D01*
X0024495Y0070072D02*
X0027495Y0070072D01*
X0026697Y0069273D02*
X0023696Y0069273D01*
X0022898Y0068475D02*
X0025898Y0068475D01*
X0025099Y0067676D02*
X0022099Y0067676D01*
X0021301Y0066878D02*
X0024301Y0066878D01*
X0028344Y0058893D02*
X0043679Y0058893D01*
X0042802Y0059691D02*
X0029448Y0059691D01*
X0030097Y0060490D02*
X0042286Y0060490D01*
X0041967Y0061288D02*
X0030428Y0061288D01*
X0030536Y0081251D02*
X0038400Y0081251D01*
X0038400Y0082050D02*
X0030205Y0082050D01*
X0029709Y0082848D02*
X0038400Y0082848D01*
X0038680Y0083647D02*
X0028910Y0083647D01*
X0023132Y0084445D02*
X0039314Y0084445D01*
X0040113Y0085244D02*
X0022333Y0085244D01*
X0021535Y0086042D02*
X0040911Y0086042D01*
X0041710Y0086841D02*
X0020736Y0086841D01*
X0019938Y0087639D02*
X0042508Y0087639D01*
X0043307Y0088438D02*
X0019139Y0088438D01*
X0014000Y0117983D02*
X0032901Y0117983D01*
X0032102Y0118781D02*
X0014000Y0118781D01*
X0014000Y0119580D02*
X0031744Y0119580D01*
X0031470Y0120378D02*
X0014000Y0120378D01*
X0014000Y0121177D02*
X0031470Y0121177D01*
X0031555Y0121975D02*
X0014000Y0121975D01*
X0014000Y0122774D02*
X0031886Y0122774D01*
X0032443Y0123572D02*
X0014000Y0123572D01*
X0014000Y0124371D02*
X0033387Y0124371D01*
X0035803Y0125169D02*
X0014000Y0125169D01*
X0014000Y0125968D02*
X0036602Y0125968D01*
X0037400Y0126766D02*
X0014000Y0126766D01*
X0014000Y0127565D02*
X0038199Y0127565D01*
X0038997Y0128363D02*
X0014000Y0128363D01*
X0014000Y0129162D02*
X0039796Y0129162D01*
X0040594Y0129960D02*
X0014000Y0129960D01*
X0014000Y0130759D02*
X0041393Y0130759D01*
X0042191Y0131557D02*
X0014000Y0131557D01*
X0014000Y0132356D02*
X0042990Y0132356D01*
X0043788Y0133154D02*
X0014000Y0133154D01*
X0014000Y0133953D02*
X0045080Y0133953D01*
X0038495Y0138744D02*
X0052139Y0138744D01*
X0052056Y0138827D02*
X0053138Y0137745D01*
X0054552Y0137159D01*
X0056083Y0137159D01*
X0057496Y0137745D01*
X0058579Y0138827D01*
X0059164Y0140241D01*
X0059164Y0141772D01*
X0058579Y0143185D01*
X0057496Y0144268D01*
X0056083Y0144853D01*
X0054552Y0144853D01*
X0053138Y0144268D01*
X0052056Y0143185D01*
X0051470Y0141772D01*
X0051470Y0140241D01*
X0052056Y0138827D01*
X0051760Y0139542D02*
X0038875Y0139542D01*
X0039164Y0140341D02*
X0051470Y0140341D01*
X0051470Y0141139D02*
X0039164Y0141139D01*
X0039926Y0141938D02*
X0051539Y0141938D01*
X0051870Y0142737D02*
X0040724Y0142737D01*
X0041523Y0143535D02*
X0052406Y0143535D01*
X0053297Y0144334D02*
X0042321Y0144334D01*
X0043120Y0145132D02*
X0095377Y0145132D01*
X0094579Y0145931D02*
X0043919Y0145931D01*
X0044717Y0146729D02*
X0093780Y0146729D01*
X0092982Y0147528D02*
X0056971Y0147528D01*
X0057496Y0147745D02*
X0058579Y0148827D01*
X0059164Y0150241D01*
X0059164Y0151772D01*
X0058579Y0153185D01*
X0057496Y0154268D01*
X0056083Y0154853D01*
X0054552Y0154853D01*
X0053138Y0154268D01*
X0052056Y0153185D01*
X0051470Y0151772D01*
X0051470Y0150241D01*
X0052056Y0148827D01*
X0053138Y0147745D01*
X0054552Y0147159D01*
X0056083Y0147159D01*
X0057496Y0147745D01*
X0058077Y0148326D02*
X0092183Y0148326D01*
X0096176Y0144334D02*
X0057337Y0144334D01*
X0058229Y0143535D02*
X0096974Y0143535D01*
X0097773Y0142737D02*
X0058765Y0142737D01*
X0059095Y0141938D02*
X0098571Y0141938D01*
X0099370Y0141139D02*
X0059164Y0141139D01*
X0059164Y0140341D02*
X0100168Y0140341D01*
X0100967Y0139542D02*
X0058875Y0139542D01*
X0058495Y0138744D02*
X0101765Y0138744D01*
X0102564Y0137945D02*
X0057697Y0137945D01*
X0052938Y0137945D02*
X0037697Y0137945D01*
X0035766Y0145132D02*
X0014000Y0145132D01*
X0014000Y0144334D02*
X0033297Y0144334D01*
X0032406Y0143535D02*
X0014000Y0143535D01*
X0014000Y0142737D02*
X0031870Y0142737D01*
X0031539Y0141938D02*
X0014000Y0141938D01*
X0014000Y0141139D02*
X0031470Y0141139D01*
X0031470Y0140341D02*
X0014000Y0140341D01*
X0014000Y0139542D02*
X0031760Y0139542D01*
X0032139Y0138744D02*
X0014000Y0138744D01*
X0014000Y0137945D02*
X0032938Y0137945D01*
X0036565Y0145931D02*
X0014000Y0145931D01*
X0014000Y0146729D02*
X0037363Y0146729D01*
X0036948Y0147070D02*
X0037543Y0147374D01*
X0038084Y0147767D01*
X0038557Y0148240D01*
X0038950Y0148780D01*
X0039253Y0149376D01*
X0039460Y0150012D01*
X0039554Y0150606D01*
X0035717Y0150606D01*
X0035717Y0146770D01*
X0036312Y0146864D01*
X0036948Y0147070D01*
X0037755Y0147528D02*
X0038162Y0147528D01*
X0038620Y0148326D02*
X0038960Y0148326D01*
X0039125Y0149125D02*
X0039759Y0149125D01*
X0039431Y0149923D02*
X0040557Y0149923D01*
X0041356Y0150722D02*
X0035717Y0150722D01*
X0035717Y0150606D02*
X0035717Y0151406D01*
X0034917Y0151406D01*
X0034917Y0150606D01*
X0031081Y0150606D01*
X0031175Y0150012D01*
X0031382Y0149376D01*
X0031685Y0148780D01*
X0032078Y0148240D01*
X0032551Y0147767D01*
X0033091Y0147374D01*
X0033687Y0147070D01*
X0034323Y0146864D01*
X0034917Y0146770D01*
X0034917Y0150606D01*
X0035717Y0150606D01*
X0035717Y0149923D02*
X0034917Y0149923D01*
X0034917Y0149125D02*
X0035717Y0149125D01*
X0035717Y0148326D02*
X0034917Y0148326D01*
X0034917Y0147528D02*
X0035717Y0147528D01*
X0034917Y0150722D02*
X0014000Y0150722D01*
X0014000Y0151520D02*
X0031099Y0151520D01*
X0031081Y0151406D02*
X0034917Y0151406D01*
X0034917Y0155243D01*
X0034323Y0155149D01*
X0033687Y0154942D01*
X0033091Y0154639D01*
X0032551Y0154246D01*
X0032078Y0153773D01*
X0031685Y0153232D01*
X0031382Y0152637D01*
X0031175Y0152001D01*
X0031081Y0151406D01*
X0031278Y0152319D02*
X0014000Y0152319D01*
X0014000Y0153117D02*
X0031626Y0153117D01*
X0032221Y0153916D02*
X0014000Y0153916D01*
X0014000Y0154714D02*
X0033240Y0154714D01*
X0034917Y0154714D02*
X0035717Y0154714D01*
X0035717Y0155243D02*
X0035717Y0151406D01*
X0039554Y0151406D01*
X0039460Y0152001D01*
X0039253Y0152637D01*
X0038950Y0153232D01*
X0038557Y0153773D01*
X0038084Y0154246D01*
X0037543Y0154639D01*
X0036948Y0154942D01*
X0036312Y0155149D01*
X0035717Y0155243D01*
X0035717Y0153916D02*
X0034917Y0153916D01*
X0034917Y0153117D02*
X0035717Y0153117D01*
X0035717Y0152319D02*
X0034917Y0152319D01*
X0034917Y0151520D02*
X0035717Y0151520D01*
X0038414Y0153916D02*
X0044550Y0153916D01*
X0045348Y0154714D02*
X0037395Y0154714D01*
X0039008Y0153117D02*
X0043751Y0153117D01*
X0042953Y0152319D02*
X0039356Y0152319D01*
X0039536Y0151520D02*
X0042154Y0151520D01*
X0045516Y0147528D02*
X0053663Y0147528D01*
X0052557Y0148326D02*
X0046314Y0148326D01*
X0047113Y0149125D02*
X0051933Y0149125D01*
X0051602Y0149923D02*
X0047911Y0149923D01*
X0048710Y0150722D02*
X0051470Y0150722D01*
X0051470Y0151520D02*
X0049508Y0151520D01*
X0050307Y0152319D02*
X0051697Y0152319D01*
X0052028Y0153117D02*
X0051105Y0153117D01*
X0051904Y0153916D02*
X0052786Y0153916D01*
X0052569Y0154714D02*
X0054216Y0154714D01*
X0052870Y0155513D02*
X0057134Y0155513D01*
X0056418Y0154714D02*
X0057932Y0154714D01*
X0057848Y0153916D02*
X0058731Y0153916D01*
X0058607Y0153117D02*
X0059530Y0153117D01*
X0058938Y0152319D02*
X0060328Y0152319D01*
X0061127Y0151520D02*
X0059164Y0151520D01*
X0059164Y0150722D02*
X0061925Y0150722D01*
X0062724Y0149923D02*
X0059033Y0149923D01*
X0058702Y0149125D02*
X0063522Y0149125D01*
X0056335Y0156311D02*
X0052870Y0156311D01*
X0052870Y0157110D02*
X0055537Y0157110D01*
X0052975Y0157908D02*
X0052870Y0157908D01*
X0046945Y0156311D02*
X0014000Y0156311D01*
X0014000Y0155513D02*
X0046147Y0155513D01*
X0052870Y0164296D02*
X0053208Y0164296D01*
X0052870Y0167490D02*
X0053753Y0167490D01*
X0032594Y0168289D02*
X0014000Y0168289D01*
X0014000Y0169087D02*
X0031948Y0169087D01*
X0031617Y0169886D02*
X0014000Y0169886D01*
X0014000Y0170684D02*
X0031470Y0170684D01*
X0031470Y0171483D02*
X0014000Y0171483D01*
X0014000Y0172281D02*
X0031682Y0172281D01*
X0032012Y0173080D02*
X0014000Y0173080D01*
X0014000Y0173878D02*
X0032749Y0173878D01*
X0031204Y0149923D02*
X0014000Y0149923D01*
X0014000Y0149125D02*
X0031510Y0149125D01*
X0032015Y0148326D02*
X0014000Y0148326D01*
X0014000Y0147528D02*
X0032880Y0147528D01*
X0014000Y0137147D02*
X0103362Y0137147D01*
X0104161Y0136348D02*
X0014000Y0136348D01*
X0014000Y0135550D02*
X0104959Y0135550D01*
X0105758Y0134751D02*
X0014000Y0134751D01*
X0055518Y0086841D02*
X0106376Y0086841D01*
X0107174Y0087639D02*
X0056316Y0087639D01*
X0057115Y0088438D02*
X0108020Y0088438D01*
X0105577Y0086042D02*
X0054719Y0086042D01*
X0049600Y0066878D02*
X0048800Y0066878D01*
X0048800Y0066079D02*
X0049600Y0066079D01*
X0049600Y0065281D02*
X0048800Y0065281D01*
X0048800Y0064482D02*
X0049600Y0064482D01*
X0049600Y0063684D02*
X0048800Y0063684D01*
X0048800Y0061288D02*
X0049600Y0061288D01*
X0049600Y0060490D02*
X0048800Y0060490D01*
X0048800Y0059691D02*
X0049600Y0059691D01*
X0049600Y0058893D02*
X0048800Y0058893D01*
X0048800Y0044520D02*
X0049600Y0044520D01*
X0049600Y0043721D02*
X0048800Y0043721D01*
X0048800Y0042923D02*
X0049600Y0042923D01*
X0049600Y0042124D02*
X0048800Y0042124D01*
X0048800Y0041326D02*
X0049600Y0041326D01*
X0049600Y0038930D02*
X0048800Y0038930D01*
X0048800Y0038132D02*
X0049600Y0038132D01*
X0049600Y0037333D02*
X0048800Y0037333D01*
X0048800Y0036534D02*
X0049600Y0036534D01*
X0043898Y0036534D02*
X0027962Y0036534D01*
X0029290Y0037333D02*
X0042944Y0037333D01*
X0042367Y0038132D02*
X0030031Y0038132D01*
X0030362Y0038930D02*
X0042019Y0038930D01*
X0045170Y0026792D02*
X0044511Y0026578D01*
X0043894Y0026263D01*
X0043334Y0025856D01*
X0042844Y0025366D01*
X0042437Y0024806D01*
X0042122Y0024189D01*
X0041908Y0023530D01*
X0041809Y0022900D01*
X0048800Y0022900D01*
X0048800Y0026900D01*
X0045854Y0026900D01*
X0045170Y0026792D01*
X0043743Y0026154D02*
X0028231Y0026154D01*
X0028866Y0025891D02*
X0027396Y0026500D01*
X0019804Y0026500D01*
X0018334Y0025891D01*
X0017209Y0024766D01*
X0016600Y0023296D01*
X0016600Y0021704D01*
X0017209Y0020234D01*
X0018334Y0019109D01*
X0019804Y0018500D01*
X0027396Y0018500D01*
X0028866Y0019109D01*
X0029991Y0020234D01*
X0030600Y0021704D01*
X0030600Y0023296D01*
X0029991Y0024766D01*
X0028866Y0025891D01*
X0029402Y0025355D02*
X0042836Y0025355D01*
X0042310Y0024557D02*
X0030078Y0024557D01*
X0030408Y0023758D02*
X0041982Y0023758D01*
X0041818Y0022960D02*
X0030600Y0022960D01*
X0030600Y0022161D02*
X0048800Y0022161D01*
X0048800Y0022100D02*
X0041809Y0022100D01*
X0041908Y0021470D01*
X0042122Y0020811D01*
X0042437Y0020194D01*
X0042844Y0019634D01*
X0043334Y0019144D01*
X0043894Y0018737D01*
X0044511Y0018422D01*
X0045170Y0018208D01*
X0045854Y0018100D01*
X0048800Y0018100D01*
X0048800Y0022100D01*
X0049600Y0022100D01*
X0049600Y0022900D01*
X0048800Y0022900D01*
X0048800Y0022100D01*
X0048800Y0021363D02*
X0049600Y0021363D01*
X0049600Y0022100D02*
X0049600Y0018100D01*
X0052546Y0018100D01*
X0053230Y0018208D01*
X0053889Y0018422D01*
X0054506Y0018737D01*
X0055066Y0019144D01*
X0055556Y0019634D01*
X0055963Y0020194D01*
X0056278Y0020811D01*
X0056492Y0021470D01*
X0056591Y0022100D01*
X0049600Y0022100D01*
X0049600Y0022161D02*
X0074000Y0022161D01*
X0074013Y0021363D02*
X0056457Y0021363D01*
X0056152Y0020564D02*
X0074344Y0020564D01*
X0075069Y0019766D02*
X0055652Y0019766D01*
X0054823Y0018967D02*
X0075868Y0018967D01*
X0075127Y0019708D02*
X0075127Y0019708D01*
X0076666Y0018169D02*
X0052980Y0018169D01*
X0049600Y0018169D02*
X0048800Y0018169D01*
X0048800Y0018967D02*
X0049600Y0018967D01*
X0049600Y0019766D02*
X0048800Y0019766D01*
X0048800Y0020564D02*
X0049600Y0020564D01*
X0049600Y0022900D02*
X0056591Y0022900D01*
X0056492Y0023530D01*
X0056278Y0024189D01*
X0055963Y0024806D01*
X0055556Y0025366D01*
X0055066Y0025856D01*
X0054506Y0026263D01*
X0053889Y0026578D01*
X0053230Y0026792D01*
X0052546Y0026900D01*
X0049600Y0026900D01*
X0049600Y0022900D01*
X0049600Y0022960D02*
X0048800Y0022960D01*
X0048800Y0023758D02*
X0049600Y0023758D01*
X0049600Y0024557D02*
X0048800Y0024557D01*
X0048800Y0025355D02*
X0049600Y0025355D01*
X0049600Y0026154D02*
X0048800Y0026154D01*
X0045420Y0018169D02*
X0006200Y0018169D01*
X0006200Y0018967D02*
X0018676Y0018967D01*
X0017677Y0019766D02*
X0006200Y0019766D01*
X0006200Y0020564D02*
X0017072Y0020564D01*
X0016741Y0021363D02*
X0006200Y0021363D01*
X0006200Y0022161D02*
X0016600Y0022161D01*
X0016600Y0022960D02*
X0006200Y0022960D01*
X0006200Y0023758D02*
X0016792Y0023758D01*
X0017122Y0024557D02*
X0006200Y0024557D01*
X0006200Y0025355D02*
X0017798Y0025355D01*
X0018969Y0026154D02*
X0006200Y0026154D01*
X0006200Y0026952D02*
X0074000Y0026952D01*
X0074000Y0026154D02*
X0054657Y0026154D01*
X0055564Y0025355D02*
X0074000Y0025355D01*
X0074000Y0024557D02*
X0056090Y0024557D01*
X0056418Y0023758D02*
X0074000Y0023758D01*
X0074000Y0022960D02*
X0056582Y0022960D01*
X0043577Y0018967D02*
X0028524Y0018967D01*
X0029523Y0019766D02*
X0042748Y0019766D01*
X0042248Y0020564D02*
X0030128Y0020564D01*
X0030459Y0021363D02*
X0041943Y0021363D01*
X0072800Y0030146D02*
X0006200Y0030146D01*
X0006200Y0029348D02*
X0073361Y0029348D01*
X0074000Y0028549D02*
X0006200Y0028549D01*
X0006200Y0027751D02*
X0074000Y0027751D01*
X0072800Y0030945D02*
X0006200Y0030945D01*
X0006200Y0031743D02*
X0072800Y0031743D01*
X0072800Y0032542D02*
X0006200Y0032542D01*
X0006200Y0033340D02*
X0073249Y0033340D01*
X0073800Y0034139D02*
X0006200Y0034139D01*
X0006200Y0034937D02*
X0073800Y0034937D01*
X0077208Y0017627D02*
X0077208Y0017627D01*
X0077465Y0017370D02*
X0006200Y0017370D01*
X0006200Y0016572D02*
X0078721Y0016572D01*
X0103350Y0015773D02*
X0006200Y0015773D01*
X0006200Y0014975D02*
X0104148Y0014975D01*
X0104196Y0014927D02*
X0104196Y0014927D01*
X0104975Y0014176D02*
X0006200Y0014176D01*
X0057917Y0113192D02*
X0094517Y0113192D01*
X0075424Y0113990D02*
X0057917Y0113990D01*
X0057917Y0114789D02*
X0074334Y0114789D01*
X0073536Y0115587D02*
X0057917Y0115587D01*
X0057917Y0116386D02*
X0072737Y0116386D01*
X0071939Y0117184D02*
X0057917Y0117184D01*
X0057917Y0117983D02*
X0071140Y0117983D01*
X0070342Y0118781D02*
X0058533Y0118781D01*
X0058890Y0119580D02*
X0069543Y0119580D01*
X0068745Y0120378D02*
X0059164Y0120378D01*
X0059164Y0121177D02*
X0067946Y0121177D01*
X0067148Y0121975D02*
X0059080Y0121975D01*
X0058749Y0122774D02*
X0066349Y0122774D01*
X0065551Y0123572D02*
X0058192Y0123572D01*
X0057247Y0124371D02*
X0064752Y0124371D01*
X0078028Y0074863D02*
X0084772Y0074863D01*
X0083973Y0074065D02*
X0078827Y0074065D01*
X0079625Y0073266D02*
X0083175Y0073266D01*
X0082800Y0072468D02*
X0080000Y0072468D01*
X0080000Y0071669D02*
X0082800Y0071669D01*
X0082800Y0070870D02*
X0080000Y0070870D01*
X0080000Y0070072D02*
X0082800Y0070072D01*
X0083435Y0069273D02*
X0079365Y0069273D01*
X0079000Y0068475D02*
X0084234Y0068475D01*
X0083513Y0066878D02*
X0115327Y0066878D01*
X0116125Y0067676D02*
X0079000Y0067676D01*
X0079000Y0066878D02*
X0079287Y0066878D01*
X0088566Y0068475D02*
X0116924Y0068475D01*
X0134794Y0046117D02*
X0135200Y0046117D01*
X0135352Y0045318D02*
X0133995Y0045318D01*
X0133197Y0044520D02*
X0135682Y0044520D01*
X0136388Y0043721D02*
X0132398Y0043721D01*
X0131600Y0042923D02*
X0137788Y0042923D01*
X0138800Y0042124D02*
X0130801Y0042124D01*
X0130002Y0041326D02*
X0138800Y0041326D01*
X0138800Y0040527D02*
X0129204Y0040527D01*
X0129000Y0039729D02*
X0137429Y0039729D01*
X0136239Y0038930D02*
X0129000Y0038930D01*
X0129000Y0038132D02*
X0135621Y0038132D01*
X0135290Y0037333D02*
X0129000Y0037333D01*
X0129000Y0036534D02*
X0135200Y0036534D01*
X0135200Y0035736D02*
X0128939Y0035736D01*
X0128608Y0034937D02*
X0135509Y0034937D01*
X0135970Y0034139D02*
X0127816Y0034139D01*
X0127017Y0033340D02*
X0136779Y0033340D01*
X0162800Y0063684D02*
X0165859Y0063684D01*
X0165271Y0064482D02*
X0163159Y0064482D01*
X0163958Y0065281D02*
X0164944Y0065281D01*
X0164756Y0066079D02*
X0171000Y0066079D01*
X0171000Y0065281D02*
X0171800Y0065281D01*
X0171800Y0064482D02*
X0171000Y0064482D01*
X0171000Y0063684D02*
X0171800Y0063684D01*
X0171800Y0062885D02*
X0171000Y0062885D01*
X0168067Y0072468D02*
X0166600Y0072468D01*
X0152764Y0124371D02*
X0152247Y0124371D01*
X0152337Y0144334D02*
X0152764Y0144334D01*
X0132764Y0154478D02*
X0132543Y0154639D01*
X0131948Y0154942D01*
X0131312Y0155149D01*
X0130717Y0155243D01*
X0130717Y0151406D01*
X0129917Y0151406D01*
X0129917Y0155243D01*
X0129323Y0155149D01*
X0128687Y0154942D01*
X0128091Y0154639D01*
X0127870Y0154478D01*
X0127870Y0158013D01*
X0128138Y0157745D01*
X0129552Y0157159D01*
X0131083Y0157159D01*
X0132496Y0157745D01*
X0132764Y0158013D01*
X0132764Y0154478D01*
X0132764Y0154714D02*
X0132395Y0154714D01*
X0132764Y0155513D02*
X0127870Y0155513D01*
X0127870Y0156311D02*
X0132764Y0156311D01*
X0132764Y0157110D02*
X0127870Y0157110D01*
X0127870Y0157908D02*
X0127975Y0157908D01*
X0127870Y0154714D02*
X0128240Y0154714D01*
X0129917Y0154714D02*
X0130717Y0154714D01*
X0130717Y0153916D02*
X0129917Y0153916D01*
X0129917Y0153117D02*
X0130717Y0153117D01*
X0130717Y0152319D02*
X0129917Y0152319D01*
X0129917Y0151520D02*
X0130717Y0151520D01*
X0132660Y0157908D02*
X0132764Y0157908D01*
X0201600Y0284872D02*
X0006200Y0284872D01*
X0006200Y0285670D02*
X0201600Y0285670D01*
X0201600Y0286469D02*
X0006200Y0286469D01*
M02*
