%
M48
M72
T01C0.03200
T02C0.03504
T03C0.03937
T04C0.04000
T05C0.05200
%
T01
X76400Y31400
X81400Y23900
X86400Y31400
X81400Y63900
X76400Y71400
X86400Y71400
X111400Y81400
X96400Y116400
X96400Y176400
X71400Y191400
X71400Y216400
X91400Y216400
X91400Y276400
X71400Y276400
X11400Y191400
X111400Y21400
X141400Y26400
X141400Y36400
X141400Y46400
X141400Y56400
X141400Y66400
X141400Y76400
X141400Y86400
X171400Y86400
X171400Y76400
X171400Y66400
X171400Y56400
X171400Y46400
X171400Y36400
X171400Y26400
X181400Y116400
X181400Y176400
T02
X150317Y171006
X150317Y161006
X150317Y151006
X150317Y141006
X150317Y121006
X130317Y121006
X130317Y141006
X130317Y151006
X130317Y161006
X130317Y171006
X55317Y171006
X55317Y161006
X55317Y151006
X55317Y141006
X55317Y121006
X35317Y121006
X35317Y141006
X35317Y151006
X35317Y161006
X35317Y171006
T03
X36400Y231400
X36400Y241400
X36400Y251400
X36400Y261400
X26400Y261400
X26400Y251400
X26400Y241400
X26400Y231400
X141400Y231400
X141400Y241400
X141400Y251400
X141400Y261400
X151400Y261400
X151400Y251400
X151400Y241400
X151400Y231400
T04
X23600Y22500
X23600Y40300
X23600Y62500
X23600Y80300
X49200Y80300
X49200Y62500
X49200Y40300
X49200Y22500
T05
X181400Y196400
X181400Y216400
M30
