G75*
%MOIN*%
%OFA0B0*%
%FSLAX25Y25*%
%IPPOS*%
%LPD*%
%AMOC8*
5,1,8,0,0,1.08239X$1,22.5*
%
%ADD10C,0.00600*%
%ADD11C,0.00800*%
%ADD12C,0.02400*%
%ADD13R,0.03400X0.02400*%
%ADD14R,0.02400X0.03400*%
%ADD15C,0.01200*%
D10*
X0056675Y0019655D02*
X0056675Y0026655D01*
X0056677Y0026715D01*
X0056682Y0026776D01*
X0056691Y0026835D01*
X0056704Y0026894D01*
X0056720Y0026953D01*
X0056740Y0027010D01*
X0056763Y0027065D01*
X0056790Y0027120D01*
X0056819Y0027172D01*
X0056852Y0027223D01*
X0056888Y0027272D01*
X0056926Y0027318D01*
X0056968Y0027362D01*
X0057012Y0027404D01*
X0057058Y0027442D01*
X0057107Y0027478D01*
X0057158Y0027511D01*
X0057210Y0027540D01*
X0057265Y0027567D01*
X0057320Y0027590D01*
X0057377Y0027610D01*
X0057436Y0027626D01*
X0057495Y0027639D01*
X0057554Y0027648D01*
X0057615Y0027653D01*
X0057675Y0027655D01*
X0059175Y0027655D01*
X0059675Y0027155D01*
X0078675Y0027155D01*
X0079175Y0027655D01*
X0080675Y0027655D01*
X0080735Y0027653D01*
X0080796Y0027648D01*
X0080855Y0027639D01*
X0080914Y0027626D01*
X0080973Y0027610D01*
X0081030Y0027590D01*
X0081085Y0027567D01*
X0081140Y0027540D01*
X0081192Y0027511D01*
X0081243Y0027478D01*
X0081292Y0027442D01*
X0081338Y0027404D01*
X0081382Y0027362D01*
X0081424Y0027318D01*
X0081462Y0027272D01*
X0081498Y0027223D01*
X0081531Y0027172D01*
X0081560Y0027120D01*
X0081587Y0027065D01*
X0081610Y0027010D01*
X0081630Y0026953D01*
X0081646Y0026894D01*
X0081659Y0026835D01*
X0081668Y0026776D01*
X0081673Y0026715D01*
X0081675Y0026655D01*
X0081675Y0019655D01*
X0081673Y0019595D01*
X0081668Y0019534D01*
X0081659Y0019475D01*
X0081646Y0019416D01*
X0081630Y0019357D01*
X0081610Y0019300D01*
X0081587Y0019245D01*
X0081560Y0019190D01*
X0081531Y0019138D01*
X0081498Y0019087D01*
X0081462Y0019038D01*
X0081424Y0018992D01*
X0081382Y0018948D01*
X0081338Y0018906D01*
X0081292Y0018868D01*
X0081243Y0018832D01*
X0081192Y0018799D01*
X0081140Y0018770D01*
X0081085Y0018743D01*
X0081030Y0018720D01*
X0080973Y0018700D01*
X0080914Y0018684D01*
X0080855Y0018671D01*
X0080796Y0018662D01*
X0080735Y0018657D01*
X0080675Y0018655D01*
X0079175Y0018655D01*
X0078675Y0019155D01*
X0059675Y0019155D01*
X0059175Y0018655D01*
X0057675Y0018655D01*
X0057615Y0018657D01*
X0057554Y0018662D01*
X0057495Y0018671D01*
X0057436Y0018684D01*
X0057377Y0018700D01*
X0057320Y0018720D01*
X0057265Y0018743D01*
X0057210Y0018770D01*
X0057158Y0018799D01*
X0057107Y0018832D01*
X0057058Y0018868D01*
X0057012Y0018906D01*
X0056968Y0018948D01*
X0056926Y0018992D01*
X0056888Y0019038D01*
X0056852Y0019087D01*
X0056819Y0019138D01*
X0056790Y0019190D01*
X0056763Y0019245D01*
X0056740Y0019300D01*
X0056720Y0019357D01*
X0056704Y0019416D01*
X0056691Y0019475D01*
X0056682Y0019534D01*
X0056677Y0019595D01*
X0056675Y0019655D01*
X0061875Y0032665D02*
X0063375Y0032665D01*
X0063875Y0033165D01*
X0082875Y0033165D01*
X0083375Y0032665D01*
X0084875Y0032665D01*
X0084935Y0032667D01*
X0084996Y0032672D01*
X0085055Y0032681D01*
X0085114Y0032694D01*
X0085173Y0032710D01*
X0085230Y0032730D01*
X0085285Y0032753D01*
X0085340Y0032780D01*
X0085392Y0032809D01*
X0085443Y0032842D01*
X0085492Y0032878D01*
X0085538Y0032916D01*
X0085582Y0032958D01*
X0085624Y0033002D01*
X0085662Y0033048D01*
X0085698Y0033097D01*
X0085731Y0033148D01*
X0085760Y0033200D01*
X0085787Y0033255D01*
X0085810Y0033310D01*
X0085830Y0033367D01*
X0085846Y0033426D01*
X0085859Y0033485D01*
X0085868Y0033544D01*
X0085873Y0033605D01*
X0085875Y0033665D01*
X0085875Y0040665D01*
X0085873Y0040725D01*
X0085868Y0040786D01*
X0085859Y0040845D01*
X0085846Y0040904D01*
X0085830Y0040963D01*
X0085810Y0041020D01*
X0085787Y0041075D01*
X0085760Y0041130D01*
X0085731Y0041182D01*
X0085698Y0041233D01*
X0085662Y0041282D01*
X0085624Y0041328D01*
X0085582Y0041372D01*
X0085538Y0041414D01*
X0085492Y0041452D01*
X0085443Y0041488D01*
X0085392Y0041521D01*
X0085340Y0041550D01*
X0085285Y0041577D01*
X0085230Y0041600D01*
X0085173Y0041620D01*
X0085114Y0041636D01*
X0085055Y0041649D01*
X0084996Y0041658D01*
X0084935Y0041663D01*
X0084875Y0041665D01*
X0083375Y0041665D01*
X0082875Y0041165D01*
X0063875Y0041165D01*
X0063375Y0041665D01*
X0061875Y0041665D01*
X0061815Y0041663D01*
X0061754Y0041658D01*
X0061695Y0041649D01*
X0061636Y0041636D01*
X0061577Y0041620D01*
X0061520Y0041600D01*
X0061465Y0041577D01*
X0061410Y0041550D01*
X0061358Y0041521D01*
X0061307Y0041488D01*
X0061258Y0041452D01*
X0061212Y0041414D01*
X0061168Y0041372D01*
X0061126Y0041328D01*
X0061088Y0041282D01*
X0061052Y0041233D01*
X0061019Y0041182D01*
X0060990Y0041130D01*
X0060963Y0041075D01*
X0060940Y0041020D01*
X0060920Y0040963D01*
X0060904Y0040904D01*
X0060891Y0040845D01*
X0060882Y0040786D01*
X0060877Y0040725D01*
X0060875Y0040665D01*
X0060875Y0033665D01*
X0060877Y0033605D01*
X0060882Y0033544D01*
X0060891Y0033485D01*
X0060904Y0033426D01*
X0060920Y0033367D01*
X0060940Y0033310D01*
X0060963Y0033255D01*
X0060990Y0033200D01*
X0061019Y0033148D01*
X0061052Y0033097D01*
X0061088Y0033048D01*
X0061126Y0033002D01*
X0061168Y0032958D01*
X0061212Y0032916D01*
X0061258Y0032878D01*
X0061307Y0032842D01*
X0061358Y0032809D01*
X0061410Y0032780D01*
X0061465Y0032753D01*
X0061520Y0032730D01*
X0061577Y0032710D01*
X0061636Y0032694D01*
X0061695Y0032681D01*
X0061754Y0032672D01*
X0061815Y0032667D01*
X0061875Y0032665D01*
X0060105Y0050020D02*
X0058605Y0050020D01*
X0058545Y0050022D01*
X0058484Y0050027D01*
X0058425Y0050036D01*
X0058366Y0050049D01*
X0058307Y0050065D01*
X0058250Y0050085D01*
X0058195Y0050108D01*
X0058140Y0050135D01*
X0058088Y0050164D01*
X0058037Y0050197D01*
X0057988Y0050233D01*
X0057942Y0050271D01*
X0057898Y0050313D01*
X0057856Y0050357D01*
X0057818Y0050403D01*
X0057782Y0050452D01*
X0057749Y0050503D01*
X0057720Y0050555D01*
X0057693Y0050610D01*
X0057670Y0050665D01*
X0057650Y0050722D01*
X0057634Y0050781D01*
X0057621Y0050840D01*
X0057612Y0050899D01*
X0057607Y0050960D01*
X0057605Y0051020D01*
X0057605Y0058020D01*
X0057607Y0058080D01*
X0057612Y0058141D01*
X0057621Y0058200D01*
X0057634Y0058259D01*
X0057650Y0058318D01*
X0057670Y0058375D01*
X0057693Y0058430D01*
X0057720Y0058485D01*
X0057749Y0058537D01*
X0057782Y0058588D01*
X0057818Y0058637D01*
X0057856Y0058683D01*
X0057898Y0058727D01*
X0057942Y0058769D01*
X0057988Y0058807D01*
X0058037Y0058843D01*
X0058088Y0058876D01*
X0058140Y0058905D01*
X0058195Y0058932D01*
X0058250Y0058955D01*
X0058307Y0058975D01*
X0058366Y0058991D01*
X0058425Y0059004D01*
X0058484Y0059013D01*
X0058545Y0059018D01*
X0058605Y0059020D01*
X0060105Y0059020D01*
X0060605Y0058520D01*
X0079605Y0058520D01*
X0080105Y0059020D01*
X0081605Y0059020D01*
X0081665Y0059018D01*
X0081726Y0059013D01*
X0081785Y0059004D01*
X0081844Y0058991D01*
X0081903Y0058975D01*
X0081960Y0058955D01*
X0082015Y0058932D01*
X0082070Y0058905D01*
X0082122Y0058876D01*
X0082173Y0058843D01*
X0082222Y0058807D01*
X0082268Y0058769D01*
X0082312Y0058727D01*
X0082354Y0058683D01*
X0082392Y0058637D01*
X0082428Y0058588D01*
X0082461Y0058537D01*
X0082490Y0058485D01*
X0082517Y0058430D01*
X0082540Y0058375D01*
X0082560Y0058318D01*
X0082576Y0058259D01*
X0082589Y0058200D01*
X0082598Y0058141D01*
X0082603Y0058080D01*
X0082605Y0058020D01*
X0082605Y0051020D01*
X0082603Y0050960D01*
X0082598Y0050899D01*
X0082589Y0050840D01*
X0082576Y0050781D01*
X0082560Y0050722D01*
X0082540Y0050665D01*
X0082517Y0050610D01*
X0082490Y0050555D01*
X0082461Y0050503D01*
X0082428Y0050452D01*
X0082392Y0050403D01*
X0082354Y0050357D01*
X0082312Y0050313D01*
X0082268Y0050271D01*
X0082222Y0050233D01*
X0082173Y0050197D01*
X0082122Y0050164D01*
X0082070Y0050135D01*
X0082015Y0050108D01*
X0081960Y0050085D01*
X0081903Y0050065D01*
X0081844Y0050049D01*
X0081785Y0050036D01*
X0081726Y0050027D01*
X0081665Y0050022D01*
X0081605Y0050020D01*
X0080105Y0050020D01*
X0079605Y0050520D01*
X0060605Y0050520D01*
X0060105Y0050020D01*
X0073085Y0063340D02*
X0073085Y0070340D01*
X0073087Y0070400D01*
X0073092Y0070461D01*
X0073101Y0070520D01*
X0073114Y0070579D01*
X0073130Y0070638D01*
X0073150Y0070695D01*
X0073173Y0070750D01*
X0073200Y0070805D01*
X0073229Y0070857D01*
X0073262Y0070908D01*
X0073298Y0070957D01*
X0073336Y0071003D01*
X0073378Y0071047D01*
X0073422Y0071089D01*
X0073468Y0071127D01*
X0073517Y0071163D01*
X0073568Y0071196D01*
X0073620Y0071225D01*
X0073675Y0071252D01*
X0073730Y0071275D01*
X0073787Y0071295D01*
X0073846Y0071311D01*
X0073905Y0071324D01*
X0073964Y0071333D01*
X0074025Y0071338D01*
X0074085Y0071340D01*
X0075585Y0071340D01*
X0076085Y0070840D01*
X0095085Y0070840D01*
X0095585Y0071340D01*
X0097085Y0071340D01*
X0097145Y0071338D01*
X0097206Y0071333D01*
X0097265Y0071324D01*
X0097324Y0071311D01*
X0097383Y0071295D01*
X0097440Y0071275D01*
X0097495Y0071252D01*
X0097550Y0071225D01*
X0097602Y0071196D01*
X0097653Y0071163D01*
X0097702Y0071127D01*
X0097748Y0071089D01*
X0097792Y0071047D01*
X0097834Y0071003D01*
X0097872Y0070957D01*
X0097908Y0070908D01*
X0097941Y0070857D01*
X0097970Y0070805D01*
X0097997Y0070750D01*
X0098020Y0070695D01*
X0098040Y0070638D01*
X0098056Y0070579D01*
X0098069Y0070520D01*
X0098078Y0070461D01*
X0098083Y0070400D01*
X0098085Y0070340D01*
X0098085Y0063340D01*
X0098083Y0063280D01*
X0098078Y0063219D01*
X0098069Y0063160D01*
X0098056Y0063101D01*
X0098040Y0063042D01*
X0098020Y0062985D01*
X0097997Y0062930D01*
X0097970Y0062875D01*
X0097941Y0062823D01*
X0097908Y0062772D01*
X0097872Y0062723D01*
X0097834Y0062677D01*
X0097792Y0062633D01*
X0097748Y0062591D01*
X0097702Y0062553D01*
X0097653Y0062517D01*
X0097602Y0062484D01*
X0097550Y0062455D01*
X0097495Y0062428D01*
X0097440Y0062405D01*
X0097383Y0062385D01*
X0097324Y0062369D01*
X0097265Y0062356D01*
X0097206Y0062347D01*
X0097145Y0062342D01*
X0097085Y0062340D01*
X0095585Y0062340D01*
X0095085Y0062840D01*
X0076085Y0062840D01*
X0075585Y0062340D01*
X0074085Y0062340D01*
X0074025Y0062342D01*
X0073964Y0062347D01*
X0073905Y0062356D01*
X0073846Y0062369D01*
X0073787Y0062385D01*
X0073730Y0062405D01*
X0073675Y0062428D01*
X0073620Y0062455D01*
X0073568Y0062484D01*
X0073517Y0062517D01*
X0073468Y0062553D01*
X0073422Y0062591D01*
X0073378Y0062633D01*
X0073336Y0062677D01*
X0073298Y0062723D01*
X0073262Y0062772D01*
X0073229Y0062823D01*
X0073200Y0062875D01*
X0073173Y0062930D01*
X0073150Y0062985D01*
X0073130Y0063042D01*
X0073114Y0063101D01*
X0073101Y0063160D01*
X0073092Y0063219D01*
X0073087Y0063280D01*
X0073085Y0063340D01*
X0036700Y0080700D02*
X0036700Y0093700D01*
X0036698Y0093787D01*
X0036692Y0093874D01*
X0036683Y0093961D01*
X0036670Y0094047D01*
X0036653Y0094133D01*
X0036632Y0094218D01*
X0036607Y0094301D01*
X0036579Y0094384D01*
X0036548Y0094465D01*
X0036513Y0094545D01*
X0036474Y0094623D01*
X0036432Y0094700D01*
X0036387Y0094775D01*
X0036338Y0094847D01*
X0036287Y0094918D01*
X0036232Y0094986D01*
X0036175Y0095051D01*
X0036114Y0095114D01*
X0036051Y0095175D01*
X0035986Y0095232D01*
X0035918Y0095287D01*
X0035847Y0095338D01*
X0035775Y0095387D01*
X0035700Y0095432D01*
X0035623Y0095474D01*
X0035545Y0095513D01*
X0035465Y0095548D01*
X0035384Y0095579D01*
X0035301Y0095607D01*
X0035218Y0095632D01*
X0035133Y0095653D01*
X0035047Y0095670D01*
X0034961Y0095683D01*
X0034874Y0095692D01*
X0034787Y0095698D01*
X0034700Y0095700D01*
X0032200Y0092200D02*
X0032200Y0088400D01*
X0032200Y0085900D02*
X0032200Y0082200D01*
X0029700Y0078700D02*
X0029613Y0078702D01*
X0029526Y0078708D01*
X0029439Y0078717D01*
X0029353Y0078730D01*
X0029267Y0078747D01*
X0029182Y0078768D01*
X0029099Y0078793D01*
X0029016Y0078821D01*
X0028935Y0078852D01*
X0028855Y0078887D01*
X0028777Y0078926D01*
X0028700Y0078968D01*
X0028625Y0079013D01*
X0028553Y0079062D01*
X0028482Y0079113D01*
X0028414Y0079168D01*
X0028349Y0079225D01*
X0028286Y0079286D01*
X0028225Y0079349D01*
X0028168Y0079414D01*
X0028113Y0079482D01*
X0028062Y0079553D01*
X0028013Y0079625D01*
X0027968Y0079700D01*
X0027926Y0079777D01*
X0027887Y0079855D01*
X0027852Y0079935D01*
X0027821Y0080016D01*
X0027793Y0080099D01*
X0027768Y0080182D01*
X0027747Y0080267D01*
X0027730Y0080353D01*
X0027717Y0080439D01*
X0027708Y0080526D01*
X0027702Y0080613D01*
X0027700Y0080700D01*
X0027700Y0093700D01*
X0027702Y0093787D01*
X0027708Y0093874D01*
X0027717Y0093961D01*
X0027730Y0094047D01*
X0027747Y0094133D01*
X0027768Y0094218D01*
X0027793Y0094301D01*
X0027821Y0094384D01*
X0027852Y0094465D01*
X0027887Y0094545D01*
X0027926Y0094623D01*
X0027968Y0094700D01*
X0028013Y0094775D01*
X0028062Y0094847D01*
X0028113Y0094918D01*
X0028168Y0094986D01*
X0028225Y0095051D01*
X0028286Y0095114D01*
X0028349Y0095175D01*
X0028414Y0095232D01*
X0028482Y0095287D01*
X0028553Y0095338D01*
X0028625Y0095387D01*
X0028700Y0095432D01*
X0028777Y0095474D01*
X0028855Y0095513D01*
X0028935Y0095548D01*
X0029016Y0095579D01*
X0029099Y0095607D01*
X0029182Y0095632D01*
X0029267Y0095653D01*
X0029353Y0095670D01*
X0029439Y0095683D01*
X0029526Y0095692D01*
X0029613Y0095698D01*
X0029700Y0095700D01*
X0050995Y0110775D02*
X0073995Y0110775D01*
X0073995Y0180775D01*
X0066495Y0180775D01*
X0066493Y0180649D01*
X0066487Y0180524D01*
X0066477Y0180399D01*
X0066463Y0180274D01*
X0066446Y0180149D01*
X0066424Y0180025D01*
X0066399Y0179902D01*
X0066369Y0179780D01*
X0066336Y0179659D01*
X0066299Y0179539D01*
X0066259Y0179420D01*
X0066214Y0179303D01*
X0066166Y0179186D01*
X0066114Y0179072D01*
X0066059Y0178959D01*
X0066000Y0178848D01*
X0065938Y0178739D01*
X0065872Y0178632D01*
X0065803Y0178527D01*
X0065731Y0178424D01*
X0065656Y0178323D01*
X0065577Y0178225D01*
X0065495Y0178130D01*
X0065411Y0178037D01*
X0065323Y0177947D01*
X0065233Y0177859D01*
X0065140Y0177775D01*
X0065045Y0177693D01*
X0064947Y0177614D01*
X0064846Y0177539D01*
X0064743Y0177467D01*
X0064638Y0177398D01*
X0064531Y0177332D01*
X0064422Y0177270D01*
X0064311Y0177211D01*
X0064198Y0177156D01*
X0064084Y0177104D01*
X0063967Y0177056D01*
X0063850Y0177011D01*
X0063731Y0176971D01*
X0063611Y0176934D01*
X0063490Y0176901D01*
X0063368Y0176871D01*
X0063245Y0176846D01*
X0063121Y0176824D01*
X0062996Y0176807D01*
X0062871Y0176793D01*
X0062746Y0176783D01*
X0062621Y0176777D01*
X0062495Y0176775D01*
X0062369Y0176777D01*
X0062244Y0176783D01*
X0062119Y0176793D01*
X0061994Y0176807D01*
X0061869Y0176824D01*
X0061745Y0176846D01*
X0061622Y0176871D01*
X0061500Y0176901D01*
X0061379Y0176934D01*
X0061259Y0176971D01*
X0061140Y0177011D01*
X0061023Y0177056D01*
X0060906Y0177104D01*
X0060792Y0177156D01*
X0060679Y0177211D01*
X0060568Y0177270D01*
X0060459Y0177332D01*
X0060352Y0177398D01*
X0060247Y0177467D01*
X0060144Y0177539D01*
X0060043Y0177614D01*
X0059945Y0177693D01*
X0059850Y0177775D01*
X0059757Y0177859D01*
X0059667Y0177947D01*
X0059579Y0178037D01*
X0059495Y0178130D01*
X0059413Y0178225D01*
X0059334Y0178323D01*
X0059259Y0178424D01*
X0059187Y0178527D01*
X0059118Y0178632D01*
X0059052Y0178739D01*
X0058990Y0178848D01*
X0058931Y0178959D01*
X0058876Y0179072D01*
X0058824Y0179186D01*
X0058776Y0179303D01*
X0058731Y0179420D01*
X0058691Y0179539D01*
X0058654Y0179659D01*
X0058621Y0179780D01*
X0058591Y0179902D01*
X0058566Y0180025D01*
X0058544Y0180149D01*
X0058527Y0180274D01*
X0058513Y0180399D01*
X0058503Y0180524D01*
X0058497Y0180649D01*
X0058495Y0180775D01*
X0050995Y0180775D01*
X0050995Y0110775D01*
X0036700Y0080700D02*
X0036698Y0080613D01*
X0036692Y0080526D01*
X0036683Y0080439D01*
X0036670Y0080353D01*
X0036653Y0080267D01*
X0036632Y0080182D01*
X0036607Y0080099D01*
X0036579Y0080016D01*
X0036548Y0079935D01*
X0036513Y0079855D01*
X0036474Y0079777D01*
X0036432Y0079700D01*
X0036387Y0079625D01*
X0036338Y0079553D01*
X0036287Y0079482D01*
X0036232Y0079414D01*
X0036175Y0079349D01*
X0036114Y0079286D01*
X0036051Y0079225D01*
X0035986Y0079168D01*
X0035918Y0079113D01*
X0035847Y0079062D01*
X0035775Y0079013D01*
X0035700Y0078968D01*
X0035623Y0078926D01*
X0035545Y0078887D01*
X0035465Y0078852D01*
X0035384Y0078821D01*
X0035301Y0078793D01*
X0035218Y0078768D01*
X0035133Y0078747D01*
X0035047Y0078730D01*
X0034961Y0078717D01*
X0034874Y0078708D01*
X0034787Y0078702D01*
X0034700Y0078700D01*
X0109285Y0107910D02*
X0109285Y0109410D01*
X0109785Y0109910D01*
X0109785Y0128910D01*
X0109285Y0129410D01*
X0109285Y0130910D01*
X0109287Y0130970D01*
X0109292Y0131031D01*
X0109301Y0131090D01*
X0109314Y0131149D01*
X0109330Y0131208D01*
X0109350Y0131265D01*
X0109373Y0131320D01*
X0109400Y0131375D01*
X0109429Y0131427D01*
X0109462Y0131478D01*
X0109498Y0131527D01*
X0109536Y0131573D01*
X0109578Y0131617D01*
X0109622Y0131659D01*
X0109668Y0131697D01*
X0109717Y0131733D01*
X0109768Y0131766D01*
X0109820Y0131795D01*
X0109875Y0131822D01*
X0109930Y0131845D01*
X0109987Y0131865D01*
X0110046Y0131881D01*
X0110105Y0131894D01*
X0110164Y0131903D01*
X0110225Y0131908D01*
X0110285Y0131910D01*
X0117285Y0131910D01*
X0117345Y0131908D01*
X0117406Y0131903D01*
X0117465Y0131894D01*
X0117524Y0131881D01*
X0117583Y0131865D01*
X0117640Y0131845D01*
X0117695Y0131822D01*
X0117750Y0131795D01*
X0117802Y0131766D01*
X0117853Y0131733D01*
X0117902Y0131697D01*
X0117948Y0131659D01*
X0117992Y0131617D01*
X0118034Y0131573D01*
X0118072Y0131527D01*
X0118108Y0131478D01*
X0118141Y0131427D01*
X0118170Y0131375D01*
X0118197Y0131320D01*
X0118220Y0131265D01*
X0118240Y0131208D01*
X0118256Y0131149D01*
X0118269Y0131090D01*
X0118278Y0131031D01*
X0118283Y0130970D01*
X0118285Y0130910D01*
X0118285Y0129410D01*
X0117785Y0128910D01*
X0117785Y0109910D01*
X0118285Y0109410D01*
X0118285Y0107910D01*
X0118283Y0107850D01*
X0118278Y0107789D01*
X0118269Y0107730D01*
X0118256Y0107671D01*
X0118240Y0107612D01*
X0118220Y0107555D01*
X0118197Y0107500D01*
X0118170Y0107445D01*
X0118141Y0107393D01*
X0118108Y0107342D01*
X0118072Y0107293D01*
X0118034Y0107247D01*
X0117992Y0107203D01*
X0117948Y0107161D01*
X0117902Y0107123D01*
X0117853Y0107087D01*
X0117802Y0107054D01*
X0117750Y0107025D01*
X0117695Y0106998D01*
X0117640Y0106975D01*
X0117583Y0106955D01*
X0117524Y0106939D01*
X0117465Y0106926D01*
X0117406Y0106917D01*
X0117345Y0106912D01*
X0117285Y0106910D01*
X0110285Y0106910D01*
X0110225Y0106912D01*
X0110164Y0106917D01*
X0110105Y0106926D01*
X0110046Y0106939D01*
X0109987Y0106955D01*
X0109930Y0106975D01*
X0109875Y0106998D01*
X0109820Y0107025D01*
X0109768Y0107054D01*
X0109717Y0107087D01*
X0109668Y0107123D01*
X0109622Y0107161D01*
X0109578Y0107203D01*
X0109536Y0107247D01*
X0109498Y0107293D01*
X0109462Y0107342D01*
X0109429Y0107393D01*
X0109400Y0107445D01*
X0109373Y0107500D01*
X0109350Y0107555D01*
X0109330Y0107612D01*
X0109314Y0107671D01*
X0109301Y0107730D01*
X0109292Y0107789D01*
X0109287Y0107850D01*
X0109285Y0107910D01*
X0135700Y0097200D02*
X0158700Y0097200D01*
X0158700Y0167200D01*
X0151200Y0167200D01*
X0151198Y0167074D01*
X0151192Y0166949D01*
X0151182Y0166824D01*
X0151168Y0166699D01*
X0151151Y0166574D01*
X0151129Y0166450D01*
X0151104Y0166327D01*
X0151074Y0166205D01*
X0151041Y0166084D01*
X0151004Y0165964D01*
X0150964Y0165845D01*
X0150919Y0165728D01*
X0150871Y0165611D01*
X0150819Y0165497D01*
X0150764Y0165384D01*
X0150705Y0165273D01*
X0150643Y0165164D01*
X0150577Y0165057D01*
X0150508Y0164952D01*
X0150436Y0164849D01*
X0150361Y0164748D01*
X0150282Y0164650D01*
X0150200Y0164555D01*
X0150116Y0164462D01*
X0150028Y0164372D01*
X0149938Y0164284D01*
X0149845Y0164200D01*
X0149750Y0164118D01*
X0149652Y0164039D01*
X0149551Y0163964D01*
X0149448Y0163892D01*
X0149343Y0163823D01*
X0149236Y0163757D01*
X0149127Y0163695D01*
X0149016Y0163636D01*
X0148903Y0163581D01*
X0148789Y0163529D01*
X0148672Y0163481D01*
X0148555Y0163436D01*
X0148436Y0163396D01*
X0148316Y0163359D01*
X0148195Y0163326D01*
X0148073Y0163296D01*
X0147950Y0163271D01*
X0147826Y0163249D01*
X0147701Y0163232D01*
X0147576Y0163218D01*
X0147451Y0163208D01*
X0147326Y0163202D01*
X0147200Y0163200D01*
X0147074Y0163202D01*
X0146949Y0163208D01*
X0146824Y0163218D01*
X0146699Y0163232D01*
X0146574Y0163249D01*
X0146450Y0163271D01*
X0146327Y0163296D01*
X0146205Y0163326D01*
X0146084Y0163359D01*
X0145964Y0163396D01*
X0145845Y0163436D01*
X0145728Y0163481D01*
X0145611Y0163529D01*
X0145497Y0163581D01*
X0145384Y0163636D01*
X0145273Y0163695D01*
X0145164Y0163757D01*
X0145057Y0163823D01*
X0144952Y0163892D01*
X0144849Y0163964D01*
X0144748Y0164039D01*
X0144650Y0164118D01*
X0144555Y0164200D01*
X0144462Y0164284D01*
X0144372Y0164372D01*
X0144284Y0164462D01*
X0144200Y0164555D01*
X0144118Y0164650D01*
X0144039Y0164748D01*
X0143964Y0164849D01*
X0143892Y0164952D01*
X0143823Y0165057D01*
X0143757Y0165164D01*
X0143695Y0165273D01*
X0143636Y0165384D01*
X0143581Y0165497D01*
X0143529Y0165611D01*
X0143481Y0165728D01*
X0143436Y0165845D01*
X0143396Y0165964D01*
X0143359Y0166084D01*
X0143326Y0166205D01*
X0143296Y0166327D01*
X0143271Y0166450D01*
X0143249Y0166574D01*
X0143232Y0166699D01*
X0143218Y0166824D01*
X0143208Y0166949D01*
X0143202Y0167074D01*
X0143200Y0167200D01*
X0135700Y0167200D01*
X0135700Y0097200D01*
X0152060Y0080155D02*
X0153560Y0080155D01*
X0154060Y0079655D01*
X0173060Y0079655D01*
X0173560Y0080155D01*
X0175060Y0080155D01*
X0175120Y0080153D01*
X0175181Y0080148D01*
X0175240Y0080139D01*
X0175299Y0080126D01*
X0175358Y0080110D01*
X0175415Y0080090D01*
X0175470Y0080067D01*
X0175525Y0080040D01*
X0175577Y0080011D01*
X0175628Y0079978D01*
X0175677Y0079942D01*
X0175723Y0079904D01*
X0175767Y0079862D01*
X0175809Y0079818D01*
X0175847Y0079772D01*
X0175883Y0079723D01*
X0175916Y0079672D01*
X0175945Y0079620D01*
X0175972Y0079565D01*
X0175995Y0079510D01*
X0176015Y0079453D01*
X0176031Y0079394D01*
X0176044Y0079335D01*
X0176053Y0079276D01*
X0176058Y0079215D01*
X0176060Y0079155D01*
X0176060Y0072155D01*
X0176058Y0072095D01*
X0176053Y0072034D01*
X0176044Y0071975D01*
X0176031Y0071916D01*
X0176015Y0071857D01*
X0175995Y0071800D01*
X0175972Y0071745D01*
X0175945Y0071690D01*
X0175916Y0071638D01*
X0175883Y0071587D01*
X0175847Y0071538D01*
X0175809Y0071492D01*
X0175767Y0071448D01*
X0175723Y0071406D01*
X0175677Y0071368D01*
X0175628Y0071332D01*
X0175577Y0071299D01*
X0175525Y0071270D01*
X0175470Y0071243D01*
X0175415Y0071220D01*
X0175358Y0071200D01*
X0175299Y0071184D01*
X0175240Y0071171D01*
X0175181Y0071162D01*
X0175120Y0071157D01*
X0175060Y0071155D01*
X0173560Y0071155D01*
X0173060Y0071655D01*
X0154060Y0071655D01*
X0153560Y0071155D01*
X0152060Y0071155D01*
X0152000Y0071157D01*
X0151939Y0071162D01*
X0151880Y0071171D01*
X0151821Y0071184D01*
X0151762Y0071200D01*
X0151705Y0071220D01*
X0151650Y0071243D01*
X0151595Y0071270D01*
X0151543Y0071299D01*
X0151492Y0071332D01*
X0151443Y0071368D01*
X0151397Y0071406D01*
X0151353Y0071448D01*
X0151311Y0071492D01*
X0151273Y0071538D01*
X0151237Y0071587D01*
X0151204Y0071638D01*
X0151175Y0071690D01*
X0151148Y0071745D01*
X0151125Y0071800D01*
X0151105Y0071857D01*
X0151089Y0071916D01*
X0151076Y0071975D01*
X0151067Y0072034D01*
X0151062Y0072095D01*
X0151060Y0072155D01*
X0151060Y0079155D01*
X0151062Y0079215D01*
X0151067Y0079276D01*
X0151076Y0079335D01*
X0151089Y0079394D01*
X0151105Y0079453D01*
X0151125Y0079510D01*
X0151148Y0079565D01*
X0151175Y0079620D01*
X0151204Y0079672D01*
X0151237Y0079723D01*
X0151273Y0079772D01*
X0151311Y0079818D01*
X0151353Y0079862D01*
X0151397Y0079904D01*
X0151443Y0079942D01*
X0151492Y0079978D01*
X0151543Y0080011D01*
X0151595Y0080040D01*
X0151650Y0080067D01*
X0151705Y0080090D01*
X0151762Y0080110D01*
X0151821Y0080126D01*
X0151880Y0080139D01*
X0151939Y0080148D01*
X0152000Y0080153D01*
X0152060Y0080155D01*
X0144410Y0055115D02*
X0144910Y0054615D01*
X0163910Y0054615D01*
X0164410Y0055115D01*
X0165910Y0055115D01*
X0165970Y0055113D01*
X0166031Y0055108D01*
X0166090Y0055099D01*
X0166149Y0055086D01*
X0166208Y0055070D01*
X0166265Y0055050D01*
X0166320Y0055027D01*
X0166375Y0055000D01*
X0166427Y0054971D01*
X0166478Y0054938D01*
X0166527Y0054902D01*
X0166573Y0054864D01*
X0166617Y0054822D01*
X0166659Y0054778D01*
X0166697Y0054732D01*
X0166733Y0054683D01*
X0166766Y0054632D01*
X0166795Y0054580D01*
X0166822Y0054525D01*
X0166845Y0054470D01*
X0166865Y0054413D01*
X0166881Y0054354D01*
X0166894Y0054295D01*
X0166903Y0054236D01*
X0166908Y0054175D01*
X0166910Y0054115D01*
X0166910Y0047115D01*
X0166908Y0047055D01*
X0166903Y0046994D01*
X0166894Y0046935D01*
X0166881Y0046876D01*
X0166865Y0046817D01*
X0166845Y0046760D01*
X0166822Y0046705D01*
X0166795Y0046650D01*
X0166766Y0046598D01*
X0166733Y0046547D01*
X0166697Y0046498D01*
X0166659Y0046452D01*
X0166617Y0046408D01*
X0166573Y0046366D01*
X0166527Y0046328D01*
X0166478Y0046292D01*
X0166427Y0046259D01*
X0166375Y0046230D01*
X0166320Y0046203D01*
X0166265Y0046180D01*
X0166208Y0046160D01*
X0166149Y0046144D01*
X0166090Y0046131D01*
X0166031Y0046122D01*
X0165970Y0046117D01*
X0165910Y0046115D01*
X0164410Y0046115D01*
X0163910Y0046615D01*
X0144910Y0046615D01*
X0144410Y0046115D01*
X0142910Y0046115D01*
X0142850Y0046117D01*
X0142789Y0046122D01*
X0142730Y0046131D01*
X0142671Y0046144D01*
X0142612Y0046160D01*
X0142555Y0046180D01*
X0142500Y0046203D01*
X0142445Y0046230D01*
X0142393Y0046259D01*
X0142342Y0046292D01*
X0142293Y0046328D01*
X0142247Y0046366D01*
X0142203Y0046408D01*
X0142161Y0046452D01*
X0142123Y0046498D01*
X0142087Y0046547D01*
X0142054Y0046598D01*
X0142025Y0046650D01*
X0141998Y0046705D01*
X0141975Y0046760D01*
X0141955Y0046817D01*
X0141939Y0046876D01*
X0141926Y0046935D01*
X0141917Y0046994D01*
X0141912Y0047055D01*
X0141910Y0047115D01*
X0141910Y0054115D01*
X0141912Y0054175D01*
X0141917Y0054236D01*
X0141926Y0054295D01*
X0141939Y0054354D01*
X0141955Y0054413D01*
X0141975Y0054470D01*
X0141998Y0054525D01*
X0142025Y0054580D01*
X0142054Y0054632D01*
X0142087Y0054683D01*
X0142123Y0054732D01*
X0142161Y0054778D01*
X0142203Y0054822D01*
X0142247Y0054864D01*
X0142293Y0054902D01*
X0142342Y0054938D01*
X0142393Y0054971D01*
X0142445Y0055000D01*
X0142500Y0055027D01*
X0142555Y0055050D01*
X0142612Y0055070D01*
X0142671Y0055086D01*
X0142730Y0055099D01*
X0142789Y0055108D01*
X0142850Y0055113D01*
X0142910Y0055115D01*
X0144410Y0055115D01*
X0201115Y0068490D02*
X0201115Y0069990D01*
X0201615Y0070490D01*
X0201615Y0089490D01*
X0201115Y0089990D01*
X0201115Y0091490D01*
X0201117Y0091550D01*
X0201122Y0091611D01*
X0201131Y0091670D01*
X0201144Y0091729D01*
X0201160Y0091788D01*
X0201180Y0091845D01*
X0201203Y0091900D01*
X0201230Y0091955D01*
X0201259Y0092007D01*
X0201292Y0092058D01*
X0201328Y0092107D01*
X0201366Y0092153D01*
X0201408Y0092197D01*
X0201452Y0092239D01*
X0201498Y0092277D01*
X0201547Y0092313D01*
X0201598Y0092346D01*
X0201650Y0092375D01*
X0201705Y0092402D01*
X0201760Y0092425D01*
X0201817Y0092445D01*
X0201876Y0092461D01*
X0201935Y0092474D01*
X0201994Y0092483D01*
X0202055Y0092488D01*
X0202115Y0092490D01*
X0209115Y0092490D01*
X0209175Y0092488D01*
X0209236Y0092483D01*
X0209295Y0092474D01*
X0209354Y0092461D01*
X0209413Y0092445D01*
X0209470Y0092425D01*
X0209525Y0092402D01*
X0209580Y0092375D01*
X0209632Y0092346D01*
X0209683Y0092313D01*
X0209732Y0092277D01*
X0209778Y0092239D01*
X0209822Y0092197D01*
X0209864Y0092153D01*
X0209902Y0092107D01*
X0209938Y0092058D01*
X0209971Y0092007D01*
X0210000Y0091955D01*
X0210027Y0091900D01*
X0210050Y0091845D01*
X0210070Y0091788D01*
X0210086Y0091729D01*
X0210099Y0091670D01*
X0210108Y0091611D01*
X0210113Y0091550D01*
X0210115Y0091490D01*
X0210115Y0089990D01*
X0209615Y0089490D01*
X0209615Y0070490D01*
X0210115Y0069990D01*
X0210115Y0068490D01*
X0210113Y0068430D01*
X0210108Y0068369D01*
X0210099Y0068310D01*
X0210086Y0068251D01*
X0210070Y0068192D01*
X0210050Y0068135D01*
X0210027Y0068080D01*
X0210000Y0068025D01*
X0209971Y0067973D01*
X0209938Y0067922D01*
X0209902Y0067873D01*
X0209864Y0067827D01*
X0209822Y0067783D01*
X0209778Y0067741D01*
X0209732Y0067703D01*
X0209683Y0067667D01*
X0209632Y0067634D01*
X0209580Y0067605D01*
X0209525Y0067578D01*
X0209470Y0067555D01*
X0209413Y0067535D01*
X0209354Y0067519D01*
X0209295Y0067506D01*
X0209236Y0067497D01*
X0209175Y0067492D01*
X0209115Y0067490D01*
X0202115Y0067490D01*
X0202055Y0067492D01*
X0201994Y0067497D01*
X0201935Y0067506D01*
X0201876Y0067519D01*
X0201817Y0067535D01*
X0201760Y0067555D01*
X0201705Y0067578D01*
X0201650Y0067605D01*
X0201598Y0067634D01*
X0201547Y0067667D01*
X0201498Y0067703D01*
X0201452Y0067741D01*
X0201408Y0067783D01*
X0201366Y0067827D01*
X0201328Y0067873D01*
X0201292Y0067922D01*
X0201259Y0067973D01*
X0201230Y0068025D01*
X0201203Y0068080D01*
X0201180Y0068135D01*
X0201160Y0068192D01*
X0201144Y0068251D01*
X0201131Y0068310D01*
X0201122Y0068369D01*
X0201117Y0068430D01*
X0201115Y0068490D01*
X0238680Y0129710D02*
X0240180Y0129710D01*
X0240680Y0130210D01*
X0259680Y0130210D01*
X0260180Y0129710D01*
X0261680Y0129710D01*
X0261740Y0129712D01*
X0261801Y0129717D01*
X0261860Y0129726D01*
X0261919Y0129739D01*
X0261978Y0129755D01*
X0262035Y0129775D01*
X0262090Y0129798D01*
X0262145Y0129825D01*
X0262197Y0129854D01*
X0262248Y0129887D01*
X0262297Y0129923D01*
X0262343Y0129961D01*
X0262387Y0130003D01*
X0262429Y0130047D01*
X0262467Y0130093D01*
X0262503Y0130142D01*
X0262536Y0130193D01*
X0262565Y0130245D01*
X0262592Y0130300D01*
X0262615Y0130355D01*
X0262635Y0130412D01*
X0262651Y0130471D01*
X0262664Y0130530D01*
X0262673Y0130589D01*
X0262678Y0130650D01*
X0262680Y0130710D01*
X0262680Y0137710D01*
X0262678Y0137770D01*
X0262673Y0137831D01*
X0262664Y0137890D01*
X0262651Y0137949D01*
X0262635Y0138008D01*
X0262615Y0138065D01*
X0262592Y0138120D01*
X0262565Y0138175D01*
X0262536Y0138227D01*
X0262503Y0138278D01*
X0262467Y0138327D01*
X0262429Y0138373D01*
X0262387Y0138417D01*
X0262343Y0138459D01*
X0262297Y0138497D01*
X0262248Y0138533D01*
X0262197Y0138566D01*
X0262145Y0138595D01*
X0262090Y0138622D01*
X0262035Y0138645D01*
X0261978Y0138665D01*
X0261919Y0138681D01*
X0261860Y0138694D01*
X0261801Y0138703D01*
X0261740Y0138708D01*
X0261680Y0138710D01*
X0260180Y0138710D01*
X0259680Y0138210D01*
X0240680Y0138210D01*
X0240180Y0138710D01*
X0238680Y0138710D01*
X0238620Y0138708D01*
X0238559Y0138703D01*
X0238500Y0138694D01*
X0238441Y0138681D01*
X0238382Y0138665D01*
X0238325Y0138645D01*
X0238270Y0138622D01*
X0238215Y0138595D01*
X0238163Y0138566D01*
X0238112Y0138533D01*
X0238063Y0138497D01*
X0238017Y0138459D01*
X0237973Y0138417D01*
X0237931Y0138373D01*
X0237893Y0138327D01*
X0237857Y0138278D01*
X0237824Y0138227D01*
X0237795Y0138175D01*
X0237768Y0138120D01*
X0237745Y0138065D01*
X0237725Y0138008D01*
X0237709Y0137949D01*
X0237696Y0137890D01*
X0237687Y0137831D01*
X0237682Y0137770D01*
X0237680Y0137710D01*
X0237680Y0130710D01*
X0237682Y0130650D01*
X0237687Y0130589D01*
X0237696Y0130530D01*
X0237709Y0130471D01*
X0237725Y0130412D01*
X0237745Y0130355D01*
X0237768Y0130300D01*
X0237795Y0130245D01*
X0237824Y0130193D01*
X0237857Y0130142D01*
X0237893Y0130093D01*
X0237931Y0130047D01*
X0237973Y0130003D01*
X0238017Y0129961D01*
X0238063Y0129923D01*
X0238112Y0129887D01*
X0238163Y0129854D01*
X0238215Y0129825D01*
X0238270Y0129798D01*
X0238325Y0129775D01*
X0238382Y0129755D01*
X0238441Y0129739D01*
X0238500Y0129726D01*
X0238559Y0129717D01*
X0238620Y0129712D01*
X0238680Y0129710D01*
X0214948Y0134310D02*
X0213369Y0134310D01*
X0212743Y0139810D02*
X0196247Y0139810D01*
X0195621Y0134310D02*
X0194042Y0134310D01*
X0185140Y0133340D02*
X0185140Y0131840D01*
X0185138Y0131780D01*
X0185133Y0131719D01*
X0185124Y0131660D01*
X0185111Y0131601D01*
X0185095Y0131542D01*
X0185075Y0131485D01*
X0185052Y0131430D01*
X0185025Y0131375D01*
X0184996Y0131323D01*
X0184963Y0131272D01*
X0184927Y0131223D01*
X0184889Y0131177D01*
X0184847Y0131133D01*
X0184803Y0131091D01*
X0184757Y0131053D01*
X0184708Y0131017D01*
X0184657Y0130984D01*
X0184605Y0130955D01*
X0184550Y0130928D01*
X0184495Y0130905D01*
X0184438Y0130885D01*
X0184379Y0130869D01*
X0184320Y0130856D01*
X0184261Y0130847D01*
X0184200Y0130842D01*
X0184140Y0130840D01*
X0177140Y0130840D01*
X0177080Y0130842D01*
X0177019Y0130847D01*
X0176960Y0130856D01*
X0176901Y0130869D01*
X0176842Y0130885D01*
X0176785Y0130905D01*
X0176730Y0130928D01*
X0176675Y0130955D01*
X0176623Y0130984D01*
X0176572Y0131017D01*
X0176523Y0131053D01*
X0176477Y0131091D01*
X0176433Y0131133D01*
X0176391Y0131177D01*
X0176353Y0131223D01*
X0176317Y0131272D01*
X0176284Y0131323D01*
X0176255Y0131375D01*
X0176228Y0131430D01*
X0176205Y0131485D01*
X0176185Y0131542D01*
X0176169Y0131601D01*
X0176156Y0131660D01*
X0176147Y0131719D01*
X0176142Y0131780D01*
X0176140Y0131840D01*
X0176140Y0133340D01*
X0176640Y0133840D01*
X0176640Y0152840D01*
X0176140Y0153340D01*
X0176140Y0154840D01*
X0176142Y0154900D01*
X0176147Y0154961D01*
X0176156Y0155020D01*
X0176169Y0155079D01*
X0176185Y0155138D01*
X0176205Y0155195D01*
X0176228Y0155250D01*
X0176255Y0155305D01*
X0176284Y0155357D01*
X0176317Y0155408D01*
X0176353Y0155457D01*
X0176391Y0155503D01*
X0176433Y0155547D01*
X0176477Y0155589D01*
X0176523Y0155627D01*
X0176572Y0155663D01*
X0176623Y0155696D01*
X0176675Y0155725D01*
X0176730Y0155752D01*
X0176785Y0155775D01*
X0176842Y0155795D01*
X0176901Y0155811D01*
X0176960Y0155824D01*
X0177019Y0155833D01*
X0177080Y0155838D01*
X0177140Y0155840D01*
X0184140Y0155840D01*
X0184200Y0155838D01*
X0184261Y0155833D01*
X0184320Y0155824D01*
X0184379Y0155811D01*
X0184438Y0155795D01*
X0184495Y0155775D01*
X0184550Y0155752D01*
X0184605Y0155725D01*
X0184657Y0155696D01*
X0184708Y0155663D01*
X0184757Y0155627D01*
X0184803Y0155589D01*
X0184847Y0155547D01*
X0184889Y0155503D01*
X0184927Y0155457D01*
X0184963Y0155408D01*
X0184996Y0155357D01*
X0185025Y0155305D01*
X0185052Y0155250D01*
X0185075Y0155195D01*
X0185095Y0155138D01*
X0185111Y0155079D01*
X0185124Y0155020D01*
X0185133Y0154961D01*
X0185138Y0154900D01*
X0185140Y0154840D01*
X0185140Y0153340D01*
X0184640Y0152840D01*
X0184640Y0133840D01*
X0185140Y0133340D01*
X0196247Y0139810D02*
X0196092Y0139608D01*
X0195942Y0139403D01*
X0195796Y0139194D01*
X0195656Y0138981D01*
X0195521Y0138765D01*
X0195392Y0138546D01*
X0195268Y0138324D01*
X0195149Y0138099D01*
X0195036Y0137871D01*
X0194928Y0137641D01*
X0194826Y0137408D01*
X0194729Y0137172D01*
X0194638Y0136934D01*
X0194553Y0136695D01*
X0194474Y0136453D01*
X0194401Y0136209D01*
X0194334Y0135964D01*
X0194272Y0135717D01*
X0194217Y0135468D01*
X0194168Y0135218D01*
X0194125Y0134968D01*
X0194088Y0134716D01*
X0194057Y0134463D01*
X0194032Y0134210D01*
X0194013Y0133956D01*
X0194000Y0133702D01*
X0193994Y0133448D01*
X0193994Y0133193D01*
X0194000Y0132939D01*
X0194012Y0132684D01*
X0194030Y0132431D01*
X0194054Y0132177D01*
X0194085Y0131925D01*
X0194121Y0131673D01*
X0194164Y0131422D01*
X0194213Y0131172D01*
X0194268Y0130924D01*
X0194329Y0130677D01*
X0194395Y0130431D01*
X0194468Y0130187D01*
X0194547Y0129945D01*
X0194631Y0129705D01*
X0194722Y0129467D01*
X0194818Y0129231D01*
X0194919Y0128998D01*
X0195027Y0128767D01*
X0195139Y0128539D01*
X0195258Y0128314D01*
X0195382Y0128092D01*
X0195511Y0127872D01*
X0195645Y0127656D01*
X0195785Y0127443D01*
X0195930Y0127234D01*
X0196079Y0127028D01*
X0196234Y0126826D01*
X0196394Y0126628D01*
X0196558Y0126434D01*
X0196727Y0126243D01*
X0196900Y0126057D01*
X0197078Y0125875D01*
X0197261Y0125698D01*
X0197447Y0125525D01*
X0197638Y0125356D01*
X0197833Y0125192D01*
X0198032Y0125033D01*
X0198234Y0124879D01*
X0198440Y0124730D01*
X0198650Y0124586D01*
X0198863Y0124447D01*
X0199080Y0124313D01*
X0199299Y0124184D01*
X0199522Y0124061D01*
X0199748Y0123944D01*
X0199976Y0123831D01*
X0200207Y0123725D01*
X0200441Y0123624D01*
X0200677Y0123528D01*
X0200915Y0123439D01*
X0201155Y0123355D01*
X0201397Y0123277D01*
X0207591Y0123277D02*
X0207833Y0123355D01*
X0208073Y0123438D01*
X0208311Y0123528D01*
X0208547Y0123623D01*
X0208781Y0123725D01*
X0209012Y0123831D01*
X0209240Y0123943D01*
X0209466Y0124061D01*
X0209689Y0124184D01*
X0209908Y0124313D01*
X0210125Y0124447D01*
X0210338Y0124586D01*
X0210548Y0124730D01*
X0210754Y0124879D01*
X0210956Y0125033D01*
X0211155Y0125192D01*
X0211350Y0125356D01*
X0211540Y0125525D01*
X0211727Y0125698D01*
X0211909Y0125875D01*
X0212087Y0126057D01*
X0212261Y0126243D01*
X0212430Y0126434D01*
X0212594Y0126628D01*
X0212754Y0126826D01*
X0212909Y0127028D01*
X0213058Y0127234D01*
X0213203Y0127443D01*
X0213343Y0127656D01*
X0213477Y0127872D01*
X0213606Y0128091D01*
X0213730Y0128314D01*
X0213848Y0128539D01*
X0213961Y0128767D01*
X0214069Y0128998D01*
X0214170Y0129231D01*
X0214266Y0129467D01*
X0214357Y0129705D01*
X0214441Y0129945D01*
X0214520Y0130187D01*
X0214593Y0130431D01*
X0214659Y0130676D01*
X0214720Y0130923D01*
X0214775Y0131172D01*
X0214824Y0131422D01*
X0214867Y0131673D01*
X0214903Y0131924D01*
X0214934Y0132177D01*
X0214958Y0132430D01*
X0214976Y0132684D01*
X0214988Y0132938D01*
X0214994Y0133193D01*
X0214994Y0133447D01*
X0214988Y0133702D01*
X0214975Y0133956D01*
X0214956Y0134210D01*
X0214931Y0134463D01*
X0214900Y0134716D01*
X0214863Y0134967D01*
X0214820Y0135218D01*
X0214771Y0135468D01*
X0214716Y0135716D01*
X0214654Y0135963D01*
X0214587Y0136209D01*
X0214514Y0136452D01*
X0214435Y0136694D01*
X0214350Y0136934D01*
X0214259Y0137172D01*
X0214162Y0137408D01*
X0214060Y0137641D01*
X0213953Y0137871D01*
X0213839Y0138099D01*
X0213720Y0138324D01*
X0213596Y0138546D01*
X0213467Y0138765D01*
X0213332Y0138981D01*
X0213192Y0139194D01*
X0213047Y0139403D01*
X0212896Y0139608D01*
X0212741Y0139810D01*
D11*
X0222454Y0121128D02*
X0271666Y0121128D01*
X0271666Y0007742D01*
X0222454Y0007742D01*
X0222454Y0121128D01*
D12*
X0227680Y0134210D02*
X0234180Y0134210D01*
X0266180Y0134210D02*
X0272680Y0134210D01*
X0205615Y0102490D02*
X0205615Y0095990D01*
X0186060Y0075655D02*
X0179560Y0075655D01*
X0205615Y0063990D02*
X0205615Y0057490D01*
X0176910Y0050615D02*
X0170410Y0050615D01*
X0138410Y0050615D02*
X0131910Y0050615D01*
X0108085Y0066840D02*
X0101585Y0066840D01*
X0092605Y0054520D02*
X0086105Y0054520D01*
X0069585Y0066840D02*
X0063085Y0066840D01*
X0054105Y0054520D02*
X0047605Y0054520D01*
X0050875Y0037165D02*
X0057375Y0037165D01*
X0053175Y0023155D02*
X0046675Y0023155D01*
X0085175Y0023155D02*
X0091675Y0023155D01*
X0089375Y0037165D02*
X0095875Y0037165D01*
X0141060Y0075655D02*
X0147560Y0075655D01*
X0113785Y0096910D02*
X0113785Y0103410D01*
X0113785Y0135410D02*
X0113785Y0141910D01*
X0180640Y0127340D02*
X0180640Y0120840D01*
X0180640Y0159340D02*
X0180640Y0165840D01*
D13*
X0044975Y0023155D03*
X0054975Y0023155D03*
X0059175Y0037165D03*
X0049175Y0037165D03*
X0045905Y0054520D03*
X0055905Y0054520D03*
X0061385Y0066840D03*
X0071385Y0066840D03*
X0084305Y0054520D03*
X0094305Y0054520D03*
X0099785Y0066840D03*
X0109785Y0066840D03*
X0130210Y0050615D03*
X0140210Y0050615D03*
X0168610Y0050615D03*
X0178610Y0050615D03*
X0177760Y0075655D03*
X0187760Y0075655D03*
X0149360Y0075655D03*
X0139360Y0075655D03*
X0097575Y0037165D03*
X0087575Y0037165D03*
X0083375Y0023155D03*
X0093375Y0023155D03*
X0225980Y0134210D03*
X0235980Y0134210D03*
X0264380Y0134210D03*
X0274380Y0134210D03*
D14*
X0205615Y0104190D03*
X0205615Y0094190D03*
X0180640Y0119140D03*
X0180640Y0129140D03*
X0180640Y0157540D03*
X0180640Y0167540D03*
X0113785Y0143610D03*
X0113785Y0133610D03*
X0113785Y0105210D03*
X0113785Y0095210D03*
X0205615Y0065790D03*
X0205615Y0055790D03*
D15*
X0035200Y0085900D02*
X0032200Y0085900D01*
X0029200Y0085900D01*
X0029200Y0088400D02*
X0032200Y0088400D01*
X0035200Y0088400D01*
M02*
