%
M48
M72
T01C0.03200
T02C0.05118
T03C0.05200
%
T01
X39175Y23155
X43375Y37165
X40105Y54520
X55585Y66840
X32200Y77200
X32200Y97200
X47495Y115775
X47495Y125775
X47495Y135775
X47495Y145775
X47495Y155775
X47495Y165775
X47495Y175775
X77495Y175775
X77495Y165775
X77495Y155775
X77495Y145775
X77495Y135775
X77495Y125775
X77495Y115775
X113785Y89410
X132200Y102200
X132200Y112200
X132200Y122200
X132200Y132200
X132200Y142200
X132200Y152200
X132200Y162200
X113785Y149410
X162200Y152200
X162200Y142200
X162200Y132200
X162200Y122200
X162200Y112200
X162200Y102200
X180640Y113340
X205615Y109990
X204495Y125810
X199495Y133310
X209495Y133310
X220180Y134210
X280180Y134210
X193560Y75655
X184410Y50615
X205615Y49990
X133560Y75655
X115585Y66840
X100105Y54520
X124410Y50615
X103375Y37165
X99175Y23155
X162200Y162200
X180640Y173340
T02
X232178Y112466
X261942Y112466
X261942Y33096
X232178Y33096
X232178Y13254
X261942Y13254
T03
X293765Y12945
X294515Y33125
X200200Y33200
X200860Y13425
X52200Y77200
X52200Y97200
X24170Y124730
X24190Y146030
M30
