G75*
%MOIN*%
%OFA0B0*%
%FSLAX25Y25*%
%IPPOS*%
%LPD*%
%AMOC8*
5,1,8,0,0,1.08239X$1,22.5*
%
%ADD10C,0.00600*%
%ADD11C,0.05200*%
%ADD12C,0.09843*%
%ADD13C,0.07677*%
%ADD14OC8,0.05200*%
%ADD15OC8,0.08500*%
%ADD16C,0.03200*%
%ADD17C,0.02400*%
D10*
X0219306Y0160867D02*
X0220728Y0160867D01*
X0219306Y0160866D02*
X0219242Y0160868D01*
X0219177Y0160874D01*
X0219114Y0160883D01*
X0219051Y0160897D01*
X0218989Y0160914D01*
X0218928Y0160935D01*
X0218868Y0160960D01*
X0218810Y0160988D01*
X0218754Y0161020D01*
X0218700Y0161055D01*
X0218648Y0161093D01*
X0218598Y0161134D01*
X0218552Y0161179D01*
X0218507Y0161225D01*
X0218466Y0161275D01*
X0218428Y0161327D01*
X0218393Y0161381D01*
X0218361Y0161437D01*
X0218333Y0161495D01*
X0218308Y0161555D01*
X0218287Y0161616D01*
X0218270Y0161678D01*
X0218256Y0161741D01*
X0218247Y0161804D01*
X0218241Y0161869D01*
X0218239Y0161933D01*
X0218240Y0161933D02*
X0218240Y0167267D01*
X0220017Y0167267D01*
X0220081Y0167265D01*
X0220146Y0167259D01*
X0220209Y0167250D01*
X0220272Y0167236D01*
X0220334Y0167219D01*
X0220395Y0167198D01*
X0220455Y0167173D01*
X0220513Y0167145D01*
X0220569Y0167113D01*
X0220623Y0167078D01*
X0220675Y0167040D01*
X0220725Y0166999D01*
X0220771Y0166954D01*
X0220816Y0166908D01*
X0220857Y0166858D01*
X0220895Y0166806D01*
X0220930Y0166752D01*
X0220962Y0166696D01*
X0220990Y0166638D01*
X0221015Y0166578D01*
X0221036Y0166517D01*
X0221053Y0166455D01*
X0221067Y0166392D01*
X0221076Y0166329D01*
X0221082Y0166264D01*
X0221084Y0166200D01*
X0221084Y0164067D01*
X0221082Y0164003D01*
X0221076Y0163938D01*
X0221067Y0163875D01*
X0221053Y0163812D01*
X0221036Y0163750D01*
X0221015Y0163689D01*
X0220990Y0163629D01*
X0220962Y0163571D01*
X0220930Y0163515D01*
X0220895Y0163461D01*
X0220857Y0163409D01*
X0220816Y0163359D01*
X0220771Y0163313D01*
X0220725Y0163268D01*
X0220675Y0163227D01*
X0220623Y0163189D01*
X0220569Y0163154D01*
X0220513Y0163122D01*
X0220455Y0163094D01*
X0220395Y0163069D01*
X0220334Y0163048D01*
X0220272Y0163031D01*
X0220209Y0163017D01*
X0220146Y0163008D01*
X0220081Y0163002D01*
X0220017Y0163000D01*
X0218240Y0163000D01*
X0223749Y0163000D02*
X0223749Y0166200D01*
X0223751Y0166264D01*
X0223757Y0166329D01*
X0223766Y0166392D01*
X0223780Y0166455D01*
X0223797Y0166517D01*
X0223818Y0166578D01*
X0223843Y0166638D01*
X0223871Y0166696D01*
X0223903Y0166752D01*
X0223938Y0166806D01*
X0223976Y0166858D01*
X0224017Y0166908D01*
X0224062Y0166954D01*
X0224108Y0166999D01*
X0224158Y0167040D01*
X0224210Y0167078D01*
X0224264Y0167113D01*
X0224320Y0167145D01*
X0224378Y0167173D01*
X0224438Y0167198D01*
X0224499Y0167219D01*
X0224561Y0167236D01*
X0224624Y0167250D01*
X0224687Y0167259D01*
X0224752Y0167265D01*
X0224816Y0167267D01*
X0226594Y0167267D01*
X0226594Y0163000D01*
X0229274Y0163000D02*
X0229274Y0167267D01*
X0229096Y0169044D02*
X0229452Y0169044D01*
X0229452Y0169400D01*
X0229096Y0169400D01*
X0229096Y0169044D01*
X0231483Y0167267D02*
X0232905Y0167267D01*
X0232969Y0167265D01*
X0233034Y0167259D01*
X0233097Y0167250D01*
X0233160Y0167236D01*
X0233222Y0167219D01*
X0233283Y0167198D01*
X0233343Y0167173D01*
X0233401Y0167145D01*
X0233457Y0167113D01*
X0233511Y0167078D01*
X0233563Y0167040D01*
X0233613Y0166999D01*
X0233659Y0166954D01*
X0233704Y0166908D01*
X0233745Y0166858D01*
X0233783Y0166806D01*
X0233818Y0166752D01*
X0233850Y0166696D01*
X0233878Y0166638D01*
X0233903Y0166578D01*
X0233924Y0166517D01*
X0233941Y0166455D01*
X0233955Y0166392D01*
X0233964Y0166329D01*
X0233970Y0166264D01*
X0233972Y0166200D01*
X0233972Y0164067D01*
X0233970Y0164003D01*
X0233964Y0163938D01*
X0233955Y0163875D01*
X0233941Y0163812D01*
X0233924Y0163750D01*
X0233903Y0163689D01*
X0233878Y0163629D01*
X0233850Y0163571D01*
X0233818Y0163515D01*
X0233783Y0163461D01*
X0233745Y0163409D01*
X0233704Y0163359D01*
X0233659Y0163313D01*
X0233613Y0163268D01*
X0233563Y0163227D01*
X0233511Y0163189D01*
X0233457Y0163154D01*
X0233401Y0163122D01*
X0233343Y0163094D01*
X0233283Y0163069D01*
X0233222Y0163048D01*
X0233160Y0163031D01*
X0233097Y0163017D01*
X0233034Y0163008D01*
X0232969Y0163002D01*
X0232905Y0163000D01*
X0231483Y0163000D01*
X0236702Y0163000D02*
X0236702Y0166200D01*
X0236702Y0165489D02*
X0238302Y0165489D01*
X0236701Y0166200D02*
X0236703Y0166264D01*
X0236709Y0166329D01*
X0236718Y0166392D01*
X0236732Y0166455D01*
X0236749Y0166517D01*
X0236770Y0166578D01*
X0236795Y0166638D01*
X0236823Y0166696D01*
X0236855Y0166752D01*
X0236890Y0166806D01*
X0236928Y0166858D01*
X0236969Y0166908D01*
X0237014Y0166954D01*
X0237060Y0166999D01*
X0237110Y0167040D01*
X0237162Y0167078D01*
X0237216Y0167113D01*
X0237272Y0167145D01*
X0237330Y0167173D01*
X0237390Y0167198D01*
X0237451Y0167219D01*
X0237513Y0167236D01*
X0237576Y0167250D01*
X0237639Y0167259D01*
X0237704Y0167265D01*
X0237768Y0167267D01*
X0239190Y0167267D01*
X0243447Y0165844D02*
X0242025Y0163000D01*
X0238302Y0163000D02*
X0236702Y0163000D01*
X0238302Y0163000D02*
X0238372Y0163002D01*
X0238441Y0163008D01*
X0238510Y0163018D01*
X0238579Y0163031D01*
X0238646Y0163049D01*
X0238713Y0163070D01*
X0238778Y0163095D01*
X0238842Y0163123D01*
X0238904Y0163155D01*
X0238964Y0163191D01*
X0239022Y0163229D01*
X0239078Y0163271D01*
X0239131Y0163316D01*
X0239182Y0163364D01*
X0239230Y0163415D01*
X0239275Y0163468D01*
X0239317Y0163524D01*
X0239355Y0163582D01*
X0239391Y0163642D01*
X0239423Y0163704D01*
X0239451Y0163768D01*
X0239476Y0163833D01*
X0239497Y0163900D01*
X0239515Y0163967D01*
X0239528Y0164036D01*
X0239538Y0164105D01*
X0239544Y0164174D01*
X0239546Y0164244D01*
X0239544Y0164314D01*
X0239538Y0164383D01*
X0239528Y0164452D01*
X0239515Y0164521D01*
X0239497Y0164588D01*
X0239476Y0164655D01*
X0239451Y0164720D01*
X0239423Y0164784D01*
X0239391Y0164846D01*
X0239355Y0164906D01*
X0239317Y0164964D01*
X0239275Y0165020D01*
X0239230Y0165073D01*
X0239182Y0165124D01*
X0239131Y0165172D01*
X0239078Y0165217D01*
X0239022Y0165259D01*
X0238964Y0165297D01*
X0238904Y0165333D01*
X0238842Y0165365D01*
X0238778Y0165393D01*
X0238713Y0165418D01*
X0238646Y0165439D01*
X0238579Y0165457D01*
X0238510Y0165470D01*
X0238441Y0165480D01*
X0238372Y0165486D01*
X0238302Y0165488D01*
X0243803Y0165844D02*
X0245580Y0165844D01*
X0243803Y0165844D02*
X0243720Y0165846D01*
X0243637Y0165852D01*
X0243554Y0165862D01*
X0243471Y0165875D01*
X0243390Y0165893D01*
X0243309Y0165914D01*
X0243230Y0165939D01*
X0243152Y0165968D01*
X0243075Y0166000D01*
X0243000Y0166036D01*
X0242926Y0166075D01*
X0242855Y0166118D01*
X0242785Y0166164D01*
X0242718Y0166214D01*
X0242653Y0166266D01*
X0242591Y0166321D01*
X0242531Y0166380D01*
X0242474Y0166441D01*
X0242420Y0166504D01*
X0242369Y0166570D01*
X0242322Y0166639D01*
X0242277Y0166709D01*
X0242236Y0166782D01*
X0242199Y0166856D01*
X0242164Y0166932D01*
X0242134Y0167010D01*
X0242107Y0167088D01*
X0242084Y0167169D01*
X0242064Y0167250D01*
X0242049Y0167332D01*
X0242037Y0167414D01*
X0242029Y0167497D01*
X0242025Y0167580D01*
X0242025Y0167664D01*
X0242029Y0167747D01*
X0242037Y0167830D01*
X0242049Y0167912D01*
X0242064Y0167994D01*
X0242084Y0168075D01*
X0242107Y0168156D01*
X0242134Y0168234D01*
X0242164Y0168312D01*
X0242199Y0168388D01*
X0242236Y0168462D01*
X0242277Y0168535D01*
X0242322Y0168605D01*
X0242369Y0168674D01*
X0242420Y0168740D01*
X0242474Y0168803D01*
X0242531Y0168864D01*
X0242591Y0168923D01*
X0242653Y0168978D01*
X0242718Y0169030D01*
X0242785Y0169080D01*
X0242855Y0169126D01*
X0242926Y0169169D01*
X0243000Y0169208D01*
X0243075Y0169244D01*
X0243152Y0169276D01*
X0243230Y0169305D01*
X0243309Y0169330D01*
X0243390Y0169351D01*
X0243471Y0169369D01*
X0243554Y0169382D01*
X0243637Y0169392D01*
X0243720Y0169398D01*
X0243803Y0169400D01*
X0245580Y0169400D01*
X0245580Y0163000D01*
X0251634Y0163000D02*
X0251634Y0167267D01*
X0251456Y0169044D02*
X0251812Y0169044D01*
X0251812Y0169400D01*
X0251456Y0169400D01*
X0251456Y0169044D01*
X0254314Y0166200D02*
X0254314Y0163000D01*
X0257159Y0163000D02*
X0257159Y0167267D01*
X0255381Y0167267D01*
X0255317Y0167265D01*
X0255252Y0167259D01*
X0255189Y0167250D01*
X0255126Y0167236D01*
X0255064Y0167219D01*
X0255003Y0167198D01*
X0254943Y0167173D01*
X0254885Y0167145D01*
X0254829Y0167113D01*
X0254775Y0167078D01*
X0254723Y0167040D01*
X0254673Y0166999D01*
X0254627Y0166954D01*
X0254582Y0166908D01*
X0254541Y0166858D01*
X0254503Y0166806D01*
X0254468Y0166752D01*
X0254436Y0166696D01*
X0254408Y0166638D01*
X0254383Y0166578D01*
X0254362Y0166517D01*
X0254345Y0166455D01*
X0254331Y0166392D01*
X0254322Y0166329D01*
X0254316Y0166264D01*
X0254314Y0166200D01*
X0260113Y0164778D02*
X0260113Y0169400D01*
X0263668Y0169400D02*
X0263668Y0164778D01*
X0263669Y0164778D02*
X0263667Y0164695D01*
X0263661Y0164612D01*
X0263651Y0164529D01*
X0263638Y0164446D01*
X0263620Y0164365D01*
X0263599Y0164284D01*
X0263574Y0164205D01*
X0263545Y0164127D01*
X0263513Y0164050D01*
X0263477Y0163975D01*
X0263438Y0163901D01*
X0263395Y0163830D01*
X0263349Y0163760D01*
X0263299Y0163693D01*
X0263247Y0163628D01*
X0263192Y0163566D01*
X0263133Y0163506D01*
X0263072Y0163449D01*
X0263009Y0163395D01*
X0262943Y0163344D01*
X0262874Y0163297D01*
X0262804Y0163252D01*
X0262731Y0163211D01*
X0262657Y0163174D01*
X0262581Y0163139D01*
X0262503Y0163109D01*
X0262425Y0163082D01*
X0262344Y0163059D01*
X0262263Y0163039D01*
X0262181Y0163024D01*
X0262099Y0163012D01*
X0262016Y0163004D01*
X0261933Y0163000D01*
X0261849Y0163000D01*
X0261766Y0163004D01*
X0261683Y0163012D01*
X0261601Y0163024D01*
X0261519Y0163039D01*
X0261438Y0163059D01*
X0261357Y0163082D01*
X0261279Y0163109D01*
X0261201Y0163139D01*
X0261125Y0163174D01*
X0261051Y0163211D01*
X0260978Y0163252D01*
X0260908Y0163297D01*
X0260839Y0163344D01*
X0260773Y0163395D01*
X0260710Y0163449D01*
X0260649Y0163506D01*
X0260590Y0163566D01*
X0260535Y0163628D01*
X0260483Y0163693D01*
X0260433Y0163760D01*
X0260387Y0163830D01*
X0260344Y0163901D01*
X0260305Y0163975D01*
X0260269Y0164050D01*
X0260237Y0164127D01*
X0260208Y0164205D01*
X0260183Y0164284D01*
X0260162Y0164365D01*
X0260144Y0164446D01*
X0260131Y0164529D01*
X0260121Y0164612D01*
X0260115Y0164695D01*
X0260113Y0164778D01*
X0269933Y0163000D02*
X0269933Y0169400D01*
X0269933Y0167267D02*
X0271711Y0167267D01*
X0271775Y0167265D01*
X0271840Y0167259D01*
X0271903Y0167250D01*
X0271966Y0167236D01*
X0272028Y0167219D01*
X0272089Y0167198D01*
X0272149Y0167173D01*
X0272207Y0167145D01*
X0272263Y0167113D01*
X0272317Y0167078D01*
X0272369Y0167040D01*
X0272419Y0166999D01*
X0272465Y0166954D01*
X0272510Y0166908D01*
X0272551Y0166858D01*
X0272589Y0166806D01*
X0272624Y0166752D01*
X0272656Y0166696D01*
X0272684Y0166638D01*
X0272709Y0166578D01*
X0272730Y0166517D01*
X0272747Y0166455D01*
X0272761Y0166392D01*
X0272770Y0166329D01*
X0272776Y0166264D01*
X0272778Y0166200D01*
X0272778Y0164067D01*
X0272776Y0164003D01*
X0272770Y0163938D01*
X0272761Y0163875D01*
X0272747Y0163812D01*
X0272730Y0163750D01*
X0272709Y0163689D01*
X0272684Y0163629D01*
X0272656Y0163571D01*
X0272624Y0163515D01*
X0272589Y0163461D01*
X0272551Y0163409D01*
X0272510Y0163359D01*
X0272465Y0163313D01*
X0272419Y0163268D01*
X0272369Y0163227D01*
X0272317Y0163189D01*
X0272263Y0163154D01*
X0272207Y0163122D01*
X0272149Y0163094D01*
X0272089Y0163069D01*
X0272028Y0163048D01*
X0271966Y0163031D01*
X0271903Y0163017D01*
X0271840Y0163008D01*
X0271775Y0163002D01*
X0271711Y0163000D01*
X0269933Y0163000D01*
X0274685Y0166556D02*
X0274685Y0167267D01*
X0276818Y0167267D01*
X0276818Y0163000D01*
X0279546Y0164422D02*
X0279546Y0165844D01*
X0279548Y0165918D01*
X0279554Y0165993D01*
X0279564Y0166066D01*
X0279577Y0166140D01*
X0279594Y0166212D01*
X0279616Y0166283D01*
X0279640Y0166354D01*
X0279669Y0166422D01*
X0279701Y0166490D01*
X0279737Y0166555D01*
X0279775Y0166618D01*
X0279818Y0166680D01*
X0279863Y0166739D01*
X0279911Y0166796D01*
X0279962Y0166850D01*
X0280016Y0166901D01*
X0280073Y0166949D01*
X0280132Y0166994D01*
X0280194Y0167037D01*
X0280257Y0167075D01*
X0280322Y0167111D01*
X0280390Y0167143D01*
X0280458Y0167172D01*
X0280529Y0167196D01*
X0280600Y0167218D01*
X0280672Y0167235D01*
X0280746Y0167248D01*
X0280819Y0167258D01*
X0280894Y0167264D01*
X0280968Y0167266D01*
X0281042Y0167264D01*
X0281117Y0167258D01*
X0281190Y0167248D01*
X0281264Y0167235D01*
X0281336Y0167218D01*
X0281407Y0167196D01*
X0281478Y0167172D01*
X0281546Y0167143D01*
X0281614Y0167111D01*
X0281679Y0167075D01*
X0281742Y0167037D01*
X0281804Y0166994D01*
X0281863Y0166949D01*
X0281920Y0166901D01*
X0281974Y0166850D01*
X0282025Y0166796D01*
X0282073Y0166739D01*
X0282118Y0166680D01*
X0282161Y0166618D01*
X0282199Y0166555D01*
X0282235Y0166490D01*
X0282267Y0166422D01*
X0282296Y0166354D01*
X0282320Y0166283D01*
X0282342Y0166212D01*
X0282359Y0166140D01*
X0282372Y0166066D01*
X0282382Y0165993D01*
X0282388Y0165918D01*
X0282390Y0165844D01*
X0282390Y0164422D01*
X0282388Y0164348D01*
X0282382Y0164273D01*
X0282372Y0164200D01*
X0282359Y0164126D01*
X0282342Y0164054D01*
X0282320Y0163983D01*
X0282296Y0163912D01*
X0282267Y0163844D01*
X0282235Y0163776D01*
X0282199Y0163711D01*
X0282161Y0163648D01*
X0282118Y0163586D01*
X0282073Y0163527D01*
X0282025Y0163470D01*
X0281974Y0163416D01*
X0281920Y0163365D01*
X0281863Y0163317D01*
X0281804Y0163272D01*
X0281742Y0163229D01*
X0281679Y0163191D01*
X0281614Y0163155D01*
X0281546Y0163123D01*
X0281478Y0163094D01*
X0281407Y0163070D01*
X0281336Y0163048D01*
X0281264Y0163031D01*
X0281190Y0163018D01*
X0281117Y0163008D01*
X0281042Y0163002D01*
X0280968Y0163000D01*
X0280894Y0163002D01*
X0280819Y0163008D01*
X0280746Y0163018D01*
X0280672Y0163031D01*
X0280600Y0163048D01*
X0280529Y0163070D01*
X0280458Y0163094D01*
X0280390Y0163123D01*
X0280322Y0163155D01*
X0280257Y0163191D01*
X0280194Y0163229D01*
X0280132Y0163272D01*
X0280073Y0163317D01*
X0280016Y0163365D01*
X0279962Y0163416D01*
X0279911Y0163470D01*
X0279863Y0163527D01*
X0279818Y0163586D01*
X0279775Y0163648D01*
X0279737Y0163711D01*
X0279701Y0163776D01*
X0279669Y0163844D01*
X0279640Y0163912D01*
X0279616Y0163983D01*
X0279594Y0164054D01*
X0279577Y0164126D01*
X0279564Y0164200D01*
X0279554Y0164273D01*
X0279548Y0164348D01*
X0279546Y0164422D01*
X0284106Y0167267D02*
X0286239Y0167267D01*
X0285528Y0168333D02*
X0285528Y0163000D01*
X0288161Y0163000D02*
X0291006Y0167267D01*
X0293344Y0167622D02*
X0293344Y0164778D01*
X0293346Y0164695D01*
X0293352Y0164612D01*
X0293362Y0164529D01*
X0293375Y0164446D01*
X0293393Y0164365D01*
X0293414Y0164284D01*
X0293439Y0164205D01*
X0293468Y0164127D01*
X0293500Y0164050D01*
X0293536Y0163975D01*
X0293575Y0163901D01*
X0293618Y0163830D01*
X0293664Y0163760D01*
X0293714Y0163693D01*
X0293766Y0163628D01*
X0293821Y0163566D01*
X0293880Y0163506D01*
X0293941Y0163449D01*
X0294004Y0163395D01*
X0294070Y0163344D01*
X0294139Y0163297D01*
X0294209Y0163252D01*
X0294282Y0163211D01*
X0294356Y0163174D01*
X0294432Y0163139D01*
X0294510Y0163109D01*
X0294588Y0163082D01*
X0294669Y0163059D01*
X0294750Y0163039D01*
X0294832Y0163024D01*
X0294914Y0163012D01*
X0294997Y0163004D01*
X0295080Y0163000D01*
X0295164Y0163000D01*
X0295247Y0163004D01*
X0295330Y0163012D01*
X0295412Y0163024D01*
X0295494Y0163039D01*
X0295575Y0163059D01*
X0295656Y0163082D01*
X0295734Y0163109D01*
X0295812Y0163139D01*
X0295888Y0163174D01*
X0295962Y0163211D01*
X0296035Y0163252D01*
X0296105Y0163297D01*
X0296174Y0163344D01*
X0296240Y0163395D01*
X0296303Y0163449D01*
X0296364Y0163506D01*
X0296423Y0163566D01*
X0296478Y0163628D01*
X0296530Y0163693D01*
X0296580Y0163760D01*
X0296626Y0163830D01*
X0296669Y0163901D01*
X0296708Y0163975D01*
X0296744Y0164050D01*
X0296776Y0164127D01*
X0296805Y0164205D01*
X0296830Y0164284D01*
X0296851Y0164365D01*
X0296869Y0164446D01*
X0296882Y0164529D01*
X0296892Y0164612D01*
X0296898Y0164695D01*
X0296900Y0164778D01*
X0296900Y0167622D01*
X0296898Y0167705D01*
X0296892Y0167788D01*
X0296882Y0167871D01*
X0296869Y0167954D01*
X0296851Y0168035D01*
X0296830Y0168116D01*
X0296805Y0168195D01*
X0296776Y0168273D01*
X0296744Y0168350D01*
X0296708Y0168425D01*
X0296669Y0168499D01*
X0296626Y0168570D01*
X0296580Y0168640D01*
X0296530Y0168707D01*
X0296478Y0168772D01*
X0296423Y0168834D01*
X0296364Y0168894D01*
X0296303Y0168951D01*
X0296240Y0169005D01*
X0296174Y0169056D01*
X0296105Y0169103D01*
X0296035Y0169148D01*
X0295962Y0169189D01*
X0295888Y0169226D01*
X0295812Y0169261D01*
X0295734Y0169291D01*
X0295656Y0169318D01*
X0295575Y0169341D01*
X0295494Y0169361D01*
X0295412Y0169376D01*
X0295330Y0169388D01*
X0295247Y0169396D01*
X0295164Y0169400D01*
X0295080Y0169400D01*
X0294997Y0169396D01*
X0294914Y0169388D01*
X0294832Y0169376D01*
X0294750Y0169361D01*
X0294669Y0169341D01*
X0294588Y0169318D01*
X0294510Y0169291D01*
X0294432Y0169261D01*
X0294356Y0169226D01*
X0294282Y0169189D01*
X0294209Y0169148D01*
X0294139Y0169103D01*
X0294070Y0169056D01*
X0294004Y0169005D01*
X0293941Y0168951D01*
X0293880Y0168894D01*
X0293821Y0168834D01*
X0293766Y0168772D01*
X0293714Y0168707D01*
X0293664Y0168640D01*
X0293618Y0168570D01*
X0293575Y0168499D01*
X0293536Y0168425D01*
X0293500Y0168350D01*
X0293468Y0168273D01*
X0293439Y0168195D01*
X0293414Y0168116D01*
X0293393Y0168035D01*
X0293375Y0167954D01*
X0293362Y0167871D01*
X0293352Y0167788D01*
X0293346Y0167705D01*
X0293344Y0167622D01*
X0291006Y0163000D02*
X0288161Y0167267D01*
X0285528Y0168333D02*
X0285526Y0168397D01*
X0285520Y0168462D01*
X0285511Y0168525D01*
X0285497Y0168588D01*
X0285480Y0168650D01*
X0285459Y0168711D01*
X0285434Y0168771D01*
X0285406Y0168829D01*
X0285374Y0168885D01*
X0285339Y0168939D01*
X0285301Y0168991D01*
X0285260Y0169041D01*
X0285215Y0169087D01*
X0285169Y0169132D01*
X0285119Y0169173D01*
X0285067Y0169211D01*
X0285013Y0169246D01*
X0284957Y0169278D01*
X0284899Y0169306D01*
X0284839Y0169331D01*
X0284778Y0169352D01*
X0284716Y0169369D01*
X0284653Y0169383D01*
X0284590Y0169392D01*
X0284525Y0169398D01*
X0284461Y0169400D01*
X0284106Y0169400D01*
X0284005Y0173500D02*
X0285427Y0173500D01*
X0285491Y0173502D01*
X0285556Y0173508D01*
X0285619Y0173517D01*
X0285682Y0173531D01*
X0285744Y0173548D01*
X0285805Y0173569D01*
X0285865Y0173594D01*
X0285923Y0173622D01*
X0285979Y0173654D01*
X0286033Y0173689D01*
X0286085Y0173727D01*
X0286135Y0173768D01*
X0286181Y0173813D01*
X0286226Y0173859D01*
X0286267Y0173909D01*
X0286305Y0173961D01*
X0286340Y0174015D01*
X0286372Y0174071D01*
X0286400Y0174129D01*
X0286425Y0174189D01*
X0286446Y0174250D01*
X0286463Y0174312D01*
X0286477Y0174375D01*
X0286486Y0174438D01*
X0286492Y0174503D01*
X0286494Y0174567D01*
X0286494Y0176700D01*
X0286492Y0176764D01*
X0286486Y0176829D01*
X0286477Y0176892D01*
X0286463Y0176955D01*
X0286446Y0177017D01*
X0286425Y0177078D01*
X0286400Y0177138D01*
X0286372Y0177196D01*
X0286340Y0177252D01*
X0286305Y0177306D01*
X0286267Y0177358D01*
X0286226Y0177408D01*
X0286181Y0177454D01*
X0286135Y0177499D01*
X0286085Y0177540D01*
X0286033Y0177578D01*
X0285979Y0177613D01*
X0285923Y0177645D01*
X0285865Y0177673D01*
X0285805Y0177698D01*
X0285744Y0177719D01*
X0285682Y0177736D01*
X0285619Y0177750D01*
X0285556Y0177759D01*
X0285491Y0177765D01*
X0285427Y0177767D01*
X0284005Y0177767D01*
X0281511Y0179900D02*
X0281511Y0173500D01*
X0281511Y0175633D02*
X0278666Y0177767D01*
X0280266Y0176522D02*
X0278666Y0173500D01*
X0272824Y0173500D02*
X0272824Y0179900D01*
X0271046Y0179900D01*
X0270972Y0179898D01*
X0270897Y0179892D01*
X0270824Y0179882D01*
X0270750Y0179869D01*
X0270678Y0179852D01*
X0270607Y0179830D01*
X0270536Y0179806D01*
X0270468Y0179777D01*
X0270400Y0179745D01*
X0270335Y0179709D01*
X0270272Y0179671D01*
X0270210Y0179628D01*
X0270151Y0179583D01*
X0270094Y0179535D01*
X0270040Y0179484D01*
X0269989Y0179430D01*
X0269941Y0179373D01*
X0269896Y0179314D01*
X0269853Y0179252D01*
X0269815Y0179189D01*
X0269779Y0179124D01*
X0269747Y0179056D01*
X0269718Y0178988D01*
X0269694Y0178917D01*
X0269672Y0178846D01*
X0269655Y0178774D01*
X0269642Y0178700D01*
X0269632Y0178627D01*
X0269626Y0178552D01*
X0269624Y0178478D01*
X0269626Y0178404D01*
X0269632Y0178329D01*
X0269642Y0178256D01*
X0269655Y0178182D01*
X0269672Y0178110D01*
X0269694Y0178039D01*
X0269718Y0177968D01*
X0269747Y0177900D01*
X0269779Y0177832D01*
X0269815Y0177767D01*
X0269853Y0177704D01*
X0269896Y0177642D01*
X0269941Y0177583D01*
X0269989Y0177526D01*
X0270040Y0177472D01*
X0270094Y0177421D01*
X0270151Y0177373D01*
X0270210Y0177328D01*
X0270272Y0177285D01*
X0270335Y0177247D01*
X0270400Y0177211D01*
X0270468Y0177179D01*
X0270536Y0177150D01*
X0270607Y0177126D01*
X0270678Y0177104D01*
X0270750Y0177087D01*
X0270824Y0177074D01*
X0270897Y0177064D01*
X0270972Y0177058D01*
X0271046Y0177056D01*
X0272824Y0177056D01*
X0271046Y0177056D02*
X0270963Y0177054D01*
X0270880Y0177048D01*
X0270797Y0177038D01*
X0270714Y0177025D01*
X0270633Y0177007D01*
X0270552Y0176986D01*
X0270473Y0176961D01*
X0270395Y0176932D01*
X0270318Y0176900D01*
X0270243Y0176864D01*
X0270169Y0176825D01*
X0270098Y0176782D01*
X0270028Y0176736D01*
X0269961Y0176686D01*
X0269896Y0176634D01*
X0269834Y0176579D01*
X0269774Y0176520D01*
X0269717Y0176459D01*
X0269663Y0176396D01*
X0269612Y0176330D01*
X0269565Y0176261D01*
X0269520Y0176191D01*
X0269479Y0176118D01*
X0269442Y0176044D01*
X0269407Y0175968D01*
X0269377Y0175890D01*
X0269350Y0175812D01*
X0269327Y0175731D01*
X0269307Y0175650D01*
X0269292Y0175568D01*
X0269280Y0175486D01*
X0269272Y0175403D01*
X0269268Y0175320D01*
X0269268Y0175236D01*
X0269272Y0175153D01*
X0269280Y0175070D01*
X0269292Y0174988D01*
X0269307Y0174906D01*
X0269327Y0174825D01*
X0269350Y0174744D01*
X0269377Y0174666D01*
X0269407Y0174588D01*
X0269442Y0174512D01*
X0269479Y0174438D01*
X0269520Y0174365D01*
X0269565Y0174295D01*
X0269612Y0174226D01*
X0269663Y0174160D01*
X0269717Y0174097D01*
X0269774Y0174036D01*
X0269834Y0173977D01*
X0269896Y0173922D01*
X0269961Y0173870D01*
X0270028Y0173820D01*
X0270098Y0173774D01*
X0270169Y0173731D01*
X0270243Y0173692D01*
X0270318Y0173656D01*
X0270395Y0173624D01*
X0270473Y0173595D01*
X0270552Y0173570D01*
X0270633Y0173549D01*
X0270714Y0173531D01*
X0270797Y0173518D01*
X0270880Y0173508D01*
X0270963Y0173502D01*
X0271046Y0173500D01*
X0272824Y0173500D01*
X0266774Y0173500D02*
X0266774Y0177767D01*
X0264641Y0177767D01*
X0264641Y0177056D01*
X0262500Y0177767D02*
X0262500Y0174567D01*
X0262498Y0174503D01*
X0262492Y0174438D01*
X0262483Y0174375D01*
X0262469Y0174312D01*
X0262452Y0174250D01*
X0262431Y0174189D01*
X0262406Y0174129D01*
X0262378Y0174071D01*
X0262346Y0174015D01*
X0262311Y0173961D01*
X0262273Y0173909D01*
X0262232Y0173859D01*
X0262187Y0173813D01*
X0262141Y0173768D01*
X0262091Y0173727D01*
X0262039Y0173689D01*
X0261985Y0173654D01*
X0261929Y0173622D01*
X0261871Y0173594D01*
X0261811Y0173569D01*
X0261750Y0173548D01*
X0261688Y0173531D01*
X0261625Y0173517D01*
X0261562Y0173508D01*
X0261497Y0173502D01*
X0261433Y0173500D01*
X0259655Y0173500D01*
X0259655Y0177767D01*
X0257323Y0177767D02*
X0255189Y0177767D01*
X0256612Y0178833D02*
X0256610Y0178897D01*
X0256604Y0178962D01*
X0256595Y0179025D01*
X0256581Y0179088D01*
X0256564Y0179150D01*
X0256543Y0179211D01*
X0256518Y0179271D01*
X0256490Y0179329D01*
X0256458Y0179385D01*
X0256423Y0179439D01*
X0256385Y0179491D01*
X0256344Y0179541D01*
X0256299Y0179587D01*
X0256253Y0179632D01*
X0256203Y0179673D01*
X0256151Y0179711D01*
X0256097Y0179746D01*
X0256041Y0179778D01*
X0255983Y0179806D01*
X0255923Y0179831D01*
X0255862Y0179852D01*
X0255800Y0179869D01*
X0255737Y0179883D01*
X0255674Y0179892D01*
X0255609Y0179898D01*
X0255545Y0179900D01*
X0255189Y0179900D01*
X0256612Y0178833D02*
X0256612Y0173500D01*
X0253474Y0174922D02*
X0253474Y0176344D01*
X0253472Y0176418D01*
X0253466Y0176493D01*
X0253456Y0176566D01*
X0253443Y0176640D01*
X0253426Y0176712D01*
X0253404Y0176783D01*
X0253380Y0176854D01*
X0253351Y0176922D01*
X0253319Y0176990D01*
X0253283Y0177055D01*
X0253245Y0177118D01*
X0253202Y0177180D01*
X0253157Y0177239D01*
X0253109Y0177296D01*
X0253058Y0177350D01*
X0253004Y0177401D01*
X0252947Y0177449D01*
X0252888Y0177494D01*
X0252826Y0177537D01*
X0252763Y0177575D01*
X0252698Y0177611D01*
X0252630Y0177643D01*
X0252562Y0177672D01*
X0252491Y0177696D01*
X0252420Y0177718D01*
X0252348Y0177735D01*
X0252274Y0177748D01*
X0252201Y0177758D01*
X0252126Y0177764D01*
X0252052Y0177766D01*
X0251978Y0177764D01*
X0251903Y0177758D01*
X0251830Y0177748D01*
X0251756Y0177735D01*
X0251684Y0177718D01*
X0251613Y0177696D01*
X0251542Y0177672D01*
X0251474Y0177643D01*
X0251406Y0177611D01*
X0251341Y0177575D01*
X0251278Y0177537D01*
X0251216Y0177494D01*
X0251157Y0177449D01*
X0251100Y0177401D01*
X0251046Y0177350D01*
X0250995Y0177296D01*
X0250947Y0177239D01*
X0250902Y0177180D01*
X0250859Y0177118D01*
X0250821Y0177055D01*
X0250785Y0176990D01*
X0250753Y0176922D01*
X0250724Y0176854D01*
X0250700Y0176783D01*
X0250678Y0176712D01*
X0250661Y0176640D01*
X0250648Y0176566D01*
X0250638Y0176493D01*
X0250632Y0176418D01*
X0250630Y0176344D01*
X0250629Y0176344D02*
X0250629Y0174922D01*
X0250630Y0174922D02*
X0250632Y0174848D01*
X0250638Y0174773D01*
X0250648Y0174700D01*
X0250661Y0174626D01*
X0250678Y0174554D01*
X0250700Y0174483D01*
X0250724Y0174412D01*
X0250753Y0174344D01*
X0250785Y0174276D01*
X0250821Y0174211D01*
X0250859Y0174148D01*
X0250902Y0174086D01*
X0250947Y0174027D01*
X0250995Y0173970D01*
X0251046Y0173916D01*
X0251100Y0173865D01*
X0251157Y0173817D01*
X0251216Y0173772D01*
X0251278Y0173729D01*
X0251341Y0173691D01*
X0251406Y0173655D01*
X0251474Y0173623D01*
X0251542Y0173594D01*
X0251613Y0173570D01*
X0251684Y0173548D01*
X0251756Y0173531D01*
X0251830Y0173518D01*
X0251903Y0173508D01*
X0251978Y0173502D01*
X0252052Y0173500D01*
X0252126Y0173502D01*
X0252201Y0173508D01*
X0252274Y0173518D01*
X0252348Y0173531D01*
X0252420Y0173548D01*
X0252491Y0173570D01*
X0252562Y0173594D01*
X0252630Y0173623D01*
X0252698Y0173655D01*
X0252763Y0173691D01*
X0252826Y0173729D01*
X0252888Y0173772D01*
X0252947Y0173817D01*
X0253004Y0173865D01*
X0253058Y0173916D01*
X0253109Y0173970D01*
X0253157Y0174027D01*
X0253202Y0174086D01*
X0253245Y0174148D01*
X0253283Y0174211D01*
X0253319Y0174276D01*
X0253351Y0174344D01*
X0253380Y0174412D01*
X0253404Y0174483D01*
X0253426Y0174554D01*
X0253443Y0174626D01*
X0253456Y0174700D01*
X0253466Y0174773D01*
X0253472Y0174848D01*
X0253474Y0174922D01*
X0247902Y0173500D02*
X0247902Y0177767D01*
X0245768Y0177767D01*
X0245768Y0177056D01*
X0243861Y0176700D02*
X0243861Y0174567D01*
X0243862Y0174567D02*
X0243860Y0174503D01*
X0243854Y0174438D01*
X0243845Y0174375D01*
X0243831Y0174312D01*
X0243814Y0174250D01*
X0243793Y0174189D01*
X0243768Y0174129D01*
X0243740Y0174071D01*
X0243708Y0174015D01*
X0243673Y0173961D01*
X0243635Y0173909D01*
X0243594Y0173859D01*
X0243549Y0173813D01*
X0243503Y0173768D01*
X0243453Y0173727D01*
X0243401Y0173689D01*
X0243347Y0173654D01*
X0243291Y0173622D01*
X0243233Y0173594D01*
X0243173Y0173569D01*
X0243112Y0173548D01*
X0243050Y0173531D01*
X0242987Y0173517D01*
X0242924Y0173508D01*
X0242859Y0173502D01*
X0242795Y0173500D01*
X0241017Y0173500D01*
X0241017Y0179900D01*
X0241017Y0177767D02*
X0242795Y0177767D01*
X0242859Y0177765D01*
X0242924Y0177759D01*
X0242987Y0177750D01*
X0243050Y0177736D01*
X0243112Y0177719D01*
X0243173Y0177698D01*
X0243233Y0177673D01*
X0243291Y0177645D01*
X0243347Y0177613D01*
X0243401Y0177578D01*
X0243453Y0177540D01*
X0243503Y0177499D01*
X0243549Y0177454D01*
X0243594Y0177408D01*
X0243635Y0177358D01*
X0243673Y0177306D01*
X0243708Y0177252D01*
X0243740Y0177196D01*
X0243768Y0177138D01*
X0243793Y0177078D01*
X0243814Y0177017D01*
X0243831Y0176955D01*
X0243845Y0176892D01*
X0243854Y0176829D01*
X0243860Y0176764D01*
X0243862Y0176700D01*
X0275376Y0157122D02*
X0275376Y0154278D01*
X0275375Y0154278D02*
X0275377Y0154196D01*
X0275383Y0154114D01*
X0275392Y0154032D01*
X0275405Y0153951D01*
X0275422Y0153871D01*
X0275443Y0153791D01*
X0275467Y0153713D01*
X0275495Y0153636D01*
X0275526Y0153560D01*
X0275561Y0153485D01*
X0275600Y0153413D01*
X0275641Y0153342D01*
X0275686Y0153273D01*
X0275734Y0153207D01*
X0275785Y0153142D01*
X0275839Y0153080D01*
X0275896Y0153021D01*
X0275955Y0152964D01*
X0276017Y0152910D01*
X0276082Y0152859D01*
X0276148Y0152811D01*
X0276217Y0152766D01*
X0276288Y0152725D01*
X0276360Y0152686D01*
X0276435Y0152651D01*
X0276511Y0152620D01*
X0276588Y0152592D01*
X0276666Y0152568D01*
X0276746Y0152547D01*
X0276826Y0152530D01*
X0276907Y0152517D01*
X0276989Y0152508D01*
X0277071Y0152502D01*
X0277153Y0152500D01*
X0278931Y0152500D01*
X0278931Y0158900D01*
X0277153Y0158900D01*
X0277071Y0158898D01*
X0276989Y0158892D01*
X0276907Y0158883D01*
X0276826Y0158870D01*
X0276746Y0158853D01*
X0276666Y0158832D01*
X0276588Y0158808D01*
X0276511Y0158780D01*
X0276435Y0158749D01*
X0276360Y0158714D01*
X0276288Y0158675D01*
X0276217Y0158634D01*
X0276148Y0158589D01*
X0276082Y0158541D01*
X0276017Y0158490D01*
X0275955Y0158436D01*
X0275896Y0158379D01*
X0275839Y0158320D01*
X0275785Y0158258D01*
X0275734Y0158193D01*
X0275686Y0158127D01*
X0275641Y0158058D01*
X0275600Y0157987D01*
X0275561Y0157915D01*
X0275526Y0157840D01*
X0275495Y0157764D01*
X0275467Y0157687D01*
X0275443Y0157609D01*
X0275422Y0157529D01*
X0275405Y0157449D01*
X0275392Y0157368D01*
X0275383Y0157286D01*
X0275377Y0157204D01*
X0275375Y0157122D01*
X0283224Y0158900D02*
X0283141Y0158898D01*
X0283058Y0158892D01*
X0282975Y0158882D01*
X0282892Y0158869D01*
X0282811Y0158851D01*
X0282730Y0158830D01*
X0282651Y0158805D01*
X0282573Y0158776D01*
X0282496Y0158744D01*
X0282421Y0158708D01*
X0282347Y0158669D01*
X0282276Y0158626D01*
X0282206Y0158580D01*
X0282139Y0158530D01*
X0282074Y0158478D01*
X0282012Y0158423D01*
X0281952Y0158364D01*
X0281895Y0158303D01*
X0281841Y0158240D01*
X0281790Y0158174D01*
X0281743Y0158105D01*
X0281698Y0158035D01*
X0281657Y0157962D01*
X0281620Y0157888D01*
X0281585Y0157812D01*
X0281555Y0157734D01*
X0281528Y0157656D01*
X0281505Y0157575D01*
X0281485Y0157494D01*
X0281470Y0157412D01*
X0281458Y0157330D01*
X0281450Y0157247D01*
X0281446Y0157164D01*
X0281446Y0157080D01*
X0281450Y0156997D01*
X0281458Y0156914D01*
X0281470Y0156832D01*
X0281485Y0156750D01*
X0281505Y0156669D01*
X0281528Y0156588D01*
X0281555Y0156510D01*
X0281585Y0156432D01*
X0281620Y0156356D01*
X0281657Y0156282D01*
X0281698Y0156209D01*
X0281743Y0156139D01*
X0281790Y0156070D01*
X0281841Y0156004D01*
X0281895Y0155941D01*
X0281952Y0155880D01*
X0282012Y0155821D01*
X0282074Y0155766D01*
X0282139Y0155714D01*
X0282206Y0155664D01*
X0282276Y0155618D01*
X0282347Y0155575D01*
X0282421Y0155536D01*
X0282496Y0155500D01*
X0282573Y0155468D01*
X0282651Y0155439D01*
X0282730Y0155414D01*
X0282811Y0155393D01*
X0282892Y0155375D01*
X0282975Y0155362D01*
X0283058Y0155352D01*
X0283141Y0155346D01*
X0283224Y0155344D01*
X0285002Y0155344D01*
X0285002Y0152500D02*
X0285002Y0158900D01*
X0283224Y0158900D01*
X0288395Y0155167D02*
X0290350Y0156233D01*
X0289639Y0158900D02*
X0289538Y0158898D01*
X0289437Y0158892D01*
X0289337Y0158883D01*
X0289237Y0158869D01*
X0289137Y0158852D01*
X0289038Y0158832D01*
X0288941Y0158807D01*
X0288844Y0158779D01*
X0288748Y0158747D01*
X0288653Y0158711D01*
X0288560Y0158672D01*
X0288469Y0158630D01*
X0288379Y0158584D01*
X0288291Y0158534D01*
X0288205Y0158482D01*
X0288121Y0158426D01*
X0288039Y0158367D01*
X0290350Y0156234D02*
X0290414Y0156274D01*
X0290475Y0156317D01*
X0290534Y0156363D01*
X0290591Y0156412D01*
X0290645Y0156464D01*
X0290696Y0156518D01*
X0290744Y0156576D01*
X0290790Y0156635D01*
X0290832Y0156697D01*
X0290871Y0156762D01*
X0290906Y0156828D01*
X0290938Y0156895D01*
X0290967Y0156965D01*
X0290992Y0157035D01*
X0291013Y0157107D01*
X0291030Y0157180D01*
X0291044Y0157254D01*
X0291053Y0157328D01*
X0291059Y0157403D01*
X0291061Y0157478D01*
X0291059Y0157552D01*
X0291053Y0157627D01*
X0291043Y0157700D01*
X0291030Y0157774D01*
X0291013Y0157846D01*
X0290991Y0157917D01*
X0290967Y0157988D01*
X0290938Y0158056D01*
X0290906Y0158124D01*
X0290870Y0158189D01*
X0290832Y0158252D01*
X0290789Y0158314D01*
X0290744Y0158373D01*
X0290696Y0158430D01*
X0290645Y0158484D01*
X0290591Y0158535D01*
X0290534Y0158583D01*
X0290475Y0158628D01*
X0290413Y0158671D01*
X0290350Y0158709D01*
X0290285Y0158745D01*
X0290217Y0158777D01*
X0290149Y0158806D01*
X0290078Y0158830D01*
X0290007Y0158852D01*
X0289935Y0158869D01*
X0289861Y0158882D01*
X0289788Y0158892D01*
X0289713Y0158898D01*
X0289639Y0158900D01*
X0295122Y0158900D02*
X0296900Y0158900D01*
X0296900Y0152500D01*
X0295122Y0152500D01*
X0295039Y0152502D01*
X0294956Y0152508D01*
X0294873Y0152518D01*
X0294790Y0152531D01*
X0294709Y0152549D01*
X0294628Y0152570D01*
X0294549Y0152595D01*
X0294471Y0152624D01*
X0294394Y0152656D01*
X0294319Y0152692D01*
X0294245Y0152731D01*
X0294174Y0152774D01*
X0294104Y0152820D01*
X0294037Y0152870D01*
X0293972Y0152922D01*
X0293910Y0152977D01*
X0293850Y0153036D01*
X0293793Y0153097D01*
X0293739Y0153160D01*
X0293688Y0153226D01*
X0293641Y0153295D01*
X0293596Y0153365D01*
X0293555Y0153438D01*
X0293518Y0153512D01*
X0293483Y0153588D01*
X0293453Y0153666D01*
X0293426Y0153744D01*
X0293403Y0153825D01*
X0293383Y0153906D01*
X0293368Y0153988D01*
X0293356Y0154070D01*
X0293348Y0154153D01*
X0293344Y0154236D01*
X0293344Y0154320D01*
X0293348Y0154403D01*
X0293356Y0154486D01*
X0293368Y0154568D01*
X0293383Y0154650D01*
X0293403Y0154731D01*
X0293426Y0154812D01*
X0293453Y0154890D01*
X0293483Y0154968D01*
X0293518Y0155044D01*
X0293555Y0155118D01*
X0293596Y0155191D01*
X0293641Y0155261D01*
X0293688Y0155330D01*
X0293739Y0155396D01*
X0293793Y0155459D01*
X0293850Y0155520D01*
X0293910Y0155579D01*
X0293972Y0155634D01*
X0294037Y0155686D01*
X0294104Y0155736D01*
X0294174Y0155782D01*
X0294245Y0155825D01*
X0294319Y0155864D01*
X0294394Y0155900D01*
X0294471Y0155932D01*
X0294549Y0155961D01*
X0294628Y0155986D01*
X0294709Y0156007D01*
X0294790Y0156025D01*
X0294873Y0156038D01*
X0294956Y0156048D01*
X0295039Y0156054D01*
X0295122Y0156056D01*
X0296900Y0156056D01*
X0295122Y0156056D02*
X0295048Y0156058D01*
X0294973Y0156064D01*
X0294900Y0156074D01*
X0294826Y0156087D01*
X0294754Y0156104D01*
X0294683Y0156126D01*
X0294612Y0156150D01*
X0294544Y0156179D01*
X0294476Y0156211D01*
X0294411Y0156247D01*
X0294348Y0156285D01*
X0294286Y0156328D01*
X0294227Y0156373D01*
X0294170Y0156421D01*
X0294116Y0156472D01*
X0294065Y0156526D01*
X0294017Y0156583D01*
X0293972Y0156642D01*
X0293929Y0156704D01*
X0293891Y0156767D01*
X0293855Y0156832D01*
X0293823Y0156900D01*
X0293794Y0156968D01*
X0293770Y0157039D01*
X0293748Y0157110D01*
X0293731Y0157182D01*
X0293718Y0157256D01*
X0293708Y0157329D01*
X0293702Y0157404D01*
X0293700Y0157478D01*
X0293702Y0157552D01*
X0293708Y0157627D01*
X0293718Y0157700D01*
X0293731Y0157774D01*
X0293748Y0157846D01*
X0293770Y0157917D01*
X0293794Y0157988D01*
X0293823Y0158056D01*
X0293855Y0158124D01*
X0293891Y0158189D01*
X0293929Y0158252D01*
X0293972Y0158314D01*
X0294017Y0158373D01*
X0294065Y0158430D01*
X0294116Y0158484D01*
X0294170Y0158535D01*
X0294227Y0158583D01*
X0294286Y0158628D01*
X0294348Y0158671D01*
X0294411Y0158709D01*
X0294476Y0158745D01*
X0294544Y0158777D01*
X0294612Y0158806D01*
X0294683Y0158830D01*
X0294754Y0158852D01*
X0294826Y0158869D01*
X0294900Y0158882D01*
X0294973Y0158892D01*
X0295048Y0158898D01*
X0295122Y0158900D01*
X0291239Y0153389D02*
X0291162Y0153314D01*
X0291082Y0153241D01*
X0290999Y0153172D01*
X0290914Y0153105D01*
X0290827Y0153042D01*
X0290738Y0152982D01*
X0290646Y0152925D01*
X0290553Y0152871D01*
X0290457Y0152821D01*
X0290360Y0152774D01*
X0290261Y0152731D01*
X0290161Y0152691D01*
X0290060Y0152655D01*
X0289957Y0152623D01*
X0289853Y0152594D01*
X0289748Y0152569D01*
X0289642Y0152548D01*
X0289536Y0152531D01*
X0289429Y0152517D01*
X0289321Y0152508D01*
X0289214Y0152502D01*
X0289106Y0152500D01*
X0289032Y0152502D01*
X0288957Y0152508D01*
X0288884Y0152518D01*
X0288810Y0152531D01*
X0288738Y0152548D01*
X0288667Y0152570D01*
X0288596Y0152594D01*
X0288528Y0152623D01*
X0288460Y0152655D01*
X0288395Y0152691D01*
X0288332Y0152729D01*
X0288270Y0152772D01*
X0288211Y0152817D01*
X0288154Y0152865D01*
X0288100Y0152916D01*
X0288049Y0152970D01*
X0288001Y0153027D01*
X0287956Y0153086D01*
X0287913Y0153148D01*
X0287875Y0153211D01*
X0287839Y0153276D01*
X0287807Y0153344D01*
X0287778Y0153412D01*
X0287754Y0153483D01*
X0287732Y0153554D01*
X0287715Y0153626D01*
X0287702Y0153700D01*
X0287692Y0153773D01*
X0287686Y0153848D01*
X0287684Y0153922D01*
X0287686Y0153997D01*
X0287692Y0154072D01*
X0287701Y0154146D01*
X0287715Y0154220D01*
X0287732Y0154293D01*
X0287753Y0154365D01*
X0287778Y0154435D01*
X0287807Y0154505D01*
X0287839Y0154572D01*
X0287874Y0154638D01*
X0287913Y0154703D01*
X0287955Y0154765D01*
X0288001Y0154824D01*
X0288049Y0154882D01*
X0288100Y0154936D01*
X0288154Y0154988D01*
X0288211Y0155037D01*
X0288270Y0155083D01*
X0288331Y0155126D01*
X0288395Y0155166D01*
X0289223Y0173500D02*
X0289223Y0176700D01*
X0289223Y0175989D02*
X0290823Y0175989D01*
X0289223Y0176700D02*
X0289225Y0176764D01*
X0289231Y0176829D01*
X0289240Y0176892D01*
X0289254Y0176955D01*
X0289271Y0177017D01*
X0289292Y0177078D01*
X0289317Y0177138D01*
X0289345Y0177196D01*
X0289377Y0177252D01*
X0289412Y0177306D01*
X0289450Y0177358D01*
X0289491Y0177408D01*
X0289536Y0177454D01*
X0289582Y0177499D01*
X0289632Y0177540D01*
X0289684Y0177578D01*
X0289738Y0177613D01*
X0289794Y0177645D01*
X0289852Y0177673D01*
X0289912Y0177698D01*
X0289973Y0177719D01*
X0290035Y0177736D01*
X0290098Y0177750D01*
X0290161Y0177759D01*
X0290226Y0177765D01*
X0290290Y0177767D01*
X0291712Y0177767D01*
X0294767Y0179900D02*
X0294767Y0174922D01*
X0294769Y0174848D01*
X0294775Y0174773D01*
X0294785Y0174700D01*
X0294798Y0174626D01*
X0294815Y0174554D01*
X0294837Y0174483D01*
X0294861Y0174412D01*
X0294890Y0174344D01*
X0294922Y0174276D01*
X0294958Y0174211D01*
X0294996Y0174148D01*
X0295039Y0174086D01*
X0295084Y0174027D01*
X0295132Y0173970D01*
X0295183Y0173916D01*
X0295237Y0173865D01*
X0295294Y0173817D01*
X0295353Y0173772D01*
X0295415Y0173729D01*
X0295478Y0173691D01*
X0295543Y0173655D01*
X0295611Y0173623D01*
X0295679Y0173594D01*
X0295750Y0173570D01*
X0295821Y0173548D01*
X0295893Y0173531D01*
X0295967Y0173518D01*
X0296040Y0173508D01*
X0296115Y0173502D01*
X0296189Y0173500D01*
X0296900Y0173500D01*
X0290823Y0173500D02*
X0289223Y0173500D01*
X0290823Y0173500D02*
X0290893Y0173502D01*
X0290962Y0173508D01*
X0291031Y0173518D01*
X0291100Y0173531D01*
X0291167Y0173549D01*
X0291234Y0173570D01*
X0291299Y0173595D01*
X0291363Y0173623D01*
X0291425Y0173655D01*
X0291485Y0173691D01*
X0291543Y0173729D01*
X0291599Y0173771D01*
X0291652Y0173816D01*
X0291703Y0173864D01*
X0291751Y0173915D01*
X0291796Y0173968D01*
X0291838Y0174024D01*
X0291876Y0174082D01*
X0291912Y0174142D01*
X0291944Y0174204D01*
X0291972Y0174268D01*
X0291997Y0174333D01*
X0292018Y0174400D01*
X0292036Y0174467D01*
X0292049Y0174536D01*
X0292059Y0174605D01*
X0292065Y0174674D01*
X0292067Y0174744D01*
X0292065Y0174814D01*
X0292059Y0174883D01*
X0292049Y0174952D01*
X0292036Y0175021D01*
X0292018Y0175088D01*
X0291997Y0175155D01*
X0291972Y0175220D01*
X0291944Y0175284D01*
X0291912Y0175346D01*
X0291876Y0175406D01*
X0291838Y0175464D01*
X0291796Y0175520D01*
X0291751Y0175573D01*
X0291703Y0175624D01*
X0291652Y0175672D01*
X0291599Y0175717D01*
X0291543Y0175759D01*
X0291485Y0175797D01*
X0291425Y0175833D01*
X0291363Y0175865D01*
X0291299Y0175893D01*
X0291234Y0175918D01*
X0291167Y0175939D01*
X0291100Y0175957D01*
X0291031Y0175970D01*
X0290962Y0175980D01*
X0290893Y0175986D01*
X0290823Y0175988D01*
D11*
X0164800Y0162200D02*
X0159600Y0162200D01*
X0159600Y0152200D02*
X0164800Y0152200D01*
X0164800Y0142200D02*
X0159600Y0142200D01*
X0159600Y0132200D02*
X0164800Y0132200D01*
X0164800Y0122200D02*
X0159600Y0122200D01*
X0159600Y0112200D02*
X0164800Y0112200D01*
X0164800Y0102200D02*
X0159600Y0102200D01*
X0134800Y0102200D02*
X0129600Y0102200D01*
X0129600Y0112200D02*
X0134800Y0112200D01*
X0134800Y0122200D02*
X0129600Y0122200D01*
X0129600Y0132200D02*
X0134800Y0132200D01*
X0134800Y0142200D02*
X0129600Y0142200D01*
X0129600Y0152200D02*
X0134800Y0152200D01*
X0134800Y0162200D02*
X0129600Y0162200D01*
X0080095Y0165775D02*
X0074895Y0165775D01*
X0074895Y0155775D02*
X0080095Y0155775D01*
X0080095Y0145775D02*
X0074895Y0145775D01*
X0074895Y0135775D02*
X0080095Y0135775D01*
X0080095Y0125775D02*
X0074895Y0125775D01*
X0074895Y0115775D02*
X0080095Y0115775D01*
X0050095Y0115775D02*
X0044895Y0115775D01*
X0044895Y0125775D02*
X0050095Y0125775D01*
X0050095Y0135775D02*
X0044895Y0135775D01*
X0044895Y0145775D02*
X0050095Y0145775D01*
X0050095Y0155775D02*
X0044895Y0155775D01*
X0044895Y0165775D02*
X0050095Y0165775D01*
X0050095Y0175775D02*
X0044895Y0175775D01*
X0074895Y0175775D02*
X0080095Y0175775D01*
D12*
X0232178Y0033096D03*
X0261942Y0033096D03*
X0261942Y0013254D03*
X0232178Y0013254D03*
D13*
X0232178Y0112466D03*
X0261942Y0112466D03*
D14*
X0280180Y0134210D03*
X0220180Y0134210D03*
X0209495Y0133310D03*
X0199495Y0133310D03*
X0204495Y0125810D03*
X0205615Y0109990D03*
X0180640Y0113340D03*
X0193560Y0075655D03*
X0184410Y0050615D03*
X0205615Y0049990D03*
X0133560Y0075655D03*
X0115585Y0066840D03*
X0100105Y0054520D03*
X0124410Y0050615D03*
X0103375Y0037165D03*
X0099175Y0023155D03*
X0043375Y0037165D03*
X0039175Y0023155D03*
X0040105Y0054520D03*
X0055585Y0066840D03*
X0032200Y0077200D03*
X0032200Y0097200D03*
X0113785Y0089410D03*
X0113785Y0149410D03*
X0180640Y0173340D03*
D15*
X0052200Y0097200D03*
X0052200Y0077200D03*
X0024170Y0124730D03*
X0024190Y0146030D03*
X0200200Y0033200D03*
X0200860Y0013425D03*
X0293765Y0012945D03*
X0294515Y0033125D03*
D16*
X0294486Y0033096D01*
X0261942Y0033096D01*
X0232178Y0033096D02*
X0200304Y0033096D01*
X0200200Y0033200D01*
X0205615Y0049990D02*
X0193560Y0062045D01*
X0193560Y0075655D01*
X0193560Y0100420D01*
X0180640Y0113340D01*
X0178652Y0118140D02*
X0172712Y0112200D01*
X0162200Y0112200D01*
X0162200Y0102200D01*
X0132200Y0102200D01*
X0131000Y0103400D01*
X0120626Y0103400D01*
X0088251Y0135775D01*
X0077495Y0135775D01*
X0077495Y0145775D01*
X0077495Y0155775D01*
X0077495Y0155163D01*
X0077495Y0155775D02*
X0052295Y0130575D01*
X0027447Y0130575D01*
X0026842Y0131180D01*
X0021498Y0131180D01*
X0017720Y0127402D01*
X0017720Y0104892D01*
X0032200Y0090412D01*
X0032200Y0077200D01*
X0052200Y0077200D01*
X0055585Y0073815D01*
X0055585Y0066840D01*
X0055585Y0066745D01*
X0099175Y0023155D01*
X0103975Y0023940D02*
X0103975Y0021167D01*
X0101163Y0018355D01*
X0037187Y0018355D01*
X0034375Y0021167D01*
X0034375Y0025143D01*
X0037200Y0027968D01*
X0037200Y0042200D01*
X0008920Y0070480D01*
X0008920Y0149882D01*
X0015318Y0156280D01*
X0028436Y0156280D01*
X0028941Y0155775D01*
X0047495Y0155775D01*
X0047570Y0165700D02*
X0047495Y0165775D01*
X0047570Y0165700D02*
X0064700Y0165700D01*
X0069425Y0160975D01*
X0082083Y0160975D01*
X0083308Y0162200D01*
X0092200Y0162200D01*
X0100328Y0154072D01*
X0100328Y0139310D01*
X0122200Y0117438D01*
X0122200Y0107200D01*
X0137200Y0107200D01*
X0147000Y0117000D01*
X0172138Y0117000D01*
X0177078Y0121940D01*
X0184202Y0121940D01*
X0196152Y0109990D01*
X0205615Y0109990D01*
X0210415Y0111975D02*
X0217200Y0105190D01*
X0217200Y0105193D01*
X0217200Y0105190D02*
X0195578Y0105190D01*
X0182628Y0118140D01*
X0178652Y0118140D01*
X0178660Y0125740D02*
X0185776Y0125740D01*
X0196726Y0114790D01*
X0207603Y0114790D01*
X0210415Y0111978D01*
X0210415Y0111975D01*
X0217200Y0105190D02*
X0251500Y0105190D01*
X0258776Y0112466D01*
X0261942Y0112466D01*
X0262053Y0106428D02*
X0264443Y0106428D01*
X0284980Y0126964D01*
X0284980Y0136198D01*
X0282168Y0139010D01*
X0208407Y0139010D01*
X0202707Y0133310D01*
X0199495Y0133310D01*
X0170605Y0162200D01*
X0162200Y0162200D01*
X0157612Y0157000D02*
X0132812Y0132200D01*
X0132200Y0132200D01*
X0126903Y0136292D02*
X0113785Y0149410D01*
X0104128Y0157400D02*
X0104128Y0140884D01*
X0132200Y0112812D01*
X0132200Y0112200D01*
X0132200Y0122200D02*
X0132200Y0122812D01*
X0124800Y0130212D01*
X0124800Y0134188D01*
X0126903Y0136292D01*
X0132200Y0141588D01*
X0132200Y0142200D01*
X0132200Y0152200D02*
X0133600Y0153600D01*
X0138362Y0153600D01*
X0143400Y0158638D01*
X0143400Y0163400D01*
X0143400Y0165762D01*
X0136962Y0172200D01*
X0087200Y0172200D01*
X0084895Y0174505D01*
X0084895Y0177763D01*
X0082083Y0180575D01*
X0072907Y0180575D01*
X0068107Y0175775D01*
X0047495Y0175775D01*
X0077495Y0175775D02*
X0086270Y0167000D01*
X0136788Y0167000D01*
X0139600Y0164188D01*
X0139600Y0160212D01*
X0136788Y0157400D01*
X0104128Y0157400D01*
X0092200Y0162200D02*
X0132200Y0162200D01*
X0143400Y0163400D02*
X0153340Y0173340D01*
X0180640Y0173340D01*
X0166788Y0157000D02*
X0157612Y0157000D01*
X0162200Y0152200D02*
X0162200Y0142200D01*
X0178660Y0125740D01*
X0195278Y0128510D02*
X0166788Y0157000D01*
X0209495Y0133310D02*
X0219280Y0133310D01*
X0220180Y0134210D01*
X0204495Y0125810D02*
X0201795Y0128510D01*
X0195278Y0128510D01*
X0232178Y0112466D02*
X0253402Y0112466D01*
X0259441Y0118505D01*
X0264475Y0118505D01*
X0280180Y0134210D01*
X0262053Y0106428D02*
X0205615Y0049990D01*
X0193560Y0058963D02*
X0184811Y0050214D01*
X0184410Y0050615D01*
X0170960Y0037165D01*
X0117200Y0037165D01*
X0103975Y0023940D01*
X0103375Y0037165D02*
X0052200Y0088340D01*
X0052200Y0097200D01*
X0045975Y0110975D02*
X0032200Y0097200D01*
X0045975Y0110975D02*
X0052083Y0110975D01*
X0054895Y0113787D01*
X0054895Y0119895D01*
X0060775Y0125775D01*
X0077495Y0125775D01*
X0077495Y0125700D01*
X0113785Y0089410D01*
X0112815Y0080455D02*
X0077495Y0115775D01*
X0060201Y0130575D02*
X0055401Y0125775D01*
X0047495Y0125775D01*
X0038540Y0124730D02*
X0047495Y0115775D01*
X0038540Y0124730D02*
X0024170Y0124730D01*
X0034445Y0135775D02*
X0047495Y0135775D01*
X0060201Y0130575D02*
X0082083Y0130575D01*
X0128403Y0084255D01*
X0137122Y0084255D01*
X0142160Y0079217D01*
X0142160Y0061577D01*
X0126398Y0045815D01*
X0102022Y0045815D01*
X0080997Y0066840D01*
X0115585Y0066840D01*
X0124400Y0075655D01*
X0133560Y0075655D01*
X0138360Y0077643D02*
X0135548Y0080455D01*
X0112815Y0080455D01*
X0126733Y0062040D02*
X0138360Y0073667D01*
X0138360Y0077643D01*
X0126733Y0062040D02*
X0107625Y0062040D01*
X0100105Y0054520D01*
X0104010Y0050615D01*
X0124410Y0050615D01*
X0117200Y0037165D02*
X0103375Y0037165D01*
X0055585Y0066840D02*
X0052425Y0066840D01*
X0040105Y0054520D01*
X0043375Y0044462D02*
X0012720Y0075117D01*
X0012720Y0143682D01*
X0021518Y0152480D01*
X0026862Y0152480D01*
X0033567Y0145775D01*
X0047495Y0145775D01*
X0034445Y0135775D02*
X0024190Y0146030D01*
X0043375Y0044462D02*
X0043375Y0037165D01*
X0043375Y0027355D01*
X0039175Y0023155D01*
X0193560Y0058963D02*
X0193560Y0075655D01*
X0200860Y0013425D02*
X0232007Y0013425D01*
X0232178Y0013254D01*
X0261942Y0013254D02*
X0262251Y0012945D01*
X0293765Y0012945D01*
D17*
X0007800Y0007800D02*
X0007800Y0065943D01*
X0033200Y0040543D01*
X0033200Y0029625D01*
X0030984Y0027409D01*
X0030375Y0025939D01*
X0030375Y0020371D01*
X0030984Y0018901D01*
X0033796Y0016089D01*
X0034921Y0014964D01*
X0036391Y0014355D01*
X0101959Y0014355D01*
X0103429Y0014964D01*
X0104554Y0016089D01*
X0106241Y0017776D01*
X0107366Y0018901D01*
X0107975Y0020371D01*
X0107975Y0022283D01*
X0118857Y0033165D01*
X0171756Y0033165D01*
X0173226Y0033774D01*
X0174351Y0034899D01*
X0185067Y0045615D01*
X0186481Y0045615D01*
X0189410Y0048544D01*
X0189410Y0049156D01*
X0195101Y0054847D01*
X0200615Y0049333D01*
X0200615Y0047919D01*
X0203544Y0044990D01*
X0207686Y0044990D01*
X0210615Y0047919D01*
X0210615Y0049333D01*
X0263710Y0102428D01*
X0265239Y0102428D01*
X0266709Y0103037D01*
X0287246Y0123573D01*
X0288371Y0124699D01*
X0288980Y0126169D01*
X0288980Y0136994D01*
X0288371Y0138464D01*
X0287246Y0139589D01*
X0287246Y0139589D01*
X0285559Y0141276D01*
X0284434Y0142401D01*
X0282964Y0143010D01*
X0207611Y0143010D01*
X0206141Y0142401D01*
X0201808Y0138068D01*
X0201566Y0138310D01*
X0200152Y0138310D01*
X0172871Y0165591D01*
X0171401Y0166200D01*
X0167871Y0166200D01*
X0167632Y0166439D01*
X0165795Y0167200D01*
X0158605Y0167200D01*
X0156768Y0166439D01*
X0155361Y0165032D01*
X0154600Y0163195D01*
X0154600Y0161205D01*
X0155057Y0160102D01*
X0139317Y0144362D01*
X0139039Y0145032D01*
X0137632Y0146439D01*
X0135795Y0147200D01*
X0137632Y0147961D01*
X0139039Y0149368D01*
X0139135Y0149600D01*
X0139158Y0149600D01*
X0140628Y0150209D01*
X0141753Y0151334D01*
X0146791Y0156372D01*
X0147400Y0157842D01*
X0147400Y0161743D01*
X0154997Y0169340D01*
X0177569Y0169340D01*
X0178569Y0168340D01*
X0182711Y0168340D01*
X0185640Y0171269D01*
X0185640Y0175411D01*
X0182711Y0178340D01*
X0178569Y0178340D01*
X0177569Y0177340D01*
X0152544Y0177340D01*
X0151074Y0176731D01*
X0149949Y0175606D01*
X0144581Y0170238D01*
X0140353Y0174466D01*
X0139228Y0175591D01*
X0137758Y0176200D01*
X0088895Y0176200D01*
X0088895Y0178559D01*
X0088286Y0180029D01*
X0087161Y0181154D01*
X0085474Y0182841D01*
X0084349Y0183966D01*
X0082879Y0184575D01*
X0072111Y0184575D01*
X0070641Y0183966D01*
X0069516Y0182841D01*
X0069516Y0182841D01*
X0066450Y0179775D01*
X0053166Y0179775D01*
X0052927Y0180014D01*
X0051090Y0180775D01*
X0043900Y0180775D01*
X0042063Y0180014D01*
X0040656Y0178607D01*
X0039895Y0176770D01*
X0039895Y0174780D01*
X0040656Y0172943D01*
X0042063Y0171536D01*
X0043900Y0170775D01*
X0042063Y0170014D01*
X0040656Y0168607D01*
X0039895Y0166770D01*
X0039895Y0164780D01*
X0040656Y0162943D01*
X0042063Y0161536D01*
X0043900Y0160775D01*
X0051090Y0160775D01*
X0052927Y0161536D01*
X0053091Y0161700D01*
X0063043Y0161700D01*
X0067159Y0157584D01*
X0068629Y0156975D01*
X0070238Y0156975D01*
X0070213Y0156899D01*
X0070095Y0156153D01*
X0070095Y0155775D01*
X0077495Y0155775D01*
X0084895Y0155775D01*
X0084895Y0156153D01*
X0084777Y0156899D01*
X0084543Y0157618D01*
X0084489Y0157724D01*
X0084965Y0158200D01*
X0090543Y0158200D01*
X0096328Y0152415D01*
X0096328Y0138514D01*
X0096937Y0137044D01*
X0098062Y0135918D01*
X0118200Y0115781D01*
X0118200Y0106404D01*
X0118809Y0104934D01*
X0119934Y0103809D01*
X0121404Y0103200D01*
X0124899Y0103200D01*
X0124800Y0102578D01*
X0124800Y0102200D01*
X0132200Y0102200D01*
X0139600Y0102200D01*
X0139600Y0102578D01*
X0139482Y0103324D01*
X0139341Y0103757D01*
X0139466Y0103809D01*
X0140591Y0104934D01*
X0148657Y0113000D01*
X0154867Y0113000D01*
X0154800Y0112578D01*
X0154800Y0112200D01*
X0162200Y0112200D01*
X0169600Y0112200D01*
X0169600Y0112578D01*
X0169533Y0113000D01*
X0172933Y0113000D01*
X0174404Y0113609D01*
X0175529Y0114734D01*
X0175640Y0114845D01*
X0175640Y0111269D01*
X0178569Y0108340D01*
X0179983Y0108340D01*
X0189560Y0098763D01*
X0189560Y0078726D01*
X0188560Y0077726D01*
X0188560Y0073584D01*
X0189560Y0072584D01*
X0189560Y0060620D01*
X0184555Y0055615D01*
X0182339Y0055615D01*
X0179410Y0052686D01*
X0179410Y0051272D01*
X0169303Y0041165D01*
X0106446Y0041165D01*
X0105796Y0041815D01*
X0127194Y0041815D01*
X0128664Y0042424D01*
X0144426Y0058186D01*
X0145551Y0059311D01*
X0146160Y0060781D01*
X0146160Y0080013D01*
X0145551Y0081483D01*
X0144426Y0082608D01*
X0140513Y0086521D01*
X0139388Y0087646D01*
X0137918Y0088255D01*
X0130060Y0088255D01*
X0084489Y0133826D01*
X0084543Y0133932D01*
X0084777Y0134651D01*
X0084895Y0135397D01*
X0084895Y0135775D01*
X0084895Y0136153D01*
X0084777Y0136899D01*
X0084543Y0137618D01*
X0084200Y0138291D01*
X0083756Y0138902D01*
X0083222Y0139436D01*
X0082611Y0139880D01*
X0081938Y0140223D01*
X0081219Y0140457D01*
X0080473Y0140575D01*
X0077495Y0140575D01*
X0077495Y0135775D01*
X0084895Y0135775D01*
X0077495Y0135775D01*
X0077495Y0135775D01*
X0077495Y0135775D01*
X0077495Y0135775D01*
X0070095Y0135775D01*
X0070095Y0136153D01*
X0070213Y0136899D01*
X0070447Y0137618D01*
X0070790Y0138291D01*
X0071234Y0138902D01*
X0071768Y0139436D01*
X0072379Y0139880D01*
X0073052Y0140223D01*
X0073771Y0140457D01*
X0074517Y0140575D01*
X0077495Y0140575D01*
X0077495Y0135775D01*
X0070095Y0135775D01*
X0070095Y0135397D01*
X0070213Y0134651D01*
X0070238Y0134575D01*
X0059405Y0134575D01*
X0057935Y0133966D01*
X0053744Y0129775D01*
X0053166Y0129775D01*
X0052927Y0130014D01*
X0051090Y0130775D01*
X0043900Y0130775D01*
X0042063Y0130014D01*
X0040656Y0128607D01*
X0040506Y0128245D01*
X0039336Y0128730D01*
X0029575Y0128730D01*
X0026925Y0131380D01*
X0021415Y0131380D01*
X0017520Y0127484D01*
X0017520Y0121975D01*
X0021415Y0118080D01*
X0026925Y0118080D01*
X0029575Y0120730D01*
X0036883Y0120730D01*
X0040173Y0117440D01*
X0039895Y0116770D01*
X0039895Y0114780D01*
X0040656Y0112943D01*
X0041471Y0112128D01*
X0031543Y0102200D01*
X0030129Y0102200D01*
X0027200Y0099271D01*
X0027200Y0095129D01*
X0030129Y0092200D01*
X0034271Y0092200D01*
X0037200Y0095129D01*
X0037200Y0096543D01*
X0047632Y0106975D01*
X0052879Y0106975D01*
X0054349Y0107584D01*
X0057161Y0110396D01*
X0058286Y0111521D01*
X0058895Y0112991D01*
X0058895Y0118238D01*
X0062432Y0121775D01*
X0071824Y0121775D01*
X0072063Y0121536D01*
X0073900Y0120775D01*
X0072063Y0120014D01*
X0070656Y0118607D01*
X0069895Y0116770D01*
X0069895Y0114780D01*
X0070656Y0112943D01*
X0072063Y0111536D01*
X0073900Y0110775D01*
X0076838Y0110775D01*
X0110549Y0077064D01*
X0112019Y0076455D01*
X0119543Y0076455D01*
X0114928Y0071840D01*
X0113514Y0071840D01*
X0112514Y0070840D01*
X0080201Y0070840D01*
X0078731Y0070231D01*
X0077606Y0069106D01*
X0077455Y0068742D01*
X0056200Y0089997D01*
X0056200Y0091795D01*
X0058850Y0094445D01*
X0058850Y0099955D01*
X0054955Y0103850D01*
X0049445Y0103850D01*
X0045550Y0099955D01*
X0045550Y0094445D01*
X0048200Y0091795D01*
X0048200Y0087544D01*
X0048809Y0086074D01*
X0049934Y0084949D01*
X0049934Y0084949D01*
X0051233Y0083650D01*
X0049528Y0083650D01*
X0045750Y0079872D01*
X0045750Y0077300D01*
X0052100Y0077300D01*
X0052100Y0077100D01*
X0052300Y0077100D01*
X0052300Y0070750D01*
X0052707Y0070750D01*
X0050785Y0068828D01*
X0050785Y0066840D01*
X0055585Y0066840D01*
X0055585Y0066840D01*
X0060385Y0066840D01*
X0060385Y0068828D01*
X0057573Y0071640D01*
X0055762Y0071640D01*
X0058650Y0074528D01*
X0058650Y0076233D01*
X0098375Y0036508D01*
X0098375Y0035094D01*
X0101304Y0032165D01*
X0105446Y0032165D01*
X0106446Y0033165D01*
X0107543Y0033165D01*
X0101748Y0027370D01*
X0101163Y0027955D01*
X0099175Y0027955D01*
X0099175Y0023155D01*
X0099175Y0023155D01*
X0094375Y0023155D01*
X0094375Y0022355D01*
X0044175Y0022355D01*
X0044175Y0022498D01*
X0045641Y0023964D01*
X0046766Y0025089D01*
X0047375Y0026559D01*
X0047375Y0034094D01*
X0048375Y0035094D01*
X0048375Y0039236D01*
X0047375Y0040236D01*
X0047375Y0045257D01*
X0046766Y0046728D01*
X0042933Y0050560D01*
X0044905Y0052532D01*
X0044905Y0054520D01*
X0044905Y0056508D01*
X0042093Y0059320D01*
X0040105Y0059320D01*
X0040105Y0054520D01*
X0040105Y0054520D01*
X0044905Y0054520D01*
X0040105Y0054520D01*
X0040105Y0054520D01*
X0040105Y0059320D01*
X0038117Y0059320D01*
X0036145Y0057348D01*
X0016720Y0076774D01*
X0016720Y0142025D01*
X0017755Y0143060D01*
X0021435Y0139380D01*
X0025183Y0139380D01*
X0031054Y0133509D01*
X0032179Y0132384D01*
X0033649Y0131775D01*
X0041824Y0131775D01*
X0042063Y0131536D01*
X0043900Y0130775D01*
X0051090Y0130775D01*
X0052927Y0131536D01*
X0054334Y0132943D01*
X0055095Y0134780D01*
X0055095Y0136770D01*
X0054334Y0138607D01*
X0052927Y0140014D01*
X0051090Y0140775D01*
X0052927Y0141536D01*
X0054334Y0142943D01*
X0055095Y0144780D01*
X0055095Y0146770D01*
X0054334Y0148607D01*
X0052927Y0150014D01*
X0051090Y0150775D01*
X0052927Y0151536D01*
X0054334Y0152943D01*
X0055095Y0154780D01*
X0055095Y0156770D01*
X0054334Y0158607D01*
X0052927Y0160014D01*
X0051090Y0160775D01*
X0043900Y0160775D01*
X0042063Y0160014D01*
X0041824Y0159775D01*
X0030451Y0159775D01*
X0029231Y0160280D01*
X0014523Y0160280D01*
X0013053Y0159671D01*
X0007800Y0154419D01*
X0007800Y0186600D01*
X0306600Y0186600D01*
X0306600Y0007800D01*
X0298024Y0007800D01*
X0300415Y0010190D01*
X0300415Y0015699D01*
X0296520Y0019595D01*
X0291010Y0019595D01*
X0288360Y0016945D01*
X0268337Y0016945D01*
X0268149Y0017401D01*
X0266089Y0019460D01*
X0263398Y0020575D01*
X0260486Y0020575D01*
X0257795Y0019460D01*
X0255735Y0017401D01*
X0254621Y0014710D01*
X0254621Y0011797D01*
X0255735Y0009107D01*
X0257042Y0007800D01*
X0237078Y0007800D01*
X0238385Y0009107D01*
X0239499Y0011797D01*
X0239499Y0014710D01*
X0238385Y0017401D01*
X0236325Y0019460D01*
X0233634Y0020575D01*
X0230722Y0020575D01*
X0228031Y0019460D01*
X0225996Y0017425D01*
X0206265Y0017425D01*
X0203615Y0020075D01*
X0198105Y0020075D01*
X0194210Y0016180D01*
X0194210Y0010670D01*
X0197081Y0007800D01*
X0007800Y0007800D01*
X0007800Y0009396D02*
X0195485Y0009396D01*
X0194210Y0011794D02*
X0007800Y0011794D01*
X0007800Y0014193D02*
X0194210Y0014193D01*
X0194622Y0016591D02*
X0105056Y0016591D01*
X0104554Y0016089D02*
X0104554Y0016089D01*
X0107403Y0018990D02*
X0197020Y0018990D01*
X0204700Y0018990D02*
X0227560Y0018990D01*
X0236796Y0018990D02*
X0257324Y0018990D01*
X0255400Y0016591D02*
X0238720Y0016591D01*
X0239499Y0014193D02*
X0254621Y0014193D01*
X0254622Y0011794D02*
X0239498Y0011794D01*
X0238504Y0009396D02*
X0255616Y0009396D01*
X0266560Y0018990D02*
X0290405Y0018990D01*
X0297125Y0018990D02*
X0306600Y0018990D01*
X0306600Y0016591D02*
X0299523Y0016591D01*
X0300415Y0014193D02*
X0306600Y0014193D01*
X0306600Y0011794D02*
X0300415Y0011794D01*
X0299620Y0009396D02*
X0306600Y0009396D01*
X0306600Y0021388D02*
X0107975Y0021388D01*
X0109478Y0023787D02*
X0306600Y0023787D01*
X0306600Y0026185D02*
X0264388Y0026185D01*
X0263398Y0025775D02*
X0266089Y0026890D01*
X0268149Y0028949D01*
X0268210Y0029096D01*
X0289139Y0029096D01*
X0291760Y0026475D01*
X0297269Y0026475D01*
X0301165Y0030370D01*
X0301165Y0035879D01*
X0297269Y0039775D01*
X0291760Y0039775D01*
X0289082Y0037096D01*
X0268210Y0037096D01*
X0268149Y0037243D01*
X0266089Y0039303D01*
X0263398Y0040417D01*
X0260486Y0040417D01*
X0257795Y0039303D01*
X0255735Y0037243D01*
X0254621Y0034553D01*
X0254621Y0031640D01*
X0255735Y0028949D01*
X0257795Y0026890D01*
X0260486Y0025775D01*
X0263398Y0025775D01*
X0259495Y0026185D02*
X0234625Y0026185D01*
X0233634Y0025775D02*
X0236325Y0026890D01*
X0238385Y0028949D01*
X0239499Y0031640D01*
X0239499Y0034553D01*
X0238385Y0037243D01*
X0236325Y0039303D01*
X0233634Y0040417D01*
X0230722Y0040417D01*
X0228031Y0039303D01*
X0225971Y0037243D01*
X0225910Y0037096D01*
X0205708Y0037096D01*
X0202955Y0039850D01*
X0197445Y0039850D01*
X0193550Y0035955D01*
X0193550Y0030445D01*
X0197445Y0026550D01*
X0202955Y0026550D01*
X0205501Y0029096D01*
X0225910Y0029096D01*
X0225971Y0028949D01*
X0228031Y0026890D01*
X0230722Y0025775D01*
X0233634Y0025775D01*
X0229732Y0026185D02*
X0111877Y0026185D01*
X0114275Y0028584D02*
X0195412Y0028584D01*
X0193550Y0030982D02*
X0116674Y0030982D01*
X0105360Y0030982D02*
X0047375Y0030982D01*
X0047375Y0028584D02*
X0102962Y0028584D01*
X0099175Y0027955D02*
X0097187Y0027955D01*
X0094375Y0025143D01*
X0094375Y0023155D01*
X0099175Y0023155D01*
X0099175Y0023155D01*
X0099175Y0027955D01*
X0099175Y0026185D02*
X0099175Y0026185D01*
X0099175Y0023787D02*
X0099175Y0023787D01*
X0095417Y0026185D02*
X0047220Y0026185D01*
X0045463Y0023787D02*
X0094375Y0023787D01*
X0100088Y0033381D02*
X0047375Y0033381D01*
X0048375Y0035779D02*
X0098375Y0035779D01*
X0096705Y0038178D02*
X0048375Y0038178D01*
X0047375Y0040576D02*
X0094307Y0040576D01*
X0091908Y0042975D02*
X0047375Y0042975D01*
X0047327Y0045373D02*
X0089510Y0045373D01*
X0087111Y0047772D02*
X0045722Y0047772D01*
X0043323Y0050170D02*
X0084713Y0050170D01*
X0082314Y0052569D02*
X0044905Y0052569D01*
X0044905Y0054967D02*
X0079916Y0054967D01*
X0077517Y0057366D02*
X0044047Y0057366D01*
X0040105Y0057366D02*
X0040105Y0057366D01*
X0040105Y0054967D02*
X0040105Y0054967D01*
X0036163Y0057366D02*
X0036128Y0057366D01*
X0033729Y0059764D02*
X0075119Y0059764D01*
X0072720Y0062163D02*
X0057696Y0062163D01*
X0057573Y0062040D02*
X0060385Y0064852D01*
X0060385Y0066840D01*
X0055585Y0066840D01*
X0055585Y0066840D01*
X0050785Y0066840D01*
X0050785Y0064852D01*
X0053597Y0062040D01*
X0055585Y0062040D01*
X0057573Y0062040D01*
X0055585Y0062040D02*
X0055585Y0066840D01*
X0055585Y0066840D01*
X0055585Y0062040D01*
X0055585Y0062163D02*
X0055585Y0062163D01*
X0053474Y0062163D02*
X0031331Y0062163D01*
X0028932Y0064561D02*
X0051075Y0064561D01*
X0050785Y0066960D02*
X0026534Y0066960D01*
X0024135Y0069358D02*
X0051315Y0069358D01*
X0052100Y0070750D02*
X0049528Y0070750D01*
X0045750Y0074528D01*
X0045750Y0077100D01*
X0052100Y0077100D01*
X0052100Y0070750D01*
X0052100Y0071757D02*
X0052300Y0071757D01*
X0055878Y0071757D02*
X0063126Y0071757D01*
X0065525Y0069358D02*
X0059855Y0069358D01*
X0060385Y0066960D02*
X0067923Y0066960D01*
X0070322Y0064561D02*
X0060095Y0064561D01*
X0055585Y0064561D02*
X0055585Y0064561D01*
X0048521Y0071757D02*
X0021737Y0071757D01*
X0019338Y0074155D02*
X0028456Y0074155D01*
X0027400Y0075212D02*
X0027400Y0077200D01*
X0032200Y0077200D01*
X0032200Y0077200D01*
X0032200Y0082000D01*
X0034188Y0082000D01*
X0037000Y0079188D01*
X0037000Y0077200D01*
X0032200Y0077200D01*
X0032200Y0077200D01*
X0032200Y0077200D01*
X0032200Y0082000D01*
X0030212Y0082000D01*
X0027400Y0079188D01*
X0027400Y0077200D01*
X0032200Y0077200D01*
X0037000Y0077200D01*
X0037000Y0075212D01*
X0034188Y0072400D01*
X0032200Y0072400D01*
X0032200Y0077200D01*
X0032200Y0077200D01*
X0032200Y0072400D01*
X0030212Y0072400D01*
X0027400Y0075212D01*
X0027400Y0076554D02*
X0016940Y0076554D01*
X0016720Y0078952D02*
X0027400Y0078952D01*
X0029563Y0081351D02*
X0016720Y0081351D01*
X0016720Y0083749D02*
X0051134Y0083749D01*
X0048778Y0086148D02*
X0016720Y0086148D01*
X0016720Y0088546D02*
X0048200Y0088546D01*
X0048200Y0090945D02*
X0016720Y0090945D01*
X0016720Y0093343D02*
X0028986Y0093343D01*
X0027200Y0095742D02*
X0016720Y0095742D01*
X0016720Y0098140D02*
X0027200Y0098140D01*
X0028468Y0100539D02*
X0016720Y0100539D01*
X0016720Y0102937D02*
X0032281Y0102937D01*
X0034679Y0105336D02*
X0016720Y0105336D01*
X0016720Y0107734D02*
X0037078Y0107734D01*
X0039476Y0110133D02*
X0016720Y0110133D01*
X0016720Y0112532D02*
X0041067Y0112532D01*
X0039895Y0114930D02*
X0016720Y0114930D01*
X0016720Y0117329D02*
X0040127Y0117329D01*
X0037886Y0119727D02*
X0028572Y0119727D01*
X0019768Y0119727D02*
X0016720Y0119727D01*
X0016720Y0122126D02*
X0017520Y0122126D01*
X0017520Y0124524D02*
X0016720Y0124524D01*
X0016720Y0126923D02*
X0017520Y0126923D01*
X0016720Y0129321D02*
X0019357Y0129321D01*
X0016720Y0131720D02*
X0041879Y0131720D01*
X0041370Y0129321D02*
X0028983Y0129321D01*
X0030445Y0134118D02*
X0016720Y0134118D01*
X0016720Y0136517D02*
X0028046Y0136517D01*
X0025648Y0138915D02*
X0016720Y0138915D01*
X0016720Y0141314D02*
X0019502Y0141314D01*
X0034102Y0141775D02*
X0041824Y0141775D01*
X0042063Y0141536D01*
X0043900Y0140775D01*
X0051090Y0140775D01*
X0043900Y0140775D01*
X0042063Y0140014D01*
X0041824Y0139775D01*
X0036102Y0139775D01*
X0034102Y0141775D01*
X0034563Y0141314D02*
X0042600Y0141314D01*
X0052390Y0141314D02*
X0073092Y0141314D01*
X0073052Y0141327D02*
X0073771Y0141093D01*
X0074517Y0140975D01*
X0077495Y0140975D01*
X0080473Y0140975D01*
X0081219Y0141093D01*
X0081938Y0141327D01*
X0082611Y0141670D01*
X0083222Y0142114D01*
X0083756Y0142648D01*
X0084200Y0143259D01*
X0084543Y0143932D01*
X0084777Y0144651D01*
X0084895Y0145397D01*
X0084895Y0145775D01*
X0084895Y0146153D01*
X0084777Y0146899D01*
X0084543Y0147618D01*
X0084200Y0148291D01*
X0083756Y0148902D01*
X0083222Y0149436D01*
X0082611Y0149880D01*
X0081938Y0150223D01*
X0081219Y0150457D01*
X0080473Y0150575D01*
X0077495Y0150575D01*
X0077495Y0145775D01*
X0084895Y0145775D01*
X0077495Y0145775D01*
X0077495Y0145775D01*
X0077495Y0145775D01*
X0077495Y0140975D01*
X0077495Y0145775D01*
X0077495Y0145775D01*
X0077495Y0145775D01*
X0070095Y0145775D01*
X0070095Y0146153D01*
X0070213Y0146899D01*
X0070447Y0147618D01*
X0070790Y0148291D01*
X0071234Y0148902D01*
X0071768Y0149436D01*
X0072379Y0149880D01*
X0073052Y0150223D01*
X0073771Y0150457D01*
X0074517Y0150575D01*
X0077495Y0150575D01*
X0077495Y0145775D01*
X0070095Y0145775D01*
X0070095Y0145397D01*
X0070213Y0144651D01*
X0070447Y0143932D01*
X0070790Y0143259D01*
X0071234Y0142648D01*
X0071768Y0142114D01*
X0072379Y0141670D01*
X0073052Y0141327D01*
X0071247Y0138915D02*
X0054026Y0138915D01*
X0055095Y0136517D02*
X0070153Y0136517D01*
X0077495Y0136517D02*
X0077495Y0136517D01*
X0077495Y0138915D02*
X0077495Y0138915D01*
X0077495Y0141314D02*
X0077495Y0141314D01*
X0077495Y0143712D02*
X0077495Y0143712D01*
X0077495Y0146111D02*
X0077495Y0146111D01*
X0077495Y0148509D02*
X0077495Y0148509D01*
X0077495Y0150975D02*
X0074517Y0150975D01*
X0073771Y0151093D01*
X0073052Y0151327D01*
X0072379Y0151670D01*
X0071768Y0152114D01*
X0071234Y0152648D01*
X0070790Y0153259D01*
X0070447Y0153932D01*
X0070213Y0154651D01*
X0070095Y0155397D01*
X0070095Y0155775D01*
X0077495Y0155775D01*
X0077495Y0155775D01*
X0084895Y0155775D01*
X0084895Y0155397D01*
X0084777Y0154651D01*
X0084543Y0153932D01*
X0084200Y0153259D01*
X0083756Y0152648D01*
X0083222Y0152114D01*
X0082611Y0151670D01*
X0081938Y0151327D01*
X0081219Y0151093D01*
X0080473Y0150975D01*
X0077495Y0150975D01*
X0077495Y0155775D01*
X0077495Y0155775D01*
X0077495Y0155775D01*
X0077495Y0150975D01*
X0077495Y0153306D02*
X0077495Y0153306D01*
X0077495Y0155705D02*
X0077495Y0155705D01*
X0084224Y0153306D02*
X0095437Y0153306D01*
X0096328Y0150908D02*
X0051410Y0150908D01*
X0051090Y0150775D02*
X0043900Y0150775D01*
X0042063Y0151536D01*
X0041824Y0151775D01*
X0033224Y0151775D01*
X0035224Y0149775D01*
X0041824Y0149775D01*
X0042063Y0150014D01*
X0043900Y0150775D01*
X0051090Y0150775D01*
X0054374Y0148509D02*
X0070948Y0148509D01*
X0070095Y0146111D02*
X0055095Y0146111D01*
X0054652Y0143712D02*
X0070559Y0143712D01*
X0081898Y0141314D02*
X0096328Y0141314D01*
X0096328Y0143712D02*
X0084431Y0143712D01*
X0084895Y0146111D02*
X0096328Y0146111D01*
X0096328Y0148509D02*
X0084042Y0148509D01*
X0084895Y0155705D02*
X0093038Y0155705D01*
X0090640Y0158103D02*
X0084868Y0158103D01*
X0070766Y0153306D02*
X0054484Y0153306D01*
X0055095Y0155705D02*
X0070095Y0155705D01*
X0066640Y0158103D02*
X0054543Y0158103D01*
X0051749Y0160502D02*
X0064241Y0160502D01*
X0069895Y0166162D02*
X0068091Y0167966D01*
X0066966Y0169091D01*
X0065496Y0169700D01*
X0053241Y0169700D01*
X0052927Y0170014D01*
X0051090Y0170775D01*
X0043900Y0170775D01*
X0051090Y0170775D01*
X0052927Y0171536D01*
X0053166Y0171775D01*
X0068902Y0171775D01*
X0070373Y0172384D01*
X0070794Y0172805D01*
X0072063Y0171536D01*
X0073900Y0170775D01*
X0072063Y0170014D01*
X0070656Y0168607D01*
X0069895Y0166770D01*
X0069895Y0166162D01*
X0070279Y0167697D02*
X0068360Y0167697D01*
X0072261Y0170096D02*
X0052729Y0170096D01*
X0042261Y0170096D02*
X0007800Y0170096D01*
X0007800Y0172494D02*
X0041105Y0172494D01*
X0039895Y0174893D02*
X0007800Y0174893D01*
X0007800Y0177291D02*
X0040111Y0177291D01*
X0041739Y0179690D02*
X0007800Y0179690D01*
X0007800Y0182088D02*
X0068763Y0182088D01*
X0071898Y0184487D02*
X0007800Y0184487D01*
X0007800Y0167697D02*
X0040279Y0167697D01*
X0039895Y0165299D02*
X0007800Y0165299D01*
X0007800Y0162900D02*
X0040699Y0162900D01*
X0043241Y0160502D02*
X0007800Y0160502D01*
X0007800Y0158103D02*
X0011485Y0158103D01*
X0009086Y0155705D02*
X0007800Y0155705D01*
X0034091Y0150908D02*
X0043580Y0150908D01*
X0054821Y0134118D02*
X0058302Y0134118D01*
X0055689Y0131720D02*
X0053111Y0131720D01*
X0060384Y0119727D02*
X0071776Y0119727D01*
X0073900Y0120775D02*
X0076763Y0120775D01*
X0076763Y0120775D01*
X0073900Y0120775D01*
X0070127Y0117329D02*
X0058895Y0117329D01*
X0058895Y0114930D02*
X0069895Y0114930D01*
X0071067Y0112532D02*
X0058705Y0112532D01*
X0057161Y0110396D02*
X0057161Y0110396D01*
X0056898Y0110133D02*
X0077480Y0110133D01*
X0079879Y0107734D02*
X0054500Y0107734D01*
X0055867Y0102937D02*
X0084676Y0102937D01*
X0087074Y0100539D02*
X0058266Y0100539D01*
X0058850Y0098140D02*
X0089473Y0098140D01*
X0091871Y0095742D02*
X0058850Y0095742D01*
X0057748Y0093343D02*
X0094270Y0093343D01*
X0096668Y0090945D02*
X0056200Y0090945D01*
X0057650Y0088546D02*
X0099067Y0088546D01*
X0101465Y0086148D02*
X0060049Y0086148D01*
X0062447Y0083749D02*
X0103864Y0083749D01*
X0106262Y0081351D02*
X0064846Y0081351D01*
X0067244Y0078952D02*
X0108661Y0078952D01*
X0111781Y0076554D02*
X0069643Y0076554D01*
X0072041Y0074155D02*
X0117244Y0074155D01*
X0113431Y0071757D02*
X0074440Y0071757D01*
X0076839Y0069358D02*
X0077858Y0069358D01*
X0060728Y0074155D02*
X0058277Y0074155D01*
X0052300Y0074155D02*
X0052100Y0074155D01*
X0052100Y0076554D02*
X0052300Y0076554D01*
X0045750Y0076554D02*
X0037000Y0076554D01*
X0037000Y0078952D02*
X0045750Y0078952D01*
X0047229Y0081351D02*
X0034837Y0081351D01*
X0032200Y0081351D02*
X0032200Y0081351D01*
X0032200Y0078952D02*
X0032200Y0078952D01*
X0032200Y0076554D02*
X0032200Y0076554D01*
X0032200Y0074155D02*
X0032200Y0074155D01*
X0035944Y0074155D02*
X0046123Y0074155D01*
X0016377Y0057366D02*
X0007800Y0057366D01*
X0007800Y0059764D02*
X0013979Y0059764D01*
X0011580Y0062163D02*
X0007800Y0062163D01*
X0007800Y0064561D02*
X0009182Y0064561D01*
X0007800Y0054967D02*
X0018776Y0054967D01*
X0021174Y0052569D02*
X0007800Y0052569D01*
X0007800Y0050170D02*
X0023573Y0050170D01*
X0025971Y0047772D02*
X0007800Y0047772D01*
X0007800Y0045373D02*
X0028370Y0045373D01*
X0030768Y0042975D02*
X0007800Y0042975D01*
X0007800Y0040576D02*
X0033167Y0040576D01*
X0033200Y0038178D02*
X0007800Y0038178D01*
X0007800Y0035779D02*
X0033200Y0035779D01*
X0033200Y0033381D02*
X0007800Y0033381D01*
X0007800Y0030982D02*
X0033200Y0030982D01*
X0032159Y0028584D02*
X0007800Y0028584D01*
X0007800Y0026185D02*
X0030477Y0026185D01*
X0030375Y0023787D02*
X0007800Y0023787D01*
X0007800Y0021388D02*
X0030375Y0021388D01*
X0030947Y0018990D02*
X0007800Y0018990D01*
X0007800Y0016591D02*
X0033294Y0016591D01*
X0129215Y0042975D02*
X0171113Y0042975D01*
X0173511Y0045373D02*
X0131613Y0045373D01*
X0134012Y0047772D02*
X0175910Y0047772D01*
X0178308Y0050170D02*
X0136410Y0050170D01*
X0138809Y0052569D02*
X0179410Y0052569D01*
X0181691Y0054967D02*
X0141207Y0054967D01*
X0143606Y0057366D02*
X0186306Y0057366D01*
X0188705Y0059764D02*
X0145739Y0059764D01*
X0146160Y0062163D02*
X0189560Y0062163D01*
X0189560Y0064561D02*
X0146160Y0064561D01*
X0146160Y0066960D02*
X0189560Y0066960D01*
X0189560Y0069358D02*
X0146160Y0069358D01*
X0146160Y0071757D02*
X0189560Y0071757D01*
X0188560Y0074155D02*
X0146160Y0074155D01*
X0146160Y0076554D02*
X0188560Y0076554D01*
X0189560Y0078952D02*
X0146160Y0078952D01*
X0145606Y0081351D02*
X0189560Y0081351D01*
X0189560Y0083749D02*
X0143285Y0083749D01*
X0140886Y0086148D02*
X0189560Y0086148D01*
X0189560Y0088546D02*
X0129769Y0088546D01*
X0127370Y0090945D02*
X0189560Y0090945D01*
X0189560Y0093343D02*
X0124972Y0093343D01*
X0122573Y0095742D02*
X0189560Y0095742D01*
X0189560Y0098140D02*
X0167379Y0098140D01*
X0167316Y0098095D02*
X0167927Y0098539D01*
X0168461Y0099073D01*
X0168905Y0099684D01*
X0169248Y0100357D01*
X0169482Y0101076D01*
X0169600Y0101822D01*
X0169600Y0102200D01*
X0169600Y0102578D01*
X0169482Y0103324D01*
X0169248Y0104043D01*
X0168905Y0104716D01*
X0168461Y0105327D01*
X0167927Y0105861D01*
X0167316Y0106305D01*
X0166643Y0106648D01*
X0165924Y0106882D01*
X0165178Y0107000D01*
X0162200Y0107000D01*
X0162200Y0102200D01*
X0162200Y0102200D01*
X0169600Y0102200D01*
X0162200Y0102200D01*
X0162200Y0102200D01*
X0162200Y0097400D01*
X0165178Y0097400D01*
X0165924Y0097518D01*
X0166643Y0097752D01*
X0167316Y0098095D01*
X0169307Y0100539D02*
X0187784Y0100539D01*
X0185386Y0102937D02*
X0169543Y0102937D01*
X0168452Y0105336D02*
X0182987Y0105336D01*
X0180589Y0107734D02*
X0166590Y0107734D01*
X0166643Y0107752D02*
X0165924Y0107518D01*
X0165178Y0107400D01*
X0162200Y0107400D01*
X0162200Y0112200D01*
X0162200Y0112200D01*
X0169600Y0112200D01*
X0169600Y0111822D01*
X0169482Y0111076D01*
X0169248Y0110357D01*
X0168905Y0109684D01*
X0168461Y0109073D01*
X0167927Y0108539D01*
X0167316Y0108095D01*
X0166643Y0107752D01*
X0169134Y0110133D02*
X0176776Y0110133D01*
X0175640Y0112532D02*
X0169600Y0112532D01*
X0175529Y0114734D02*
X0175529Y0114734D01*
X0170481Y0121000D02*
X0169715Y0121000D01*
X0169800Y0121205D01*
X0169800Y0123195D01*
X0169039Y0125032D01*
X0167632Y0126439D01*
X0165795Y0127200D01*
X0167632Y0127961D01*
X0169039Y0129368D01*
X0169800Y0131205D01*
X0169800Y0133195D01*
X0169039Y0135032D01*
X0167632Y0136439D01*
X0165795Y0137200D01*
X0158605Y0137200D01*
X0156768Y0136439D01*
X0155361Y0135032D01*
X0154600Y0133195D01*
X0154600Y0131205D01*
X0155361Y0129368D01*
X0156768Y0127961D01*
X0158605Y0127200D01*
X0165795Y0127200D01*
X0158605Y0127200D01*
X0156768Y0126439D01*
X0155361Y0125032D01*
X0154600Y0123195D01*
X0154600Y0121205D01*
X0154685Y0121000D01*
X0146204Y0121000D01*
X0144734Y0120391D01*
X0139137Y0114794D01*
X0139039Y0115032D01*
X0137632Y0116439D01*
X0135795Y0117200D01*
X0137632Y0117961D01*
X0139039Y0119368D01*
X0139800Y0121205D01*
X0139800Y0123195D01*
X0139039Y0125032D01*
X0137632Y0126439D01*
X0135795Y0127200D01*
X0137632Y0127961D01*
X0139039Y0129368D01*
X0139800Y0131205D01*
X0139800Y0133195D01*
X0139701Y0133433D01*
X0155687Y0149419D01*
X0155939Y0149073D01*
X0156473Y0148539D01*
X0157084Y0148095D01*
X0157757Y0147752D01*
X0158476Y0147518D01*
X0159222Y0147400D01*
X0162200Y0147400D01*
X0165178Y0147400D01*
X0165924Y0147518D01*
X0166643Y0147752D01*
X0167316Y0148095D01*
X0167927Y0148539D01*
X0168461Y0149073D01*
X0168713Y0149419D01*
X0193012Y0125119D01*
X0194483Y0124510D01*
X0196074Y0124510D01*
X0199495Y0124510D01*
X0199495Y0123739D01*
X0202424Y0120810D01*
X0206566Y0120810D01*
X0209495Y0123739D01*
X0209495Y0127881D01*
X0209066Y0128310D01*
X0211566Y0128310D01*
X0212566Y0129310D01*
X0218009Y0129310D01*
X0218109Y0129210D01*
X0222251Y0129210D01*
X0225180Y0132139D01*
X0225180Y0135010D01*
X0275180Y0135010D01*
X0275180Y0134867D01*
X0262818Y0122505D01*
X0258645Y0122505D01*
X0257175Y0121896D01*
X0256050Y0120771D01*
X0251745Y0116466D01*
X0237001Y0116466D01*
X0235712Y0117755D01*
X0233419Y0118705D01*
X0230937Y0118705D01*
X0228644Y0117755D01*
X0226889Y0116000D01*
X0225940Y0113707D01*
X0225940Y0111225D01*
X0226889Y0108932D01*
X0228644Y0107177D01*
X0230937Y0106228D01*
X0233419Y0106228D01*
X0235712Y0107177D01*
X0237001Y0108466D01*
X0254198Y0108466D01*
X0255668Y0109075D01*
X0256479Y0109887D01*
X0256777Y0109301D01*
X0257336Y0108532D01*
X0257918Y0107950D01*
X0205615Y0055647D01*
X0197560Y0063702D01*
X0197560Y0072584D01*
X0198560Y0073584D01*
X0198560Y0077726D01*
X0197560Y0078726D01*
X0197560Y0101216D01*
X0196951Y0102686D01*
X0195826Y0103811D01*
X0185640Y0113997D01*
X0185640Y0114846D01*
X0192761Y0107724D01*
X0193887Y0106599D01*
X0195357Y0105990D01*
X0202544Y0105990D01*
X0203544Y0104990D01*
X0207686Y0104990D01*
X0210615Y0107919D01*
X0210615Y0112061D01*
X0207686Y0114990D01*
X0203544Y0114990D01*
X0202544Y0113990D01*
X0197809Y0113990D01*
X0187593Y0124206D01*
X0186468Y0125331D01*
X0184998Y0125940D01*
X0176282Y0125940D01*
X0174812Y0125331D01*
X0170481Y0121000D01*
X0169800Y0122126D02*
X0171606Y0122126D01*
X0169249Y0124524D02*
X0174005Y0124524D01*
X0168992Y0129321D02*
X0188810Y0129321D01*
X0186412Y0131720D02*
X0169800Y0131720D01*
X0169417Y0134118D02*
X0184013Y0134118D01*
X0181615Y0136517D02*
X0167444Y0136517D01*
X0166643Y0137752D02*
X0167316Y0138095D01*
X0167927Y0138539D01*
X0168461Y0139073D01*
X0168905Y0139684D01*
X0169248Y0140357D01*
X0169482Y0141076D01*
X0169600Y0141822D01*
X0169600Y0142200D01*
X0169600Y0142578D01*
X0169482Y0143324D01*
X0169248Y0144043D01*
X0168905Y0144716D01*
X0168461Y0145327D01*
X0167927Y0145861D01*
X0167316Y0146305D01*
X0166643Y0146648D01*
X0165924Y0146882D01*
X0165178Y0147000D01*
X0162200Y0147000D01*
X0162200Y0142200D01*
X0162200Y0142200D01*
X0169600Y0142200D01*
X0162200Y0142200D01*
X0162200Y0142200D01*
X0162200Y0137400D01*
X0165178Y0137400D01*
X0165924Y0137518D01*
X0166643Y0137752D01*
X0168303Y0138915D02*
X0179216Y0138915D01*
X0176818Y0141314D02*
X0169519Y0141314D01*
X0169356Y0143712D02*
X0174419Y0143712D01*
X0172021Y0146111D02*
X0167584Y0146111D01*
X0167886Y0148509D02*
X0169622Y0148509D01*
X0162200Y0148509D02*
X0162200Y0148509D01*
X0162200Y0147400D02*
X0162200Y0152200D01*
X0162200Y0152200D01*
X0162200Y0147400D01*
X0162200Y0147000D02*
X0159222Y0147000D01*
X0158476Y0146882D01*
X0157757Y0146648D01*
X0157084Y0146305D01*
X0156473Y0145861D01*
X0155939Y0145327D01*
X0155495Y0144716D01*
X0155152Y0144043D01*
X0154918Y0143324D01*
X0154800Y0142578D01*
X0154800Y0142200D01*
X0162200Y0142200D01*
X0162200Y0142200D01*
X0162200Y0142200D01*
X0162200Y0147000D01*
X0162200Y0146111D02*
X0162200Y0146111D01*
X0162200Y0143712D02*
X0162200Y0143712D01*
X0162200Y0142200D02*
X0154800Y0142200D01*
X0154800Y0141822D01*
X0154918Y0141076D01*
X0155152Y0140357D01*
X0155495Y0139684D01*
X0155939Y0139073D01*
X0156473Y0138539D01*
X0157084Y0138095D01*
X0157757Y0137752D01*
X0158476Y0137518D01*
X0159222Y0137400D01*
X0162200Y0137400D01*
X0162200Y0142200D01*
X0162200Y0141314D02*
X0162200Y0141314D01*
X0162200Y0138915D02*
X0162200Y0138915D01*
X0156956Y0136517D02*
X0142785Y0136517D01*
X0145184Y0138915D02*
X0156097Y0138915D01*
X0154881Y0141314D02*
X0147582Y0141314D01*
X0149981Y0143712D02*
X0155044Y0143712D01*
X0156816Y0146111D02*
X0152379Y0146111D01*
X0154778Y0148509D02*
X0156514Y0148509D01*
X0162200Y0150908D02*
X0162200Y0150908D01*
X0153058Y0158103D02*
X0147400Y0158103D01*
X0147400Y0160502D02*
X0154891Y0160502D01*
X0154600Y0162900D02*
X0148557Y0162900D01*
X0150956Y0165299D02*
X0155628Y0165299D01*
X0153354Y0167697D02*
X0215540Y0167697D01*
X0215540Y0167804D02*
X0215540Y0160924D01*
X0216549Y0159176D01*
X0218297Y0158167D01*
X0221265Y0158167D01*
X0222258Y0158578D01*
X0223017Y0159337D01*
X0223416Y0160300D01*
X0224286Y0160300D01*
X0225172Y0160667D01*
X0226057Y0160300D01*
X0227131Y0160300D01*
X0227934Y0160633D01*
X0228737Y0160300D01*
X0229811Y0160300D01*
X0230378Y0160535D01*
X0230946Y0160300D01*
X0233914Y0160300D01*
X0234972Y0160911D01*
X0235172Y0160711D01*
X0236165Y0160300D01*
X0239359Y0160300D01*
X0240314Y0160852D01*
X0240337Y0160825D01*
X0241298Y0160345D01*
X0242369Y0160269D01*
X0243388Y0160608D01*
X0243798Y0160964D01*
X0244051Y0160711D01*
X0245043Y0160300D01*
X0246118Y0160300D01*
X0247110Y0160711D01*
X0247869Y0161471D01*
X0248280Y0162463D01*
X0248280Y0169937D01*
X0247923Y0170800D01*
X0248439Y0170800D01*
X0249431Y0171211D01*
X0249725Y0171505D01*
X0249737Y0171499D01*
X0249167Y0170929D01*
X0248756Y0169937D01*
X0248756Y0168507D01*
X0248991Y0167941D01*
X0248934Y0167804D01*
X0248934Y0162463D01*
X0249345Y0161471D01*
X0250104Y0160711D01*
X0251097Y0160300D01*
X0252171Y0160300D01*
X0252974Y0160633D01*
X0253777Y0160300D01*
X0254851Y0160300D01*
X0255736Y0160667D01*
X0256622Y0160300D01*
X0257696Y0160300D01*
X0258688Y0160711D01*
X0259161Y0161183D01*
X0260691Y0160300D01*
X0263090Y0160300D01*
X0265168Y0161500D01*
X0266368Y0163578D01*
X0266368Y0169937D01*
X0265964Y0170913D01*
X0266237Y0170800D01*
X0267311Y0170800D01*
X0267659Y0170944D01*
X0267644Y0170929D01*
X0267233Y0169937D01*
X0267233Y0162463D01*
X0267644Y0161471D01*
X0268404Y0160711D01*
X0269396Y0160300D01*
X0272720Y0160300D01*
X0274468Y0161309D01*
X0274468Y0161309D01*
X0274550Y0161450D01*
X0274969Y0161031D01*
X0273876Y0160400D01*
X0273875Y0160400D01*
X0272676Y0158322D01*
X0272676Y0153078D01*
X0273875Y0151000D01*
X0273875Y0151000D01*
X0273876Y0151000D01*
X0275954Y0149800D01*
X0277691Y0149800D01*
X0279468Y0149800D01*
X0280461Y0150211D01*
X0281220Y0150971D01*
X0281631Y0151963D01*
X0281631Y0152872D01*
X0282025Y0152644D01*
X0282302Y0152644D01*
X0282302Y0151963D01*
X0282713Y0150971D01*
X0283473Y0150211D01*
X0284465Y0149800D01*
X0285539Y0149800D01*
X0286532Y0150211D01*
X0286809Y0150488D01*
X0288001Y0149800D01*
X0290247Y0149800D01*
X0292353Y0150678D01*
X0292371Y0150696D01*
X0293922Y0149800D01*
X0295659Y0149800D01*
X0295659Y0149800D01*
X0297437Y0149800D01*
X0298429Y0150211D01*
X0299189Y0150971D01*
X0299600Y0151963D01*
X0299600Y0159437D01*
X0299189Y0160429D01*
X0298429Y0161189D01*
X0298099Y0161326D01*
X0298400Y0161500D01*
X0299600Y0163578D01*
X0299600Y0164241D01*
X0299600Y0168822D01*
X0298400Y0170900D01*
X0298099Y0171074D01*
X0298429Y0171211D01*
X0299189Y0171971D01*
X0299600Y0172963D01*
X0299600Y0174037D01*
X0299189Y0175029D01*
X0298429Y0175789D01*
X0297467Y0176188D01*
X0297467Y0180437D01*
X0297056Y0181429D01*
X0296296Y0182189D01*
X0295304Y0182600D01*
X0294230Y0182600D01*
X0293237Y0182189D01*
X0292478Y0181429D01*
X0292079Y0180467D01*
X0290168Y0180467D01*
X0289281Y0180467D01*
X0287859Y0179645D01*
X0286436Y0180467D01*
X0284198Y0180467D01*
X0283800Y0181429D01*
X0283040Y0182189D01*
X0282048Y0182600D01*
X0280974Y0182600D01*
X0279981Y0182189D01*
X0279222Y0181429D01*
X0278841Y0180509D01*
X0278816Y0180515D01*
X0277753Y0180364D01*
X0276829Y0179816D01*
X0276184Y0178957D01*
X0275918Y0177916D01*
X0276069Y0176853D01*
X0276617Y0175929D01*
X0276817Y0175778D01*
X0276029Y0174289D01*
X0275928Y0173219D01*
X0276244Y0172193D01*
X0276928Y0171365D01*
X0277878Y0170862D01*
X0278947Y0170761D01*
X0279974Y0171077D01*
X0280084Y0171169D01*
X0280974Y0170800D01*
X0281763Y0170800D01*
X0281418Y0169967D01*
X0279863Y0169967D01*
X0278642Y0169261D01*
X0278348Y0169556D01*
X0277355Y0169967D01*
X0274148Y0169967D01*
X0273317Y0169622D01*
X0272720Y0169967D01*
X0272621Y0169967D01*
X0272276Y0170800D01*
X0273361Y0170800D01*
X0274353Y0171211D01*
X0275113Y0171971D01*
X0275524Y0172963D01*
X0275524Y0180437D01*
X0275113Y0181429D01*
X0274353Y0182189D01*
X0273361Y0182600D01*
X0269941Y0182600D01*
X0268028Y0181495D01*
X0267411Y0180425D01*
X0267311Y0180467D01*
X0264104Y0180467D01*
X0263570Y0180246D01*
X0263037Y0180467D01*
X0261963Y0180467D01*
X0261078Y0180100D01*
X0260192Y0180467D01*
X0259118Y0180467D01*
X0258984Y0180411D01*
X0258302Y0181591D01*
X0256554Y0182600D01*
X0256082Y0182600D01*
X0254652Y0182600D01*
X0253660Y0182189D01*
X0252900Y0181429D01*
X0252502Y0180467D01*
X0250947Y0180467D01*
X0249725Y0179761D01*
X0249431Y0180056D01*
X0248439Y0180467D01*
X0245231Y0180467D01*
X0244400Y0180122D01*
X0243804Y0180467D01*
X0243705Y0180467D01*
X0243306Y0181429D01*
X0242546Y0182189D01*
X0241554Y0182600D01*
X0240480Y0182600D01*
X0239488Y0182189D01*
X0238728Y0181429D01*
X0238317Y0180437D01*
X0238317Y0172963D01*
X0238728Y0171971D01*
X0239488Y0171211D01*
X0240469Y0170804D01*
X0239936Y0169880D01*
X0239728Y0169967D01*
X0237768Y0169967D01*
X0236759Y0169967D01*
X0235337Y0169145D01*
X0233914Y0169967D01*
X0232140Y0169967D01*
X0231741Y0170929D01*
X0230981Y0171689D01*
X0229989Y0172100D01*
X0228559Y0172100D01*
X0227567Y0171689D01*
X0226807Y0170929D01*
X0226409Y0169967D01*
X0223807Y0169967D01*
X0222417Y0169164D01*
X0221027Y0169967D01*
X0217702Y0169967D01*
X0216710Y0169556D01*
X0215951Y0168796D01*
X0215540Y0167804D01*
X0215540Y0165299D02*
X0173163Y0165299D01*
X0175562Y0162900D02*
X0215540Y0162900D01*
X0215783Y0160502D02*
X0177960Y0160502D01*
X0180359Y0158103D02*
X0272676Y0158103D01*
X0272676Y0155705D02*
X0182757Y0155705D01*
X0185156Y0153306D02*
X0272676Y0153306D01*
X0274035Y0150908D02*
X0187554Y0150908D01*
X0189953Y0148509D02*
X0306600Y0148509D01*
X0306600Y0146111D02*
X0192351Y0146111D01*
X0194750Y0143712D02*
X0306600Y0143712D01*
X0306600Y0141314D02*
X0285521Y0141314D01*
X0285559Y0141276D02*
X0285559Y0141276D01*
X0287920Y0138915D02*
X0306600Y0138915D01*
X0306600Y0136517D02*
X0288980Y0136517D01*
X0288980Y0134118D02*
X0306600Y0134118D01*
X0306600Y0131720D02*
X0288980Y0131720D01*
X0288980Y0129321D02*
X0306600Y0129321D01*
X0306600Y0126923D02*
X0288980Y0126923D01*
X0288196Y0124524D02*
X0306600Y0124524D01*
X0306600Y0122126D02*
X0285798Y0122126D01*
X0283399Y0119727D02*
X0306600Y0119727D01*
X0306600Y0117329D02*
X0281001Y0117329D01*
X0278602Y0114930D02*
X0306600Y0114930D01*
X0306600Y0112532D02*
X0276204Y0112532D01*
X0273805Y0110133D02*
X0306600Y0110133D01*
X0306600Y0107734D02*
X0271407Y0107734D01*
X0269008Y0105336D02*
X0306600Y0105336D01*
X0306600Y0102937D02*
X0266470Y0102937D01*
X0261821Y0100539D02*
X0306600Y0100539D01*
X0306600Y0098140D02*
X0259422Y0098140D01*
X0257024Y0095742D02*
X0306600Y0095742D01*
X0306600Y0093343D02*
X0254625Y0093343D01*
X0252227Y0090945D02*
X0306600Y0090945D01*
X0306600Y0088546D02*
X0249828Y0088546D01*
X0247430Y0086148D02*
X0306600Y0086148D01*
X0306600Y0083749D02*
X0245031Y0083749D01*
X0242633Y0081351D02*
X0306600Y0081351D01*
X0306600Y0078952D02*
X0240234Y0078952D01*
X0237836Y0076554D02*
X0306600Y0076554D01*
X0306600Y0074155D02*
X0235437Y0074155D01*
X0233039Y0071757D02*
X0306600Y0071757D01*
X0306600Y0069358D02*
X0230640Y0069358D01*
X0228242Y0066960D02*
X0306600Y0066960D01*
X0306600Y0064561D02*
X0225843Y0064561D01*
X0223445Y0062163D02*
X0306600Y0062163D01*
X0306600Y0059764D02*
X0221046Y0059764D01*
X0218648Y0057366D02*
X0306600Y0057366D01*
X0306600Y0054967D02*
X0216249Y0054967D01*
X0213851Y0052569D02*
X0306600Y0052569D01*
X0306600Y0050170D02*
X0211452Y0050170D01*
X0210468Y0047772D02*
X0306600Y0047772D01*
X0306600Y0045373D02*
X0208069Y0045373D01*
X0203161Y0045373D02*
X0184825Y0045373D01*
X0182427Y0042975D02*
X0306600Y0042975D01*
X0306600Y0040576D02*
X0180028Y0040576D01*
X0177630Y0038178D02*
X0195773Y0038178D01*
X0193550Y0035779D02*
X0175231Y0035779D01*
X0172276Y0033381D02*
X0193550Y0033381D01*
X0204627Y0038178D02*
X0226906Y0038178D01*
X0237450Y0038178D02*
X0256670Y0038178D01*
X0255129Y0035779D02*
X0238991Y0035779D01*
X0239499Y0033381D02*
X0254621Y0033381D01*
X0254893Y0030982D02*
X0239227Y0030982D01*
X0238019Y0028584D02*
X0256101Y0028584D01*
X0267783Y0028584D02*
X0289652Y0028584D01*
X0299378Y0028584D02*
X0306600Y0028584D01*
X0306600Y0030982D02*
X0301165Y0030982D01*
X0301165Y0033381D02*
X0306600Y0033381D01*
X0306600Y0035779D02*
X0301165Y0035779D01*
X0298867Y0038178D02*
X0306600Y0038178D01*
X0290163Y0038178D02*
X0267214Y0038178D01*
X0226337Y0028584D02*
X0204988Y0028584D01*
X0200762Y0047772D02*
X0188638Y0047772D01*
X0190424Y0050170D02*
X0199778Y0050170D01*
X0197379Y0052569D02*
X0192823Y0052569D01*
X0201498Y0059764D02*
X0209732Y0059764D01*
X0207334Y0057366D02*
X0203896Y0057366D01*
X0199099Y0062163D02*
X0212131Y0062163D01*
X0214529Y0064561D02*
X0197560Y0064561D01*
X0197560Y0066960D02*
X0216928Y0066960D01*
X0219326Y0069358D02*
X0197560Y0069358D01*
X0197560Y0071757D02*
X0221725Y0071757D01*
X0224123Y0074155D02*
X0198560Y0074155D01*
X0198560Y0076554D02*
X0226522Y0076554D01*
X0228921Y0078952D02*
X0197560Y0078952D01*
X0197560Y0081351D02*
X0231319Y0081351D01*
X0233718Y0083749D02*
X0197560Y0083749D01*
X0197560Y0086148D02*
X0236116Y0086148D01*
X0238515Y0088546D02*
X0197560Y0088546D01*
X0197560Y0090945D02*
X0240913Y0090945D01*
X0243312Y0093343D02*
X0197560Y0093343D01*
X0197560Y0095742D02*
X0245710Y0095742D01*
X0248109Y0098140D02*
X0197560Y0098140D01*
X0197560Y0100539D02*
X0250507Y0100539D01*
X0252906Y0102937D02*
X0196699Y0102937D01*
X0194301Y0105336D02*
X0203198Y0105336D01*
X0208032Y0105336D02*
X0255304Y0105336D01*
X0257703Y0107734D02*
X0236269Y0107734D01*
X0228087Y0107734D02*
X0210431Y0107734D01*
X0210615Y0110133D02*
X0226392Y0110133D01*
X0225940Y0112532D02*
X0210145Y0112532D01*
X0207746Y0114930D02*
X0226446Y0114930D01*
X0228218Y0117329D02*
X0194471Y0117329D01*
X0192072Y0119727D02*
X0255006Y0119727D01*
X0252607Y0117329D02*
X0236139Y0117329D01*
X0222362Y0129321D02*
X0269634Y0129321D01*
X0267236Y0126923D02*
X0209495Y0126923D01*
X0209495Y0124524D02*
X0264837Y0124524D01*
X0257729Y0122126D02*
X0207882Y0122126D01*
X0201108Y0122126D02*
X0189674Y0122126D01*
X0187593Y0124206D02*
X0187593Y0124206D01*
X0187275Y0124524D02*
X0194449Y0124524D01*
X0191209Y0126923D02*
X0166464Y0126923D01*
X0157936Y0126923D02*
X0136464Y0126923D01*
X0135795Y0127200D02*
X0133469Y0127200D01*
X0133469Y0127200D01*
X0135795Y0127200D01*
X0138992Y0129321D02*
X0155408Y0129321D01*
X0154600Y0131720D02*
X0139800Y0131720D01*
X0140387Y0134118D02*
X0154983Y0134118D01*
X0155151Y0124524D02*
X0139249Y0124524D01*
X0139800Y0122126D02*
X0154600Y0122126D01*
X0144070Y0119727D02*
X0139188Y0119727D01*
X0141672Y0117329D02*
X0136105Y0117329D01*
X0135795Y0117200D02*
X0133469Y0117200D01*
X0133469Y0117200D01*
X0135795Y0117200D01*
X0139081Y0114930D02*
X0139273Y0114930D01*
X0145790Y0110133D02*
X0155266Y0110133D01*
X0155152Y0110357D02*
X0155495Y0109684D01*
X0155939Y0109073D01*
X0156473Y0108539D01*
X0157084Y0108095D01*
X0157757Y0107752D01*
X0158476Y0107518D01*
X0159222Y0107400D01*
X0162200Y0107400D01*
X0162200Y0112200D01*
X0162200Y0112200D01*
X0162200Y0112200D01*
X0154800Y0112200D01*
X0154800Y0111822D01*
X0154918Y0111076D01*
X0155152Y0110357D01*
X0154800Y0112532D02*
X0148188Y0112532D01*
X0143391Y0107734D02*
X0157810Y0107734D01*
X0158476Y0106882D02*
X0159222Y0107000D01*
X0162200Y0107000D01*
X0162200Y0102200D01*
X0162200Y0102200D01*
X0162200Y0102200D01*
X0154800Y0102200D01*
X0154800Y0102578D01*
X0154918Y0103324D01*
X0155152Y0104043D01*
X0155495Y0104716D01*
X0155939Y0105327D01*
X0156473Y0105861D01*
X0157084Y0106305D01*
X0157757Y0106648D01*
X0158476Y0106882D01*
X0155948Y0105336D02*
X0140993Y0105336D01*
X0139543Y0102937D02*
X0154857Y0102937D01*
X0154800Y0102200D02*
X0154800Y0101822D01*
X0154918Y0101076D01*
X0155152Y0100357D01*
X0155495Y0099684D01*
X0155939Y0099073D01*
X0156473Y0098539D01*
X0157084Y0098095D01*
X0157757Y0097752D01*
X0158476Y0097518D01*
X0159222Y0097400D01*
X0162200Y0097400D01*
X0162200Y0102200D01*
X0154800Y0102200D01*
X0155093Y0100539D02*
X0139307Y0100539D01*
X0139248Y0100357D02*
X0139482Y0101076D01*
X0139600Y0101822D01*
X0139600Y0102200D01*
X0132200Y0102200D01*
X0132200Y0102200D01*
X0132200Y0097400D01*
X0135178Y0097400D01*
X0135924Y0097518D01*
X0136643Y0097752D01*
X0137316Y0098095D01*
X0137927Y0098539D01*
X0138461Y0099073D01*
X0138905Y0099684D01*
X0139248Y0100357D01*
X0137379Y0098140D02*
X0157021Y0098140D01*
X0162200Y0098140D02*
X0162200Y0098140D01*
X0162200Y0100539D02*
X0162200Y0100539D01*
X0162200Y0102937D02*
X0162200Y0102937D01*
X0162200Y0105336D02*
X0162200Y0105336D01*
X0162200Y0107734D02*
X0162200Y0107734D01*
X0162200Y0110133D02*
X0162200Y0110133D01*
X0187105Y0112532D02*
X0187954Y0112532D01*
X0189504Y0110133D02*
X0190352Y0110133D01*
X0191902Y0107734D02*
X0192751Y0107734D01*
X0192761Y0107724D02*
X0192761Y0107724D01*
X0196869Y0114930D02*
X0203484Y0114930D01*
X0224761Y0131720D02*
X0272033Y0131720D01*
X0274431Y0134118D02*
X0225180Y0134118D01*
X0205054Y0141314D02*
X0197148Y0141314D01*
X0199547Y0138915D02*
X0202655Y0138915D01*
X0216549Y0159176D02*
X0216549Y0159176D01*
X0216549Y0159176D01*
X0224773Y0160502D02*
X0225570Y0160502D01*
X0227618Y0160502D02*
X0228250Y0160502D01*
X0230298Y0160502D02*
X0230459Y0160502D01*
X0234264Y0160502D02*
X0235677Y0160502D01*
X0239708Y0160502D02*
X0240984Y0160502D01*
X0243068Y0160502D02*
X0244556Y0160502D01*
X0246605Y0160502D02*
X0250610Y0160502D01*
X0252658Y0160502D02*
X0253290Y0160502D01*
X0255338Y0160502D02*
X0256135Y0160502D01*
X0258183Y0160502D02*
X0260341Y0160502D01*
X0263440Y0160502D02*
X0268909Y0160502D01*
X0267233Y0162900D02*
X0265977Y0162900D01*
X0265168Y0161500D02*
X0265168Y0161500D01*
X0265168Y0161500D01*
X0266368Y0165299D02*
X0267233Y0165299D01*
X0267233Y0167697D02*
X0266368Y0167697D01*
X0266303Y0170096D02*
X0267299Y0170096D01*
X0272568Y0170096D02*
X0281472Y0170096D01*
X0276151Y0172494D02*
X0275330Y0172494D01*
X0275524Y0174893D02*
X0276349Y0174893D01*
X0276007Y0177291D02*
X0275524Y0177291D01*
X0275524Y0179690D02*
X0276734Y0179690D01*
X0274454Y0182088D02*
X0279881Y0182088D01*
X0283141Y0182088D02*
X0293137Y0182088D01*
X0296397Y0182088D02*
X0306600Y0182088D01*
X0306600Y0179690D02*
X0297467Y0179690D01*
X0297467Y0177291D02*
X0306600Y0177291D01*
X0306600Y0174893D02*
X0299246Y0174893D01*
X0299406Y0172494D02*
X0306600Y0172494D01*
X0306600Y0170096D02*
X0298865Y0170096D01*
X0298400Y0170900D02*
X0298400Y0170900D01*
X0298400Y0170900D01*
X0299600Y0167697D02*
X0306600Y0167697D01*
X0306600Y0165299D02*
X0299600Y0165299D01*
X0299600Y0164241D02*
X0299600Y0164241D01*
X0299209Y0162900D02*
X0306600Y0162900D01*
X0306600Y0160502D02*
X0299117Y0160502D01*
X0298400Y0161500D02*
X0298400Y0161500D01*
X0298400Y0161500D01*
X0299600Y0158103D02*
X0306600Y0158103D01*
X0306600Y0155705D02*
X0299600Y0155705D01*
X0299600Y0153306D02*
X0306600Y0153306D01*
X0306600Y0150908D02*
X0299126Y0150908D01*
X0292353Y0150678D02*
X0292353Y0150678D01*
X0282776Y0150908D02*
X0281157Y0150908D01*
X0277691Y0149800D02*
X0277691Y0149800D01*
X0273875Y0160400D02*
X0273875Y0160400D01*
X0274051Y0160502D02*
X0273070Y0160502D01*
X0274468Y0161309D02*
X0274468Y0161309D01*
X0248934Y0162900D02*
X0248280Y0162900D01*
X0248280Y0165299D02*
X0248934Y0165299D01*
X0248934Y0167697D02*
X0248280Y0167697D01*
X0248215Y0170096D02*
X0248822Y0170096D01*
X0240060Y0170096D02*
X0232086Y0170096D01*
X0226462Y0170096D02*
X0184467Y0170096D01*
X0185640Y0172494D02*
X0238511Y0172494D01*
X0238317Y0174893D02*
X0185640Y0174893D01*
X0183760Y0177291D02*
X0238317Y0177291D01*
X0238317Y0179690D02*
X0088427Y0179690D01*
X0088895Y0177291D02*
X0152427Y0177291D01*
X0149236Y0174893D02*
X0139926Y0174893D01*
X0142325Y0172494D02*
X0146837Y0172494D01*
X0146124Y0155705D02*
X0150660Y0155705D01*
X0148261Y0153306D02*
X0143725Y0153306D01*
X0145863Y0150908D02*
X0141327Y0150908D01*
X0143464Y0148509D02*
X0138180Y0148509D01*
X0137960Y0146111D02*
X0141066Y0146111D01*
X0135795Y0147200D02*
X0128605Y0147200D01*
X0126768Y0147961D01*
X0125361Y0149368D01*
X0124600Y0151205D01*
X0124600Y0153195D01*
X0124685Y0153400D01*
X0116866Y0153400D01*
X0118785Y0151481D01*
X0118785Y0150067D01*
X0124910Y0143942D01*
X0125361Y0145032D01*
X0126768Y0146439D01*
X0128605Y0147200D01*
X0135795Y0147200D01*
X0126440Y0146111D02*
X0122741Y0146111D01*
X0120343Y0148509D02*
X0126220Y0148509D01*
X0124723Y0150908D02*
X0118785Y0150908D01*
X0116960Y0153306D02*
X0124646Y0153306D01*
X0097464Y0136517D02*
X0084837Y0136517D01*
X0083743Y0138915D02*
X0096328Y0138915D01*
X0099863Y0134118D02*
X0084604Y0134118D01*
X0086595Y0131720D02*
X0102261Y0131720D01*
X0104660Y0129321D02*
X0088994Y0129321D01*
X0091393Y0126923D02*
X0107058Y0126923D01*
X0109457Y0124524D02*
X0093791Y0124524D01*
X0096190Y0122126D02*
X0111855Y0122126D01*
X0114254Y0119727D02*
X0098588Y0119727D01*
X0100987Y0117329D02*
X0116652Y0117329D01*
X0118200Y0114930D02*
X0103385Y0114930D01*
X0105784Y0112532D02*
X0118200Y0112532D01*
X0118200Y0110133D02*
X0108182Y0110133D01*
X0110581Y0107734D02*
X0118200Y0107734D01*
X0118643Y0105336D02*
X0112979Y0105336D01*
X0115378Y0102937D02*
X0124857Y0102937D01*
X0124800Y0102200D02*
X0124800Y0101822D01*
X0124918Y0101076D01*
X0125152Y0100357D01*
X0125495Y0099684D01*
X0125939Y0099073D01*
X0126473Y0098539D01*
X0127084Y0098095D01*
X0127757Y0097752D01*
X0128476Y0097518D01*
X0129222Y0097400D01*
X0132200Y0097400D01*
X0132200Y0102200D01*
X0132200Y0102200D01*
X0132200Y0102200D01*
X0124800Y0102200D01*
X0125093Y0100539D02*
X0117776Y0100539D01*
X0120175Y0098140D02*
X0127021Y0098140D01*
X0132200Y0098140D02*
X0132200Y0098140D01*
X0132200Y0100539D02*
X0132200Y0100539D01*
X0082277Y0105336D02*
X0045993Y0105336D01*
X0043594Y0102937D02*
X0048533Y0102937D01*
X0046134Y0100539D02*
X0041196Y0100539D01*
X0038797Y0098140D02*
X0045550Y0098140D01*
X0045550Y0095742D02*
X0037200Y0095742D01*
X0035414Y0093343D02*
X0046652Y0093343D01*
X0073900Y0170775D02*
X0076838Y0170775D01*
X0076838Y0170775D01*
X0073900Y0170775D01*
X0071105Y0172494D02*
X0070483Y0172494D01*
X0086227Y0182088D02*
X0239387Y0182088D01*
X0242647Y0182088D02*
X0253559Y0182088D01*
X0256082Y0182600D02*
X0256082Y0182600D01*
X0257440Y0182088D02*
X0269055Y0182088D01*
X0268028Y0181495D02*
X0268028Y0181495D01*
X0268028Y0181495D01*
X0258302Y0181591D02*
X0258302Y0181591D01*
X0258302Y0181591D01*
X0236759Y0169967D02*
X0236759Y0169967D01*
X0287782Y0179690D02*
X0287935Y0179690D01*
X0289281Y0180467D02*
X0289281Y0180467D01*
X0306600Y0184487D02*
X0083092Y0184487D01*
M02*
