G04 EAGLE Gerber RS-274X export*
G75*
%MOMM*%
%FSLAX34Y34*%
%LPD*%
%INTop Copper*%
%IPPOS*%
%AMOC8*
5,1,8,0,0,1.08239X$1,22.5*%
G01*
%ADD10C,2.108200*%
%ADD11R,0.800000X1.800000*%
%ADD12R,2.100000X3.000000*%
%ADD13C,5.842000*%
%ADD14R,0.800000X2.000000*%
%ADD15C,0.152400*%
%ADD16C,0.508000*%
%ADD17C,0.609600*%
%ADD18C,2.540000*%


D10*
X1203288Y206014D02*
X1203288Y176296D01*
X1198970Y176296D01*
X1198970Y206014D01*
X1203288Y206014D01*
X1203288Y196324D02*
X1198970Y196324D01*
X1233288Y206014D02*
X1233288Y176296D01*
X1228970Y176296D01*
X1228970Y206014D01*
X1233288Y206014D01*
X1233288Y196324D02*
X1228970Y196324D01*
X1003288Y202214D02*
X1003288Y172496D01*
X998970Y172496D01*
X998970Y202214D01*
X1003288Y202214D01*
X1003288Y192524D02*
X998970Y192524D01*
X1033288Y202214D02*
X1033288Y172496D01*
X1028970Y172496D01*
X1028970Y202214D01*
X1033288Y202214D01*
X1033288Y192524D02*
X1028970Y192524D01*
X753288Y178696D02*
X753288Y208414D01*
X753288Y178696D02*
X748970Y178696D01*
X748970Y208414D01*
X753288Y208414D01*
X753288Y198724D02*
X748970Y198724D01*
X783288Y208414D02*
X783288Y178696D01*
X778970Y178696D01*
X778970Y208414D01*
X783288Y208414D01*
X783288Y198724D02*
X778970Y198724D01*
X513288Y204614D02*
X513288Y174896D01*
X508970Y174896D01*
X508970Y204614D01*
X513288Y204614D01*
X513288Y194924D02*
X508970Y194924D01*
X543288Y204614D02*
X543288Y174896D01*
X538970Y174896D01*
X538970Y204614D01*
X543288Y204614D01*
X543288Y194924D02*
X538970Y194924D01*
X293288Y181096D02*
X293288Y210814D01*
X293288Y181096D02*
X288970Y181096D01*
X288970Y210814D01*
X293288Y210814D01*
X293288Y201124D02*
X288970Y201124D01*
X323288Y210814D02*
X323288Y181096D01*
X318970Y181096D01*
X318970Y210814D01*
X323288Y210814D01*
X323288Y201124D02*
X318970Y201124D01*
X76288Y208014D02*
X76288Y178296D01*
X71970Y178296D01*
X71970Y208014D01*
X76288Y208014D01*
X76288Y198324D02*
X71970Y198324D01*
X106288Y208014D02*
X106288Y178296D01*
X101970Y178296D01*
X101970Y208014D01*
X106288Y208014D01*
X106288Y198324D02*
X101970Y198324D01*
D11*
X581329Y522655D03*
X568829Y522655D03*
X556329Y522655D03*
X543829Y522655D03*
X531329Y522655D03*
X518829Y522655D03*
X506329Y522655D03*
D12*
X606329Y553905D03*
X481329Y553905D03*
D13*
X649829Y838155D03*
X247329Y838755D03*
X1108429Y277755D03*
X659529Y286755D03*
D14*
X714779Y582655D03*
X727279Y582655D03*
X739779Y582655D03*
X752279Y582655D03*
D12*
X689779Y551405D03*
X777279Y551405D03*
D15*
X506329Y522655D02*
X506329Y520255D01*
D16*
X485713Y499639D01*
X485713Y380639D02*
X423029Y317955D01*
X74029Y317955D01*
X34029Y277955D01*
X34029Y189639D02*
X74029Y149639D01*
X485713Y380639D02*
X485713Y499639D01*
X34029Y277955D02*
X34029Y189639D01*
X1004029Y149639D02*
X1201129Y149639D01*
X1004029Y149639D02*
X752029Y149639D01*
X514029Y149639D01*
X294029Y149639D01*
X84029Y149639D01*
X74029Y149639D01*
X1201129Y149639D02*
X1201129Y191155D01*
D15*
X514029Y186855D02*
X511129Y189755D01*
D16*
X514029Y186855D02*
X514029Y149639D01*
D15*
X294029Y193055D02*
X291129Y195955D01*
D17*
X294029Y193055D02*
X294029Y149639D01*
D15*
X84029Y183255D02*
X74129Y193155D01*
D16*
X84029Y183255D02*
X84029Y149639D01*
D15*
X1001129Y187355D02*
X1004029Y184455D01*
D16*
X1004029Y149639D01*
X751129Y150539D02*
X751129Y193555D01*
D15*
X751129Y150539D02*
X752029Y149639D01*
X581329Y521655D02*
X581329Y522655D01*
X581329Y521655D02*
X578029Y518355D01*
X1231129Y210855D02*
X1234029Y207955D01*
X1231129Y206855D02*
X1231129Y210855D01*
X1231129Y206855D02*
X1231129Y191155D01*
X581329Y262655D02*
X581329Y522655D01*
X738029Y247955D02*
X718029Y227955D01*
X738029Y247955D02*
X860029Y247955D01*
X887029Y220955D01*
X1048029Y220955D01*
X1072029Y196955D01*
X1171029Y196955D01*
X1177029Y202955D02*
X1177029Y222955D01*
X1215029Y222955D01*
X1231129Y206855D01*
X616029Y227955D02*
X581329Y262655D01*
X616029Y227955D02*
X718029Y227955D01*
X1171029Y196955D02*
X1177029Y202955D01*
X568829Y265155D02*
X568829Y522655D01*
X739029Y242955D02*
X720029Y223955D01*
X739029Y242955D02*
X854029Y242955D01*
X880029Y216955D01*
X1031129Y216955D01*
X1034029Y207955D02*
X1034029Y197955D01*
X610029Y223955D02*
X568829Y265155D01*
X610029Y223955D02*
X720029Y223955D01*
X1031129Y216955D02*
X1031129Y187355D01*
X556329Y265655D02*
X556329Y522655D01*
X556329Y265655D02*
X604029Y217955D01*
X721029Y217955D01*
X741029Y237955D02*
X781129Y237955D01*
X741029Y237955D02*
X721029Y217955D01*
X781129Y237955D02*
X781129Y193555D01*
X544029Y187955D02*
X543829Y188155D01*
X541129Y189755D02*
X541129Y519955D01*
X543829Y522655D01*
X531329Y522655D02*
X531329Y395255D01*
X324029Y195955D02*
X321129Y195955D01*
X431029Y294955D02*
X531329Y395255D01*
X431029Y294955D02*
X140029Y294955D01*
X136029Y298955D01*
X100029Y298955D01*
X76029Y274955D01*
X76029Y259955D01*
X116143Y219841D02*
X118601Y219841D01*
X157029Y181413D01*
X157029Y163955D01*
X262029Y163955D01*
X276143Y178069D01*
X276143Y216127D01*
X278029Y218013D01*
X278029Y239955D01*
X306115Y216127D02*
X306115Y213869D01*
X324029Y195955D01*
X282287Y239955D02*
X278029Y239955D01*
X282287Y239955D02*
X306115Y216127D01*
X116143Y219841D02*
X76029Y259955D01*
X104129Y206155D02*
X104129Y193155D01*
X104129Y206155D02*
X81179Y229105D01*
X78129Y304955D02*
X78129Y306955D01*
X433029Y306955D01*
X518829Y392755D02*
X518829Y522655D01*
X518829Y392755D02*
X433029Y306955D01*
X78129Y304955D02*
X47029Y273855D01*
X47029Y241955D01*
X59879Y229105D01*
X81179Y229105D01*
X804029Y431255D02*
X804029Y587955D01*
X794029Y597955D01*
X767579Y597955D01*
X752279Y582655D01*
X804029Y431255D02*
X659529Y286755D01*
X944229Y277755D02*
X1108429Y277755D01*
X824029Y400000D02*
X824029Y607955D01*
X814029Y617955D01*
X764029Y617955D01*
X744029Y597955D01*
X744029Y587955D01*
D18*
X882245Y277755D02*
X944229Y277755D01*
X882245Y277755D02*
X820000Y340000D01*
X820000Y395971D01*
X824029Y400000D01*
D15*
X649829Y838105D02*
X649829Y838155D01*
X726279Y583655D02*
X727279Y582655D01*
X726279Y583655D02*
X726279Y589655D01*
X716279Y599655D01*
X716279Y771655D01*
X649829Y838105D01*
X463229Y838755D02*
X247329Y838755D01*
X463229Y838755D02*
X714029Y587955D01*
D18*
X70000Y540000D02*
X70000Y500000D01*
X70000Y540000D02*
X260000Y540000D01*
X260000Y460000D01*
X330000Y460000D01*
X330000Y510000D01*
X380000Y510000D01*
X379982Y511450D01*
X379930Y512899D01*
X379842Y514346D01*
X379720Y515791D01*
X379563Y517232D01*
X379370Y518669D01*
X379144Y520101D01*
X378882Y521528D01*
X378586Y522947D01*
X378257Y524359D01*
X377893Y525762D01*
X377495Y527157D01*
X377063Y528541D01*
X376599Y529914D01*
X376101Y531276D01*
X375570Y532626D01*
X375008Y533962D01*
X374412Y535284D01*
X373786Y536591D01*
X373127Y537883D01*
X372438Y539159D01*
X371718Y540418D01*
X370968Y541658D01*
X370188Y542881D01*
X369379Y544084D01*
X368541Y545267D01*
X367675Y546430D01*
X366780Y547571D01*
X365859Y548691D01*
X364911Y549787D01*
X363936Y550861D01*
X362936Y551911D01*
X361911Y552936D01*
X360861Y553936D01*
X359787Y554911D01*
X358691Y555859D01*
X357571Y556780D01*
X356430Y557675D01*
X355267Y558541D01*
X354084Y559379D01*
X352881Y560188D01*
X351658Y560968D01*
X350418Y561718D01*
X349159Y562438D01*
X347883Y563127D01*
X346591Y563786D01*
X345284Y564412D01*
X343962Y565008D01*
X342626Y565570D01*
X341276Y566101D01*
X339914Y566599D01*
X338541Y567063D01*
X337157Y567495D01*
X335762Y567893D01*
X334359Y568257D01*
X332947Y568586D01*
X331528Y568882D01*
X330101Y569144D01*
X328669Y569370D01*
X327232Y569563D01*
X325791Y569720D01*
X324346Y569842D01*
X322899Y569930D01*
X321450Y569982D01*
X320000Y570000D01*
X290000Y570000D01*
X289988Y570967D01*
X289953Y571933D01*
X289895Y572897D01*
X289813Y573861D01*
X289708Y574821D01*
X289580Y575780D01*
X289429Y576734D01*
X289255Y577685D01*
X289058Y578631D01*
X288838Y579573D01*
X288595Y580508D01*
X288330Y581438D01*
X288042Y582361D01*
X287732Y583276D01*
X287401Y584184D01*
X287047Y585084D01*
X286672Y585975D01*
X286275Y586856D01*
X285857Y587728D01*
X285418Y588589D01*
X284959Y589439D01*
X284479Y590278D01*
X283979Y591106D01*
X283459Y591921D01*
X282919Y592723D01*
X282361Y593511D01*
X281783Y594287D01*
X281187Y595047D01*
X280573Y595794D01*
X279940Y596525D01*
X279291Y597241D01*
X278624Y597940D01*
X277940Y598624D01*
X277241Y599291D01*
X276525Y599940D01*
X275794Y600573D01*
X275047Y601187D01*
X274287Y601783D01*
X273511Y602361D01*
X272723Y602919D01*
X271921Y603459D01*
X271106Y603979D01*
X270278Y604479D01*
X269439Y604959D01*
X268589Y605418D01*
X267728Y605857D01*
X266856Y606275D01*
X265975Y606672D01*
X265084Y607047D01*
X264184Y607401D01*
X263276Y607732D01*
X262361Y608042D01*
X261438Y608330D01*
X260508Y608595D01*
X259573Y608838D01*
X258631Y609058D01*
X257685Y609255D01*
X256734Y609429D01*
X255780Y609580D01*
X254821Y609708D01*
X253861Y609813D01*
X252897Y609895D01*
X251933Y609953D01*
X250967Y609988D01*
X250000Y610000D01*
X200000Y610000D01*
M02*
