G04 EAGLE Gerber RS-274X export*
G75*
%MOMM*%
%FSLAX34Y34*%
%LPD*%
%IN*%
%IPPOS*%
%AMOC8*
5,1,8,0,0,1.08239X$1,22.5*%
G01*
%ADD10C,0.254000*%


D10*
X0Y0D02*
X1264029Y955D01*
X1264029Y337955D01*
X904029Y337955D01*
X900543Y338107D01*
X897083Y338563D01*
X893676Y339318D01*
X890348Y340367D01*
X887124Y341703D01*
X884029Y343314D01*
X881086Y345189D01*
X878318Y347313D01*
X875745Y349671D01*
X873387Y352243D01*
X871263Y355012D01*
X869388Y357955D01*
X867777Y361050D01*
X866441Y364274D01*
X865392Y367602D01*
X864637Y371009D01*
X864181Y374469D01*
X864029Y377955D01*
X864029Y897955D01*
X863877Y901441D01*
X863421Y904901D01*
X862666Y908308D01*
X861617Y911636D01*
X860281Y914860D01*
X858670Y917955D01*
X856795Y920898D01*
X854671Y923666D01*
X852313Y926239D01*
X849741Y928597D01*
X846972Y930721D01*
X844029Y932596D01*
X840934Y934207D01*
X837710Y935543D01*
X834382Y936592D01*
X830975Y937347D01*
X827515Y937803D01*
X824029Y937955D01*
X124029Y937955D01*
X120543Y937803D01*
X117083Y937347D01*
X113676Y936592D01*
X110348Y935543D01*
X107124Y934207D01*
X104029Y932596D01*
X101086Y930721D01*
X98318Y928597D01*
X95745Y926239D01*
X93387Y923666D01*
X91263Y920898D01*
X89388Y917955D01*
X87777Y914860D01*
X86441Y911636D01*
X85392Y908308D01*
X84637Y904901D01*
X84181Y901441D01*
X84029Y897955D01*
X84029Y757955D01*
X414029Y757955D01*
X417515Y757803D01*
X420975Y757347D01*
X424382Y756592D01*
X427710Y755543D01*
X430934Y754207D01*
X434029Y752596D01*
X436972Y750721D01*
X439741Y748597D01*
X442313Y746239D01*
X444671Y743666D01*
X446795Y740898D01*
X448670Y737955D01*
X450281Y734860D01*
X451617Y731636D01*
X452666Y728308D01*
X453421Y724901D01*
X453877Y721441D01*
X454029Y717955D01*
X454029Y377955D01*
X449472Y375623D01*
X444729Y373698D01*
X439836Y372193D01*
X434831Y371121D01*
X429751Y370489D01*
X424636Y370302D01*
X419523Y370561D01*
X414453Y371266D01*
X409463Y372409D01*
X404593Y373983D01*
X399877Y375975D01*
X395354Y378371D01*
X391056Y381152D01*
X387017Y384297D01*
X383268Y387782D01*
X379836Y391580D01*
X376749Y395663D01*
X374029Y400000D01*
X4029Y450000D01*
X0Y350000D01*
X0Y0D01*
X64129Y38155D02*
X64224Y35976D01*
X64509Y33814D01*
X64981Y31684D01*
X65637Y29604D01*
X66471Y27589D01*
X67479Y25655D01*
X68650Y23815D01*
X69978Y22085D01*
X71452Y20477D01*
X73059Y19004D01*
X74790Y17676D01*
X76629Y16504D01*
X78564Y15497D01*
X80579Y14663D01*
X82659Y14007D01*
X84788Y13535D01*
X86950Y13250D01*
X89129Y13155D01*
X91308Y13250D01*
X93470Y13535D01*
X95600Y14007D01*
X97680Y14663D01*
X99695Y15497D01*
X101629Y16504D01*
X103469Y17676D01*
X105199Y19004D01*
X106807Y20477D01*
X108280Y22085D01*
X109608Y23815D01*
X110780Y25655D01*
X111787Y27589D01*
X112621Y29604D01*
X113277Y31684D01*
X113749Y33814D01*
X114034Y35976D01*
X114129Y38155D01*
X114129Y98155D01*
X114034Y100334D01*
X113749Y102496D01*
X113277Y104625D01*
X112621Y106705D01*
X111787Y108720D01*
X110780Y110655D01*
X109608Y112494D01*
X108280Y114225D01*
X106807Y115832D01*
X105199Y117306D01*
X103469Y118634D01*
X101629Y119805D01*
X99695Y120813D01*
X97680Y121647D01*
X95600Y122303D01*
X93470Y122775D01*
X91308Y123060D01*
X89129Y123155D01*
X86950Y123060D01*
X84788Y122775D01*
X82659Y122303D01*
X80579Y121647D01*
X78564Y120813D01*
X76629Y119805D01*
X74790Y118634D01*
X73059Y117306D01*
X71452Y115832D01*
X69978Y114225D01*
X68650Y112494D01*
X67479Y110655D01*
X66471Y108720D01*
X65637Y106705D01*
X64981Y104625D01*
X64509Y102496D01*
X64224Y100334D01*
X64129Y98155D01*
X64129Y38155D01*
X281129Y40955D02*
X281224Y38776D01*
X281509Y36614D01*
X281981Y34484D01*
X282637Y32404D01*
X283471Y30389D01*
X284479Y28455D01*
X285650Y26615D01*
X286978Y24885D01*
X288452Y23277D01*
X290059Y21804D01*
X291790Y20476D01*
X293629Y19304D01*
X295564Y18297D01*
X297579Y17463D01*
X299659Y16807D01*
X301788Y16335D01*
X303950Y16050D01*
X306129Y15955D01*
X308308Y16050D01*
X310470Y16335D01*
X312600Y16807D01*
X314680Y17463D01*
X316695Y18297D01*
X318629Y19304D01*
X320469Y20476D01*
X322199Y21804D01*
X323807Y23277D01*
X325280Y24885D01*
X326608Y26615D01*
X327780Y28455D01*
X328787Y30389D01*
X329621Y32404D01*
X330277Y34484D01*
X330749Y36614D01*
X331034Y38776D01*
X331129Y40955D01*
X331129Y100955D01*
X331034Y103134D01*
X330749Y105296D01*
X330277Y107425D01*
X329621Y109505D01*
X328787Y111520D01*
X327780Y113455D01*
X326608Y115294D01*
X325280Y117025D01*
X323807Y118632D01*
X322199Y120106D01*
X320469Y121434D01*
X318629Y122605D01*
X316695Y123613D01*
X314680Y124447D01*
X312600Y125103D01*
X310470Y125575D01*
X308308Y125860D01*
X306129Y125955D01*
X303950Y125860D01*
X301788Y125575D01*
X299659Y125103D01*
X297579Y124447D01*
X295564Y123613D01*
X293629Y122605D01*
X291790Y121434D01*
X290059Y120106D01*
X288452Y118632D01*
X286978Y117025D01*
X285650Y115294D01*
X284479Y113455D01*
X283471Y111520D01*
X282637Y109505D01*
X281981Y107425D01*
X281509Y105296D01*
X281224Y103134D01*
X281129Y100955D01*
X281129Y40955D01*
X501129Y34755D02*
X501224Y32576D01*
X501509Y30414D01*
X501981Y28284D01*
X502637Y26204D01*
X503471Y24189D01*
X504479Y22255D01*
X505650Y20415D01*
X506978Y18685D01*
X508452Y17077D01*
X510059Y15604D01*
X511790Y14276D01*
X513629Y13104D01*
X515564Y12097D01*
X517579Y11263D01*
X519659Y10607D01*
X521788Y10135D01*
X523950Y9850D01*
X526129Y9755D01*
X528308Y9850D01*
X530470Y10135D01*
X532600Y10607D01*
X534680Y11263D01*
X536695Y12097D01*
X538629Y13104D01*
X540469Y14276D01*
X542199Y15604D01*
X543807Y17077D01*
X545280Y18685D01*
X546608Y20415D01*
X547780Y22255D01*
X548787Y24189D01*
X549621Y26204D01*
X550277Y28284D01*
X550749Y30414D01*
X551034Y32576D01*
X551129Y34755D01*
X551129Y94755D01*
X551034Y96934D01*
X550749Y99096D01*
X550277Y101225D01*
X549621Y103305D01*
X548787Y105320D01*
X547780Y107255D01*
X546608Y109094D01*
X545280Y110825D01*
X543807Y112432D01*
X542199Y113906D01*
X540469Y115234D01*
X538629Y116405D01*
X536695Y117413D01*
X534680Y118247D01*
X532600Y118903D01*
X530470Y119375D01*
X528308Y119660D01*
X526129Y119755D01*
X523950Y119660D01*
X521788Y119375D01*
X519659Y118903D01*
X517579Y118247D01*
X515564Y117413D01*
X513629Y116405D01*
X511790Y115234D01*
X510059Y113906D01*
X508452Y112432D01*
X506978Y110825D01*
X505650Y109094D01*
X504479Y107255D01*
X503471Y105320D01*
X502637Y103305D01*
X501981Y101225D01*
X501509Y99096D01*
X501224Y96934D01*
X501129Y94755D01*
X501129Y34755D01*
X741129Y38555D02*
X741224Y36376D01*
X741509Y34214D01*
X741981Y32084D01*
X742637Y30004D01*
X743471Y27989D01*
X744479Y26055D01*
X745650Y24215D01*
X746978Y22485D01*
X748452Y20877D01*
X750059Y19404D01*
X751790Y18076D01*
X753629Y16904D01*
X755564Y15897D01*
X757579Y15063D01*
X759659Y14407D01*
X761788Y13935D01*
X763950Y13650D01*
X766129Y13555D01*
X768308Y13650D01*
X770470Y13935D01*
X772600Y14407D01*
X774680Y15063D01*
X776695Y15897D01*
X778629Y16904D01*
X780469Y18076D01*
X782199Y19404D01*
X783807Y20877D01*
X785280Y22485D01*
X786608Y24215D01*
X787780Y26055D01*
X788787Y27989D01*
X789621Y30004D01*
X790277Y32084D01*
X790749Y34214D01*
X791034Y36376D01*
X791129Y38555D01*
X791129Y98555D01*
X791034Y100734D01*
X790749Y102896D01*
X790277Y105025D01*
X789621Y107105D01*
X788787Y109120D01*
X787780Y111055D01*
X786608Y112894D01*
X785280Y114625D01*
X783807Y116232D01*
X782199Y117706D01*
X780469Y119034D01*
X778629Y120205D01*
X776695Y121213D01*
X774680Y122047D01*
X772600Y122703D01*
X770470Y123175D01*
X768308Y123460D01*
X766129Y123555D01*
X763950Y123460D01*
X761788Y123175D01*
X759659Y122703D01*
X757579Y122047D01*
X755564Y121213D01*
X753629Y120205D01*
X751790Y119034D01*
X750059Y117706D01*
X748452Y116232D01*
X746978Y114625D01*
X745650Y112894D01*
X744479Y111055D01*
X743471Y109120D01*
X742637Y107105D01*
X741981Y105025D01*
X741509Y102896D01*
X741224Y100734D01*
X741129Y98555D01*
X741129Y38555D01*
X1191129Y36155D02*
X1191224Y33976D01*
X1191509Y31814D01*
X1191981Y29684D01*
X1192637Y27604D01*
X1193471Y25589D01*
X1194479Y23655D01*
X1195650Y21815D01*
X1196978Y20085D01*
X1198452Y18477D01*
X1200059Y17004D01*
X1201790Y15676D01*
X1203629Y14504D01*
X1205564Y13497D01*
X1207579Y12663D01*
X1209659Y12007D01*
X1211788Y11535D01*
X1213950Y11250D01*
X1216129Y11155D01*
X1218308Y11250D01*
X1220470Y11535D01*
X1222600Y12007D01*
X1224680Y12663D01*
X1226695Y13497D01*
X1228629Y14504D01*
X1230469Y15676D01*
X1232199Y17004D01*
X1233807Y18477D01*
X1235280Y20085D01*
X1236608Y21815D01*
X1237780Y23655D01*
X1238787Y25589D01*
X1239621Y27604D01*
X1240277Y29684D01*
X1240749Y31814D01*
X1241034Y33976D01*
X1241129Y36155D01*
X1241129Y96155D01*
X1241034Y98334D01*
X1240749Y100496D01*
X1240277Y102625D01*
X1239621Y104705D01*
X1238787Y106720D01*
X1237780Y108655D01*
X1236608Y110494D01*
X1235280Y112225D01*
X1233807Y113832D01*
X1232199Y115306D01*
X1230469Y116634D01*
X1228629Y117805D01*
X1226695Y118813D01*
X1224680Y119647D01*
X1222600Y120303D01*
X1220470Y120775D01*
X1218308Y121060D01*
X1216129Y121155D01*
X1213950Y121060D01*
X1211788Y120775D01*
X1209659Y120303D01*
X1207579Y119647D01*
X1205564Y118813D01*
X1203629Y117805D01*
X1201790Y116634D01*
X1200059Y115306D01*
X1198452Y113832D01*
X1196978Y112225D01*
X1195650Y110494D01*
X1194479Y108655D01*
X1193471Y106720D01*
X1192637Y104705D01*
X1191981Y102625D01*
X1191509Y100496D01*
X1191224Y98334D01*
X1191129Y96155D01*
X1191129Y36155D01*
X991129Y32355D02*
X991224Y30176D01*
X991509Y28014D01*
X991981Y25884D01*
X992637Y23804D01*
X993471Y21789D01*
X994479Y19855D01*
X995650Y18015D01*
X996978Y16285D01*
X998452Y14677D01*
X1000059Y13204D01*
X1001790Y11876D01*
X1003629Y10704D01*
X1005564Y9697D01*
X1007579Y8863D01*
X1009659Y8207D01*
X1011788Y7735D01*
X1013950Y7450D01*
X1016129Y7355D01*
X1018308Y7450D01*
X1020470Y7735D01*
X1022600Y8207D01*
X1024680Y8863D01*
X1026695Y9697D01*
X1028629Y10704D01*
X1030469Y11876D01*
X1032199Y13204D01*
X1033807Y14677D01*
X1035280Y16285D01*
X1036608Y18015D01*
X1037780Y19855D01*
X1038787Y21789D01*
X1039621Y23804D01*
X1040277Y25884D01*
X1040749Y28014D01*
X1041034Y30176D01*
X1041129Y32355D01*
X1041129Y92355D01*
X1041034Y94534D01*
X1040749Y96696D01*
X1040277Y98825D01*
X1039621Y100905D01*
X1038787Y102920D01*
X1037780Y104855D01*
X1036608Y106694D01*
X1035280Y108425D01*
X1033807Y110032D01*
X1032199Y111506D01*
X1030469Y112834D01*
X1028629Y114005D01*
X1026695Y115013D01*
X1024680Y115847D01*
X1022600Y116503D01*
X1020470Y116975D01*
X1018308Y117260D01*
X1016129Y117355D01*
X1013950Y117260D01*
X1011788Y116975D01*
X1009659Y116503D01*
X1007579Y115847D01*
X1005564Y115013D01*
X1003629Y114005D01*
X1001790Y112834D01*
X1000059Y111506D01*
X998452Y110032D01*
X996978Y108425D01*
X995650Y106694D01*
X994479Y104855D01*
X993471Y102920D01*
X992637Y100905D01*
X991981Y98825D01*
X991509Y96696D01*
X991224Y94534D01*
X991129Y92355D01*
X991129Y32355D01*
M02*
