G04 EAGLE Gerber RS-274X export*
G75*
%MOMM*%
%FSLAX34Y34*%
%LPD*%
%INSilkscreen Top*%
%IPPOS*%
%AMOC8*
5,1,8,0,0,1.08239X$1,22.5*%
G01*
%ADD10C,0.203200*%
%ADD11C,0.050800*%
%ADD12C,0.152400*%
%ADD13R,0.500000X0.625000*%
%ADD14C,0.101600*%
%ADD15C,0.248919*%
%ADD16C,0.457200*%
%ADD17R,0.500000X0.875000*%


D10*
X492329Y533905D02*
X500079Y533905D01*
D11*
X587579Y533905D01*
D10*
X595329Y533905D01*
X595329Y568905D01*
X593829Y568905D01*
X493829Y568905D01*
X492329Y568905D01*
X492329Y533905D01*
D11*
X492579Y557655D02*
X497579Y557655D01*
X590079Y557655D02*
X595079Y557655D01*
X497579Y545155D02*
X492579Y545155D01*
X497579Y545155D02*
X497579Y537655D01*
X590079Y545155D02*
X595079Y545155D01*
X590079Y545155D02*
X590079Y537655D01*
X497579Y557655D02*
X497579Y565155D01*
X590079Y565155D01*
X590079Y557655D01*
X497579Y565155D02*
X493829Y568905D01*
X590079Y565155D02*
X593829Y568905D01*
D10*
X491329Y568905D02*
X472579Y568905D01*
X472579Y540155D01*
X491329Y540155D01*
X596329Y540155D02*
X615079Y540155D01*
X615079Y568905D01*
X596329Y568905D01*
D11*
X497579Y537655D02*
X492579Y537655D01*
X497579Y537655D02*
X500079Y537655D01*
X500079Y533905D01*
X590079Y537655D02*
X595079Y537655D01*
X590079Y537655D02*
X587579Y537655D01*
X587579Y533905D01*
D12*
X600841Y559746D02*
X605780Y563697D01*
X605780Y545917D01*
X600841Y545917D02*
X610719Y545917D01*
D13*
X506329Y554530D03*
X518829Y554530D03*
X531329Y554530D03*
X543829Y554530D03*
X556329Y554530D03*
X568829Y554530D03*
X581329Y554530D03*
D14*
X498833Y571913D02*
X498833Y583597D01*
X502078Y583597D02*
X495587Y583597D01*
X506659Y571913D02*
X511852Y571913D01*
X506659Y571913D02*
X506659Y583597D01*
X511852Y583597D01*
X510553Y578404D02*
X506659Y578404D01*
X516655Y583597D02*
X516655Y571913D01*
X520550Y577106D02*
X516655Y583597D01*
X520550Y577106D02*
X524444Y583597D01*
X524444Y571913D01*
X530427Y571913D02*
X530427Y583597D01*
X533673Y583597D01*
X533786Y583595D01*
X533899Y583589D01*
X534012Y583579D01*
X534125Y583565D01*
X534237Y583548D01*
X534348Y583526D01*
X534458Y583501D01*
X534568Y583471D01*
X534676Y583438D01*
X534783Y583401D01*
X534889Y583361D01*
X534993Y583316D01*
X535096Y583268D01*
X535197Y583217D01*
X535296Y583162D01*
X535393Y583104D01*
X535488Y583042D01*
X535581Y582977D01*
X535671Y582909D01*
X535759Y582838D01*
X535845Y582763D01*
X535928Y582686D01*
X536008Y582606D01*
X536085Y582523D01*
X536160Y582437D01*
X536231Y582349D01*
X536299Y582259D01*
X536364Y582166D01*
X536426Y582071D01*
X536484Y581974D01*
X536539Y581875D01*
X536590Y581774D01*
X536638Y581671D01*
X536683Y581567D01*
X536723Y581461D01*
X536760Y581354D01*
X536793Y581246D01*
X536823Y581136D01*
X536848Y581026D01*
X536870Y580915D01*
X536887Y580803D01*
X536901Y580690D01*
X536911Y580577D01*
X536917Y580464D01*
X536919Y580351D01*
X536917Y580238D01*
X536911Y580125D01*
X536901Y580012D01*
X536887Y579899D01*
X536870Y579787D01*
X536848Y579676D01*
X536823Y579566D01*
X536793Y579456D01*
X536760Y579348D01*
X536723Y579241D01*
X536683Y579135D01*
X536638Y579031D01*
X536590Y578928D01*
X536539Y578827D01*
X536484Y578728D01*
X536426Y578631D01*
X536364Y578536D01*
X536299Y578443D01*
X536231Y578353D01*
X536160Y578265D01*
X536085Y578179D01*
X536008Y578096D01*
X535928Y578016D01*
X535845Y577939D01*
X535759Y577864D01*
X535671Y577793D01*
X535581Y577725D01*
X535488Y577660D01*
X535393Y577598D01*
X535296Y577540D01*
X535197Y577485D01*
X535096Y577434D01*
X534993Y577386D01*
X534889Y577341D01*
X534783Y577301D01*
X534676Y577264D01*
X534568Y577231D01*
X534458Y577201D01*
X534348Y577176D01*
X534237Y577154D01*
X534125Y577137D01*
X534012Y577123D01*
X533899Y577113D01*
X533786Y577107D01*
X533673Y577105D01*
X533673Y577106D02*
X530427Y577106D01*
X540813Y570615D02*
X546006Y570615D01*
X553965Y571913D02*
X554064Y571915D01*
X554164Y571921D01*
X554263Y571930D01*
X554361Y571943D01*
X554459Y571960D01*
X554557Y571981D01*
X554653Y572006D01*
X554748Y572034D01*
X554842Y572066D01*
X554935Y572101D01*
X555027Y572140D01*
X555117Y572183D01*
X555205Y572228D01*
X555292Y572278D01*
X555376Y572330D01*
X555459Y572386D01*
X555539Y572444D01*
X555617Y572506D01*
X555692Y572571D01*
X555765Y572639D01*
X555835Y572709D01*
X555903Y572782D01*
X555968Y572857D01*
X556030Y572935D01*
X556088Y573015D01*
X556144Y573098D01*
X556196Y573182D01*
X556246Y573269D01*
X556291Y573357D01*
X556334Y573447D01*
X556373Y573539D01*
X556408Y573632D01*
X556440Y573726D01*
X556468Y573821D01*
X556493Y573917D01*
X556514Y574015D01*
X556531Y574113D01*
X556544Y574211D01*
X556553Y574310D01*
X556559Y574410D01*
X556561Y574509D01*
X553965Y571913D02*
X553821Y571915D01*
X553676Y571921D01*
X553532Y571930D01*
X553389Y571943D01*
X553245Y571960D01*
X553102Y571981D01*
X552960Y572006D01*
X552819Y572034D01*
X552678Y572066D01*
X552538Y572102D01*
X552399Y572141D01*
X552261Y572184D01*
X552125Y572231D01*
X551989Y572281D01*
X551855Y572335D01*
X551723Y572392D01*
X551592Y572453D01*
X551463Y572517D01*
X551335Y572585D01*
X551209Y572655D01*
X551085Y572730D01*
X550964Y572807D01*
X550844Y572888D01*
X550726Y572971D01*
X550611Y573058D01*
X550498Y573148D01*
X550387Y573241D01*
X550279Y573336D01*
X550173Y573435D01*
X550070Y573536D01*
X550395Y581000D02*
X550397Y581099D01*
X550403Y581199D01*
X550412Y581298D01*
X550425Y581396D01*
X550442Y581494D01*
X550463Y581592D01*
X550488Y581688D01*
X550516Y581783D01*
X550548Y581877D01*
X550583Y581970D01*
X550622Y582062D01*
X550665Y582152D01*
X550710Y582240D01*
X550760Y582327D01*
X550812Y582411D01*
X550868Y582494D01*
X550926Y582574D01*
X550988Y582652D01*
X551053Y582727D01*
X551121Y582800D01*
X551191Y582870D01*
X551264Y582938D01*
X551339Y583003D01*
X551417Y583065D01*
X551497Y583123D01*
X551580Y583179D01*
X551664Y583231D01*
X551751Y583281D01*
X551839Y583326D01*
X551929Y583369D01*
X552021Y583408D01*
X552114Y583443D01*
X552208Y583475D01*
X552303Y583503D01*
X552400Y583528D01*
X552497Y583549D01*
X552595Y583566D01*
X552693Y583579D01*
X552792Y583588D01*
X552892Y583594D01*
X552991Y583596D01*
X553127Y583594D01*
X553263Y583588D01*
X553399Y583579D01*
X553535Y583566D01*
X553670Y583548D01*
X553804Y583528D01*
X553938Y583503D01*
X554072Y583475D01*
X554204Y583442D01*
X554335Y583407D01*
X554466Y583367D01*
X554595Y583324D01*
X554723Y583278D01*
X554849Y583227D01*
X554975Y583174D01*
X555098Y583116D01*
X555220Y583056D01*
X555340Y582992D01*
X555459Y582924D01*
X555575Y582854D01*
X555689Y582780D01*
X555802Y582703D01*
X555912Y582622D01*
X551693Y578728D02*
X551607Y578781D01*
X551523Y578838D01*
X551441Y578897D01*
X551361Y578960D01*
X551284Y579026D01*
X551209Y579094D01*
X551137Y579166D01*
X551068Y579240D01*
X551002Y579317D01*
X550939Y579396D01*
X550879Y579478D01*
X550822Y579562D01*
X550768Y579648D01*
X550718Y579736D01*
X550671Y579826D01*
X550627Y579917D01*
X550588Y580011D01*
X550551Y580105D01*
X550519Y580201D01*
X550490Y580299D01*
X550465Y580397D01*
X550444Y580496D01*
X550426Y580596D01*
X550413Y580696D01*
X550403Y580797D01*
X550397Y580899D01*
X550395Y581000D01*
X555263Y576781D02*
X555349Y576728D01*
X555433Y576671D01*
X555515Y576612D01*
X555595Y576549D01*
X555672Y576483D01*
X555747Y576415D01*
X555819Y576343D01*
X555888Y576269D01*
X555954Y576192D01*
X556017Y576113D01*
X556077Y576031D01*
X556134Y575947D01*
X556188Y575861D01*
X556238Y575773D01*
X556285Y575683D01*
X556329Y575592D01*
X556368Y575498D01*
X556405Y575404D01*
X556437Y575308D01*
X556466Y575210D01*
X556491Y575112D01*
X556512Y575013D01*
X556530Y574913D01*
X556543Y574813D01*
X556553Y574712D01*
X556559Y574610D01*
X556561Y574509D01*
X555263Y576781D02*
X551693Y578728D01*
X561523Y571913D02*
X566716Y571913D01*
X561523Y571913D02*
X561523Y583597D01*
X566716Y583597D01*
X565417Y578404D02*
X561523Y578404D01*
X571406Y583597D02*
X571406Y571913D01*
X577897Y571913D02*
X571406Y583597D01*
X577897Y583597D02*
X577897Y571913D01*
X586731Y571913D02*
X586830Y571915D01*
X586930Y571921D01*
X587029Y571930D01*
X587127Y571943D01*
X587225Y571960D01*
X587323Y571981D01*
X587419Y572006D01*
X587514Y572034D01*
X587608Y572066D01*
X587701Y572101D01*
X587793Y572140D01*
X587883Y572183D01*
X587971Y572228D01*
X588058Y572278D01*
X588142Y572330D01*
X588225Y572386D01*
X588305Y572444D01*
X588383Y572506D01*
X588458Y572571D01*
X588531Y572639D01*
X588601Y572709D01*
X588669Y572782D01*
X588734Y572857D01*
X588796Y572935D01*
X588854Y573015D01*
X588910Y573098D01*
X588962Y573182D01*
X589012Y573269D01*
X589057Y573357D01*
X589100Y573447D01*
X589139Y573539D01*
X589174Y573632D01*
X589206Y573726D01*
X589234Y573821D01*
X589259Y573917D01*
X589280Y574015D01*
X589297Y574113D01*
X589310Y574211D01*
X589319Y574310D01*
X589325Y574410D01*
X589327Y574509D01*
X586731Y571913D02*
X586587Y571915D01*
X586442Y571921D01*
X586298Y571930D01*
X586155Y571943D01*
X586011Y571960D01*
X585868Y571981D01*
X585726Y572006D01*
X585585Y572034D01*
X585444Y572066D01*
X585304Y572102D01*
X585165Y572141D01*
X585027Y572184D01*
X584891Y572231D01*
X584755Y572281D01*
X584621Y572335D01*
X584489Y572392D01*
X584358Y572453D01*
X584229Y572517D01*
X584101Y572585D01*
X583975Y572655D01*
X583851Y572730D01*
X583730Y572807D01*
X583610Y572888D01*
X583492Y572971D01*
X583377Y573058D01*
X583264Y573148D01*
X583153Y573241D01*
X583045Y573336D01*
X582939Y573435D01*
X582836Y573536D01*
X583161Y581000D02*
X583163Y581099D01*
X583169Y581199D01*
X583178Y581298D01*
X583191Y581396D01*
X583208Y581494D01*
X583229Y581592D01*
X583254Y581688D01*
X583282Y581783D01*
X583314Y581877D01*
X583349Y581970D01*
X583388Y582062D01*
X583431Y582152D01*
X583476Y582240D01*
X583526Y582327D01*
X583578Y582411D01*
X583634Y582494D01*
X583692Y582574D01*
X583754Y582652D01*
X583819Y582727D01*
X583887Y582800D01*
X583957Y582870D01*
X584030Y582938D01*
X584105Y583003D01*
X584183Y583065D01*
X584263Y583123D01*
X584346Y583179D01*
X584430Y583231D01*
X584517Y583281D01*
X584605Y583326D01*
X584695Y583369D01*
X584787Y583408D01*
X584880Y583443D01*
X584974Y583475D01*
X585069Y583503D01*
X585166Y583528D01*
X585263Y583549D01*
X585361Y583566D01*
X585459Y583579D01*
X585558Y583588D01*
X585658Y583594D01*
X585757Y583596D01*
X585893Y583594D01*
X586029Y583588D01*
X586165Y583579D01*
X586301Y583566D01*
X586436Y583548D01*
X586570Y583528D01*
X586704Y583503D01*
X586838Y583475D01*
X586970Y583442D01*
X587101Y583407D01*
X587232Y583367D01*
X587361Y583324D01*
X587489Y583278D01*
X587615Y583227D01*
X587741Y583174D01*
X587864Y583116D01*
X587986Y583056D01*
X588106Y582992D01*
X588225Y582924D01*
X588341Y582854D01*
X588455Y582780D01*
X588568Y582703D01*
X588678Y582622D01*
X584459Y578728D02*
X584373Y578781D01*
X584289Y578838D01*
X584207Y578897D01*
X584127Y578960D01*
X584050Y579026D01*
X583975Y579094D01*
X583903Y579166D01*
X583834Y579240D01*
X583768Y579317D01*
X583705Y579396D01*
X583645Y579478D01*
X583588Y579562D01*
X583534Y579648D01*
X583484Y579736D01*
X583437Y579826D01*
X583393Y579917D01*
X583354Y580011D01*
X583317Y580105D01*
X583285Y580201D01*
X583256Y580299D01*
X583231Y580397D01*
X583210Y580496D01*
X583192Y580596D01*
X583179Y580696D01*
X583169Y580797D01*
X583163Y580899D01*
X583161Y581000D01*
X588029Y576781D02*
X588115Y576728D01*
X588199Y576671D01*
X588281Y576612D01*
X588361Y576549D01*
X588438Y576483D01*
X588513Y576415D01*
X588585Y576343D01*
X588654Y576269D01*
X588720Y576192D01*
X588783Y576113D01*
X588843Y576031D01*
X588900Y575947D01*
X588954Y575861D01*
X589004Y575773D01*
X589051Y575683D01*
X589095Y575592D01*
X589134Y575498D01*
X589171Y575404D01*
X589203Y575308D01*
X589232Y575210D01*
X589257Y575112D01*
X589278Y575013D01*
X589296Y574913D01*
X589309Y574813D01*
X589319Y574712D01*
X589325Y574610D01*
X589327Y574509D01*
X588029Y576781D02*
X584459Y578728D01*
X594289Y571913D02*
X599481Y571913D01*
X594289Y571913D02*
X594289Y583597D01*
X599481Y583597D01*
X598183Y578404D02*
X594289Y578404D01*
D15*
X682597Y839399D02*
X660143Y839396D01*
X660144Y839397D02*
X660110Y839646D01*
X660071Y839894D01*
X660026Y840142D01*
X659975Y840388D01*
X659918Y840633D01*
X659855Y840876D01*
X659787Y841118D01*
X659712Y841358D01*
X659631Y841596D01*
X659545Y841833D01*
X659453Y842067D01*
X659356Y842298D01*
X659253Y842528D01*
X659144Y842755D01*
X659030Y842979D01*
X658911Y843200D01*
X658786Y843418D01*
X658656Y843633D01*
X658521Y843846D01*
X658381Y844054D01*
X658235Y844259D01*
X658085Y844461D01*
X657930Y844659D01*
X657770Y844853D01*
X657606Y845043D01*
X657437Y845230D01*
X657263Y845412D01*
X657086Y845589D01*
X656904Y845763D01*
X656717Y845932D01*
X656527Y846096D01*
X656333Y846256D01*
X656135Y846411D01*
X655933Y846561D01*
X655728Y846707D01*
X655520Y846847D01*
X655307Y846982D01*
X655092Y847112D01*
X654874Y847237D01*
X654653Y847356D01*
X654429Y847470D01*
X654202Y847579D01*
X653972Y847682D01*
X653741Y847779D01*
X653507Y847871D01*
X653270Y847957D01*
X653032Y848038D01*
X652792Y848113D01*
X652550Y848181D01*
X652307Y848244D01*
X652062Y848301D01*
X651816Y848352D01*
X651568Y848397D01*
X651320Y848436D01*
X651071Y848470D01*
X651073Y870923D01*
X651876Y870883D01*
X652677Y870823D01*
X653477Y870743D01*
X654274Y870644D01*
X655069Y870526D01*
X655861Y870388D01*
X656649Y870230D01*
X657433Y870053D01*
X658212Y869857D01*
X658986Y869642D01*
X659755Y869409D01*
X660518Y869156D01*
X661274Y868885D01*
X662024Y868595D01*
X662766Y868287D01*
X663501Y867961D01*
X664227Y867617D01*
X664945Y867255D01*
X665653Y866876D01*
X666352Y866480D01*
X667041Y866067D01*
X667720Y865636D01*
X668388Y865190D01*
X669045Y864727D01*
X669690Y864248D01*
X670324Y863754D01*
X670945Y863244D01*
X671553Y862719D01*
X672149Y862179D01*
X672731Y861625D01*
X673299Y861057D01*
X673853Y860475D01*
X674393Y859879D01*
X674918Y859271D01*
X675428Y858650D01*
X675922Y858016D01*
X676401Y857371D01*
X676864Y856714D01*
X677310Y856046D01*
X677741Y855367D01*
X678154Y854678D01*
X678550Y853979D01*
X678929Y853271D01*
X679291Y852553D01*
X679635Y851827D01*
X679961Y851092D01*
X680269Y850350D01*
X680559Y849600D01*
X680830Y848844D01*
X681083Y848081D01*
X681316Y847312D01*
X681531Y846538D01*
X681727Y845759D01*
X681904Y844975D01*
X682062Y844187D01*
X682200Y843395D01*
X682318Y842600D01*
X682417Y841803D01*
X682497Y841003D01*
X682557Y840202D01*
X682597Y839399D01*
X680232Y839399D01*
X680192Y840141D01*
X680135Y840881D01*
X680059Y841620D01*
X679965Y842357D01*
X679854Y843091D01*
X679725Y843823D01*
X679577Y844551D01*
X679412Y845275D01*
X679230Y845995D01*
X679030Y846710D01*
X678812Y847420D01*
X678577Y848125D01*
X678325Y848823D01*
X678057Y849516D01*
X677771Y850201D01*
X677469Y850880D01*
X677150Y851551D01*
X676815Y852213D01*
X676463Y852868D01*
X676096Y853514D01*
X675714Y854150D01*
X675316Y854777D01*
X674902Y855394D01*
X674474Y856001D01*
X674031Y856597D01*
X673574Y857183D01*
X673102Y857756D01*
X672617Y858319D01*
X672118Y858869D01*
X671606Y859407D01*
X671081Y859932D01*
X670543Y860444D01*
X669993Y860943D01*
X669430Y861428D01*
X668857Y861900D01*
X668271Y862357D01*
X667675Y862800D01*
X667068Y863228D01*
X666451Y863642D01*
X665824Y864040D01*
X665188Y864422D01*
X664542Y864789D01*
X663887Y865141D01*
X663225Y865476D01*
X662554Y865795D01*
X661875Y866097D01*
X661190Y866383D01*
X660497Y866651D01*
X659799Y866903D01*
X659094Y867138D01*
X658384Y867356D01*
X657669Y867556D01*
X656949Y867738D01*
X656225Y867903D01*
X655497Y868051D01*
X654765Y868180D01*
X654031Y868291D01*
X653294Y868385D01*
X652555Y868461D01*
X651815Y868518D01*
X651073Y868558D01*
X651073Y866191D01*
X651754Y866153D01*
X652433Y866098D01*
X653112Y866026D01*
X653788Y865938D01*
X654462Y865834D01*
X655133Y865713D01*
X655801Y865576D01*
X656465Y865423D01*
X657125Y865254D01*
X657782Y865069D01*
X658433Y864867D01*
X659080Y864651D01*
X659721Y864418D01*
X660356Y864170D01*
X660985Y863907D01*
X661607Y863628D01*
X662222Y863334D01*
X662830Y863026D01*
X663431Y862703D01*
X664023Y862365D01*
X664607Y862013D01*
X665182Y861647D01*
X665749Y861267D01*
X666305Y860873D01*
X666852Y860466D01*
X667389Y860046D01*
X667916Y859613D01*
X668432Y859167D01*
X668937Y858709D01*
X669431Y858239D01*
X669913Y857757D01*
X670383Y857263D01*
X670841Y856758D01*
X671287Y856242D01*
X671720Y855715D01*
X672140Y855178D01*
X672547Y854631D01*
X672941Y854075D01*
X673321Y853508D01*
X673687Y852933D01*
X674039Y852349D01*
X674377Y851757D01*
X674700Y851156D01*
X675008Y850548D01*
X675302Y849933D01*
X675581Y849311D01*
X675844Y848682D01*
X676092Y848047D01*
X676325Y847406D01*
X676541Y846759D01*
X676743Y846108D01*
X676928Y845451D01*
X677097Y844791D01*
X677250Y844127D01*
X677387Y843459D01*
X677508Y842788D01*
X677612Y842114D01*
X677700Y841438D01*
X677772Y840759D01*
X677827Y840080D01*
X677865Y839399D01*
X675499Y839399D01*
X675461Y840019D01*
X675409Y840638D01*
X675341Y841255D01*
X675259Y841870D01*
X675162Y842484D01*
X675050Y843095D01*
X674923Y843702D01*
X674782Y844307D01*
X674626Y844908D01*
X674455Y845505D01*
X674271Y846098D01*
X674072Y846686D01*
X673858Y847270D01*
X673631Y847848D01*
X673390Y848420D01*
X673135Y848986D01*
X672867Y849546D01*
X672585Y850099D01*
X672290Y850646D01*
X671981Y851185D01*
X671660Y851716D01*
X671326Y852239D01*
X670979Y852755D01*
X670620Y853261D01*
X670249Y853759D01*
X669866Y854248D01*
X669472Y854728D01*
X669066Y855197D01*
X668648Y855657D01*
X668220Y856107D01*
X667781Y856546D01*
X667331Y856974D01*
X666871Y857392D01*
X666402Y857798D01*
X665922Y858192D01*
X665433Y858575D01*
X664935Y858946D01*
X664429Y859305D01*
X663913Y859652D01*
X663390Y859986D01*
X662859Y860307D01*
X662320Y860616D01*
X661773Y860911D01*
X661220Y861193D01*
X660660Y861461D01*
X660094Y861716D01*
X659522Y861957D01*
X658944Y862184D01*
X658360Y862398D01*
X657772Y862597D01*
X657179Y862781D01*
X656582Y862952D01*
X655981Y863108D01*
X655376Y863249D01*
X654769Y863376D01*
X654158Y863488D01*
X653544Y863585D01*
X652929Y863667D01*
X652312Y863735D01*
X651693Y863787D01*
X651073Y863825D01*
X651073Y861458D01*
X651641Y861421D01*
X652208Y861369D01*
X652774Y861304D01*
X653338Y861226D01*
X653900Y861133D01*
X654459Y861027D01*
X655016Y860907D01*
X655570Y860774D01*
X656120Y860627D01*
X656666Y860467D01*
X657209Y860293D01*
X657747Y860107D01*
X658280Y859907D01*
X658808Y859694D01*
X659331Y859469D01*
X659848Y859231D01*
X660359Y858980D01*
X660864Y858717D01*
X661363Y858441D01*
X661854Y858154D01*
X662339Y857855D01*
X662816Y857543D01*
X663285Y857221D01*
X663746Y856887D01*
X664199Y856542D01*
X664643Y856186D01*
X665079Y855819D01*
X665505Y855441D01*
X665923Y855054D01*
X666330Y854656D01*
X666728Y854249D01*
X667115Y853831D01*
X667493Y853405D01*
X667860Y852969D01*
X668216Y852525D01*
X668561Y852072D01*
X668895Y851611D01*
X669217Y851142D01*
X669529Y850665D01*
X669828Y850180D01*
X670115Y849689D01*
X670391Y849190D01*
X670654Y848685D01*
X670905Y848174D01*
X671143Y847657D01*
X671368Y847134D01*
X671581Y846606D01*
X671781Y846073D01*
X671967Y845535D01*
X672141Y844992D01*
X672301Y844446D01*
X672448Y843896D01*
X672581Y843342D01*
X672701Y842785D01*
X672807Y842226D01*
X672900Y841664D01*
X672978Y841100D01*
X673043Y840534D01*
X673095Y839967D01*
X673132Y839399D01*
X670764Y839399D01*
X670728Y839905D01*
X670679Y840410D01*
X670619Y840914D01*
X670546Y841416D01*
X670461Y841917D01*
X670364Y842415D01*
X670255Y842911D01*
X670134Y843404D01*
X670001Y843893D01*
X669856Y844380D01*
X669699Y844863D01*
X669531Y845342D01*
X669352Y845816D01*
X669160Y846286D01*
X668958Y846752D01*
X668744Y847212D01*
X668520Y847667D01*
X668284Y848117D01*
X668037Y848561D01*
X667780Y848998D01*
X667513Y849429D01*
X667235Y849854D01*
X666946Y850272D01*
X666648Y850683D01*
X666340Y851086D01*
X666022Y851482D01*
X665695Y851870D01*
X665359Y852250D01*
X665013Y852621D01*
X664658Y852984D01*
X664295Y853339D01*
X663924Y853685D01*
X663544Y854021D01*
X663156Y854348D01*
X662760Y854666D01*
X662357Y854974D01*
X661946Y855272D01*
X661528Y855561D01*
X661103Y855839D01*
X660672Y856106D01*
X660235Y856363D01*
X659791Y856610D01*
X659341Y856846D01*
X658886Y857070D01*
X658426Y857284D01*
X657960Y857486D01*
X657490Y857678D01*
X657016Y857857D01*
X656537Y858025D01*
X656054Y858182D01*
X655567Y858327D01*
X655078Y858460D01*
X654585Y858581D01*
X654089Y858690D01*
X653591Y858787D01*
X653090Y858872D01*
X652588Y858945D01*
X652084Y859005D01*
X651579Y859054D01*
X651073Y859090D01*
X651073Y856721D01*
X651524Y856686D01*
X651975Y856639D01*
X652425Y856581D01*
X652873Y856512D01*
X653319Y856433D01*
X653763Y856342D01*
X654205Y856241D01*
X654644Y856129D01*
X655080Y856007D01*
X655513Y855873D01*
X655943Y855730D01*
X656369Y855576D01*
X656792Y855411D01*
X657210Y855237D01*
X657624Y855052D01*
X658033Y854857D01*
X658437Y854652D01*
X658837Y854438D01*
X659230Y854213D01*
X659619Y853980D01*
X660001Y853737D01*
X660378Y853484D01*
X660748Y853223D01*
X661112Y852952D01*
X661469Y852673D01*
X661819Y852385D01*
X662162Y852089D01*
X662497Y851785D01*
X662826Y851472D01*
X663146Y851152D01*
X663459Y850823D01*
X663763Y850488D01*
X664059Y850145D01*
X664347Y849795D01*
X664626Y849438D01*
X664897Y849074D01*
X665158Y848704D01*
X665411Y848327D01*
X665654Y847945D01*
X665887Y847556D01*
X666112Y847163D01*
X666326Y846763D01*
X666531Y846359D01*
X666726Y845950D01*
X666911Y845536D01*
X667085Y845118D01*
X667250Y844695D01*
X667404Y844269D01*
X667547Y843839D01*
X667681Y843406D01*
X667803Y842970D01*
X667915Y842531D01*
X668016Y842089D01*
X668107Y841645D01*
X668186Y841199D01*
X668255Y840751D01*
X668313Y840301D01*
X668360Y839850D01*
X668395Y839399D01*
X666025Y839398D01*
X665990Y839794D01*
X665945Y840188D01*
X665891Y840581D01*
X665827Y840973D01*
X665753Y841363D01*
X665670Y841752D01*
X665577Y842138D01*
X665475Y842521D01*
X665364Y842902D01*
X665243Y843281D01*
X665113Y843656D01*
X664974Y844028D01*
X664826Y844396D01*
X664669Y844761D01*
X664503Y845121D01*
X664329Y845478D01*
X664145Y845830D01*
X663954Y846178D01*
X663753Y846520D01*
X663545Y846858D01*
X663328Y847191D01*
X663103Y847518D01*
X662870Y847840D01*
X662630Y848155D01*
X662382Y848465D01*
X662126Y848769D01*
X661863Y849066D01*
X661593Y849357D01*
X661315Y849641D01*
X661031Y849919D01*
X660740Y850189D01*
X660443Y850452D01*
X660139Y850708D01*
X659829Y850956D01*
X659514Y851196D01*
X659192Y851429D01*
X658865Y851654D01*
X658532Y851871D01*
X658194Y852079D01*
X657852Y852280D01*
X657504Y852471D01*
X657152Y852655D01*
X656795Y852829D01*
X656435Y852995D01*
X656070Y853152D01*
X655702Y853300D01*
X655330Y853439D01*
X654955Y853569D01*
X654576Y853690D01*
X654195Y853801D01*
X653812Y853903D01*
X653426Y853996D01*
X653037Y854079D01*
X652647Y854153D01*
X652255Y854217D01*
X651862Y854271D01*
X651468Y854316D01*
X651072Y854351D01*
X651072Y851979D01*
X651409Y851945D01*
X651745Y851902D01*
X652080Y851851D01*
X652414Y851792D01*
X652746Y851725D01*
X653076Y851650D01*
X653405Y851567D01*
X653731Y851475D01*
X654055Y851376D01*
X654376Y851269D01*
X654695Y851154D01*
X655011Y851031D01*
X655324Y850901D01*
X655633Y850763D01*
X655939Y850618D01*
X656242Y850465D01*
X656540Y850305D01*
X656835Y850137D01*
X657125Y849963D01*
X657411Y849781D01*
X657693Y849593D01*
X657970Y849397D01*
X658242Y849195D01*
X658508Y848986D01*
X658770Y848771D01*
X659027Y848550D01*
X659278Y848322D01*
X659523Y848089D01*
X659763Y847849D01*
X659996Y847604D01*
X660224Y847353D01*
X660445Y847096D01*
X660660Y846834D01*
X660869Y846568D01*
X661071Y846296D01*
X661267Y846019D01*
X661455Y845737D01*
X661637Y845451D01*
X661811Y845161D01*
X661979Y844866D01*
X662139Y844568D01*
X662292Y844265D01*
X662437Y843959D01*
X662575Y843650D01*
X662705Y843337D01*
X662828Y843021D01*
X662943Y842702D01*
X663050Y842381D01*
X663149Y842057D01*
X663241Y841731D01*
X663324Y841402D01*
X663399Y841072D01*
X663466Y840740D01*
X663525Y840406D01*
X663576Y840071D01*
X663619Y839735D01*
X663653Y839398D01*
X661278Y839397D01*
X661244Y839674D01*
X661204Y839949D01*
X661158Y840224D01*
X661104Y840497D01*
X661044Y840769D01*
X660978Y841040D01*
X660905Y841309D01*
X660825Y841576D01*
X660739Y841841D01*
X660647Y842103D01*
X660548Y842364D01*
X660443Y842622D01*
X660332Y842877D01*
X660215Y843130D01*
X660091Y843380D01*
X659962Y843627D01*
X659827Y843870D01*
X659686Y844110D01*
X659539Y844347D01*
X659386Y844580D01*
X659228Y844809D01*
X659064Y845035D01*
X658895Y845256D01*
X658721Y845473D01*
X658541Y845686D01*
X658356Y845895D01*
X658167Y846099D01*
X657972Y846298D01*
X657773Y846493D01*
X657569Y846682D01*
X657360Y846867D01*
X657147Y847047D01*
X656930Y847221D01*
X656709Y847390D01*
X656483Y847554D01*
X656254Y847712D01*
X656021Y847865D01*
X655784Y848012D01*
X655544Y848153D01*
X655301Y848288D01*
X655054Y848417D01*
X654804Y848541D01*
X654551Y848658D01*
X654296Y848769D01*
X654038Y848874D01*
X653777Y848973D01*
X653515Y849065D01*
X653250Y849151D01*
X652983Y849231D01*
X652714Y849304D01*
X652443Y849370D01*
X652171Y849430D01*
X651898Y849484D01*
X651623Y849530D01*
X651348Y849570D01*
X651071Y849604D01*
X617061Y836911D02*
X639515Y836914D01*
X639514Y836913D02*
X639548Y836664D01*
X639587Y836416D01*
X639632Y836168D01*
X639683Y835922D01*
X639740Y835677D01*
X639803Y835434D01*
X639871Y835192D01*
X639946Y834952D01*
X640027Y834714D01*
X640113Y834477D01*
X640205Y834243D01*
X640302Y834012D01*
X640405Y833782D01*
X640514Y833555D01*
X640628Y833331D01*
X640747Y833110D01*
X640872Y832892D01*
X641002Y832677D01*
X641137Y832464D01*
X641277Y832256D01*
X641423Y832051D01*
X641573Y831849D01*
X641728Y831651D01*
X641888Y831457D01*
X642052Y831267D01*
X642221Y831080D01*
X642395Y830898D01*
X642572Y830721D01*
X642754Y830547D01*
X642941Y830378D01*
X643131Y830214D01*
X643325Y830054D01*
X643523Y829899D01*
X643725Y829749D01*
X643930Y829603D01*
X644138Y829463D01*
X644351Y829328D01*
X644566Y829198D01*
X644784Y829073D01*
X645005Y828954D01*
X645229Y828840D01*
X645456Y828731D01*
X645686Y828628D01*
X645917Y828531D01*
X646151Y828439D01*
X646388Y828353D01*
X646626Y828272D01*
X646866Y828197D01*
X647108Y828129D01*
X647351Y828066D01*
X647596Y828009D01*
X647842Y827958D01*
X648090Y827913D01*
X648338Y827874D01*
X648587Y827840D01*
X648585Y805387D01*
X647782Y805427D01*
X646981Y805487D01*
X646181Y805567D01*
X645384Y805666D01*
X644589Y805784D01*
X643797Y805922D01*
X643009Y806080D01*
X642225Y806257D01*
X641446Y806453D01*
X640672Y806668D01*
X639903Y806901D01*
X639140Y807154D01*
X638384Y807425D01*
X637634Y807715D01*
X636892Y808023D01*
X636157Y808349D01*
X635431Y808693D01*
X634713Y809055D01*
X634005Y809434D01*
X633306Y809830D01*
X632617Y810243D01*
X631938Y810674D01*
X631270Y811120D01*
X630613Y811583D01*
X629968Y812062D01*
X629334Y812556D01*
X628713Y813066D01*
X628105Y813591D01*
X627509Y814131D01*
X626927Y814685D01*
X626359Y815253D01*
X625805Y815835D01*
X625265Y816431D01*
X624740Y817039D01*
X624230Y817660D01*
X623736Y818294D01*
X623257Y818939D01*
X622794Y819596D01*
X622348Y820264D01*
X621917Y820943D01*
X621504Y821632D01*
X621108Y822331D01*
X620729Y823039D01*
X620367Y823757D01*
X620023Y824483D01*
X619697Y825218D01*
X619389Y825960D01*
X619099Y826710D01*
X618828Y827466D01*
X618575Y828229D01*
X618342Y828998D01*
X618127Y829772D01*
X617931Y830551D01*
X617754Y831335D01*
X617596Y832123D01*
X617458Y832915D01*
X617340Y833710D01*
X617241Y834507D01*
X617161Y835307D01*
X617101Y836108D01*
X617061Y836911D01*
X619426Y836911D01*
X619466Y836169D01*
X619523Y835429D01*
X619599Y834690D01*
X619693Y833953D01*
X619804Y833219D01*
X619933Y832487D01*
X620081Y831759D01*
X620246Y831035D01*
X620428Y830315D01*
X620628Y829600D01*
X620846Y828890D01*
X621081Y828185D01*
X621333Y827487D01*
X621601Y826794D01*
X621887Y826109D01*
X622189Y825430D01*
X622508Y824759D01*
X622843Y824097D01*
X623195Y823442D01*
X623562Y822796D01*
X623944Y822160D01*
X624342Y821533D01*
X624756Y820916D01*
X625184Y820309D01*
X625627Y819713D01*
X626084Y819127D01*
X626556Y818554D01*
X627041Y817991D01*
X627540Y817441D01*
X628052Y816903D01*
X628577Y816378D01*
X629115Y815866D01*
X629665Y815367D01*
X630228Y814882D01*
X630801Y814410D01*
X631387Y813953D01*
X631983Y813510D01*
X632590Y813082D01*
X633207Y812668D01*
X633834Y812270D01*
X634470Y811888D01*
X635116Y811521D01*
X635771Y811169D01*
X636433Y810834D01*
X637104Y810515D01*
X637783Y810213D01*
X638468Y809927D01*
X639161Y809659D01*
X639859Y809407D01*
X640564Y809172D01*
X641274Y808954D01*
X641989Y808754D01*
X642709Y808572D01*
X643433Y808407D01*
X644161Y808259D01*
X644893Y808130D01*
X645627Y808019D01*
X646364Y807925D01*
X647103Y807849D01*
X647843Y807792D01*
X648585Y807752D01*
X648585Y810119D01*
X647904Y810157D01*
X647225Y810212D01*
X646546Y810284D01*
X645870Y810372D01*
X645196Y810476D01*
X644525Y810597D01*
X643857Y810734D01*
X643193Y810887D01*
X642533Y811056D01*
X641876Y811241D01*
X641225Y811443D01*
X640578Y811659D01*
X639937Y811892D01*
X639302Y812140D01*
X638673Y812403D01*
X638051Y812682D01*
X637436Y812976D01*
X636828Y813284D01*
X636227Y813607D01*
X635635Y813945D01*
X635051Y814297D01*
X634476Y814663D01*
X633909Y815043D01*
X633353Y815437D01*
X632806Y815844D01*
X632269Y816264D01*
X631742Y816697D01*
X631226Y817143D01*
X630721Y817601D01*
X630227Y818071D01*
X629745Y818553D01*
X629275Y819047D01*
X628817Y819552D01*
X628371Y820068D01*
X627938Y820595D01*
X627518Y821132D01*
X627111Y821679D01*
X626717Y822235D01*
X626337Y822802D01*
X625971Y823377D01*
X625619Y823961D01*
X625281Y824553D01*
X624958Y825154D01*
X624650Y825762D01*
X624356Y826377D01*
X624077Y826999D01*
X623814Y827628D01*
X623566Y828263D01*
X623333Y828904D01*
X623117Y829551D01*
X622915Y830202D01*
X622730Y830859D01*
X622561Y831519D01*
X622408Y832183D01*
X622271Y832851D01*
X622150Y833522D01*
X622046Y834196D01*
X621958Y834872D01*
X621886Y835551D01*
X621831Y836230D01*
X621793Y836911D01*
X624159Y836911D01*
X624197Y836291D01*
X624249Y835672D01*
X624317Y835055D01*
X624399Y834440D01*
X624496Y833826D01*
X624608Y833215D01*
X624735Y832608D01*
X624876Y832003D01*
X625032Y831402D01*
X625203Y830805D01*
X625387Y830212D01*
X625586Y829624D01*
X625800Y829040D01*
X626027Y828462D01*
X626268Y827890D01*
X626523Y827324D01*
X626791Y826764D01*
X627073Y826211D01*
X627368Y825664D01*
X627677Y825125D01*
X627998Y824594D01*
X628332Y824071D01*
X628679Y823555D01*
X629038Y823049D01*
X629409Y822551D01*
X629792Y822062D01*
X630186Y821582D01*
X630592Y821113D01*
X631010Y820653D01*
X631438Y820203D01*
X631877Y819764D01*
X632327Y819336D01*
X632787Y818918D01*
X633256Y818512D01*
X633736Y818118D01*
X634225Y817735D01*
X634723Y817364D01*
X635229Y817005D01*
X635745Y816658D01*
X636268Y816324D01*
X636799Y816003D01*
X637338Y815694D01*
X637885Y815399D01*
X638438Y815117D01*
X638998Y814849D01*
X639564Y814594D01*
X640136Y814353D01*
X640714Y814126D01*
X641298Y813912D01*
X641886Y813713D01*
X642479Y813529D01*
X643076Y813358D01*
X643677Y813202D01*
X644282Y813061D01*
X644889Y812934D01*
X645500Y812822D01*
X646114Y812725D01*
X646729Y812643D01*
X647346Y812575D01*
X647965Y812523D01*
X648585Y812485D01*
X648585Y814852D01*
X648017Y814889D01*
X647450Y814941D01*
X646884Y815006D01*
X646320Y815084D01*
X645758Y815177D01*
X645199Y815283D01*
X644642Y815403D01*
X644088Y815536D01*
X643538Y815683D01*
X642992Y815843D01*
X642449Y816017D01*
X641911Y816203D01*
X641378Y816403D01*
X640850Y816616D01*
X640327Y816841D01*
X639810Y817079D01*
X639299Y817330D01*
X638794Y817593D01*
X638295Y817869D01*
X637804Y818156D01*
X637319Y818455D01*
X636842Y818767D01*
X636373Y819089D01*
X635912Y819423D01*
X635459Y819768D01*
X635015Y820124D01*
X634579Y820491D01*
X634153Y820869D01*
X633735Y821256D01*
X633328Y821654D01*
X632930Y822061D01*
X632543Y822479D01*
X632165Y822905D01*
X631798Y823341D01*
X631442Y823785D01*
X631097Y824238D01*
X630763Y824699D01*
X630441Y825168D01*
X630129Y825645D01*
X629830Y826130D01*
X629543Y826621D01*
X629267Y827120D01*
X629004Y827625D01*
X628753Y828136D01*
X628515Y828653D01*
X628290Y829176D01*
X628077Y829704D01*
X627877Y830237D01*
X627691Y830775D01*
X627517Y831318D01*
X627357Y831864D01*
X627210Y832414D01*
X627077Y832968D01*
X626957Y833525D01*
X626851Y834084D01*
X626758Y834646D01*
X626680Y835210D01*
X626615Y835776D01*
X626563Y836343D01*
X626526Y836911D01*
X628894Y836911D01*
X628930Y836405D01*
X628979Y835900D01*
X629039Y835396D01*
X629112Y834894D01*
X629197Y834393D01*
X629294Y833895D01*
X629403Y833399D01*
X629524Y832906D01*
X629657Y832417D01*
X629802Y831930D01*
X629959Y831447D01*
X630127Y830968D01*
X630306Y830494D01*
X630498Y830024D01*
X630700Y829558D01*
X630914Y829098D01*
X631138Y828643D01*
X631374Y828193D01*
X631621Y827749D01*
X631878Y827312D01*
X632145Y826881D01*
X632423Y826456D01*
X632712Y826038D01*
X633010Y825627D01*
X633318Y825224D01*
X633636Y824828D01*
X633963Y824440D01*
X634299Y824060D01*
X634645Y823689D01*
X635000Y823326D01*
X635363Y822971D01*
X635734Y822625D01*
X636114Y822289D01*
X636502Y821962D01*
X636898Y821644D01*
X637301Y821336D01*
X637712Y821038D01*
X638130Y820749D01*
X638555Y820471D01*
X638986Y820204D01*
X639423Y819947D01*
X639867Y819700D01*
X640317Y819464D01*
X640772Y819240D01*
X641232Y819026D01*
X641698Y818824D01*
X642168Y818632D01*
X642642Y818453D01*
X643121Y818285D01*
X643604Y818128D01*
X644091Y817983D01*
X644580Y817850D01*
X645073Y817729D01*
X645569Y817620D01*
X646067Y817523D01*
X646568Y817438D01*
X647070Y817365D01*
X647574Y817305D01*
X648079Y817256D01*
X648585Y817220D01*
X648585Y819589D01*
X648134Y819624D01*
X647683Y819671D01*
X647233Y819729D01*
X646785Y819798D01*
X646339Y819877D01*
X645895Y819968D01*
X645453Y820069D01*
X645014Y820181D01*
X644578Y820303D01*
X644145Y820437D01*
X643715Y820580D01*
X643289Y820734D01*
X642866Y820899D01*
X642448Y821073D01*
X642034Y821258D01*
X641625Y821453D01*
X641221Y821658D01*
X640821Y821872D01*
X640428Y822097D01*
X640039Y822330D01*
X639657Y822573D01*
X639280Y822826D01*
X638910Y823087D01*
X638546Y823358D01*
X638189Y823637D01*
X637839Y823925D01*
X637496Y824221D01*
X637161Y824525D01*
X636832Y824838D01*
X636512Y825158D01*
X636199Y825487D01*
X635895Y825822D01*
X635599Y826165D01*
X635311Y826515D01*
X635032Y826872D01*
X634761Y827236D01*
X634500Y827606D01*
X634247Y827983D01*
X634004Y828365D01*
X633771Y828754D01*
X633546Y829147D01*
X633332Y829547D01*
X633127Y829951D01*
X632932Y830360D01*
X632747Y830774D01*
X632573Y831192D01*
X632408Y831615D01*
X632254Y832041D01*
X632111Y832471D01*
X631977Y832904D01*
X631855Y833340D01*
X631743Y833779D01*
X631642Y834221D01*
X631551Y834665D01*
X631472Y835111D01*
X631403Y835559D01*
X631345Y836009D01*
X631298Y836460D01*
X631263Y836911D01*
X633633Y836912D01*
X633668Y836516D01*
X633713Y836122D01*
X633767Y835729D01*
X633831Y835337D01*
X633905Y834947D01*
X633988Y834558D01*
X634081Y834172D01*
X634183Y833789D01*
X634294Y833408D01*
X634415Y833029D01*
X634545Y832654D01*
X634684Y832282D01*
X634832Y831914D01*
X634989Y831549D01*
X635155Y831189D01*
X635329Y830832D01*
X635513Y830480D01*
X635704Y830132D01*
X635905Y829790D01*
X636113Y829452D01*
X636330Y829119D01*
X636555Y828792D01*
X636788Y828470D01*
X637028Y828155D01*
X637276Y827845D01*
X637532Y827541D01*
X637795Y827244D01*
X638065Y826953D01*
X638343Y826669D01*
X638627Y826391D01*
X638918Y826121D01*
X639215Y825858D01*
X639519Y825602D01*
X639829Y825354D01*
X640144Y825114D01*
X640466Y824881D01*
X640793Y824656D01*
X641126Y824439D01*
X641464Y824231D01*
X641806Y824030D01*
X642154Y823839D01*
X642506Y823655D01*
X642863Y823481D01*
X643223Y823315D01*
X643588Y823158D01*
X643956Y823010D01*
X644328Y822871D01*
X644703Y822741D01*
X645082Y822620D01*
X645463Y822509D01*
X645846Y822407D01*
X646232Y822314D01*
X646621Y822231D01*
X647011Y822157D01*
X647403Y822093D01*
X647796Y822039D01*
X648190Y821994D01*
X648586Y821959D01*
X648586Y824331D01*
X648249Y824365D01*
X647913Y824408D01*
X647578Y824459D01*
X647244Y824518D01*
X646912Y824585D01*
X646582Y824660D01*
X646253Y824743D01*
X645927Y824835D01*
X645603Y824934D01*
X645282Y825041D01*
X644963Y825156D01*
X644647Y825279D01*
X644334Y825409D01*
X644025Y825547D01*
X643719Y825692D01*
X643416Y825845D01*
X643118Y826005D01*
X642823Y826173D01*
X642533Y826347D01*
X642247Y826529D01*
X641965Y826717D01*
X641688Y826913D01*
X641416Y827115D01*
X641150Y827324D01*
X640888Y827539D01*
X640631Y827760D01*
X640380Y827988D01*
X640135Y828221D01*
X639895Y828461D01*
X639662Y828706D01*
X639434Y828957D01*
X639213Y829214D01*
X638998Y829476D01*
X638789Y829742D01*
X638587Y830014D01*
X638391Y830291D01*
X638203Y830573D01*
X638021Y830859D01*
X637847Y831149D01*
X637679Y831444D01*
X637519Y831742D01*
X637366Y832045D01*
X637221Y832351D01*
X637083Y832660D01*
X636953Y832973D01*
X636830Y833289D01*
X636715Y833608D01*
X636608Y833929D01*
X636509Y834253D01*
X636417Y834579D01*
X636334Y834908D01*
X636259Y835238D01*
X636192Y835570D01*
X636133Y835904D01*
X636082Y836239D01*
X636039Y836575D01*
X636005Y836912D01*
X638380Y836913D01*
X638414Y836636D01*
X638454Y836361D01*
X638500Y836086D01*
X638554Y835813D01*
X638614Y835541D01*
X638680Y835270D01*
X638753Y835001D01*
X638833Y834734D01*
X638919Y834469D01*
X639011Y834207D01*
X639110Y833946D01*
X639215Y833688D01*
X639326Y833433D01*
X639443Y833180D01*
X639567Y832930D01*
X639696Y832683D01*
X639831Y832440D01*
X639972Y832200D01*
X640119Y831963D01*
X640272Y831730D01*
X640430Y831501D01*
X640594Y831275D01*
X640763Y831054D01*
X640937Y830837D01*
X641117Y830624D01*
X641302Y830415D01*
X641491Y830211D01*
X641686Y830012D01*
X641885Y829817D01*
X642089Y829628D01*
X642298Y829443D01*
X642511Y829263D01*
X642728Y829089D01*
X642949Y828920D01*
X643175Y828756D01*
X643404Y828598D01*
X643637Y828445D01*
X643874Y828298D01*
X644114Y828157D01*
X644357Y828022D01*
X644604Y827893D01*
X644854Y827769D01*
X645107Y827652D01*
X645362Y827541D01*
X645620Y827436D01*
X645881Y827337D01*
X646143Y827245D01*
X646408Y827159D01*
X646675Y827079D01*
X646944Y827006D01*
X647215Y826940D01*
X647487Y826880D01*
X647760Y826826D01*
X648035Y826780D01*
X648310Y826740D01*
X648587Y826706D01*
D12*
X615539Y838155D02*
X615549Y838997D01*
X615580Y839838D01*
X615632Y840678D01*
X615704Y841516D01*
X615797Y842352D01*
X615910Y843186D01*
X616044Y844017D01*
X616198Y844845D01*
X616372Y845668D01*
X616567Y846487D01*
X616781Y847301D01*
X617016Y848109D01*
X617270Y848911D01*
X617543Y849707D01*
X617837Y850496D01*
X618149Y851277D01*
X618481Y852051D01*
X618831Y852816D01*
X619200Y853572D01*
X619588Y854319D01*
X619994Y855056D01*
X620417Y855784D01*
X620859Y856500D01*
X621318Y857206D01*
X621794Y857899D01*
X622287Y858582D01*
X622797Y859251D01*
X623322Y859908D01*
X623864Y860552D01*
X624422Y861183D01*
X624995Y861799D01*
X625582Y862402D01*
X626185Y862989D01*
X626801Y863562D01*
X627432Y864120D01*
X628076Y864662D01*
X628733Y865187D01*
X629402Y865697D01*
X630085Y866190D01*
X630778Y866666D01*
X631484Y867125D01*
X632200Y867567D01*
X632928Y867990D01*
X633665Y868396D01*
X634412Y868784D01*
X635168Y869153D01*
X635933Y869503D01*
X636707Y869835D01*
X637488Y870147D01*
X638277Y870441D01*
X639073Y870714D01*
X639875Y870968D01*
X640683Y871203D01*
X641497Y871417D01*
X642316Y871612D01*
X643139Y871786D01*
X643967Y871940D01*
X644798Y872074D01*
X645632Y872187D01*
X646468Y872280D01*
X647306Y872352D01*
X648146Y872404D01*
X648987Y872435D01*
X649829Y872445D01*
X650671Y872435D01*
X651512Y872404D01*
X652352Y872352D01*
X653190Y872280D01*
X654026Y872187D01*
X654860Y872074D01*
X655691Y871940D01*
X656519Y871786D01*
X657342Y871612D01*
X658161Y871417D01*
X658975Y871203D01*
X659783Y870968D01*
X660585Y870714D01*
X661381Y870441D01*
X662170Y870147D01*
X662951Y869835D01*
X663725Y869503D01*
X664490Y869153D01*
X665246Y868784D01*
X665993Y868396D01*
X666730Y867990D01*
X667458Y867567D01*
X668174Y867125D01*
X668880Y866666D01*
X669573Y866190D01*
X670256Y865697D01*
X670925Y865187D01*
X671582Y864662D01*
X672226Y864120D01*
X672857Y863562D01*
X673473Y862989D01*
X674076Y862402D01*
X674663Y861799D01*
X675236Y861183D01*
X675794Y860552D01*
X676336Y859908D01*
X676861Y859251D01*
X677371Y858582D01*
X677864Y857899D01*
X678340Y857206D01*
X678799Y856500D01*
X679241Y855784D01*
X679664Y855056D01*
X680070Y854319D01*
X680458Y853572D01*
X680827Y852816D01*
X681177Y852051D01*
X681509Y851277D01*
X681821Y850496D01*
X682115Y849707D01*
X682388Y848911D01*
X682642Y848109D01*
X682877Y847301D01*
X683091Y846487D01*
X683286Y845668D01*
X683460Y844845D01*
X683614Y844017D01*
X683748Y843186D01*
X683861Y842352D01*
X683954Y841516D01*
X684026Y840678D01*
X684078Y839838D01*
X684109Y838997D01*
X684119Y838155D01*
X684109Y837313D01*
X684078Y836472D01*
X684026Y835632D01*
X683954Y834794D01*
X683861Y833958D01*
X683748Y833124D01*
X683614Y832293D01*
X683460Y831465D01*
X683286Y830642D01*
X683091Y829823D01*
X682877Y829009D01*
X682642Y828201D01*
X682388Y827399D01*
X682115Y826603D01*
X681821Y825814D01*
X681509Y825033D01*
X681177Y824259D01*
X680827Y823494D01*
X680458Y822738D01*
X680070Y821991D01*
X679664Y821254D01*
X679241Y820526D01*
X678799Y819810D01*
X678340Y819104D01*
X677864Y818411D01*
X677371Y817728D01*
X676861Y817059D01*
X676336Y816402D01*
X675794Y815758D01*
X675236Y815127D01*
X674663Y814511D01*
X674076Y813908D01*
X673473Y813321D01*
X672857Y812748D01*
X672226Y812190D01*
X671582Y811648D01*
X670925Y811123D01*
X670256Y810613D01*
X669573Y810120D01*
X668880Y809644D01*
X668174Y809185D01*
X667458Y808743D01*
X666730Y808320D01*
X665993Y807914D01*
X665246Y807526D01*
X664490Y807157D01*
X663725Y806807D01*
X662951Y806475D01*
X662170Y806163D01*
X661381Y805869D01*
X660585Y805596D01*
X659783Y805342D01*
X658975Y805107D01*
X658161Y804893D01*
X657342Y804698D01*
X656519Y804524D01*
X655691Y804370D01*
X654860Y804236D01*
X654026Y804123D01*
X653190Y804030D01*
X652352Y803958D01*
X651512Y803906D01*
X650671Y803875D01*
X649829Y803865D01*
X648987Y803875D01*
X648146Y803906D01*
X647306Y803958D01*
X646468Y804030D01*
X645632Y804123D01*
X644798Y804236D01*
X643967Y804370D01*
X643139Y804524D01*
X642316Y804698D01*
X641497Y804893D01*
X640683Y805107D01*
X639875Y805342D01*
X639073Y805596D01*
X638277Y805869D01*
X637488Y806163D01*
X636707Y806475D01*
X635933Y806807D01*
X635168Y807157D01*
X634412Y807526D01*
X633665Y807914D01*
X632928Y808320D01*
X632200Y808743D01*
X631484Y809185D01*
X630778Y809644D01*
X630085Y810120D01*
X629402Y810613D01*
X628733Y811123D01*
X628076Y811648D01*
X627432Y812190D01*
X626801Y812748D01*
X626185Y813321D01*
X625582Y813908D01*
X624995Y814511D01*
X624422Y815127D01*
X623864Y815758D01*
X623322Y816402D01*
X622797Y817059D01*
X622287Y817728D01*
X621794Y818411D01*
X621318Y819104D01*
X620859Y819810D01*
X620417Y820526D01*
X619994Y821254D01*
X619588Y821991D01*
X619200Y822738D01*
X618831Y823494D01*
X618481Y824259D01*
X618149Y825033D01*
X617837Y825814D01*
X617543Y826603D01*
X617270Y827399D01*
X617016Y828201D01*
X616781Y829009D01*
X616567Y829823D01*
X616372Y830642D01*
X616198Y831465D01*
X616044Y832293D01*
X615910Y833124D01*
X615797Y833958D01*
X615704Y834794D01*
X615632Y835632D01*
X615580Y836472D01*
X615549Y837313D01*
X615539Y838155D01*
D16*
X642209Y838155D02*
X642211Y838342D01*
X642218Y838529D01*
X642230Y838716D01*
X642246Y838902D01*
X642266Y839088D01*
X642291Y839273D01*
X642321Y839458D01*
X642355Y839642D01*
X642394Y839825D01*
X642437Y840007D01*
X642485Y840187D01*
X642537Y840367D01*
X642594Y840545D01*
X642654Y840722D01*
X642720Y840897D01*
X642789Y841071D01*
X642863Y841243D01*
X642941Y841413D01*
X643023Y841581D01*
X643109Y841747D01*
X643199Y841911D01*
X643293Y842072D01*
X643391Y842232D01*
X643493Y842388D01*
X643599Y842543D01*
X643709Y842694D01*
X643822Y842843D01*
X643939Y842989D01*
X644059Y843132D01*
X644183Y843272D01*
X644310Y843409D01*
X644441Y843543D01*
X644575Y843674D01*
X644712Y843801D01*
X644852Y843925D01*
X644995Y844045D01*
X645141Y844162D01*
X645290Y844275D01*
X645441Y844385D01*
X645596Y844491D01*
X645752Y844593D01*
X645912Y844691D01*
X646073Y844785D01*
X646237Y844875D01*
X646403Y844961D01*
X646571Y845043D01*
X646741Y845121D01*
X646913Y845195D01*
X647087Y845264D01*
X647262Y845330D01*
X647439Y845390D01*
X647617Y845447D01*
X647797Y845499D01*
X647977Y845547D01*
X648159Y845590D01*
X648342Y845629D01*
X648526Y845663D01*
X648711Y845693D01*
X648896Y845718D01*
X649082Y845738D01*
X649268Y845754D01*
X649455Y845766D01*
X649642Y845773D01*
X649829Y845775D01*
X650016Y845773D01*
X650203Y845766D01*
X650390Y845754D01*
X650576Y845738D01*
X650762Y845718D01*
X650947Y845693D01*
X651132Y845663D01*
X651316Y845629D01*
X651499Y845590D01*
X651681Y845547D01*
X651861Y845499D01*
X652041Y845447D01*
X652219Y845390D01*
X652396Y845330D01*
X652571Y845264D01*
X652745Y845195D01*
X652917Y845121D01*
X653087Y845043D01*
X653255Y844961D01*
X653421Y844875D01*
X653585Y844785D01*
X653746Y844691D01*
X653906Y844593D01*
X654062Y844491D01*
X654217Y844385D01*
X654368Y844275D01*
X654517Y844162D01*
X654663Y844045D01*
X654806Y843925D01*
X654946Y843801D01*
X655083Y843674D01*
X655217Y843543D01*
X655348Y843409D01*
X655475Y843272D01*
X655599Y843132D01*
X655719Y842989D01*
X655836Y842843D01*
X655949Y842694D01*
X656059Y842543D01*
X656165Y842388D01*
X656267Y842232D01*
X656365Y842072D01*
X656459Y841911D01*
X656549Y841747D01*
X656635Y841581D01*
X656717Y841413D01*
X656795Y841243D01*
X656869Y841071D01*
X656938Y840897D01*
X657004Y840722D01*
X657064Y840545D01*
X657121Y840367D01*
X657173Y840187D01*
X657221Y840007D01*
X657264Y839825D01*
X657303Y839642D01*
X657337Y839458D01*
X657367Y839273D01*
X657392Y839088D01*
X657412Y838902D01*
X657428Y838716D01*
X657440Y838529D01*
X657447Y838342D01*
X657449Y838155D01*
X657447Y837968D01*
X657440Y837781D01*
X657428Y837594D01*
X657412Y837408D01*
X657392Y837222D01*
X657367Y837037D01*
X657337Y836852D01*
X657303Y836668D01*
X657264Y836485D01*
X657221Y836303D01*
X657173Y836123D01*
X657121Y835943D01*
X657064Y835765D01*
X657004Y835588D01*
X656938Y835413D01*
X656869Y835239D01*
X656795Y835067D01*
X656717Y834897D01*
X656635Y834729D01*
X656549Y834563D01*
X656459Y834399D01*
X656365Y834238D01*
X656267Y834078D01*
X656165Y833922D01*
X656059Y833767D01*
X655949Y833616D01*
X655836Y833467D01*
X655719Y833321D01*
X655599Y833178D01*
X655475Y833038D01*
X655348Y832901D01*
X655217Y832767D01*
X655083Y832636D01*
X654946Y832509D01*
X654806Y832385D01*
X654663Y832265D01*
X654517Y832148D01*
X654368Y832035D01*
X654217Y831925D01*
X654062Y831819D01*
X653906Y831717D01*
X653746Y831619D01*
X653585Y831525D01*
X653421Y831435D01*
X653255Y831349D01*
X653087Y831267D01*
X652917Y831189D01*
X652745Y831115D01*
X652571Y831046D01*
X652396Y830980D01*
X652219Y830920D01*
X652041Y830863D01*
X651861Y830811D01*
X651681Y830763D01*
X651499Y830720D01*
X651316Y830681D01*
X651132Y830647D01*
X650947Y830617D01*
X650762Y830592D01*
X650576Y830572D01*
X650390Y830556D01*
X650203Y830544D01*
X650016Y830537D01*
X649829Y830535D01*
X649642Y830537D01*
X649455Y830544D01*
X649268Y830556D01*
X649082Y830572D01*
X648896Y830592D01*
X648711Y830617D01*
X648526Y830647D01*
X648342Y830681D01*
X648159Y830720D01*
X647977Y830763D01*
X647797Y830811D01*
X647617Y830863D01*
X647439Y830920D01*
X647262Y830980D01*
X647087Y831046D01*
X646913Y831115D01*
X646741Y831189D01*
X646571Y831267D01*
X646403Y831349D01*
X646237Y831435D01*
X646073Y831525D01*
X645912Y831619D01*
X645752Y831717D01*
X645596Y831819D01*
X645441Y831925D01*
X645290Y832035D01*
X645141Y832148D01*
X644995Y832265D01*
X644852Y832385D01*
X644712Y832509D01*
X644575Y832636D01*
X644441Y832767D01*
X644310Y832901D01*
X644183Y833038D01*
X644059Y833178D01*
X643939Y833321D01*
X643822Y833467D01*
X643709Y833616D01*
X643599Y833767D01*
X643493Y833922D01*
X643391Y834078D01*
X643293Y834238D01*
X643199Y834399D01*
X643109Y834563D01*
X643023Y834729D01*
X642941Y834897D01*
X642863Y835067D01*
X642789Y835239D01*
X642720Y835413D01*
X642654Y835588D01*
X642594Y835765D01*
X642537Y835943D01*
X642485Y836123D01*
X642437Y836303D01*
X642394Y836485D01*
X642355Y836668D01*
X642321Y836852D01*
X642291Y837037D01*
X642266Y837222D01*
X642246Y837408D01*
X642230Y837594D01*
X642218Y837781D01*
X642211Y837968D01*
X642209Y838155D01*
D12*
X632829Y838155D02*
X632834Y838572D01*
X632849Y838989D01*
X632875Y839406D01*
X632911Y839821D01*
X632957Y840236D01*
X633013Y840649D01*
X633079Y841061D01*
X633156Y841472D01*
X633242Y841880D01*
X633338Y842286D01*
X633445Y842689D01*
X633561Y843090D01*
X633687Y843488D01*
X633823Y843882D01*
X633968Y844273D01*
X634123Y844661D01*
X634287Y845044D01*
X634461Y845423D01*
X634644Y845798D01*
X634836Y846169D01*
X635038Y846534D01*
X635248Y846895D01*
X635466Y847250D01*
X635694Y847600D01*
X635930Y847944D01*
X636174Y848282D01*
X636427Y848614D01*
X636688Y848940D01*
X636956Y849259D01*
X637233Y849572D01*
X637517Y849877D01*
X637808Y850176D01*
X638107Y850467D01*
X638412Y850751D01*
X638725Y851028D01*
X639044Y851296D01*
X639370Y851557D01*
X639702Y851810D01*
X640040Y852054D01*
X640384Y852290D01*
X640734Y852518D01*
X641089Y852736D01*
X641450Y852946D01*
X641815Y853148D01*
X642186Y853340D01*
X642561Y853523D01*
X642940Y853697D01*
X643323Y853861D01*
X643711Y854016D01*
X644102Y854161D01*
X644496Y854297D01*
X644894Y854423D01*
X645295Y854539D01*
X645698Y854646D01*
X646104Y854742D01*
X646512Y854828D01*
X646923Y854905D01*
X647335Y854971D01*
X647748Y855027D01*
X648163Y855073D01*
X648578Y855109D01*
X648995Y855135D01*
X649412Y855150D01*
X649829Y855155D01*
X650246Y855150D01*
X650663Y855135D01*
X651080Y855109D01*
X651495Y855073D01*
X651910Y855027D01*
X652323Y854971D01*
X652735Y854905D01*
X653146Y854828D01*
X653554Y854742D01*
X653960Y854646D01*
X654363Y854539D01*
X654764Y854423D01*
X655162Y854297D01*
X655556Y854161D01*
X655947Y854016D01*
X656335Y853861D01*
X656718Y853697D01*
X657097Y853523D01*
X657472Y853340D01*
X657843Y853148D01*
X658208Y852946D01*
X658569Y852736D01*
X658924Y852518D01*
X659274Y852290D01*
X659618Y852054D01*
X659956Y851810D01*
X660288Y851557D01*
X660614Y851296D01*
X660933Y851028D01*
X661246Y850751D01*
X661551Y850467D01*
X661850Y850176D01*
X662141Y849877D01*
X662425Y849572D01*
X662702Y849259D01*
X662970Y848940D01*
X663231Y848614D01*
X663484Y848282D01*
X663728Y847944D01*
X663964Y847600D01*
X664192Y847250D01*
X664410Y846895D01*
X664620Y846534D01*
X664822Y846169D01*
X665014Y845798D01*
X665197Y845423D01*
X665371Y845044D01*
X665535Y844661D01*
X665690Y844273D01*
X665835Y843882D01*
X665971Y843488D01*
X666097Y843090D01*
X666213Y842689D01*
X666320Y842286D01*
X666416Y841880D01*
X666502Y841472D01*
X666579Y841061D01*
X666645Y840649D01*
X666701Y840236D01*
X666747Y839821D01*
X666783Y839406D01*
X666809Y838989D01*
X666824Y838572D01*
X666829Y838155D01*
X666824Y837738D01*
X666809Y837321D01*
X666783Y836904D01*
X666747Y836489D01*
X666701Y836074D01*
X666645Y835661D01*
X666579Y835249D01*
X666502Y834838D01*
X666416Y834430D01*
X666320Y834024D01*
X666213Y833621D01*
X666097Y833220D01*
X665971Y832822D01*
X665835Y832428D01*
X665690Y832037D01*
X665535Y831649D01*
X665371Y831266D01*
X665197Y830887D01*
X665014Y830512D01*
X664822Y830141D01*
X664620Y829776D01*
X664410Y829415D01*
X664192Y829060D01*
X663964Y828710D01*
X663728Y828366D01*
X663484Y828028D01*
X663231Y827696D01*
X662970Y827370D01*
X662702Y827051D01*
X662425Y826738D01*
X662141Y826433D01*
X661850Y826134D01*
X661551Y825843D01*
X661246Y825559D01*
X660933Y825282D01*
X660614Y825014D01*
X660288Y824753D01*
X659956Y824500D01*
X659618Y824256D01*
X659274Y824020D01*
X658924Y823792D01*
X658569Y823574D01*
X658208Y823364D01*
X657843Y823162D01*
X657472Y822970D01*
X657097Y822787D01*
X656718Y822613D01*
X656335Y822449D01*
X655947Y822294D01*
X655556Y822149D01*
X655162Y822013D01*
X654764Y821887D01*
X654363Y821771D01*
X653960Y821664D01*
X653554Y821568D01*
X653146Y821482D01*
X652735Y821405D01*
X652323Y821339D01*
X651910Y821283D01*
X651495Y821237D01*
X651080Y821201D01*
X650663Y821175D01*
X650246Y821160D01*
X649829Y821155D01*
X649412Y821160D01*
X648995Y821175D01*
X648578Y821201D01*
X648163Y821237D01*
X647748Y821283D01*
X647335Y821339D01*
X646923Y821405D01*
X646512Y821482D01*
X646104Y821568D01*
X645698Y821664D01*
X645295Y821771D01*
X644894Y821887D01*
X644496Y822013D01*
X644102Y822149D01*
X643711Y822294D01*
X643323Y822449D01*
X642940Y822613D01*
X642561Y822787D01*
X642186Y822970D01*
X641815Y823162D01*
X641450Y823364D01*
X641089Y823574D01*
X640734Y823792D01*
X640384Y824020D01*
X640040Y824256D01*
X639702Y824500D01*
X639370Y824753D01*
X639044Y825014D01*
X638725Y825282D01*
X638412Y825559D01*
X638107Y825843D01*
X637808Y826134D01*
X637517Y826433D01*
X637233Y826738D01*
X636956Y827051D01*
X636688Y827370D01*
X636427Y827696D01*
X636174Y828028D01*
X635930Y828366D01*
X635694Y828710D01*
X635466Y829060D01*
X635248Y829415D01*
X635038Y829776D01*
X634836Y830141D01*
X634644Y830512D01*
X634461Y830887D01*
X634287Y831266D01*
X634123Y831649D01*
X633968Y832037D01*
X633823Y832428D01*
X633687Y832822D01*
X633561Y833220D01*
X633445Y833621D01*
X633338Y834024D01*
X633242Y834430D01*
X633156Y834838D01*
X633079Y835249D01*
X633013Y835661D01*
X632957Y836074D01*
X632911Y836489D01*
X632875Y836904D01*
X632849Y837321D01*
X632834Y837738D01*
X632829Y838155D01*
D15*
X214561Y837511D02*
X237015Y837514D01*
X237014Y837513D02*
X237048Y837264D01*
X237087Y837016D01*
X237132Y836768D01*
X237183Y836522D01*
X237240Y836277D01*
X237303Y836034D01*
X237371Y835792D01*
X237446Y835552D01*
X237527Y835314D01*
X237613Y835077D01*
X237705Y834843D01*
X237802Y834612D01*
X237905Y834382D01*
X238014Y834155D01*
X238128Y833931D01*
X238247Y833710D01*
X238372Y833492D01*
X238502Y833277D01*
X238637Y833064D01*
X238777Y832856D01*
X238923Y832651D01*
X239073Y832449D01*
X239228Y832251D01*
X239388Y832057D01*
X239552Y831867D01*
X239721Y831680D01*
X239895Y831498D01*
X240072Y831321D01*
X240254Y831147D01*
X240441Y830978D01*
X240631Y830814D01*
X240825Y830654D01*
X241023Y830499D01*
X241225Y830349D01*
X241430Y830203D01*
X241638Y830063D01*
X241851Y829928D01*
X242066Y829798D01*
X242284Y829673D01*
X242505Y829554D01*
X242729Y829440D01*
X242956Y829331D01*
X243186Y829228D01*
X243417Y829131D01*
X243651Y829039D01*
X243888Y828953D01*
X244126Y828872D01*
X244366Y828797D01*
X244608Y828729D01*
X244851Y828666D01*
X245096Y828609D01*
X245342Y828558D01*
X245590Y828513D01*
X245838Y828474D01*
X246087Y828440D01*
X246085Y805987D01*
X245282Y806027D01*
X244481Y806087D01*
X243681Y806167D01*
X242884Y806266D01*
X242089Y806384D01*
X241297Y806522D01*
X240509Y806680D01*
X239725Y806857D01*
X238946Y807053D01*
X238172Y807268D01*
X237403Y807501D01*
X236640Y807754D01*
X235884Y808025D01*
X235134Y808315D01*
X234392Y808623D01*
X233657Y808949D01*
X232931Y809293D01*
X232213Y809655D01*
X231505Y810034D01*
X230806Y810430D01*
X230117Y810843D01*
X229438Y811274D01*
X228770Y811720D01*
X228113Y812183D01*
X227468Y812662D01*
X226834Y813156D01*
X226213Y813666D01*
X225605Y814191D01*
X225009Y814731D01*
X224427Y815285D01*
X223859Y815853D01*
X223305Y816435D01*
X222765Y817031D01*
X222240Y817639D01*
X221730Y818260D01*
X221236Y818894D01*
X220757Y819539D01*
X220294Y820196D01*
X219848Y820864D01*
X219417Y821543D01*
X219004Y822232D01*
X218608Y822931D01*
X218229Y823639D01*
X217867Y824357D01*
X217523Y825083D01*
X217197Y825818D01*
X216889Y826560D01*
X216599Y827310D01*
X216328Y828066D01*
X216075Y828829D01*
X215842Y829598D01*
X215627Y830372D01*
X215431Y831151D01*
X215254Y831935D01*
X215096Y832723D01*
X214958Y833515D01*
X214840Y834310D01*
X214741Y835107D01*
X214661Y835907D01*
X214601Y836708D01*
X214561Y837511D01*
X216926Y837511D01*
X216966Y836769D01*
X217023Y836029D01*
X217099Y835290D01*
X217193Y834553D01*
X217304Y833819D01*
X217433Y833087D01*
X217581Y832359D01*
X217746Y831635D01*
X217928Y830915D01*
X218128Y830200D01*
X218346Y829490D01*
X218581Y828785D01*
X218833Y828087D01*
X219101Y827394D01*
X219387Y826709D01*
X219689Y826030D01*
X220008Y825359D01*
X220343Y824697D01*
X220695Y824042D01*
X221062Y823396D01*
X221444Y822760D01*
X221842Y822133D01*
X222256Y821516D01*
X222684Y820909D01*
X223127Y820313D01*
X223584Y819727D01*
X224056Y819154D01*
X224541Y818591D01*
X225040Y818041D01*
X225552Y817503D01*
X226077Y816978D01*
X226615Y816466D01*
X227165Y815967D01*
X227728Y815482D01*
X228301Y815010D01*
X228887Y814553D01*
X229483Y814110D01*
X230090Y813682D01*
X230707Y813268D01*
X231334Y812870D01*
X231970Y812488D01*
X232616Y812121D01*
X233271Y811769D01*
X233933Y811434D01*
X234604Y811115D01*
X235283Y810813D01*
X235968Y810527D01*
X236661Y810259D01*
X237359Y810007D01*
X238064Y809772D01*
X238774Y809554D01*
X239489Y809354D01*
X240209Y809172D01*
X240933Y809007D01*
X241661Y808859D01*
X242393Y808730D01*
X243127Y808619D01*
X243864Y808525D01*
X244603Y808449D01*
X245343Y808392D01*
X246085Y808352D01*
X246085Y810719D01*
X245404Y810757D01*
X244725Y810812D01*
X244046Y810884D01*
X243370Y810972D01*
X242696Y811076D01*
X242025Y811197D01*
X241357Y811334D01*
X240693Y811487D01*
X240033Y811656D01*
X239376Y811841D01*
X238725Y812043D01*
X238078Y812259D01*
X237437Y812492D01*
X236802Y812740D01*
X236173Y813003D01*
X235551Y813282D01*
X234936Y813576D01*
X234328Y813884D01*
X233727Y814207D01*
X233135Y814545D01*
X232551Y814897D01*
X231976Y815263D01*
X231409Y815643D01*
X230853Y816037D01*
X230306Y816444D01*
X229769Y816864D01*
X229242Y817297D01*
X228726Y817743D01*
X228221Y818201D01*
X227727Y818671D01*
X227245Y819153D01*
X226775Y819647D01*
X226317Y820152D01*
X225871Y820668D01*
X225438Y821195D01*
X225018Y821732D01*
X224611Y822279D01*
X224217Y822835D01*
X223837Y823402D01*
X223471Y823977D01*
X223119Y824561D01*
X222781Y825153D01*
X222458Y825754D01*
X222150Y826362D01*
X221856Y826977D01*
X221577Y827599D01*
X221314Y828228D01*
X221066Y828863D01*
X220833Y829504D01*
X220617Y830151D01*
X220415Y830802D01*
X220230Y831459D01*
X220061Y832119D01*
X219908Y832783D01*
X219771Y833451D01*
X219650Y834122D01*
X219546Y834796D01*
X219458Y835472D01*
X219386Y836151D01*
X219331Y836830D01*
X219293Y837511D01*
X221659Y837511D01*
X221697Y836891D01*
X221749Y836272D01*
X221817Y835655D01*
X221899Y835040D01*
X221996Y834426D01*
X222108Y833815D01*
X222235Y833208D01*
X222376Y832603D01*
X222532Y832002D01*
X222703Y831405D01*
X222887Y830812D01*
X223086Y830224D01*
X223300Y829640D01*
X223527Y829062D01*
X223768Y828490D01*
X224023Y827924D01*
X224291Y827364D01*
X224573Y826811D01*
X224868Y826264D01*
X225177Y825725D01*
X225498Y825194D01*
X225832Y824671D01*
X226179Y824155D01*
X226538Y823649D01*
X226909Y823151D01*
X227292Y822662D01*
X227686Y822182D01*
X228092Y821713D01*
X228510Y821253D01*
X228938Y820803D01*
X229377Y820364D01*
X229827Y819936D01*
X230287Y819518D01*
X230756Y819112D01*
X231236Y818718D01*
X231725Y818335D01*
X232223Y817964D01*
X232729Y817605D01*
X233245Y817258D01*
X233768Y816924D01*
X234299Y816603D01*
X234838Y816294D01*
X235385Y815999D01*
X235938Y815717D01*
X236498Y815449D01*
X237064Y815194D01*
X237636Y814953D01*
X238214Y814726D01*
X238798Y814512D01*
X239386Y814313D01*
X239979Y814129D01*
X240576Y813958D01*
X241177Y813802D01*
X241782Y813661D01*
X242389Y813534D01*
X243000Y813422D01*
X243614Y813325D01*
X244229Y813243D01*
X244846Y813175D01*
X245465Y813123D01*
X246085Y813085D01*
X246085Y815452D01*
X245517Y815489D01*
X244950Y815541D01*
X244384Y815606D01*
X243820Y815684D01*
X243258Y815777D01*
X242699Y815883D01*
X242142Y816003D01*
X241588Y816136D01*
X241038Y816283D01*
X240492Y816443D01*
X239949Y816617D01*
X239411Y816803D01*
X238878Y817003D01*
X238350Y817216D01*
X237827Y817441D01*
X237310Y817679D01*
X236799Y817930D01*
X236294Y818193D01*
X235795Y818469D01*
X235304Y818756D01*
X234819Y819055D01*
X234342Y819367D01*
X233873Y819689D01*
X233412Y820023D01*
X232959Y820368D01*
X232515Y820724D01*
X232079Y821091D01*
X231653Y821469D01*
X231235Y821856D01*
X230828Y822254D01*
X230430Y822661D01*
X230043Y823079D01*
X229665Y823505D01*
X229298Y823941D01*
X228942Y824385D01*
X228597Y824838D01*
X228263Y825299D01*
X227941Y825768D01*
X227629Y826245D01*
X227330Y826730D01*
X227043Y827221D01*
X226767Y827720D01*
X226504Y828225D01*
X226253Y828736D01*
X226015Y829253D01*
X225790Y829776D01*
X225577Y830304D01*
X225377Y830837D01*
X225191Y831375D01*
X225017Y831918D01*
X224857Y832464D01*
X224710Y833014D01*
X224577Y833568D01*
X224457Y834125D01*
X224351Y834684D01*
X224258Y835246D01*
X224180Y835810D01*
X224115Y836376D01*
X224063Y836943D01*
X224026Y837511D01*
X226394Y837511D01*
X226430Y837005D01*
X226479Y836500D01*
X226539Y835996D01*
X226612Y835494D01*
X226697Y834993D01*
X226794Y834495D01*
X226903Y833999D01*
X227024Y833506D01*
X227157Y833017D01*
X227302Y832530D01*
X227459Y832047D01*
X227627Y831568D01*
X227806Y831094D01*
X227998Y830624D01*
X228200Y830158D01*
X228414Y829698D01*
X228638Y829243D01*
X228874Y828793D01*
X229121Y828349D01*
X229378Y827912D01*
X229645Y827481D01*
X229923Y827056D01*
X230212Y826638D01*
X230510Y826227D01*
X230818Y825824D01*
X231136Y825428D01*
X231463Y825040D01*
X231799Y824660D01*
X232145Y824289D01*
X232500Y823926D01*
X232863Y823571D01*
X233234Y823225D01*
X233614Y822889D01*
X234002Y822562D01*
X234398Y822244D01*
X234801Y821936D01*
X235212Y821638D01*
X235630Y821349D01*
X236055Y821071D01*
X236486Y820804D01*
X236923Y820547D01*
X237367Y820300D01*
X237817Y820064D01*
X238272Y819840D01*
X238732Y819626D01*
X239198Y819424D01*
X239668Y819232D01*
X240142Y819053D01*
X240621Y818885D01*
X241104Y818728D01*
X241591Y818583D01*
X242080Y818450D01*
X242573Y818329D01*
X243069Y818220D01*
X243567Y818123D01*
X244068Y818038D01*
X244570Y817965D01*
X245074Y817905D01*
X245579Y817856D01*
X246085Y817820D01*
X246085Y820189D01*
X245634Y820224D01*
X245183Y820271D01*
X244733Y820329D01*
X244285Y820398D01*
X243839Y820477D01*
X243395Y820568D01*
X242953Y820669D01*
X242514Y820781D01*
X242078Y820903D01*
X241645Y821037D01*
X241215Y821180D01*
X240789Y821334D01*
X240366Y821499D01*
X239948Y821673D01*
X239534Y821858D01*
X239125Y822053D01*
X238721Y822258D01*
X238321Y822472D01*
X237928Y822697D01*
X237539Y822930D01*
X237157Y823173D01*
X236780Y823426D01*
X236410Y823687D01*
X236046Y823958D01*
X235689Y824237D01*
X235339Y824525D01*
X234996Y824821D01*
X234661Y825125D01*
X234332Y825438D01*
X234012Y825758D01*
X233699Y826087D01*
X233395Y826422D01*
X233099Y826765D01*
X232811Y827115D01*
X232532Y827472D01*
X232261Y827836D01*
X232000Y828206D01*
X231747Y828583D01*
X231504Y828965D01*
X231271Y829354D01*
X231046Y829747D01*
X230832Y830147D01*
X230627Y830551D01*
X230432Y830960D01*
X230247Y831374D01*
X230073Y831792D01*
X229908Y832215D01*
X229754Y832641D01*
X229611Y833071D01*
X229477Y833504D01*
X229355Y833940D01*
X229243Y834379D01*
X229142Y834821D01*
X229051Y835265D01*
X228972Y835711D01*
X228903Y836159D01*
X228845Y836609D01*
X228798Y837060D01*
X228763Y837511D01*
X231133Y837512D01*
X231168Y837116D01*
X231213Y836722D01*
X231267Y836329D01*
X231331Y835937D01*
X231405Y835547D01*
X231488Y835158D01*
X231581Y834772D01*
X231683Y834389D01*
X231794Y834008D01*
X231915Y833629D01*
X232045Y833254D01*
X232184Y832882D01*
X232332Y832514D01*
X232489Y832149D01*
X232655Y831789D01*
X232829Y831432D01*
X233013Y831080D01*
X233204Y830732D01*
X233405Y830390D01*
X233613Y830052D01*
X233830Y829719D01*
X234055Y829392D01*
X234288Y829070D01*
X234528Y828755D01*
X234776Y828445D01*
X235032Y828141D01*
X235295Y827844D01*
X235565Y827553D01*
X235843Y827269D01*
X236127Y826991D01*
X236418Y826721D01*
X236715Y826458D01*
X237019Y826202D01*
X237329Y825954D01*
X237644Y825714D01*
X237966Y825481D01*
X238293Y825256D01*
X238626Y825039D01*
X238964Y824831D01*
X239306Y824630D01*
X239654Y824439D01*
X240006Y824255D01*
X240363Y824081D01*
X240723Y823915D01*
X241088Y823758D01*
X241456Y823610D01*
X241828Y823471D01*
X242203Y823341D01*
X242582Y823220D01*
X242963Y823109D01*
X243346Y823007D01*
X243732Y822914D01*
X244121Y822831D01*
X244511Y822757D01*
X244903Y822693D01*
X245296Y822639D01*
X245690Y822594D01*
X246086Y822559D01*
X246086Y824931D01*
X245749Y824965D01*
X245413Y825008D01*
X245078Y825059D01*
X244744Y825118D01*
X244412Y825185D01*
X244082Y825260D01*
X243753Y825343D01*
X243427Y825435D01*
X243103Y825534D01*
X242782Y825641D01*
X242463Y825756D01*
X242147Y825879D01*
X241834Y826009D01*
X241525Y826147D01*
X241219Y826292D01*
X240916Y826445D01*
X240618Y826605D01*
X240323Y826773D01*
X240033Y826947D01*
X239747Y827129D01*
X239465Y827317D01*
X239188Y827513D01*
X238916Y827715D01*
X238650Y827924D01*
X238388Y828139D01*
X238131Y828360D01*
X237880Y828588D01*
X237635Y828821D01*
X237395Y829061D01*
X237162Y829306D01*
X236934Y829557D01*
X236713Y829814D01*
X236498Y830076D01*
X236289Y830342D01*
X236087Y830614D01*
X235891Y830891D01*
X235703Y831173D01*
X235521Y831459D01*
X235347Y831749D01*
X235179Y832044D01*
X235019Y832342D01*
X234866Y832645D01*
X234721Y832951D01*
X234583Y833260D01*
X234453Y833573D01*
X234330Y833889D01*
X234215Y834208D01*
X234108Y834529D01*
X234009Y834853D01*
X233917Y835179D01*
X233834Y835508D01*
X233759Y835838D01*
X233692Y836170D01*
X233633Y836504D01*
X233582Y836839D01*
X233539Y837175D01*
X233505Y837512D01*
X235880Y837513D01*
X235914Y837236D01*
X235954Y836961D01*
X236000Y836686D01*
X236054Y836413D01*
X236114Y836141D01*
X236180Y835870D01*
X236253Y835601D01*
X236333Y835334D01*
X236419Y835069D01*
X236511Y834807D01*
X236610Y834546D01*
X236715Y834288D01*
X236826Y834033D01*
X236943Y833780D01*
X237067Y833530D01*
X237196Y833283D01*
X237331Y833040D01*
X237472Y832800D01*
X237619Y832563D01*
X237772Y832330D01*
X237930Y832101D01*
X238094Y831875D01*
X238263Y831654D01*
X238437Y831437D01*
X238617Y831224D01*
X238802Y831015D01*
X238991Y830811D01*
X239186Y830612D01*
X239385Y830417D01*
X239589Y830228D01*
X239798Y830043D01*
X240011Y829863D01*
X240228Y829689D01*
X240449Y829520D01*
X240675Y829356D01*
X240904Y829198D01*
X241137Y829045D01*
X241374Y828898D01*
X241614Y828757D01*
X241857Y828622D01*
X242104Y828493D01*
X242354Y828369D01*
X242607Y828252D01*
X242862Y828141D01*
X243120Y828036D01*
X243381Y827937D01*
X243643Y827845D01*
X243908Y827759D01*
X244175Y827679D01*
X244444Y827606D01*
X244715Y827540D01*
X244987Y827480D01*
X245260Y827426D01*
X245535Y827380D01*
X245810Y827340D01*
X246087Y827306D01*
X280097Y839999D02*
X257643Y839996D01*
X257644Y839997D02*
X257610Y840246D01*
X257571Y840494D01*
X257526Y840742D01*
X257475Y840988D01*
X257418Y841233D01*
X257355Y841476D01*
X257287Y841718D01*
X257212Y841958D01*
X257131Y842196D01*
X257045Y842433D01*
X256953Y842667D01*
X256856Y842898D01*
X256753Y843128D01*
X256644Y843355D01*
X256530Y843579D01*
X256411Y843800D01*
X256286Y844018D01*
X256156Y844233D01*
X256021Y844446D01*
X255881Y844654D01*
X255735Y844859D01*
X255585Y845061D01*
X255430Y845259D01*
X255270Y845453D01*
X255106Y845643D01*
X254937Y845830D01*
X254763Y846012D01*
X254586Y846189D01*
X254404Y846363D01*
X254217Y846532D01*
X254027Y846696D01*
X253833Y846856D01*
X253635Y847011D01*
X253433Y847161D01*
X253228Y847307D01*
X253020Y847447D01*
X252807Y847582D01*
X252592Y847712D01*
X252374Y847837D01*
X252153Y847956D01*
X251929Y848070D01*
X251702Y848179D01*
X251472Y848282D01*
X251241Y848379D01*
X251007Y848471D01*
X250770Y848557D01*
X250532Y848638D01*
X250292Y848713D01*
X250050Y848781D01*
X249807Y848844D01*
X249562Y848901D01*
X249316Y848952D01*
X249068Y848997D01*
X248820Y849036D01*
X248571Y849070D01*
X248573Y871523D01*
X249376Y871483D01*
X250177Y871423D01*
X250977Y871343D01*
X251774Y871244D01*
X252569Y871126D01*
X253361Y870988D01*
X254149Y870830D01*
X254933Y870653D01*
X255712Y870457D01*
X256486Y870242D01*
X257255Y870009D01*
X258018Y869756D01*
X258774Y869485D01*
X259524Y869195D01*
X260266Y868887D01*
X261001Y868561D01*
X261727Y868217D01*
X262445Y867855D01*
X263153Y867476D01*
X263852Y867080D01*
X264541Y866667D01*
X265220Y866236D01*
X265888Y865790D01*
X266545Y865327D01*
X267190Y864848D01*
X267824Y864354D01*
X268445Y863844D01*
X269053Y863319D01*
X269649Y862779D01*
X270231Y862225D01*
X270799Y861657D01*
X271353Y861075D01*
X271893Y860479D01*
X272418Y859871D01*
X272928Y859250D01*
X273422Y858616D01*
X273901Y857971D01*
X274364Y857314D01*
X274810Y856646D01*
X275241Y855967D01*
X275654Y855278D01*
X276050Y854579D01*
X276429Y853871D01*
X276791Y853153D01*
X277135Y852427D01*
X277461Y851692D01*
X277769Y850950D01*
X278059Y850200D01*
X278330Y849444D01*
X278583Y848681D01*
X278816Y847912D01*
X279031Y847138D01*
X279227Y846359D01*
X279404Y845575D01*
X279562Y844787D01*
X279700Y843995D01*
X279818Y843200D01*
X279917Y842403D01*
X279997Y841603D01*
X280057Y840802D01*
X280097Y839999D01*
X277732Y839999D01*
X277692Y840741D01*
X277635Y841481D01*
X277559Y842220D01*
X277465Y842957D01*
X277354Y843691D01*
X277225Y844423D01*
X277077Y845151D01*
X276912Y845875D01*
X276730Y846595D01*
X276530Y847310D01*
X276312Y848020D01*
X276077Y848725D01*
X275825Y849423D01*
X275557Y850116D01*
X275271Y850801D01*
X274969Y851480D01*
X274650Y852151D01*
X274315Y852813D01*
X273963Y853468D01*
X273596Y854114D01*
X273214Y854750D01*
X272816Y855377D01*
X272402Y855994D01*
X271974Y856601D01*
X271531Y857197D01*
X271074Y857783D01*
X270602Y858356D01*
X270117Y858919D01*
X269618Y859469D01*
X269106Y860007D01*
X268581Y860532D01*
X268043Y861044D01*
X267493Y861543D01*
X266930Y862028D01*
X266357Y862500D01*
X265771Y862957D01*
X265175Y863400D01*
X264568Y863828D01*
X263951Y864242D01*
X263324Y864640D01*
X262688Y865022D01*
X262042Y865389D01*
X261387Y865741D01*
X260725Y866076D01*
X260054Y866395D01*
X259375Y866697D01*
X258690Y866983D01*
X257997Y867251D01*
X257299Y867503D01*
X256594Y867738D01*
X255884Y867956D01*
X255169Y868156D01*
X254449Y868338D01*
X253725Y868503D01*
X252997Y868651D01*
X252265Y868780D01*
X251531Y868891D01*
X250794Y868985D01*
X250055Y869061D01*
X249315Y869118D01*
X248573Y869158D01*
X248573Y866791D01*
X249254Y866753D01*
X249933Y866698D01*
X250612Y866626D01*
X251288Y866538D01*
X251962Y866434D01*
X252633Y866313D01*
X253301Y866176D01*
X253965Y866023D01*
X254625Y865854D01*
X255282Y865669D01*
X255933Y865467D01*
X256580Y865251D01*
X257221Y865018D01*
X257856Y864770D01*
X258485Y864507D01*
X259107Y864228D01*
X259722Y863934D01*
X260330Y863626D01*
X260931Y863303D01*
X261523Y862965D01*
X262107Y862613D01*
X262682Y862247D01*
X263249Y861867D01*
X263805Y861473D01*
X264352Y861066D01*
X264889Y860646D01*
X265416Y860213D01*
X265932Y859767D01*
X266437Y859309D01*
X266931Y858839D01*
X267413Y858357D01*
X267883Y857863D01*
X268341Y857358D01*
X268787Y856842D01*
X269220Y856315D01*
X269640Y855778D01*
X270047Y855231D01*
X270441Y854675D01*
X270821Y854108D01*
X271187Y853533D01*
X271539Y852949D01*
X271877Y852357D01*
X272200Y851756D01*
X272508Y851148D01*
X272802Y850533D01*
X273081Y849911D01*
X273344Y849282D01*
X273592Y848647D01*
X273825Y848006D01*
X274041Y847359D01*
X274243Y846708D01*
X274428Y846051D01*
X274597Y845391D01*
X274750Y844727D01*
X274887Y844059D01*
X275008Y843388D01*
X275112Y842714D01*
X275200Y842038D01*
X275272Y841359D01*
X275327Y840680D01*
X275365Y839999D01*
X272999Y839999D01*
X272961Y840619D01*
X272909Y841238D01*
X272841Y841855D01*
X272759Y842470D01*
X272662Y843084D01*
X272550Y843695D01*
X272423Y844302D01*
X272282Y844907D01*
X272126Y845508D01*
X271955Y846105D01*
X271771Y846698D01*
X271572Y847286D01*
X271358Y847870D01*
X271131Y848448D01*
X270890Y849020D01*
X270635Y849586D01*
X270367Y850146D01*
X270085Y850699D01*
X269790Y851246D01*
X269481Y851785D01*
X269160Y852316D01*
X268826Y852839D01*
X268479Y853355D01*
X268120Y853861D01*
X267749Y854359D01*
X267366Y854848D01*
X266972Y855328D01*
X266566Y855797D01*
X266148Y856257D01*
X265720Y856707D01*
X265281Y857146D01*
X264831Y857574D01*
X264371Y857992D01*
X263902Y858398D01*
X263422Y858792D01*
X262933Y859175D01*
X262435Y859546D01*
X261929Y859905D01*
X261413Y860252D01*
X260890Y860586D01*
X260359Y860907D01*
X259820Y861216D01*
X259273Y861511D01*
X258720Y861793D01*
X258160Y862061D01*
X257594Y862316D01*
X257022Y862557D01*
X256444Y862784D01*
X255860Y862998D01*
X255272Y863197D01*
X254679Y863381D01*
X254082Y863552D01*
X253481Y863708D01*
X252876Y863849D01*
X252269Y863976D01*
X251658Y864088D01*
X251044Y864185D01*
X250429Y864267D01*
X249812Y864335D01*
X249193Y864387D01*
X248573Y864425D01*
X248573Y862058D01*
X249141Y862021D01*
X249708Y861969D01*
X250274Y861904D01*
X250838Y861826D01*
X251400Y861733D01*
X251959Y861627D01*
X252516Y861507D01*
X253070Y861374D01*
X253620Y861227D01*
X254166Y861067D01*
X254709Y860893D01*
X255247Y860707D01*
X255780Y860507D01*
X256308Y860294D01*
X256831Y860069D01*
X257348Y859831D01*
X257859Y859580D01*
X258364Y859317D01*
X258863Y859041D01*
X259354Y858754D01*
X259839Y858455D01*
X260316Y858143D01*
X260785Y857821D01*
X261246Y857487D01*
X261699Y857142D01*
X262143Y856786D01*
X262579Y856419D01*
X263005Y856041D01*
X263423Y855654D01*
X263830Y855256D01*
X264228Y854849D01*
X264615Y854431D01*
X264993Y854005D01*
X265360Y853569D01*
X265716Y853125D01*
X266061Y852672D01*
X266395Y852211D01*
X266717Y851742D01*
X267029Y851265D01*
X267328Y850780D01*
X267615Y850289D01*
X267891Y849790D01*
X268154Y849285D01*
X268405Y848774D01*
X268643Y848257D01*
X268868Y847734D01*
X269081Y847206D01*
X269281Y846673D01*
X269467Y846135D01*
X269641Y845592D01*
X269801Y845046D01*
X269948Y844496D01*
X270081Y843942D01*
X270201Y843385D01*
X270307Y842826D01*
X270400Y842264D01*
X270478Y841700D01*
X270543Y841134D01*
X270595Y840567D01*
X270632Y839999D01*
X268264Y839999D01*
X268228Y840505D01*
X268179Y841010D01*
X268119Y841514D01*
X268046Y842016D01*
X267961Y842517D01*
X267864Y843015D01*
X267755Y843511D01*
X267634Y844004D01*
X267501Y844493D01*
X267356Y844980D01*
X267199Y845463D01*
X267031Y845942D01*
X266852Y846416D01*
X266660Y846886D01*
X266458Y847352D01*
X266244Y847812D01*
X266020Y848267D01*
X265784Y848717D01*
X265537Y849161D01*
X265280Y849598D01*
X265013Y850029D01*
X264735Y850454D01*
X264446Y850872D01*
X264148Y851283D01*
X263840Y851686D01*
X263522Y852082D01*
X263195Y852470D01*
X262859Y852850D01*
X262513Y853221D01*
X262158Y853584D01*
X261795Y853939D01*
X261424Y854285D01*
X261044Y854621D01*
X260656Y854948D01*
X260260Y855266D01*
X259857Y855574D01*
X259446Y855872D01*
X259028Y856161D01*
X258603Y856439D01*
X258172Y856706D01*
X257735Y856963D01*
X257291Y857210D01*
X256841Y857446D01*
X256386Y857670D01*
X255926Y857884D01*
X255460Y858086D01*
X254990Y858278D01*
X254516Y858457D01*
X254037Y858625D01*
X253554Y858782D01*
X253067Y858927D01*
X252578Y859060D01*
X252085Y859181D01*
X251589Y859290D01*
X251091Y859387D01*
X250590Y859472D01*
X250088Y859545D01*
X249584Y859605D01*
X249079Y859654D01*
X248573Y859690D01*
X248573Y857321D01*
X249024Y857286D01*
X249475Y857239D01*
X249925Y857181D01*
X250373Y857112D01*
X250819Y857033D01*
X251263Y856942D01*
X251705Y856841D01*
X252144Y856729D01*
X252580Y856607D01*
X253013Y856473D01*
X253443Y856330D01*
X253869Y856176D01*
X254292Y856011D01*
X254710Y855837D01*
X255124Y855652D01*
X255533Y855457D01*
X255937Y855252D01*
X256337Y855038D01*
X256730Y854813D01*
X257119Y854580D01*
X257501Y854337D01*
X257878Y854084D01*
X258248Y853823D01*
X258612Y853552D01*
X258969Y853273D01*
X259319Y852985D01*
X259662Y852689D01*
X259997Y852385D01*
X260326Y852072D01*
X260646Y851752D01*
X260959Y851423D01*
X261263Y851088D01*
X261559Y850745D01*
X261847Y850395D01*
X262126Y850038D01*
X262397Y849674D01*
X262658Y849304D01*
X262911Y848927D01*
X263154Y848545D01*
X263387Y848156D01*
X263612Y847763D01*
X263826Y847363D01*
X264031Y846959D01*
X264226Y846550D01*
X264411Y846136D01*
X264585Y845718D01*
X264750Y845295D01*
X264904Y844869D01*
X265047Y844439D01*
X265181Y844006D01*
X265303Y843570D01*
X265415Y843131D01*
X265516Y842689D01*
X265607Y842245D01*
X265686Y841799D01*
X265755Y841351D01*
X265813Y840901D01*
X265860Y840450D01*
X265895Y839999D01*
X263525Y839998D01*
X263490Y840394D01*
X263445Y840788D01*
X263391Y841181D01*
X263327Y841573D01*
X263253Y841963D01*
X263170Y842352D01*
X263077Y842738D01*
X262975Y843121D01*
X262864Y843502D01*
X262743Y843881D01*
X262613Y844256D01*
X262474Y844628D01*
X262326Y844996D01*
X262169Y845361D01*
X262003Y845721D01*
X261829Y846078D01*
X261645Y846430D01*
X261454Y846778D01*
X261253Y847120D01*
X261045Y847458D01*
X260828Y847791D01*
X260603Y848118D01*
X260370Y848440D01*
X260130Y848755D01*
X259882Y849065D01*
X259626Y849369D01*
X259363Y849666D01*
X259093Y849957D01*
X258815Y850241D01*
X258531Y850519D01*
X258240Y850789D01*
X257943Y851052D01*
X257639Y851308D01*
X257329Y851556D01*
X257014Y851796D01*
X256692Y852029D01*
X256365Y852254D01*
X256032Y852471D01*
X255694Y852679D01*
X255352Y852880D01*
X255004Y853071D01*
X254652Y853255D01*
X254295Y853429D01*
X253935Y853595D01*
X253570Y853752D01*
X253202Y853900D01*
X252830Y854039D01*
X252455Y854169D01*
X252076Y854290D01*
X251695Y854401D01*
X251312Y854503D01*
X250926Y854596D01*
X250537Y854679D01*
X250147Y854753D01*
X249755Y854817D01*
X249362Y854871D01*
X248968Y854916D01*
X248572Y854951D01*
X248572Y852579D01*
X248909Y852545D01*
X249245Y852502D01*
X249580Y852451D01*
X249914Y852392D01*
X250246Y852325D01*
X250576Y852250D01*
X250905Y852167D01*
X251231Y852075D01*
X251555Y851976D01*
X251876Y851869D01*
X252195Y851754D01*
X252511Y851631D01*
X252824Y851501D01*
X253133Y851363D01*
X253439Y851218D01*
X253742Y851065D01*
X254040Y850905D01*
X254335Y850737D01*
X254625Y850563D01*
X254911Y850381D01*
X255193Y850193D01*
X255470Y849997D01*
X255742Y849795D01*
X256008Y849586D01*
X256270Y849371D01*
X256527Y849150D01*
X256778Y848922D01*
X257023Y848689D01*
X257263Y848449D01*
X257496Y848204D01*
X257724Y847953D01*
X257945Y847696D01*
X258160Y847434D01*
X258369Y847168D01*
X258571Y846896D01*
X258767Y846619D01*
X258955Y846337D01*
X259137Y846051D01*
X259311Y845761D01*
X259479Y845466D01*
X259639Y845168D01*
X259792Y844865D01*
X259937Y844559D01*
X260075Y844250D01*
X260205Y843937D01*
X260328Y843621D01*
X260443Y843302D01*
X260550Y842981D01*
X260649Y842657D01*
X260741Y842331D01*
X260824Y842002D01*
X260899Y841672D01*
X260966Y841340D01*
X261025Y841006D01*
X261076Y840671D01*
X261119Y840335D01*
X261153Y839998D01*
X258778Y839997D01*
X258744Y840274D01*
X258704Y840549D01*
X258658Y840824D01*
X258604Y841097D01*
X258544Y841369D01*
X258478Y841640D01*
X258405Y841909D01*
X258325Y842176D01*
X258239Y842441D01*
X258147Y842703D01*
X258048Y842964D01*
X257943Y843222D01*
X257832Y843477D01*
X257715Y843730D01*
X257591Y843980D01*
X257462Y844227D01*
X257327Y844470D01*
X257186Y844710D01*
X257039Y844947D01*
X256886Y845180D01*
X256728Y845409D01*
X256564Y845635D01*
X256395Y845856D01*
X256221Y846073D01*
X256041Y846286D01*
X255856Y846495D01*
X255667Y846699D01*
X255472Y846898D01*
X255273Y847093D01*
X255069Y847282D01*
X254860Y847467D01*
X254647Y847647D01*
X254430Y847821D01*
X254209Y847990D01*
X253983Y848154D01*
X253754Y848312D01*
X253521Y848465D01*
X253284Y848612D01*
X253044Y848753D01*
X252801Y848888D01*
X252554Y849017D01*
X252304Y849141D01*
X252051Y849258D01*
X251796Y849369D01*
X251538Y849474D01*
X251277Y849573D01*
X251015Y849665D01*
X250750Y849751D01*
X250483Y849831D01*
X250214Y849904D01*
X249943Y849970D01*
X249671Y850030D01*
X249398Y850084D01*
X249123Y850130D01*
X248848Y850170D01*
X248571Y850204D01*
D12*
X213039Y838755D02*
X213049Y839597D01*
X213080Y840438D01*
X213132Y841278D01*
X213204Y842116D01*
X213297Y842952D01*
X213410Y843786D01*
X213544Y844617D01*
X213698Y845445D01*
X213872Y846268D01*
X214067Y847087D01*
X214281Y847901D01*
X214516Y848709D01*
X214770Y849511D01*
X215043Y850307D01*
X215337Y851096D01*
X215649Y851877D01*
X215981Y852651D01*
X216331Y853416D01*
X216700Y854172D01*
X217088Y854919D01*
X217494Y855656D01*
X217917Y856384D01*
X218359Y857100D01*
X218818Y857806D01*
X219294Y858499D01*
X219787Y859182D01*
X220297Y859851D01*
X220822Y860508D01*
X221364Y861152D01*
X221922Y861783D01*
X222495Y862399D01*
X223082Y863002D01*
X223685Y863589D01*
X224301Y864162D01*
X224932Y864720D01*
X225576Y865262D01*
X226233Y865787D01*
X226902Y866297D01*
X227585Y866790D01*
X228278Y867266D01*
X228984Y867725D01*
X229700Y868167D01*
X230428Y868590D01*
X231165Y868996D01*
X231912Y869384D01*
X232668Y869753D01*
X233433Y870103D01*
X234207Y870435D01*
X234988Y870747D01*
X235777Y871041D01*
X236573Y871314D01*
X237375Y871568D01*
X238183Y871803D01*
X238997Y872017D01*
X239816Y872212D01*
X240639Y872386D01*
X241467Y872540D01*
X242298Y872674D01*
X243132Y872787D01*
X243968Y872880D01*
X244806Y872952D01*
X245646Y873004D01*
X246487Y873035D01*
X247329Y873045D01*
X248171Y873035D01*
X249012Y873004D01*
X249852Y872952D01*
X250690Y872880D01*
X251526Y872787D01*
X252360Y872674D01*
X253191Y872540D01*
X254019Y872386D01*
X254842Y872212D01*
X255661Y872017D01*
X256475Y871803D01*
X257283Y871568D01*
X258085Y871314D01*
X258881Y871041D01*
X259670Y870747D01*
X260451Y870435D01*
X261225Y870103D01*
X261990Y869753D01*
X262746Y869384D01*
X263493Y868996D01*
X264230Y868590D01*
X264958Y868167D01*
X265674Y867725D01*
X266380Y867266D01*
X267073Y866790D01*
X267756Y866297D01*
X268425Y865787D01*
X269082Y865262D01*
X269726Y864720D01*
X270357Y864162D01*
X270973Y863589D01*
X271576Y863002D01*
X272163Y862399D01*
X272736Y861783D01*
X273294Y861152D01*
X273836Y860508D01*
X274361Y859851D01*
X274871Y859182D01*
X275364Y858499D01*
X275840Y857806D01*
X276299Y857100D01*
X276741Y856384D01*
X277164Y855656D01*
X277570Y854919D01*
X277958Y854172D01*
X278327Y853416D01*
X278677Y852651D01*
X279009Y851877D01*
X279321Y851096D01*
X279615Y850307D01*
X279888Y849511D01*
X280142Y848709D01*
X280377Y847901D01*
X280591Y847087D01*
X280786Y846268D01*
X280960Y845445D01*
X281114Y844617D01*
X281248Y843786D01*
X281361Y842952D01*
X281454Y842116D01*
X281526Y841278D01*
X281578Y840438D01*
X281609Y839597D01*
X281619Y838755D01*
X281609Y837913D01*
X281578Y837072D01*
X281526Y836232D01*
X281454Y835394D01*
X281361Y834558D01*
X281248Y833724D01*
X281114Y832893D01*
X280960Y832065D01*
X280786Y831242D01*
X280591Y830423D01*
X280377Y829609D01*
X280142Y828801D01*
X279888Y827999D01*
X279615Y827203D01*
X279321Y826414D01*
X279009Y825633D01*
X278677Y824859D01*
X278327Y824094D01*
X277958Y823338D01*
X277570Y822591D01*
X277164Y821854D01*
X276741Y821126D01*
X276299Y820410D01*
X275840Y819704D01*
X275364Y819011D01*
X274871Y818328D01*
X274361Y817659D01*
X273836Y817002D01*
X273294Y816358D01*
X272736Y815727D01*
X272163Y815111D01*
X271576Y814508D01*
X270973Y813921D01*
X270357Y813348D01*
X269726Y812790D01*
X269082Y812248D01*
X268425Y811723D01*
X267756Y811213D01*
X267073Y810720D01*
X266380Y810244D01*
X265674Y809785D01*
X264958Y809343D01*
X264230Y808920D01*
X263493Y808514D01*
X262746Y808126D01*
X261990Y807757D01*
X261225Y807407D01*
X260451Y807075D01*
X259670Y806763D01*
X258881Y806469D01*
X258085Y806196D01*
X257283Y805942D01*
X256475Y805707D01*
X255661Y805493D01*
X254842Y805298D01*
X254019Y805124D01*
X253191Y804970D01*
X252360Y804836D01*
X251526Y804723D01*
X250690Y804630D01*
X249852Y804558D01*
X249012Y804506D01*
X248171Y804475D01*
X247329Y804465D01*
X246487Y804475D01*
X245646Y804506D01*
X244806Y804558D01*
X243968Y804630D01*
X243132Y804723D01*
X242298Y804836D01*
X241467Y804970D01*
X240639Y805124D01*
X239816Y805298D01*
X238997Y805493D01*
X238183Y805707D01*
X237375Y805942D01*
X236573Y806196D01*
X235777Y806469D01*
X234988Y806763D01*
X234207Y807075D01*
X233433Y807407D01*
X232668Y807757D01*
X231912Y808126D01*
X231165Y808514D01*
X230428Y808920D01*
X229700Y809343D01*
X228984Y809785D01*
X228278Y810244D01*
X227585Y810720D01*
X226902Y811213D01*
X226233Y811723D01*
X225576Y812248D01*
X224932Y812790D01*
X224301Y813348D01*
X223685Y813921D01*
X223082Y814508D01*
X222495Y815111D01*
X221922Y815727D01*
X221364Y816358D01*
X220822Y817002D01*
X220297Y817659D01*
X219787Y818328D01*
X219294Y819011D01*
X218818Y819704D01*
X218359Y820410D01*
X217917Y821126D01*
X217494Y821854D01*
X217088Y822591D01*
X216700Y823338D01*
X216331Y824094D01*
X215981Y824859D01*
X215649Y825633D01*
X215337Y826414D01*
X215043Y827203D01*
X214770Y827999D01*
X214516Y828801D01*
X214281Y829609D01*
X214067Y830423D01*
X213872Y831242D01*
X213698Y832065D01*
X213544Y832893D01*
X213410Y833724D01*
X213297Y834558D01*
X213204Y835394D01*
X213132Y836232D01*
X213080Y837072D01*
X213049Y837913D01*
X213039Y838755D01*
D16*
X239709Y838755D02*
X239711Y838942D01*
X239718Y839129D01*
X239730Y839316D01*
X239746Y839502D01*
X239766Y839688D01*
X239791Y839873D01*
X239821Y840058D01*
X239855Y840242D01*
X239894Y840425D01*
X239937Y840607D01*
X239985Y840787D01*
X240037Y840967D01*
X240094Y841145D01*
X240154Y841322D01*
X240220Y841497D01*
X240289Y841671D01*
X240363Y841843D01*
X240441Y842013D01*
X240523Y842181D01*
X240609Y842347D01*
X240699Y842511D01*
X240793Y842672D01*
X240891Y842832D01*
X240993Y842988D01*
X241099Y843143D01*
X241209Y843294D01*
X241322Y843443D01*
X241439Y843589D01*
X241559Y843732D01*
X241683Y843872D01*
X241810Y844009D01*
X241941Y844143D01*
X242075Y844274D01*
X242212Y844401D01*
X242352Y844525D01*
X242495Y844645D01*
X242641Y844762D01*
X242790Y844875D01*
X242941Y844985D01*
X243096Y845091D01*
X243252Y845193D01*
X243412Y845291D01*
X243573Y845385D01*
X243737Y845475D01*
X243903Y845561D01*
X244071Y845643D01*
X244241Y845721D01*
X244413Y845795D01*
X244587Y845864D01*
X244762Y845930D01*
X244939Y845990D01*
X245117Y846047D01*
X245297Y846099D01*
X245477Y846147D01*
X245659Y846190D01*
X245842Y846229D01*
X246026Y846263D01*
X246211Y846293D01*
X246396Y846318D01*
X246582Y846338D01*
X246768Y846354D01*
X246955Y846366D01*
X247142Y846373D01*
X247329Y846375D01*
X247516Y846373D01*
X247703Y846366D01*
X247890Y846354D01*
X248076Y846338D01*
X248262Y846318D01*
X248447Y846293D01*
X248632Y846263D01*
X248816Y846229D01*
X248999Y846190D01*
X249181Y846147D01*
X249361Y846099D01*
X249541Y846047D01*
X249719Y845990D01*
X249896Y845930D01*
X250071Y845864D01*
X250245Y845795D01*
X250417Y845721D01*
X250587Y845643D01*
X250755Y845561D01*
X250921Y845475D01*
X251085Y845385D01*
X251246Y845291D01*
X251406Y845193D01*
X251562Y845091D01*
X251717Y844985D01*
X251868Y844875D01*
X252017Y844762D01*
X252163Y844645D01*
X252306Y844525D01*
X252446Y844401D01*
X252583Y844274D01*
X252717Y844143D01*
X252848Y844009D01*
X252975Y843872D01*
X253099Y843732D01*
X253219Y843589D01*
X253336Y843443D01*
X253449Y843294D01*
X253559Y843143D01*
X253665Y842988D01*
X253767Y842832D01*
X253865Y842672D01*
X253959Y842511D01*
X254049Y842347D01*
X254135Y842181D01*
X254217Y842013D01*
X254295Y841843D01*
X254369Y841671D01*
X254438Y841497D01*
X254504Y841322D01*
X254564Y841145D01*
X254621Y840967D01*
X254673Y840787D01*
X254721Y840607D01*
X254764Y840425D01*
X254803Y840242D01*
X254837Y840058D01*
X254867Y839873D01*
X254892Y839688D01*
X254912Y839502D01*
X254928Y839316D01*
X254940Y839129D01*
X254947Y838942D01*
X254949Y838755D01*
X254947Y838568D01*
X254940Y838381D01*
X254928Y838194D01*
X254912Y838008D01*
X254892Y837822D01*
X254867Y837637D01*
X254837Y837452D01*
X254803Y837268D01*
X254764Y837085D01*
X254721Y836903D01*
X254673Y836723D01*
X254621Y836543D01*
X254564Y836365D01*
X254504Y836188D01*
X254438Y836013D01*
X254369Y835839D01*
X254295Y835667D01*
X254217Y835497D01*
X254135Y835329D01*
X254049Y835163D01*
X253959Y834999D01*
X253865Y834838D01*
X253767Y834678D01*
X253665Y834522D01*
X253559Y834367D01*
X253449Y834216D01*
X253336Y834067D01*
X253219Y833921D01*
X253099Y833778D01*
X252975Y833638D01*
X252848Y833501D01*
X252717Y833367D01*
X252583Y833236D01*
X252446Y833109D01*
X252306Y832985D01*
X252163Y832865D01*
X252017Y832748D01*
X251868Y832635D01*
X251717Y832525D01*
X251562Y832419D01*
X251406Y832317D01*
X251246Y832219D01*
X251085Y832125D01*
X250921Y832035D01*
X250755Y831949D01*
X250587Y831867D01*
X250417Y831789D01*
X250245Y831715D01*
X250071Y831646D01*
X249896Y831580D01*
X249719Y831520D01*
X249541Y831463D01*
X249361Y831411D01*
X249181Y831363D01*
X248999Y831320D01*
X248816Y831281D01*
X248632Y831247D01*
X248447Y831217D01*
X248262Y831192D01*
X248076Y831172D01*
X247890Y831156D01*
X247703Y831144D01*
X247516Y831137D01*
X247329Y831135D01*
X247142Y831137D01*
X246955Y831144D01*
X246768Y831156D01*
X246582Y831172D01*
X246396Y831192D01*
X246211Y831217D01*
X246026Y831247D01*
X245842Y831281D01*
X245659Y831320D01*
X245477Y831363D01*
X245297Y831411D01*
X245117Y831463D01*
X244939Y831520D01*
X244762Y831580D01*
X244587Y831646D01*
X244413Y831715D01*
X244241Y831789D01*
X244071Y831867D01*
X243903Y831949D01*
X243737Y832035D01*
X243573Y832125D01*
X243412Y832219D01*
X243252Y832317D01*
X243096Y832419D01*
X242941Y832525D01*
X242790Y832635D01*
X242641Y832748D01*
X242495Y832865D01*
X242352Y832985D01*
X242212Y833109D01*
X242075Y833236D01*
X241941Y833367D01*
X241810Y833501D01*
X241683Y833638D01*
X241559Y833778D01*
X241439Y833921D01*
X241322Y834067D01*
X241209Y834216D01*
X241099Y834367D01*
X240993Y834522D01*
X240891Y834678D01*
X240793Y834838D01*
X240699Y834999D01*
X240609Y835163D01*
X240523Y835329D01*
X240441Y835497D01*
X240363Y835667D01*
X240289Y835839D01*
X240220Y836013D01*
X240154Y836188D01*
X240094Y836365D01*
X240037Y836543D01*
X239985Y836723D01*
X239937Y836903D01*
X239894Y837085D01*
X239855Y837268D01*
X239821Y837452D01*
X239791Y837637D01*
X239766Y837822D01*
X239746Y838008D01*
X239730Y838194D01*
X239718Y838381D01*
X239711Y838568D01*
X239709Y838755D01*
D12*
X230329Y838755D02*
X230334Y839172D01*
X230349Y839589D01*
X230375Y840006D01*
X230411Y840421D01*
X230457Y840836D01*
X230513Y841249D01*
X230579Y841661D01*
X230656Y842072D01*
X230742Y842480D01*
X230838Y842886D01*
X230945Y843289D01*
X231061Y843690D01*
X231187Y844088D01*
X231323Y844482D01*
X231468Y844873D01*
X231623Y845261D01*
X231787Y845644D01*
X231961Y846023D01*
X232144Y846398D01*
X232336Y846769D01*
X232538Y847134D01*
X232748Y847495D01*
X232966Y847850D01*
X233194Y848200D01*
X233430Y848544D01*
X233674Y848882D01*
X233927Y849214D01*
X234188Y849540D01*
X234456Y849859D01*
X234733Y850172D01*
X235017Y850477D01*
X235308Y850776D01*
X235607Y851067D01*
X235912Y851351D01*
X236225Y851628D01*
X236544Y851896D01*
X236870Y852157D01*
X237202Y852410D01*
X237540Y852654D01*
X237884Y852890D01*
X238234Y853118D01*
X238589Y853336D01*
X238950Y853546D01*
X239315Y853748D01*
X239686Y853940D01*
X240061Y854123D01*
X240440Y854297D01*
X240823Y854461D01*
X241211Y854616D01*
X241602Y854761D01*
X241996Y854897D01*
X242394Y855023D01*
X242795Y855139D01*
X243198Y855246D01*
X243604Y855342D01*
X244012Y855428D01*
X244423Y855505D01*
X244835Y855571D01*
X245248Y855627D01*
X245663Y855673D01*
X246078Y855709D01*
X246495Y855735D01*
X246912Y855750D01*
X247329Y855755D01*
X247746Y855750D01*
X248163Y855735D01*
X248580Y855709D01*
X248995Y855673D01*
X249410Y855627D01*
X249823Y855571D01*
X250235Y855505D01*
X250646Y855428D01*
X251054Y855342D01*
X251460Y855246D01*
X251863Y855139D01*
X252264Y855023D01*
X252662Y854897D01*
X253056Y854761D01*
X253447Y854616D01*
X253835Y854461D01*
X254218Y854297D01*
X254597Y854123D01*
X254972Y853940D01*
X255343Y853748D01*
X255708Y853546D01*
X256069Y853336D01*
X256424Y853118D01*
X256774Y852890D01*
X257118Y852654D01*
X257456Y852410D01*
X257788Y852157D01*
X258114Y851896D01*
X258433Y851628D01*
X258746Y851351D01*
X259051Y851067D01*
X259350Y850776D01*
X259641Y850477D01*
X259925Y850172D01*
X260202Y849859D01*
X260470Y849540D01*
X260731Y849214D01*
X260984Y848882D01*
X261228Y848544D01*
X261464Y848200D01*
X261692Y847850D01*
X261910Y847495D01*
X262120Y847134D01*
X262322Y846769D01*
X262514Y846398D01*
X262697Y846023D01*
X262871Y845644D01*
X263035Y845261D01*
X263190Y844873D01*
X263335Y844482D01*
X263471Y844088D01*
X263597Y843690D01*
X263713Y843289D01*
X263820Y842886D01*
X263916Y842480D01*
X264002Y842072D01*
X264079Y841661D01*
X264145Y841249D01*
X264201Y840836D01*
X264247Y840421D01*
X264283Y840006D01*
X264309Y839589D01*
X264324Y839172D01*
X264329Y838755D01*
X264324Y838338D01*
X264309Y837921D01*
X264283Y837504D01*
X264247Y837089D01*
X264201Y836674D01*
X264145Y836261D01*
X264079Y835849D01*
X264002Y835438D01*
X263916Y835030D01*
X263820Y834624D01*
X263713Y834221D01*
X263597Y833820D01*
X263471Y833422D01*
X263335Y833028D01*
X263190Y832637D01*
X263035Y832249D01*
X262871Y831866D01*
X262697Y831487D01*
X262514Y831112D01*
X262322Y830741D01*
X262120Y830376D01*
X261910Y830015D01*
X261692Y829660D01*
X261464Y829310D01*
X261228Y828966D01*
X260984Y828628D01*
X260731Y828296D01*
X260470Y827970D01*
X260202Y827651D01*
X259925Y827338D01*
X259641Y827033D01*
X259350Y826734D01*
X259051Y826443D01*
X258746Y826159D01*
X258433Y825882D01*
X258114Y825614D01*
X257788Y825353D01*
X257456Y825100D01*
X257118Y824856D01*
X256774Y824620D01*
X256424Y824392D01*
X256069Y824174D01*
X255708Y823964D01*
X255343Y823762D01*
X254972Y823570D01*
X254597Y823387D01*
X254218Y823213D01*
X253835Y823049D01*
X253447Y822894D01*
X253056Y822749D01*
X252662Y822613D01*
X252264Y822487D01*
X251863Y822371D01*
X251460Y822264D01*
X251054Y822168D01*
X250646Y822082D01*
X250235Y822005D01*
X249823Y821939D01*
X249410Y821883D01*
X248995Y821837D01*
X248580Y821801D01*
X248163Y821775D01*
X247746Y821760D01*
X247329Y821755D01*
X246912Y821760D01*
X246495Y821775D01*
X246078Y821801D01*
X245663Y821837D01*
X245248Y821883D01*
X244835Y821939D01*
X244423Y822005D01*
X244012Y822082D01*
X243604Y822168D01*
X243198Y822264D01*
X242795Y822371D01*
X242394Y822487D01*
X241996Y822613D01*
X241602Y822749D01*
X241211Y822894D01*
X240823Y823049D01*
X240440Y823213D01*
X240061Y823387D01*
X239686Y823570D01*
X239315Y823762D01*
X238950Y823964D01*
X238589Y824174D01*
X238234Y824392D01*
X237884Y824620D01*
X237540Y824856D01*
X237202Y825100D01*
X236870Y825353D01*
X236544Y825614D01*
X236225Y825882D01*
X235912Y826159D01*
X235607Y826443D01*
X235308Y826734D01*
X235017Y827033D01*
X234733Y827338D01*
X234456Y827651D01*
X234188Y827970D01*
X233927Y828296D01*
X233674Y828628D01*
X233430Y828966D01*
X233194Y829310D01*
X232966Y829660D01*
X232748Y830015D01*
X232538Y830376D01*
X232336Y830741D01*
X232144Y831112D01*
X231961Y831487D01*
X231787Y831866D01*
X231623Y832249D01*
X231468Y832637D01*
X231323Y833028D01*
X231187Y833422D01*
X231061Y833820D01*
X230945Y834221D01*
X230838Y834624D01*
X230742Y835030D01*
X230656Y835438D01*
X230579Y835849D01*
X230513Y836261D01*
X230457Y836674D01*
X230411Y837089D01*
X230375Y837504D01*
X230349Y837921D01*
X230334Y838338D01*
X230329Y838755D01*
D15*
X1075661Y276511D02*
X1098115Y276514D01*
X1098114Y276513D02*
X1098148Y276264D01*
X1098187Y276016D01*
X1098232Y275768D01*
X1098283Y275522D01*
X1098340Y275277D01*
X1098403Y275034D01*
X1098471Y274792D01*
X1098546Y274552D01*
X1098627Y274314D01*
X1098713Y274077D01*
X1098805Y273843D01*
X1098902Y273612D01*
X1099005Y273382D01*
X1099114Y273155D01*
X1099228Y272931D01*
X1099347Y272710D01*
X1099472Y272492D01*
X1099602Y272277D01*
X1099737Y272064D01*
X1099877Y271856D01*
X1100023Y271651D01*
X1100173Y271449D01*
X1100328Y271251D01*
X1100488Y271057D01*
X1100652Y270867D01*
X1100821Y270680D01*
X1100995Y270498D01*
X1101172Y270321D01*
X1101354Y270147D01*
X1101541Y269978D01*
X1101731Y269814D01*
X1101925Y269654D01*
X1102123Y269499D01*
X1102325Y269349D01*
X1102530Y269203D01*
X1102738Y269063D01*
X1102951Y268928D01*
X1103166Y268798D01*
X1103384Y268673D01*
X1103605Y268554D01*
X1103829Y268440D01*
X1104056Y268331D01*
X1104286Y268228D01*
X1104517Y268131D01*
X1104751Y268039D01*
X1104988Y267953D01*
X1105226Y267872D01*
X1105466Y267797D01*
X1105708Y267729D01*
X1105951Y267666D01*
X1106196Y267609D01*
X1106442Y267558D01*
X1106690Y267513D01*
X1106938Y267474D01*
X1107187Y267440D01*
X1107185Y244987D01*
X1106382Y245027D01*
X1105581Y245087D01*
X1104781Y245167D01*
X1103984Y245266D01*
X1103189Y245384D01*
X1102397Y245522D01*
X1101609Y245680D01*
X1100825Y245857D01*
X1100046Y246053D01*
X1099272Y246268D01*
X1098503Y246501D01*
X1097740Y246754D01*
X1096984Y247025D01*
X1096234Y247315D01*
X1095492Y247623D01*
X1094757Y247949D01*
X1094031Y248293D01*
X1093313Y248655D01*
X1092605Y249034D01*
X1091906Y249430D01*
X1091217Y249843D01*
X1090538Y250274D01*
X1089870Y250720D01*
X1089213Y251183D01*
X1088568Y251662D01*
X1087934Y252156D01*
X1087313Y252666D01*
X1086705Y253191D01*
X1086109Y253731D01*
X1085527Y254285D01*
X1084959Y254853D01*
X1084405Y255435D01*
X1083865Y256031D01*
X1083340Y256639D01*
X1082830Y257260D01*
X1082336Y257894D01*
X1081857Y258539D01*
X1081394Y259196D01*
X1080948Y259864D01*
X1080517Y260543D01*
X1080104Y261232D01*
X1079708Y261931D01*
X1079329Y262639D01*
X1078967Y263357D01*
X1078623Y264083D01*
X1078297Y264818D01*
X1077989Y265560D01*
X1077699Y266310D01*
X1077428Y267066D01*
X1077175Y267829D01*
X1076942Y268598D01*
X1076727Y269372D01*
X1076531Y270151D01*
X1076354Y270935D01*
X1076196Y271723D01*
X1076058Y272515D01*
X1075940Y273310D01*
X1075841Y274107D01*
X1075761Y274907D01*
X1075701Y275708D01*
X1075661Y276511D01*
X1078026Y276511D01*
X1078066Y275769D01*
X1078123Y275029D01*
X1078199Y274290D01*
X1078293Y273553D01*
X1078404Y272819D01*
X1078533Y272087D01*
X1078681Y271359D01*
X1078846Y270635D01*
X1079028Y269915D01*
X1079228Y269200D01*
X1079446Y268490D01*
X1079681Y267785D01*
X1079933Y267087D01*
X1080201Y266394D01*
X1080487Y265709D01*
X1080789Y265030D01*
X1081108Y264359D01*
X1081443Y263697D01*
X1081795Y263042D01*
X1082162Y262396D01*
X1082544Y261760D01*
X1082942Y261133D01*
X1083356Y260516D01*
X1083784Y259909D01*
X1084227Y259313D01*
X1084684Y258727D01*
X1085156Y258154D01*
X1085641Y257591D01*
X1086140Y257041D01*
X1086652Y256503D01*
X1087177Y255978D01*
X1087715Y255466D01*
X1088265Y254967D01*
X1088828Y254482D01*
X1089401Y254010D01*
X1089987Y253553D01*
X1090583Y253110D01*
X1091190Y252682D01*
X1091807Y252268D01*
X1092434Y251870D01*
X1093070Y251488D01*
X1093716Y251121D01*
X1094371Y250769D01*
X1095033Y250434D01*
X1095704Y250115D01*
X1096383Y249813D01*
X1097068Y249527D01*
X1097761Y249259D01*
X1098459Y249007D01*
X1099164Y248772D01*
X1099874Y248554D01*
X1100589Y248354D01*
X1101309Y248172D01*
X1102033Y248007D01*
X1102761Y247859D01*
X1103493Y247730D01*
X1104227Y247619D01*
X1104964Y247525D01*
X1105703Y247449D01*
X1106443Y247392D01*
X1107185Y247352D01*
X1107185Y249719D01*
X1106504Y249757D01*
X1105825Y249812D01*
X1105146Y249884D01*
X1104470Y249972D01*
X1103796Y250076D01*
X1103125Y250197D01*
X1102457Y250334D01*
X1101793Y250487D01*
X1101133Y250656D01*
X1100476Y250841D01*
X1099825Y251043D01*
X1099178Y251259D01*
X1098537Y251492D01*
X1097902Y251740D01*
X1097273Y252003D01*
X1096651Y252282D01*
X1096036Y252576D01*
X1095428Y252884D01*
X1094827Y253207D01*
X1094235Y253545D01*
X1093651Y253897D01*
X1093076Y254263D01*
X1092509Y254643D01*
X1091953Y255037D01*
X1091406Y255444D01*
X1090869Y255864D01*
X1090342Y256297D01*
X1089826Y256743D01*
X1089321Y257201D01*
X1088827Y257671D01*
X1088345Y258153D01*
X1087875Y258647D01*
X1087417Y259152D01*
X1086971Y259668D01*
X1086538Y260195D01*
X1086118Y260732D01*
X1085711Y261279D01*
X1085317Y261835D01*
X1084937Y262402D01*
X1084571Y262977D01*
X1084219Y263561D01*
X1083881Y264153D01*
X1083558Y264754D01*
X1083250Y265362D01*
X1082956Y265977D01*
X1082677Y266599D01*
X1082414Y267228D01*
X1082166Y267863D01*
X1081933Y268504D01*
X1081717Y269151D01*
X1081515Y269802D01*
X1081330Y270459D01*
X1081161Y271119D01*
X1081008Y271783D01*
X1080871Y272451D01*
X1080750Y273122D01*
X1080646Y273796D01*
X1080558Y274472D01*
X1080486Y275151D01*
X1080431Y275830D01*
X1080393Y276511D01*
X1082759Y276511D01*
X1082797Y275891D01*
X1082849Y275272D01*
X1082917Y274655D01*
X1082999Y274040D01*
X1083096Y273426D01*
X1083208Y272815D01*
X1083335Y272208D01*
X1083476Y271603D01*
X1083632Y271002D01*
X1083803Y270405D01*
X1083987Y269812D01*
X1084186Y269224D01*
X1084400Y268640D01*
X1084627Y268062D01*
X1084868Y267490D01*
X1085123Y266924D01*
X1085391Y266364D01*
X1085673Y265811D01*
X1085968Y265264D01*
X1086277Y264725D01*
X1086598Y264194D01*
X1086932Y263671D01*
X1087279Y263155D01*
X1087638Y262649D01*
X1088009Y262151D01*
X1088392Y261662D01*
X1088786Y261182D01*
X1089192Y260713D01*
X1089610Y260253D01*
X1090038Y259803D01*
X1090477Y259364D01*
X1090927Y258936D01*
X1091387Y258518D01*
X1091856Y258112D01*
X1092336Y257718D01*
X1092825Y257335D01*
X1093323Y256964D01*
X1093829Y256605D01*
X1094345Y256258D01*
X1094868Y255924D01*
X1095399Y255603D01*
X1095938Y255294D01*
X1096485Y254999D01*
X1097038Y254717D01*
X1097598Y254449D01*
X1098164Y254194D01*
X1098736Y253953D01*
X1099314Y253726D01*
X1099898Y253512D01*
X1100486Y253313D01*
X1101079Y253129D01*
X1101676Y252958D01*
X1102277Y252802D01*
X1102882Y252661D01*
X1103489Y252534D01*
X1104100Y252422D01*
X1104714Y252325D01*
X1105329Y252243D01*
X1105946Y252175D01*
X1106565Y252123D01*
X1107185Y252085D01*
X1107185Y254452D01*
X1106617Y254489D01*
X1106050Y254541D01*
X1105484Y254606D01*
X1104920Y254684D01*
X1104358Y254777D01*
X1103799Y254883D01*
X1103242Y255003D01*
X1102688Y255136D01*
X1102138Y255283D01*
X1101592Y255443D01*
X1101049Y255617D01*
X1100511Y255803D01*
X1099978Y256003D01*
X1099450Y256216D01*
X1098927Y256441D01*
X1098410Y256679D01*
X1097899Y256930D01*
X1097394Y257193D01*
X1096895Y257469D01*
X1096404Y257756D01*
X1095919Y258055D01*
X1095442Y258367D01*
X1094973Y258689D01*
X1094512Y259023D01*
X1094059Y259368D01*
X1093615Y259724D01*
X1093179Y260091D01*
X1092753Y260469D01*
X1092335Y260856D01*
X1091928Y261254D01*
X1091530Y261661D01*
X1091143Y262079D01*
X1090765Y262505D01*
X1090398Y262941D01*
X1090042Y263385D01*
X1089697Y263838D01*
X1089363Y264299D01*
X1089041Y264768D01*
X1088729Y265245D01*
X1088430Y265730D01*
X1088143Y266221D01*
X1087867Y266720D01*
X1087604Y267225D01*
X1087353Y267736D01*
X1087115Y268253D01*
X1086890Y268776D01*
X1086677Y269304D01*
X1086477Y269837D01*
X1086291Y270375D01*
X1086117Y270918D01*
X1085957Y271464D01*
X1085810Y272014D01*
X1085677Y272568D01*
X1085557Y273125D01*
X1085451Y273684D01*
X1085358Y274246D01*
X1085280Y274810D01*
X1085215Y275376D01*
X1085163Y275943D01*
X1085126Y276511D01*
X1087494Y276511D01*
X1087530Y276005D01*
X1087579Y275500D01*
X1087639Y274996D01*
X1087712Y274494D01*
X1087797Y273993D01*
X1087894Y273495D01*
X1088003Y272999D01*
X1088124Y272506D01*
X1088257Y272017D01*
X1088402Y271530D01*
X1088559Y271047D01*
X1088727Y270568D01*
X1088906Y270094D01*
X1089098Y269624D01*
X1089300Y269158D01*
X1089514Y268698D01*
X1089738Y268243D01*
X1089974Y267793D01*
X1090221Y267349D01*
X1090478Y266912D01*
X1090745Y266481D01*
X1091023Y266056D01*
X1091312Y265638D01*
X1091610Y265227D01*
X1091918Y264824D01*
X1092236Y264428D01*
X1092563Y264040D01*
X1092899Y263660D01*
X1093245Y263289D01*
X1093600Y262926D01*
X1093963Y262571D01*
X1094334Y262225D01*
X1094714Y261889D01*
X1095102Y261562D01*
X1095498Y261244D01*
X1095901Y260936D01*
X1096312Y260638D01*
X1096730Y260349D01*
X1097155Y260071D01*
X1097586Y259804D01*
X1098023Y259547D01*
X1098467Y259300D01*
X1098917Y259064D01*
X1099372Y258840D01*
X1099832Y258626D01*
X1100298Y258424D01*
X1100768Y258232D01*
X1101242Y258053D01*
X1101721Y257885D01*
X1102204Y257728D01*
X1102691Y257583D01*
X1103180Y257450D01*
X1103673Y257329D01*
X1104169Y257220D01*
X1104667Y257123D01*
X1105168Y257038D01*
X1105670Y256965D01*
X1106174Y256905D01*
X1106679Y256856D01*
X1107185Y256820D01*
X1107185Y259189D01*
X1106734Y259224D01*
X1106283Y259271D01*
X1105833Y259329D01*
X1105385Y259398D01*
X1104939Y259477D01*
X1104495Y259568D01*
X1104053Y259669D01*
X1103614Y259781D01*
X1103178Y259903D01*
X1102745Y260037D01*
X1102315Y260180D01*
X1101889Y260334D01*
X1101466Y260499D01*
X1101048Y260673D01*
X1100634Y260858D01*
X1100225Y261053D01*
X1099821Y261258D01*
X1099421Y261472D01*
X1099028Y261697D01*
X1098639Y261930D01*
X1098257Y262173D01*
X1097880Y262426D01*
X1097510Y262687D01*
X1097146Y262958D01*
X1096789Y263237D01*
X1096439Y263525D01*
X1096096Y263821D01*
X1095761Y264125D01*
X1095432Y264438D01*
X1095112Y264758D01*
X1094799Y265087D01*
X1094495Y265422D01*
X1094199Y265765D01*
X1093911Y266115D01*
X1093632Y266472D01*
X1093361Y266836D01*
X1093100Y267206D01*
X1092847Y267583D01*
X1092604Y267965D01*
X1092371Y268354D01*
X1092146Y268747D01*
X1091932Y269147D01*
X1091727Y269551D01*
X1091532Y269960D01*
X1091347Y270374D01*
X1091173Y270792D01*
X1091008Y271215D01*
X1090854Y271641D01*
X1090711Y272071D01*
X1090577Y272504D01*
X1090455Y272940D01*
X1090343Y273379D01*
X1090242Y273821D01*
X1090151Y274265D01*
X1090072Y274711D01*
X1090003Y275159D01*
X1089945Y275609D01*
X1089898Y276060D01*
X1089863Y276511D01*
X1092233Y276512D01*
X1092268Y276116D01*
X1092313Y275722D01*
X1092367Y275329D01*
X1092431Y274937D01*
X1092505Y274547D01*
X1092588Y274158D01*
X1092681Y273772D01*
X1092783Y273389D01*
X1092894Y273008D01*
X1093015Y272629D01*
X1093145Y272254D01*
X1093284Y271882D01*
X1093432Y271514D01*
X1093589Y271149D01*
X1093755Y270789D01*
X1093929Y270432D01*
X1094113Y270080D01*
X1094304Y269732D01*
X1094505Y269390D01*
X1094713Y269052D01*
X1094930Y268719D01*
X1095155Y268392D01*
X1095388Y268070D01*
X1095628Y267755D01*
X1095876Y267445D01*
X1096132Y267141D01*
X1096395Y266844D01*
X1096665Y266553D01*
X1096943Y266269D01*
X1097227Y265991D01*
X1097518Y265721D01*
X1097815Y265458D01*
X1098119Y265202D01*
X1098429Y264954D01*
X1098744Y264714D01*
X1099066Y264481D01*
X1099393Y264256D01*
X1099726Y264039D01*
X1100064Y263831D01*
X1100406Y263630D01*
X1100754Y263439D01*
X1101106Y263255D01*
X1101463Y263081D01*
X1101823Y262915D01*
X1102188Y262758D01*
X1102556Y262610D01*
X1102928Y262471D01*
X1103303Y262341D01*
X1103682Y262220D01*
X1104063Y262109D01*
X1104446Y262007D01*
X1104832Y261914D01*
X1105221Y261831D01*
X1105611Y261757D01*
X1106003Y261693D01*
X1106396Y261639D01*
X1106790Y261594D01*
X1107186Y261559D01*
X1107186Y263931D01*
X1106849Y263965D01*
X1106513Y264008D01*
X1106178Y264059D01*
X1105844Y264118D01*
X1105512Y264185D01*
X1105182Y264260D01*
X1104853Y264343D01*
X1104527Y264435D01*
X1104203Y264534D01*
X1103882Y264641D01*
X1103563Y264756D01*
X1103247Y264879D01*
X1102934Y265009D01*
X1102625Y265147D01*
X1102319Y265292D01*
X1102016Y265445D01*
X1101718Y265605D01*
X1101423Y265773D01*
X1101133Y265947D01*
X1100847Y266129D01*
X1100565Y266317D01*
X1100288Y266513D01*
X1100016Y266715D01*
X1099750Y266924D01*
X1099488Y267139D01*
X1099231Y267360D01*
X1098980Y267588D01*
X1098735Y267821D01*
X1098495Y268061D01*
X1098262Y268306D01*
X1098034Y268557D01*
X1097813Y268814D01*
X1097598Y269076D01*
X1097389Y269342D01*
X1097187Y269614D01*
X1096991Y269891D01*
X1096803Y270173D01*
X1096621Y270459D01*
X1096447Y270749D01*
X1096279Y271044D01*
X1096119Y271342D01*
X1095966Y271645D01*
X1095821Y271951D01*
X1095683Y272260D01*
X1095553Y272573D01*
X1095430Y272889D01*
X1095315Y273208D01*
X1095208Y273529D01*
X1095109Y273853D01*
X1095017Y274179D01*
X1094934Y274508D01*
X1094859Y274838D01*
X1094792Y275170D01*
X1094733Y275504D01*
X1094682Y275839D01*
X1094639Y276175D01*
X1094605Y276512D01*
X1096980Y276513D01*
X1097014Y276236D01*
X1097054Y275961D01*
X1097100Y275686D01*
X1097154Y275413D01*
X1097214Y275141D01*
X1097280Y274870D01*
X1097353Y274601D01*
X1097433Y274334D01*
X1097519Y274069D01*
X1097611Y273807D01*
X1097710Y273546D01*
X1097815Y273288D01*
X1097926Y273033D01*
X1098043Y272780D01*
X1098167Y272530D01*
X1098296Y272283D01*
X1098431Y272040D01*
X1098572Y271800D01*
X1098719Y271563D01*
X1098872Y271330D01*
X1099030Y271101D01*
X1099194Y270875D01*
X1099363Y270654D01*
X1099537Y270437D01*
X1099717Y270224D01*
X1099902Y270015D01*
X1100091Y269811D01*
X1100286Y269612D01*
X1100485Y269417D01*
X1100689Y269228D01*
X1100898Y269043D01*
X1101111Y268863D01*
X1101328Y268689D01*
X1101549Y268520D01*
X1101775Y268356D01*
X1102004Y268198D01*
X1102237Y268045D01*
X1102474Y267898D01*
X1102714Y267757D01*
X1102957Y267622D01*
X1103204Y267493D01*
X1103454Y267369D01*
X1103707Y267252D01*
X1103962Y267141D01*
X1104220Y267036D01*
X1104481Y266937D01*
X1104743Y266845D01*
X1105008Y266759D01*
X1105275Y266679D01*
X1105544Y266606D01*
X1105815Y266540D01*
X1106087Y266480D01*
X1106360Y266426D01*
X1106635Y266380D01*
X1106910Y266340D01*
X1107187Y266306D01*
X1141197Y278999D02*
X1118743Y278996D01*
X1118744Y278997D02*
X1118710Y279246D01*
X1118671Y279494D01*
X1118626Y279742D01*
X1118575Y279988D01*
X1118518Y280233D01*
X1118455Y280476D01*
X1118387Y280718D01*
X1118312Y280958D01*
X1118231Y281196D01*
X1118145Y281433D01*
X1118053Y281667D01*
X1117956Y281898D01*
X1117853Y282128D01*
X1117744Y282355D01*
X1117630Y282579D01*
X1117511Y282800D01*
X1117386Y283018D01*
X1117256Y283233D01*
X1117121Y283446D01*
X1116981Y283654D01*
X1116835Y283859D01*
X1116685Y284061D01*
X1116530Y284259D01*
X1116370Y284453D01*
X1116206Y284643D01*
X1116037Y284830D01*
X1115863Y285012D01*
X1115686Y285189D01*
X1115504Y285363D01*
X1115317Y285532D01*
X1115127Y285696D01*
X1114933Y285856D01*
X1114735Y286011D01*
X1114533Y286161D01*
X1114328Y286307D01*
X1114120Y286447D01*
X1113907Y286582D01*
X1113692Y286712D01*
X1113474Y286837D01*
X1113253Y286956D01*
X1113029Y287070D01*
X1112802Y287179D01*
X1112572Y287282D01*
X1112341Y287379D01*
X1112107Y287471D01*
X1111870Y287557D01*
X1111632Y287638D01*
X1111392Y287713D01*
X1111150Y287781D01*
X1110907Y287844D01*
X1110662Y287901D01*
X1110416Y287952D01*
X1110168Y287997D01*
X1109920Y288036D01*
X1109671Y288070D01*
X1109673Y310523D01*
X1110476Y310483D01*
X1111277Y310423D01*
X1112077Y310343D01*
X1112874Y310244D01*
X1113669Y310126D01*
X1114461Y309988D01*
X1115249Y309830D01*
X1116033Y309653D01*
X1116812Y309457D01*
X1117586Y309242D01*
X1118355Y309009D01*
X1119118Y308756D01*
X1119874Y308485D01*
X1120624Y308195D01*
X1121366Y307887D01*
X1122101Y307561D01*
X1122827Y307217D01*
X1123545Y306855D01*
X1124253Y306476D01*
X1124952Y306080D01*
X1125641Y305667D01*
X1126320Y305236D01*
X1126988Y304790D01*
X1127645Y304327D01*
X1128290Y303848D01*
X1128924Y303354D01*
X1129545Y302844D01*
X1130153Y302319D01*
X1130749Y301779D01*
X1131331Y301225D01*
X1131899Y300657D01*
X1132453Y300075D01*
X1132993Y299479D01*
X1133518Y298871D01*
X1134028Y298250D01*
X1134522Y297616D01*
X1135001Y296971D01*
X1135464Y296314D01*
X1135910Y295646D01*
X1136341Y294967D01*
X1136754Y294278D01*
X1137150Y293579D01*
X1137529Y292871D01*
X1137891Y292153D01*
X1138235Y291427D01*
X1138561Y290692D01*
X1138869Y289950D01*
X1139159Y289200D01*
X1139430Y288444D01*
X1139683Y287681D01*
X1139916Y286912D01*
X1140131Y286138D01*
X1140327Y285359D01*
X1140504Y284575D01*
X1140662Y283787D01*
X1140800Y282995D01*
X1140918Y282200D01*
X1141017Y281403D01*
X1141097Y280603D01*
X1141157Y279802D01*
X1141197Y278999D01*
X1138832Y278999D01*
X1138792Y279741D01*
X1138735Y280481D01*
X1138659Y281220D01*
X1138565Y281957D01*
X1138454Y282691D01*
X1138325Y283423D01*
X1138177Y284151D01*
X1138012Y284875D01*
X1137830Y285595D01*
X1137630Y286310D01*
X1137412Y287020D01*
X1137177Y287725D01*
X1136925Y288423D01*
X1136657Y289116D01*
X1136371Y289801D01*
X1136069Y290480D01*
X1135750Y291151D01*
X1135415Y291813D01*
X1135063Y292468D01*
X1134696Y293114D01*
X1134314Y293750D01*
X1133916Y294377D01*
X1133502Y294994D01*
X1133074Y295601D01*
X1132631Y296197D01*
X1132174Y296783D01*
X1131702Y297356D01*
X1131217Y297919D01*
X1130718Y298469D01*
X1130206Y299007D01*
X1129681Y299532D01*
X1129143Y300044D01*
X1128593Y300543D01*
X1128030Y301028D01*
X1127457Y301500D01*
X1126871Y301957D01*
X1126275Y302400D01*
X1125668Y302828D01*
X1125051Y303242D01*
X1124424Y303640D01*
X1123788Y304022D01*
X1123142Y304389D01*
X1122487Y304741D01*
X1121825Y305076D01*
X1121154Y305395D01*
X1120475Y305697D01*
X1119790Y305983D01*
X1119097Y306251D01*
X1118399Y306503D01*
X1117694Y306738D01*
X1116984Y306956D01*
X1116269Y307156D01*
X1115549Y307338D01*
X1114825Y307503D01*
X1114097Y307651D01*
X1113365Y307780D01*
X1112631Y307891D01*
X1111894Y307985D01*
X1111155Y308061D01*
X1110415Y308118D01*
X1109673Y308158D01*
X1109673Y305791D01*
X1110354Y305753D01*
X1111033Y305698D01*
X1111712Y305626D01*
X1112388Y305538D01*
X1113062Y305434D01*
X1113733Y305313D01*
X1114401Y305176D01*
X1115065Y305023D01*
X1115725Y304854D01*
X1116382Y304669D01*
X1117033Y304467D01*
X1117680Y304251D01*
X1118321Y304018D01*
X1118956Y303770D01*
X1119585Y303507D01*
X1120207Y303228D01*
X1120822Y302934D01*
X1121430Y302626D01*
X1122031Y302303D01*
X1122623Y301965D01*
X1123207Y301613D01*
X1123782Y301247D01*
X1124349Y300867D01*
X1124905Y300473D01*
X1125452Y300066D01*
X1125989Y299646D01*
X1126516Y299213D01*
X1127032Y298767D01*
X1127537Y298309D01*
X1128031Y297839D01*
X1128513Y297357D01*
X1128983Y296863D01*
X1129441Y296358D01*
X1129887Y295842D01*
X1130320Y295315D01*
X1130740Y294778D01*
X1131147Y294231D01*
X1131541Y293675D01*
X1131921Y293108D01*
X1132287Y292533D01*
X1132639Y291949D01*
X1132977Y291357D01*
X1133300Y290756D01*
X1133608Y290148D01*
X1133902Y289533D01*
X1134181Y288911D01*
X1134444Y288282D01*
X1134692Y287647D01*
X1134925Y287006D01*
X1135141Y286359D01*
X1135343Y285708D01*
X1135528Y285051D01*
X1135697Y284391D01*
X1135850Y283727D01*
X1135987Y283059D01*
X1136108Y282388D01*
X1136212Y281714D01*
X1136300Y281038D01*
X1136372Y280359D01*
X1136427Y279680D01*
X1136465Y278999D01*
X1134099Y278999D01*
X1134061Y279619D01*
X1134009Y280238D01*
X1133941Y280855D01*
X1133859Y281470D01*
X1133762Y282084D01*
X1133650Y282695D01*
X1133523Y283302D01*
X1133382Y283907D01*
X1133226Y284508D01*
X1133055Y285105D01*
X1132871Y285698D01*
X1132672Y286286D01*
X1132458Y286870D01*
X1132231Y287448D01*
X1131990Y288020D01*
X1131735Y288586D01*
X1131467Y289146D01*
X1131185Y289699D01*
X1130890Y290246D01*
X1130581Y290785D01*
X1130260Y291316D01*
X1129926Y291839D01*
X1129579Y292355D01*
X1129220Y292861D01*
X1128849Y293359D01*
X1128466Y293848D01*
X1128072Y294328D01*
X1127666Y294797D01*
X1127248Y295257D01*
X1126820Y295707D01*
X1126381Y296146D01*
X1125931Y296574D01*
X1125471Y296992D01*
X1125002Y297398D01*
X1124522Y297792D01*
X1124033Y298175D01*
X1123535Y298546D01*
X1123029Y298905D01*
X1122513Y299252D01*
X1121990Y299586D01*
X1121459Y299907D01*
X1120920Y300216D01*
X1120373Y300511D01*
X1119820Y300793D01*
X1119260Y301061D01*
X1118694Y301316D01*
X1118122Y301557D01*
X1117544Y301784D01*
X1116960Y301998D01*
X1116372Y302197D01*
X1115779Y302381D01*
X1115182Y302552D01*
X1114581Y302708D01*
X1113976Y302849D01*
X1113369Y302976D01*
X1112758Y303088D01*
X1112144Y303185D01*
X1111529Y303267D01*
X1110912Y303335D01*
X1110293Y303387D01*
X1109673Y303425D01*
X1109673Y301058D01*
X1110241Y301021D01*
X1110808Y300969D01*
X1111374Y300904D01*
X1111938Y300826D01*
X1112500Y300733D01*
X1113059Y300627D01*
X1113616Y300507D01*
X1114170Y300374D01*
X1114720Y300227D01*
X1115266Y300067D01*
X1115809Y299893D01*
X1116347Y299707D01*
X1116880Y299507D01*
X1117408Y299294D01*
X1117931Y299069D01*
X1118448Y298831D01*
X1118959Y298580D01*
X1119464Y298317D01*
X1119963Y298041D01*
X1120454Y297754D01*
X1120939Y297455D01*
X1121416Y297143D01*
X1121885Y296821D01*
X1122346Y296487D01*
X1122799Y296142D01*
X1123243Y295786D01*
X1123679Y295419D01*
X1124105Y295041D01*
X1124523Y294654D01*
X1124930Y294256D01*
X1125328Y293849D01*
X1125715Y293431D01*
X1126093Y293005D01*
X1126460Y292569D01*
X1126816Y292125D01*
X1127161Y291672D01*
X1127495Y291211D01*
X1127817Y290742D01*
X1128129Y290265D01*
X1128428Y289780D01*
X1128715Y289289D01*
X1128991Y288790D01*
X1129254Y288285D01*
X1129505Y287774D01*
X1129743Y287257D01*
X1129968Y286734D01*
X1130181Y286206D01*
X1130381Y285673D01*
X1130567Y285135D01*
X1130741Y284592D01*
X1130901Y284046D01*
X1131048Y283496D01*
X1131181Y282942D01*
X1131301Y282385D01*
X1131407Y281826D01*
X1131500Y281264D01*
X1131578Y280700D01*
X1131643Y280134D01*
X1131695Y279567D01*
X1131732Y278999D01*
X1129364Y278999D01*
X1129328Y279505D01*
X1129279Y280010D01*
X1129219Y280514D01*
X1129146Y281016D01*
X1129061Y281517D01*
X1128964Y282015D01*
X1128855Y282511D01*
X1128734Y283004D01*
X1128601Y283493D01*
X1128456Y283980D01*
X1128299Y284463D01*
X1128131Y284942D01*
X1127952Y285416D01*
X1127760Y285886D01*
X1127558Y286352D01*
X1127344Y286812D01*
X1127120Y287267D01*
X1126884Y287717D01*
X1126637Y288161D01*
X1126380Y288598D01*
X1126113Y289029D01*
X1125835Y289454D01*
X1125546Y289872D01*
X1125248Y290283D01*
X1124940Y290686D01*
X1124622Y291082D01*
X1124295Y291470D01*
X1123959Y291850D01*
X1123613Y292221D01*
X1123258Y292584D01*
X1122895Y292939D01*
X1122524Y293285D01*
X1122144Y293621D01*
X1121756Y293948D01*
X1121360Y294266D01*
X1120957Y294574D01*
X1120546Y294872D01*
X1120128Y295161D01*
X1119703Y295439D01*
X1119272Y295706D01*
X1118835Y295963D01*
X1118391Y296210D01*
X1117941Y296446D01*
X1117486Y296670D01*
X1117026Y296884D01*
X1116560Y297086D01*
X1116090Y297278D01*
X1115616Y297457D01*
X1115137Y297625D01*
X1114654Y297782D01*
X1114167Y297927D01*
X1113678Y298060D01*
X1113185Y298181D01*
X1112689Y298290D01*
X1112191Y298387D01*
X1111690Y298472D01*
X1111188Y298545D01*
X1110684Y298605D01*
X1110179Y298654D01*
X1109673Y298690D01*
X1109673Y296321D01*
X1110124Y296286D01*
X1110575Y296239D01*
X1111025Y296181D01*
X1111473Y296112D01*
X1111919Y296033D01*
X1112363Y295942D01*
X1112805Y295841D01*
X1113244Y295729D01*
X1113680Y295607D01*
X1114113Y295473D01*
X1114543Y295330D01*
X1114969Y295176D01*
X1115392Y295011D01*
X1115810Y294837D01*
X1116224Y294652D01*
X1116633Y294457D01*
X1117037Y294252D01*
X1117437Y294038D01*
X1117830Y293813D01*
X1118219Y293580D01*
X1118601Y293337D01*
X1118978Y293084D01*
X1119348Y292823D01*
X1119712Y292552D01*
X1120069Y292273D01*
X1120419Y291985D01*
X1120762Y291689D01*
X1121097Y291385D01*
X1121426Y291072D01*
X1121746Y290752D01*
X1122059Y290423D01*
X1122363Y290088D01*
X1122659Y289745D01*
X1122947Y289395D01*
X1123226Y289038D01*
X1123497Y288674D01*
X1123758Y288304D01*
X1124011Y287927D01*
X1124254Y287545D01*
X1124487Y287156D01*
X1124712Y286763D01*
X1124926Y286363D01*
X1125131Y285959D01*
X1125326Y285550D01*
X1125511Y285136D01*
X1125685Y284718D01*
X1125850Y284295D01*
X1126004Y283869D01*
X1126147Y283439D01*
X1126281Y283006D01*
X1126403Y282570D01*
X1126515Y282131D01*
X1126616Y281689D01*
X1126707Y281245D01*
X1126786Y280799D01*
X1126855Y280351D01*
X1126913Y279901D01*
X1126960Y279450D01*
X1126995Y278999D01*
X1124625Y278998D01*
X1124590Y279394D01*
X1124545Y279788D01*
X1124491Y280181D01*
X1124427Y280573D01*
X1124353Y280963D01*
X1124270Y281352D01*
X1124177Y281738D01*
X1124075Y282121D01*
X1123964Y282502D01*
X1123843Y282881D01*
X1123713Y283256D01*
X1123574Y283628D01*
X1123426Y283996D01*
X1123269Y284361D01*
X1123103Y284721D01*
X1122929Y285078D01*
X1122745Y285430D01*
X1122554Y285778D01*
X1122353Y286120D01*
X1122145Y286458D01*
X1121928Y286791D01*
X1121703Y287118D01*
X1121470Y287440D01*
X1121230Y287755D01*
X1120982Y288065D01*
X1120726Y288369D01*
X1120463Y288666D01*
X1120193Y288957D01*
X1119915Y289241D01*
X1119631Y289519D01*
X1119340Y289789D01*
X1119043Y290052D01*
X1118739Y290308D01*
X1118429Y290556D01*
X1118114Y290796D01*
X1117792Y291029D01*
X1117465Y291254D01*
X1117132Y291471D01*
X1116794Y291679D01*
X1116452Y291880D01*
X1116104Y292071D01*
X1115752Y292255D01*
X1115395Y292429D01*
X1115035Y292595D01*
X1114670Y292752D01*
X1114302Y292900D01*
X1113930Y293039D01*
X1113555Y293169D01*
X1113176Y293290D01*
X1112795Y293401D01*
X1112412Y293503D01*
X1112026Y293596D01*
X1111637Y293679D01*
X1111247Y293753D01*
X1110855Y293817D01*
X1110462Y293871D01*
X1110068Y293916D01*
X1109672Y293951D01*
X1109672Y291579D01*
X1110009Y291545D01*
X1110345Y291502D01*
X1110680Y291451D01*
X1111014Y291392D01*
X1111346Y291325D01*
X1111676Y291250D01*
X1112005Y291167D01*
X1112331Y291075D01*
X1112655Y290976D01*
X1112976Y290869D01*
X1113295Y290754D01*
X1113611Y290631D01*
X1113924Y290501D01*
X1114233Y290363D01*
X1114539Y290218D01*
X1114842Y290065D01*
X1115140Y289905D01*
X1115435Y289737D01*
X1115725Y289563D01*
X1116011Y289381D01*
X1116293Y289193D01*
X1116570Y288997D01*
X1116842Y288795D01*
X1117108Y288586D01*
X1117370Y288371D01*
X1117627Y288150D01*
X1117878Y287922D01*
X1118123Y287689D01*
X1118363Y287449D01*
X1118596Y287204D01*
X1118824Y286953D01*
X1119045Y286696D01*
X1119260Y286434D01*
X1119469Y286168D01*
X1119671Y285896D01*
X1119867Y285619D01*
X1120055Y285337D01*
X1120237Y285051D01*
X1120411Y284761D01*
X1120579Y284466D01*
X1120739Y284168D01*
X1120892Y283865D01*
X1121037Y283559D01*
X1121175Y283250D01*
X1121305Y282937D01*
X1121428Y282621D01*
X1121543Y282302D01*
X1121650Y281981D01*
X1121749Y281657D01*
X1121841Y281331D01*
X1121924Y281002D01*
X1121999Y280672D01*
X1122066Y280340D01*
X1122125Y280006D01*
X1122176Y279671D01*
X1122219Y279335D01*
X1122253Y278998D01*
X1119878Y278997D01*
X1119844Y279274D01*
X1119804Y279549D01*
X1119758Y279824D01*
X1119704Y280097D01*
X1119644Y280369D01*
X1119578Y280640D01*
X1119505Y280909D01*
X1119425Y281176D01*
X1119339Y281441D01*
X1119247Y281703D01*
X1119148Y281964D01*
X1119043Y282222D01*
X1118932Y282477D01*
X1118815Y282730D01*
X1118691Y282980D01*
X1118562Y283227D01*
X1118427Y283470D01*
X1118286Y283710D01*
X1118139Y283947D01*
X1117986Y284180D01*
X1117828Y284409D01*
X1117664Y284635D01*
X1117495Y284856D01*
X1117321Y285073D01*
X1117141Y285286D01*
X1116956Y285495D01*
X1116767Y285699D01*
X1116572Y285898D01*
X1116373Y286093D01*
X1116169Y286282D01*
X1115960Y286467D01*
X1115747Y286647D01*
X1115530Y286821D01*
X1115309Y286990D01*
X1115083Y287154D01*
X1114854Y287312D01*
X1114621Y287465D01*
X1114384Y287612D01*
X1114144Y287753D01*
X1113901Y287888D01*
X1113654Y288017D01*
X1113404Y288141D01*
X1113151Y288258D01*
X1112896Y288369D01*
X1112638Y288474D01*
X1112377Y288573D01*
X1112115Y288665D01*
X1111850Y288751D01*
X1111583Y288831D01*
X1111314Y288904D01*
X1111043Y288970D01*
X1110771Y289030D01*
X1110498Y289084D01*
X1110223Y289130D01*
X1109948Y289170D01*
X1109671Y289204D01*
D12*
X1074139Y277755D02*
X1074149Y278597D01*
X1074180Y279438D01*
X1074232Y280278D01*
X1074304Y281116D01*
X1074397Y281952D01*
X1074510Y282786D01*
X1074644Y283617D01*
X1074798Y284445D01*
X1074972Y285268D01*
X1075167Y286087D01*
X1075381Y286901D01*
X1075616Y287709D01*
X1075870Y288511D01*
X1076143Y289307D01*
X1076437Y290096D01*
X1076749Y290877D01*
X1077081Y291651D01*
X1077431Y292416D01*
X1077800Y293172D01*
X1078188Y293919D01*
X1078594Y294656D01*
X1079017Y295384D01*
X1079459Y296100D01*
X1079918Y296806D01*
X1080394Y297499D01*
X1080887Y298182D01*
X1081397Y298851D01*
X1081922Y299508D01*
X1082464Y300152D01*
X1083022Y300783D01*
X1083595Y301399D01*
X1084182Y302002D01*
X1084785Y302589D01*
X1085401Y303162D01*
X1086032Y303720D01*
X1086676Y304262D01*
X1087333Y304787D01*
X1088002Y305297D01*
X1088685Y305790D01*
X1089378Y306266D01*
X1090084Y306725D01*
X1090800Y307167D01*
X1091528Y307590D01*
X1092265Y307996D01*
X1093012Y308384D01*
X1093768Y308753D01*
X1094533Y309103D01*
X1095307Y309435D01*
X1096088Y309747D01*
X1096877Y310041D01*
X1097673Y310314D01*
X1098475Y310568D01*
X1099283Y310803D01*
X1100097Y311017D01*
X1100916Y311212D01*
X1101739Y311386D01*
X1102567Y311540D01*
X1103398Y311674D01*
X1104232Y311787D01*
X1105068Y311880D01*
X1105906Y311952D01*
X1106746Y312004D01*
X1107587Y312035D01*
X1108429Y312045D01*
X1109271Y312035D01*
X1110112Y312004D01*
X1110952Y311952D01*
X1111790Y311880D01*
X1112626Y311787D01*
X1113460Y311674D01*
X1114291Y311540D01*
X1115119Y311386D01*
X1115942Y311212D01*
X1116761Y311017D01*
X1117575Y310803D01*
X1118383Y310568D01*
X1119185Y310314D01*
X1119981Y310041D01*
X1120770Y309747D01*
X1121551Y309435D01*
X1122325Y309103D01*
X1123090Y308753D01*
X1123846Y308384D01*
X1124593Y307996D01*
X1125330Y307590D01*
X1126058Y307167D01*
X1126774Y306725D01*
X1127480Y306266D01*
X1128173Y305790D01*
X1128856Y305297D01*
X1129525Y304787D01*
X1130182Y304262D01*
X1130826Y303720D01*
X1131457Y303162D01*
X1132073Y302589D01*
X1132676Y302002D01*
X1133263Y301399D01*
X1133836Y300783D01*
X1134394Y300152D01*
X1134936Y299508D01*
X1135461Y298851D01*
X1135971Y298182D01*
X1136464Y297499D01*
X1136940Y296806D01*
X1137399Y296100D01*
X1137841Y295384D01*
X1138264Y294656D01*
X1138670Y293919D01*
X1139058Y293172D01*
X1139427Y292416D01*
X1139777Y291651D01*
X1140109Y290877D01*
X1140421Y290096D01*
X1140715Y289307D01*
X1140988Y288511D01*
X1141242Y287709D01*
X1141477Y286901D01*
X1141691Y286087D01*
X1141886Y285268D01*
X1142060Y284445D01*
X1142214Y283617D01*
X1142348Y282786D01*
X1142461Y281952D01*
X1142554Y281116D01*
X1142626Y280278D01*
X1142678Y279438D01*
X1142709Y278597D01*
X1142719Y277755D01*
X1142709Y276913D01*
X1142678Y276072D01*
X1142626Y275232D01*
X1142554Y274394D01*
X1142461Y273558D01*
X1142348Y272724D01*
X1142214Y271893D01*
X1142060Y271065D01*
X1141886Y270242D01*
X1141691Y269423D01*
X1141477Y268609D01*
X1141242Y267801D01*
X1140988Y266999D01*
X1140715Y266203D01*
X1140421Y265414D01*
X1140109Y264633D01*
X1139777Y263859D01*
X1139427Y263094D01*
X1139058Y262338D01*
X1138670Y261591D01*
X1138264Y260854D01*
X1137841Y260126D01*
X1137399Y259410D01*
X1136940Y258704D01*
X1136464Y258011D01*
X1135971Y257328D01*
X1135461Y256659D01*
X1134936Y256002D01*
X1134394Y255358D01*
X1133836Y254727D01*
X1133263Y254111D01*
X1132676Y253508D01*
X1132073Y252921D01*
X1131457Y252348D01*
X1130826Y251790D01*
X1130182Y251248D01*
X1129525Y250723D01*
X1128856Y250213D01*
X1128173Y249720D01*
X1127480Y249244D01*
X1126774Y248785D01*
X1126058Y248343D01*
X1125330Y247920D01*
X1124593Y247514D01*
X1123846Y247126D01*
X1123090Y246757D01*
X1122325Y246407D01*
X1121551Y246075D01*
X1120770Y245763D01*
X1119981Y245469D01*
X1119185Y245196D01*
X1118383Y244942D01*
X1117575Y244707D01*
X1116761Y244493D01*
X1115942Y244298D01*
X1115119Y244124D01*
X1114291Y243970D01*
X1113460Y243836D01*
X1112626Y243723D01*
X1111790Y243630D01*
X1110952Y243558D01*
X1110112Y243506D01*
X1109271Y243475D01*
X1108429Y243465D01*
X1107587Y243475D01*
X1106746Y243506D01*
X1105906Y243558D01*
X1105068Y243630D01*
X1104232Y243723D01*
X1103398Y243836D01*
X1102567Y243970D01*
X1101739Y244124D01*
X1100916Y244298D01*
X1100097Y244493D01*
X1099283Y244707D01*
X1098475Y244942D01*
X1097673Y245196D01*
X1096877Y245469D01*
X1096088Y245763D01*
X1095307Y246075D01*
X1094533Y246407D01*
X1093768Y246757D01*
X1093012Y247126D01*
X1092265Y247514D01*
X1091528Y247920D01*
X1090800Y248343D01*
X1090084Y248785D01*
X1089378Y249244D01*
X1088685Y249720D01*
X1088002Y250213D01*
X1087333Y250723D01*
X1086676Y251248D01*
X1086032Y251790D01*
X1085401Y252348D01*
X1084785Y252921D01*
X1084182Y253508D01*
X1083595Y254111D01*
X1083022Y254727D01*
X1082464Y255358D01*
X1081922Y256002D01*
X1081397Y256659D01*
X1080887Y257328D01*
X1080394Y258011D01*
X1079918Y258704D01*
X1079459Y259410D01*
X1079017Y260126D01*
X1078594Y260854D01*
X1078188Y261591D01*
X1077800Y262338D01*
X1077431Y263094D01*
X1077081Y263859D01*
X1076749Y264633D01*
X1076437Y265414D01*
X1076143Y266203D01*
X1075870Y266999D01*
X1075616Y267801D01*
X1075381Y268609D01*
X1075167Y269423D01*
X1074972Y270242D01*
X1074798Y271065D01*
X1074644Y271893D01*
X1074510Y272724D01*
X1074397Y273558D01*
X1074304Y274394D01*
X1074232Y275232D01*
X1074180Y276072D01*
X1074149Y276913D01*
X1074139Y277755D01*
D16*
X1100809Y277755D02*
X1100811Y277942D01*
X1100818Y278129D01*
X1100830Y278316D01*
X1100846Y278502D01*
X1100866Y278688D01*
X1100891Y278873D01*
X1100921Y279058D01*
X1100955Y279242D01*
X1100994Y279425D01*
X1101037Y279607D01*
X1101085Y279787D01*
X1101137Y279967D01*
X1101194Y280145D01*
X1101254Y280322D01*
X1101320Y280497D01*
X1101389Y280671D01*
X1101463Y280843D01*
X1101541Y281013D01*
X1101623Y281181D01*
X1101709Y281347D01*
X1101799Y281511D01*
X1101893Y281672D01*
X1101991Y281832D01*
X1102093Y281988D01*
X1102199Y282143D01*
X1102309Y282294D01*
X1102422Y282443D01*
X1102539Y282589D01*
X1102659Y282732D01*
X1102783Y282872D01*
X1102910Y283009D01*
X1103041Y283143D01*
X1103175Y283274D01*
X1103312Y283401D01*
X1103452Y283525D01*
X1103595Y283645D01*
X1103741Y283762D01*
X1103890Y283875D01*
X1104041Y283985D01*
X1104196Y284091D01*
X1104352Y284193D01*
X1104512Y284291D01*
X1104673Y284385D01*
X1104837Y284475D01*
X1105003Y284561D01*
X1105171Y284643D01*
X1105341Y284721D01*
X1105513Y284795D01*
X1105687Y284864D01*
X1105862Y284930D01*
X1106039Y284990D01*
X1106217Y285047D01*
X1106397Y285099D01*
X1106577Y285147D01*
X1106759Y285190D01*
X1106942Y285229D01*
X1107126Y285263D01*
X1107311Y285293D01*
X1107496Y285318D01*
X1107682Y285338D01*
X1107868Y285354D01*
X1108055Y285366D01*
X1108242Y285373D01*
X1108429Y285375D01*
X1108616Y285373D01*
X1108803Y285366D01*
X1108990Y285354D01*
X1109176Y285338D01*
X1109362Y285318D01*
X1109547Y285293D01*
X1109732Y285263D01*
X1109916Y285229D01*
X1110099Y285190D01*
X1110281Y285147D01*
X1110461Y285099D01*
X1110641Y285047D01*
X1110819Y284990D01*
X1110996Y284930D01*
X1111171Y284864D01*
X1111345Y284795D01*
X1111517Y284721D01*
X1111687Y284643D01*
X1111855Y284561D01*
X1112021Y284475D01*
X1112185Y284385D01*
X1112346Y284291D01*
X1112506Y284193D01*
X1112662Y284091D01*
X1112817Y283985D01*
X1112968Y283875D01*
X1113117Y283762D01*
X1113263Y283645D01*
X1113406Y283525D01*
X1113546Y283401D01*
X1113683Y283274D01*
X1113817Y283143D01*
X1113948Y283009D01*
X1114075Y282872D01*
X1114199Y282732D01*
X1114319Y282589D01*
X1114436Y282443D01*
X1114549Y282294D01*
X1114659Y282143D01*
X1114765Y281988D01*
X1114867Y281832D01*
X1114965Y281672D01*
X1115059Y281511D01*
X1115149Y281347D01*
X1115235Y281181D01*
X1115317Y281013D01*
X1115395Y280843D01*
X1115469Y280671D01*
X1115538Y280497D01*
X1115604Y280322D01*
X1115664Y280145D01*
X1115721Y279967D01*
X1115773Y279787D01*
X1115821Y279607D01*
X1115864Y279425D01*
X1115903Y279242D01*
X1115937Y279058D01*
X1115967Y278873D01*
X1115992Y278688D01*
X1116012Y278502D01*
X1116028Y278316D01*
X1116040Y278129D01*
X1116047Y277942D01*
X1116049Y277755D01*
X1116047Y277568D01*
X1116040Y277381D01*
X1116028Y277194D01*
X1116012Y277008D01*
X1115992Y276822D01*
X1115967Y276637D01*
X1115937Y276452D01*
X1115903Y276268D01*
X1115864Y276085D01*
X1115821Y275903D01*
X1115773Y275723D01*
X1115721Y275543D01*
X1115664Y275365D01*
X1115604Y275188D01*
X1115538Y275013D01*
X1115469Y274839D01*
X1115395Y274667D01*
X1115317Y274497D01*
X1115235Y274329D01*
X1115149Y274163D01*
X1115059Y273999D01*
X1114965Y273838D01*
X1114867Y273678D01*
X1114765Y273522D01*
X1114659Y273367D01*
X1114549Y273216D01*
X1114436Y273067D01*
X1114319Y272921D01*
X1114199Y272778D01*
X1114075Y272638D01*
X1113948Y272501D01*
X1113817Y272367D01*
X1113683Y272236D01*
X1113546Y272109D01*
X1113406Y271985D01*
X1113263Y271865D01*
X1113117Y271748D01*
X1112968Y271635D01*
X1112817Y271525D01*
X1112662Y271419D01*
X1112506Y271317D01*
X1112346Y271219D01*
X1112185Y271125D01*
X1112021Y271035D01*
X1111855Y270949D01*
X1111687Y270867D01*
X1111517Y270789D01*
X1111345Y270715D01*
X1111171Y270646D01*
X1110996Y270580D01*
X1110819Y270520D01*
X1110641Y270463D01*
X1110461Y270411D01*
X1110281Y270363D01*
X1110099Y270320D01*
X1109916Y270281D01*
X1109732Y270247D01*
X1109547Y270217D01*
X1109362Y270192D01*
X1109176Y270172D01*
X1108990Y270156D01*
X1108803Y270144D01*
X1108616Y270137D01*
X1108429Y270135D01*
X1108242Y270137D01*
X1108055Y270144D01*
X1107868Y270156D01*
X1107682Y270172D01*
X1107496Y270192D01*
X1107311Y270217D01*
X1107126Y270247D01*
X1106942Y270281D01*
X1106759Y270320D01*
X1106577Y270363D01*
X1106397Y270411D01*
X1106217Y270463D01*
X1106039Y270520D01*
X1105862Y270580D01*
X1105687Y270646D01*
X1105513Y270715D01*
X1105341Y270789D01*
X1105171Y270867D01*
X1105003Y270949D01*
X1104837Y271035D01*
X1104673Y271125D01*
X1104512Y271219D01*
X1104352Y271317D01*
X1104196Y271419D01*
X1104041Y271525D01*
X1103890Y271635D01*
X1103741Y271748D01*
X1103595Y271865D01*
X1103452Y271985D01*
X1103312Y272109D01*
X1103175Y272236D01*
X1103041Y272367D01*
X1102910Y272501D01*
X1102783Y272638D01*
X1102659Y272778D01*
X1102539Y272921D01*
X1102422Y273067D01*
X1102309Y273216D01*
X1102199Y273367D01*
X1102093Y273522D01*
X1101991Y273678D01*
X1101893Y273838D01*
X1101799Y273999D01*
X1101709Y274163D01*
X1101623Y274329D01*
X1101541Y274497D01*
X1101463Y274667D01*
X1101389Y274839D01*
X1101320Y275013D01*
X1101254Y275188D01*
X1101194Y275365D01*
X1101137Y275543D01*
X1101085Y275723D01*
X1101037Y275903D01*
X1100994Y276085D01*
X1100955Y276268D01*
X1100921Y276452D01*
X1100891Y276637D01*
X1100866Y276822D01*
X1100846Y277008D01*
X1100830Y277194D01*
X1100818Y277381D01*
X1100811Y277568D01*
X1100809Y277755D01*
D12*
X1091429Y277755D02*
X1091434Y278172D01*
X1091449Y278589D01*
X1091475Y279006D01*
X1091511Y279421D01*
X1091557Y279836D01*
X1091613Y280249D01*
X1091679Y280661D01*
X1091756Y281072D01*
X1091842Y281480D01*
X1091938Y281886D01*
X1092045Y282289D01*
X1092161Y282690D01*
X1092287Y283088D01*
X1092423Y283482D01*
X1092568Y283873D01*
X1092723Y284261D01*
X1092887Y284644D01*
X1093061Y285023D01*
X1093244Y285398D01*
X1093436Y285769D01*
X1093638Y286134D01*
X1093848Y286495D01*
X1094066Y286850D01*
X1094294Y287200D01*
X1094530Y287544D01*
X1094774Y287882D01*
X1095027Y288214D01*
X1095288Y288540D01*
X1095556Y288859D01*
X1095833Y289172D01*
X1096117Y289477D01*
X1096408Y289776D01*
X1096707Y290067D01*
X1097012Y290351D01*
X1097325Y290628D01*
X1097644Y290896D01*
X1097970Y291157D01*
X1098302Y291410D01*
X1098640Y291654D01*
X1098984Y291890D01*
X1099334Y292118D01*
X1099689Y292336D01*
X1100050Y292546D01*
X1100415Y292748D01*
X1100786Y292940D01*
X1101161Y293123D01*
X1101540Y293297D01*
X1101923Y293461D01*
X1102311Y293616D01*
X1102702Y293761D01*
X1103096Y293897D01*
X1103494Y294023D01*
X1103895Y294139D01*
X1104298Y294246D01*
X1104704Y294342D01*
X1105112Y294428D01*
X1105523Y294505D01*
X1105935Y294571D01*
X1106348Y294627D01*
X1106763Y294673D01*
X1107178Y294709D01*
X1107595Y294735D01*
X1108012Y294750D01*
X1108429Y294755D01*
X1108846Y294750D01*
X1109263Y294735D01*
X1109680Y294709D01*
X1110095Y294673D01*
X1110510Y294627D01*
X1110923Y294571D01*
X1111335Y294505D01*
X1111746Y294428D01*
X1112154Y294342D01*
X1112560Y294246D01*
X1112963Y294139D01*
X1113364Y294023D01*
X1113762Y293897D01*
X1114156Y293761D01*
X1114547Y293616D01*
X1114935Y293461D01*
X1115318Y293297D01*
X1115697Y293123D01*
X1116072Y292940D01*
X1116443Y292748D01*
X1116808Y292546D01*
X1117169Y292336D01*
X1117524Y292118D01*
X1117874Y291890D01*
X1118218Y291654D01*
X1118556Y291410D01*
X1118888Y291157D01*
X1119214Y290896D01*
X1119533Y290628D01*
X1119846Y290351D01*
X1120151Y290067D01*
X1120450Y289776D01*
X1120741Y289477D01*
X1121025Y289172D01*
X1121302Y288859D01*
X1121570Y288540D01*
X1121831Y288214D01*
X1122084Y287882D01*
X1122328Y287544D01*
X1122564Y287200D01*
X1122792Y286850D01*
X1123010Y286495D01*
X1123220Y286134D01*
X1123422Y285769D01*
X1123614Y285398D01*
X1123797Y285023D01*
X1123971Y284644D01*
X1124135Y284261D01*
X1124290Y283873D01*
X1124435Y283482D01*
X1124571Y283088D01*
X1124697Y282690D01*
X1124813Y282289D01*
X1124920Y281886D01*
X1125016Y281480D01*
X1125102Y281072D01*
X1125179Y280661D01*
X1125245Y280249D01*
X1125301Y279836D01*
X1125347Y279421D01*
X1125383Y279006D01*
X1125409Y278589D01*
X1125424Y278172D01*
X1125429Y277755D01*
X1125424Y277338D01*
X1125409Y276921D01*
X1125383Y276504D01*
X1125347Y276089D01*
X1125301Y275674D01*
X1125245Y275261D01*
X1125179Y274849D01*
X1125102Y274438D01*
X1125016Y274030D01*
X1124920Y273624D01*
X1124813Y273221D01*
X1124697Y272820D01*
X1124571Y272422D01*
X1124435Y272028D01*
X1124290Y271637D01*
X1124135Y271249D01*
X1123971Y270866D01*
X1123797Y270487D01*
X1123614Y270112D01*
X1123422Y269741D01*
X1123220Y269376D01*
X1123010Y269015D01*
X1122792Y268660D01*
X1122564Y268310D01*
X1122328Y267966D01*
X1122084Y267628D01*
X1121831Y267296D01*
X1121570Y266970D01*
X1121302Y266651D01*
X1121025Y266338D01*
X1120741Y266033D01*
X1120450Y265734D01*
X1120151Y265443D01*
X1119846Y265159D01*
X1119533Y264882D01*
X1119214Y264614D01*
X1118888Y264353D01*
X1118556Y264100D01*
X1118218Y263856D01*
X1117874Y263620D01*
X1117524Y263392D01*
X1117169Y263174D01*
X1116808Y262964D01*
X1116443Y262762D01*
X1116072Y262570D01*
X1115697Y262387D01*
X1115318Y262213D01*
X1114935Y262049D01*
X1114547Y261894D01*
X1114156Y261749D01*
X1113762Y261613D01*
X1113364Y261487D01*
X1112963Y261371D01*
X1112560Y261264D01*
X1112154Y261168D01*
X1111746Y261082D01*
X1111335Y261005D01*
X1110923Y260939D01*
X1110510Y260883D01*
X1110095Y260837D01*
X1109680Y260801D01*
X1109263Y260775D01*
X1108846Y260760D01*
X1108429Y260755D01*
X1108012Y260760D01*
X1107595Y260775D01*
X1107178Y260801D01*
X1106763Y260837D01*
X1106348Y260883D01*
X1105935Y260939D01*
X1105523Y261005D01*
X1105112Y261082D01*
X1104704Y261168D01*
X1104298Y261264D01*
X1103895Y261371D01*
X1103494Y261487D01*
X1103096Y261613D01*
X1102702Y261749D01*
X1102311Y261894D01*
X1101923Y262049D01*
X1101540Y262213D01*
X1101161Y262387D01*
X1100786Y262570D01*
X1100415Y262762D01*
X1100050Y262964D01*
X1099689Y263174D01*
X1099334Y263392D01*
X1098984Y263620D01*
X1098640Y263856D01*
X1098302Y264100D01*
X1097970Y264353D01*
X1097644Y264614D01*
X1097325Y264882D01*
X1097012Y265159D01*
X1096707Y265443D01*
X1096408Y265734D01*
X1096117Y266033D01*
X1095833Y266338D01*
X1095556Y266651D01*
X1095288Y266970D01*
X1095027Y267296D01*
X1094774Y267628D01*
X1094530Y267966D01*
X1094294Y268310D01*
X1094066Y268660D01*
X1093848Y269015D01*
X1093638Y269376D01*
X1093436Y269741D01*
X1093244Y270112D01*
X1093061Y270487D01*
X1092887Y270866D01*
X1092723Y271249D01*
X1092568Y271637D01*
X1092423Y272028D01*
X1092287Y272422D01*
X1092161Y272820D01*
X1092045Y273221D01*
X1091938Y273624D01*
X1091842Y274030D01*
X1091756Y274438D01*
X1091679Y274849D01*
X1091613Y275261D01*
X1091557Y275674D01*
X1091511Y276089D01*
X1091475Y276504D01*
X1091449Y276921D01*
X1091434Y277338D01*
X1091429Y277755D01*
D15*
X626761Y285511D02*
X649215Y285514D01*
X649214Y285513D02*
X649248Y285264D01*
X649287Y285016D01*
X649332Y284768D01*
X649383Y284522D01*
X649440Y284277D01*
X649503Y284034D01*
X649571Y283792D01*
X649646Y283552D01*
X649727Y283314D01*
X649813Y283077D01*
X649905Y282843D01*
X650002Y282612D01*
X650105Y282382D01*
X650214Y282155D01*
X650328Y281931D01*
X650447Y281710D01*
X650572Y281492D01*
X650702Y281277D01*
X650837Y281064D01*
X650977Y280856D01*
X651123Y280651D01*
X651273Y280449D01*
X651428Y280251D01*
X651588Y280057D01*
X651752Y279867D01*
X651921Y279680D01*
X652095Y279498D01*
X652272Y279321D01*
X652454Y279147D01*
X652641Y278978D01*
X652831Y278814D01*
X653025Y278654D01*
X653223Y278499D01*
X653425Y278349D01*
X653630Y278203D01*
X653838Y278063D01*
X654051Y277928D01*
X654266Y277798D01*
X654484Y277673D01*
X654705Y277554D01*
X654929Y277440D01*
X655156Y277331D01*
X655386Y277228D01*
X655617Y277131D01*
X655851Y277039D01*
X656088Y276953D01*
X656326Y276872D01*
X656566Y276797D01*
X656808Y276729D01*
X657051Y276666D01*
X657296Y276609D01*
X657542Y276558D01*
X657790Y276513D01*
X658038Y276474D01*
X658287Y276440D01*
X658285Y253987D01*
X657482Y254027D01*
X656681Y254087D01*
X655881Y254167D01*
X655084Y254266D01*
X654289Y254384D01*
X653497Y254522D01*
X652709Y254680D01*
X651925Y254857D01*
X651146Y255053D01*
X650372Y255268D01*
X649603Y255501D01*
X648840Y255754D01*
X648084Y256025D01*
X647334Y256315D01*
X646592Y256623D01*
X645857Y256949D01*
X645131Y257293D01*
X644413Y257655D01*
X643705Y258034D01*
X643006Y258430D01*
X642317Y258843D01*
X641638Y259274D01*
X640970Y259720D01*
X640313Y260183D01*
X639668Y260662D01*
X639034Y261156D01*
X638413Y261666D01*
X637805Y262191D01*
X637209Y262731D01*
X636627Y263285D01*
X636059Y263853D01*
X635505Y264435D01*
X634965Y265031D01*
X634440Y265639D01*
X633930Y266260D01*
X633436Y266894D01*
X632957Y267539D01*
X632494Y268196D01*
X632048Y268864D01*
X631617Y269543D01*
X631204Y270232D01*
X630808Y270931D01*
X630429Y271639D01*
X630067Y272357D01*
X629723Y273083D01*
X629397Y273818D01*
X629089Y274560D01*
X628799Y275310D01*
X628528Y276066D01*
X628275Y276829D01*
X628042Y277598D01*
X627827Y278372D01*
X627631Y279151D01*
X627454Y279935D01*
X627296Y280723D01*
X627158Y281515D01*
X627040Y282310D01*
X626941Y283107D01*
X626861Y283907D01*
X626801Y284708D01*
X626761Y285511D01*
X629126Y285511D01*
X629166Y284769D01*
X629223Y284029D01*
X629299Y283290D01*
X629393Y282553D01*
X629504Y281819D01*
X629633Y281087D01*
X629781Y280359D01*
X629946Y279635D01*
X630128Y278915D01*
X630328Y278200D01*
X630546Y277490D01*
X630781Y276785D01*
X631033Y276087D01*
X631301Y275394D01*
X631587Y274709D01*
X631889Y274030D01*
X632208Y273359D01*
X632543Y272697D01*
X632895Y272042D01*
X633262Y271396D01*
X633644Y270760D01*
X634042Y270133D01*
X634456Y269516D01*
X634884Y268909D01*
X635327Y268313D01*
X635784Y267727D01*
X636256Y267154D01*
X636741Y266591D01*
X637240Y266041D01*
X637752Y265503D01*
X638277Y264978D01*
X638815Y264466D01*
X639365Y263967D01*
X639928Y263482D01*
X640501Y263010D01*
X641087Y262553D01*
X641683Y262110D01*
X642290Y261682D01*
X642907Y261268D01*
X643534Y260870D01*
X644170Y260488D01*
X644816Y260121D01*
X645471Y259769D01*
X646133Y259434D01*
X646804Y259115D01*
X647483Y258813D01*
X648168Y258527D01*
X648861Y258259D01*
X649559Y258007D01*
X650264Y257772D01*
X650974Y257554D01*
X651689Y257354D01*
X652409Y257172D01*
X653133Y257007D01*
X653861Y256859D01*
X654593Y256730D01*
X655327Y256619D01*
X656064Y256525D01*
X656803Y256449D01*
X657543Y256392D01*
X658285Y256352D01*
X658285Y258719D01*
X657604Y258757D01*
X656925Y258812D01*
X656246Y258884D01*
X655570Y258972D01*
X654896Y259076D01*
X654225Y259197D01*
X653557Y259334D01*
X652893Y259487D01*
X652233Y259656D01*
X651576Y259841D01*
X650925Y260043D01*
X650278Y260259D01*
X649637Y260492D01*
X649002Y260740D01*
X648373Y261003D01*
X647751Y261282D01*
X647136Y261576D01*
X646528Y261884D01*
X645927Y262207D01*
X645335Y262545D01*
X644751Y262897D01*
X644176Y263263D01*
X643609Y263643D01*
X643053Y264037D01*
X642506Y264444D01*
X641969Y264864D01*
X641442Y265297D01*
X640926Y265743D01*
X640421Y266201D01*
X639927Y266671D01*
X639445Y267153D01*
X638975Y267647D01*
X638517Y268152D01*
X638071Y268668D01*
X637638Y269195D01*
X637218Y269732D01*
X636811Y270279D01*
X636417Y270835D01*
X636037Y271402D01*
X635671Y271977D01*
X635319Y272561D01*
X634981Y273153D01*
X634658Y273754D01*
X634350Y274362D01*
X634056Y274977D01*
X633777Y275599D01*
X633514Y276228D01*
X633266Y276863D01*
X633033Y277504D01*
X632817Y278151D01*
X632615Y278802D01*
X632430Y279459D01*
X632261Y280119D01*
X632108Y280783D01*
X631971Y281451D01*
X631850Y282122D01*
X631746Y282796D01*
X631658Y283472D01*
X631586Y284151D01*
X631531Y284830D01*
X631493Y285511D01*
X633859Y285511D01*
X633897Y284891D01*
X633949Y284272D01*
X634017Y283655D01*
X634099Y283040D01*
X634196Y282426D01*
X634308Y281815D01*
X634435Y281208D01*
X634576Y280603D01*
X634732Y280002D01*
X634903Y279405D01*
X635087Y278812D01*
X635286Y278224D01*
X635500Y277640D01*
X635727Y277062D01*
X635968Y276490D01*
X636223Y275924D01*
X636491Y275364D01*
X636773Y274811D01*
X637068Y274264D01*
X637377Y273725D01*
X637698Y273194D01*
X638032Y272671D01*
X638379Y272155D01*
X638738Y271649D01*
X639109Y271151D01*
X639492Y270662D01*
X639886Y270182D01*
X640292Y269713D01*
X640710Y269253D01*
X641138Y268803D01*
X641577Y268364D01*
X642027Y267936D01*
X642487Y267518D01*
X642956Y267112D01*
X643436Y266718D01*
X643925Y266335D01*
X644423Y265964D01*
X644929Y265605D01*
X645445Y265258D01*
X645968Y264924D01*
X646499Y264603D01*
X647038Y264294D01*
X647585Y263999D01*
X648138Y263717D01*
X648698Y263449D01*
X649264Y263194D01*
X649836Y262953D01*
X650414Y262726D01*
X650998Y262512D01*
X651586Y262313D01*
X652179Y262129D01*
X652776Y261958D01*
X653377Y261802D01*
X653982Y261661D01*
X654589Y261534D01*
X655200Y261422D01*
X655814Y261325D01*
X656429Y261243D01*
X657046Y261175D01*
X657665Y261123D01*
X658285Y261085D01*
X658285Y263452D01*
X657717Y263489D01*
X657150Y263541D01*
X656584Y263606D01*
X656020Y263684D01*
X655458Y263777D01*
X654899Y263883D01*
X654342Y264003D01*
X653788Y264136D01*
X653238Y264283D01*
X652692Y264443D01*
X652149Y264617D01*
X651611Y264803D01*
X651078Y265003D01*
X650550Y265216D01*
X650027Y265441D01*
X649510Y265679D01*
X648999Y265930D01*
X648494Y266193D01*
X647995Y266469D01*
X647504Y266756D01*
X647019Y267055D01*
X646542Y267367D01*
X646073Y267689D01*
X645612Y268023D01*
X645159Y268368D01*
X644715Y268724D01*
X644279Y269091D01*
X643853Y269469D01*
X643435Y269856D01*
X643028Y270254D01*
X642630Y270661D01*
X642243Y271079D01*
X641865Y271505D01*
X641498Y271941D01*
X641142Y272385D01*
X640797Y272838D01*
X640463Y273299D01*
X640141Y273768D01*
X639829Y274245D01*
X639530Y274730D01*
X639243Y275221D01*
X638967Y275720D01*
X638704Y276225D01*
X638453Y276736D01*
X638215Y277253D01*
X637990Y277776D01*
X637777Y278304D01*
X637577Y278837D01*
X637391Y279375D01*
X637217Y279918D01*
X637057Y280464D01*
X636910Y281014D01*
X636777Y281568D01*
X636657Y282125D01*
X636551Y282684D01*
X636458Y283246D01*
X636380Y283810D01*
X636315Y284376D01*
X636263Y284943D01*
X636226Y285511D01*
X638594Y285511D01*
X638630Y285005D01*
X638679Y284500D01*
X638739Y283996D01*
X638812Y283494D01*
X638897Y282993D01*
X638994Y282495D01*
X639103Y281999D01*
X639224Y281506D01*
X639357Y281017D01*
X639502Y280530D01*
X639659Y280047D01*
X639827Y279568D01*
X640006Y279094D01*
X640198Y278624D01*
X640400Y278158D01*
X640614Y277698D01*
X640838Y277243D01*
X641074Y276793D01*
X641321Y276349D01*
X641578Y275912D01*
X641845Y275481D01*
X642123Y275056D01*
X642412Y274638D01*
X642710Y274227D01*
X643018Y273824D01*
X643336Y273428D01*
X643663Y273040D01*
X643999Y272660D01*
X644345Y272289D01*
X644700Y271926D01*
X645063Y271571D01*
X645434Y271225D01*
X645814Y270889D01*
X646202Y270562D01*
X646598Y270244D01*
X647001Y269936D01*
X647412Y269638D01*
X647830Y269349D01*
X648255Y269071D01*
X648686Y268804D01*
X649123Y268547D01*
X649567Y268300D01*
X650017Y268064D01*
X650472Y267840D01*
X650932Y267626D01*
X651398Y267424D01*
X651868Y267232D01*
X652342Y267053D01*
X652821Y266885D01*
X653304Y266728D01*
X653791Y266583D01*
X654280Y266450D01*
X654773Y266329D01*
X655269Y266220D01*
X655767Y266123D01*
X656268Y266038D01*
X656770Y265965D01*
X657274Y265905D01*
X657779Y265856D01*
X658285Y265820D01*
X658285Y268189D01*
X657834Y268224D01*
X657383Y268271D01*
X656933Y268329D01*
X656485Y268398D01*
X656039Y268477D01*
X655595Y268568D01*
X655153Y268669D01*
X654714Y268781D01*
X654278Y268903D01*
X653845Y269037D01*
X653415Y269180D01*
X652989Y269334D01*
X652566Y269499D01*
X652148Y269673D01*
X651734Y269858D01*
X651325Y270053D01*
X650921Y270258D01*
X650521Y270472D01*
X650128Y270697D01*
X649739Y270930D01*
X649357Y271173D01*
X648980Y271426D01*
X648610Y271687D01*
X648246Y271958D01*
X647889Y272237D01*
X647539Y272525D01*
X647196Y272821D01*
X646861Y273125D01*
X646532Y273438D01*
X646212Y273758D01*
X645899Y274087D01*
X645595Y274422D01*
X645299Y274765D01*
X645011Y275115D01*
X644732Y275472D01*
X644461Y275836D01*
X644200Y276206D01*
X643947Y276583D01*
X643704Y276965D01*
X643471Y277354D01*
X643246Y277747D01*
X643032Y278147D01*
X642827Y278551D01*
X642632Y278960D01*
X642447Y279374D01*
X642273Y279792D01*
X642108Y280215D01*
X641954Y280641D01*
X641811Y281071D01*
X641677Y281504D01*
X641555Y281940D01*
X641443Y282379D01*
X641342Y282821D01*
X641251Y283265D01*
X641172Y283711D01*
X641103Y284159D01*
X641045Y284609D01*
X640998Y285060D01*
X640963Y285511D01*
X643333Y285512D01*
X643368Y285116D01*
X643413Y284722D01*
X643467Y284329D01*
X643531Y283937D01*
X643605Y283547D01*
X643688Y283158D01*
X643781Y282772D01*
X643883Y282389D01*
X643994Y282008D01*
X644115Y281629D01*
X644245Y281254D01*
X644384Y280882D01*
X644532Y280514D01*
X644689Y280149D01*
X644855Y279789D01*
X645029Y279432D01*
X645213Y279080D01*
X645404Y278732D01*
X645605Y278390D01*
X645813Y278052D01*
X646030Y277719D01*
X646255Y277392D01*
X646488Y277070D01*
X646728Y276755D01*
X646976Y276445D01*
X647232Y276141D01*
X647495Y275844D01*
X647765Y275553D01*
X648043Y275269D01*
X648327Y274991D01*
X648618Y274721D01*
X648915Y274458D01*
X649219Y274202D01*
X649529Y273954D01*
X649844Y273714D01*
X650166Y273481D01*
X650493Y273256D01*
X650826Y273039D01*
X651164Y272831D01*
X651506Y272630D01*
X651854Y272439D01*
X652206Y272255D01*
X652563Y272081D01*
X652923Y271915D01*
X653288Y271758D01*
X653656Y271610D01*
X654028Y271471D01*
X654403Y271341D01*
X654782Y271220D01*
X655163Y271109D01*
X655546Y271007D01*
X655932Y270914D01*
X656321Y270831D01*
X656711Y270757D01*
X657103Y270693D01*
X657496Y270639D01*
X657890Y270594D01*
X658286Y270559D01*
X658286Y272931D01*
X657949Y272965D01*
X657613Y273008D01*
X657278Y273059D01*
X656944Y273118D01*
X656612Y273185D01*
X656282Y273260D01*
X655953Y273343D01*
X655627Y273435D01*
X655303Y273534D01*
X654982Y273641D01*
X654663Y273756D01*
X654347Y273879D01*
X654034Y274009D01*
X653725Y274147D01*
X653419Y274292D01*
X653116Y274445D01*
X652818Y274605D01*
X652523Y274773D01*
X652233Y274947D01*
X651947Y275129D01*
X651665Y275317D01*
X651388Y275513D01*
X651116Y275715D01*
X650850Y275924D01*
X650588Y276139D01*
X650331Y276360D01*
X650080Y276588D01*
X649835Y276821D01*
X649595Y277061D01*
X649362Y277306D01*
X649134Y277557D01*
X648913Y277814D01*
X648698Y278076D01*
X648489Y278342D01*
X648287Y278614D01*
X648091Y278891D01*
X647903Y279173D01*
X647721Y279459D01*
X647547Y279749D01*
X647379Y280044D01*
X647219Y280342D01*
X647066Y280645D01*
X646921Y280951D01*
X646783Y281260D01*
X646653Y281573D01*
X646530Y281889D01*
X646415Y282208D01*
X646308Y282529D01*
X646209Y282853D01*
X646117Y283179D01*
X646034Y283508D01*
X645959Y283838D01*
X645892Y284170D01*
X645833Y284504D01*
X645782Y284839D01*
X645739Y285175D01*
X645705Y285512D01*
X648080Y285513D01*
X648114Y285236D01*
X648154Y284961D01*
X648200Y284686D01*
X648254Y284413D01*
X648314Y284141D01*
X648380Y283870D01*
X648453Y283601D01*
X648533Y283334D01*
X648619Y283069D01*
X648711Y282807D01*
X648810Y282546D01*
X648915Y282288D01*
X649026Y282033D01*
X649143Y281780D01*
X649267Y281530D01*
X649396Y281283D01*
X649531Y281040D01*
X649672Y280800D01*
X649819Y280563D01*
X649972Y280330D01*
X650130Y280101D01*
X650294Y279875D01*
X650463Y279654D01*
X650637Y279437D01*
X650817Y279224D01*
X651002Y279015D01*
X651191Y278811D01*
X651386Y278612D01*
X651585Y278417D01*
X651789Y278228D01*
X651998Y278043D01*
X652211Y277863D01*
X652428Y277689D01*
X652649Y277520D01*
X652875Y277356D01*
X653104Y277198D01*
X653337Y277045D01*
X653574Y276898D01*
X653814Y276757D01*
X654057Y276622D01*
X654304Y276493D01*
X654554Y276369D01*
X654807Y276252D01*
X655062Y276141D01*
X655320Y276036D01*
X655581Y275937D01*
X655843Y275845D01*
X656108Y275759D01*
X656375Y275679D01*
X656644Y275606D01*
X656915Y275540D01*
X657187Y275480D01*
X657460Y275426D01*
X657735Y275380D01*
X658010Y275340D01*
X658287Y275306D01*
X692297Y287999D02*
X669843Y287996D01*
X669844Y287997D02*
X669810Y288246D01*
X669771Y288494D01*
X669726Y288742D01*
X669675Y288988D01*
X669618Y289233D01*
X669555Y289476D01*
X669487Y289718D01*
X669412Y289958D01*
X669331Y290196D01*
X669245Y290433D01*
X669153Y290667D01*
X669056Y290898D01*
X668953Y291128D01*
X668844Y291355D01*
X668730Y291579D01*
X668611Y291800D01*
X668486Y292018D01*
X668356Y292233D01*
X668221Y292446D01*
X668081Y292654D01*
X667935Y292859D01*
X667785Y293061D01*
X667630Y293259D01*
X667470Y293453D01*
X667306Y293643D01*
X667137Y293830D01*
X666963Y294012D01*
X666786Y294189D01*
X666604Y294363D01*
X666417Y294532D01*
X666227Y294696D01*
X666033Y294856D01*
X665835Y295011D01*
X665633Y295161D01*
X665428Y295307D01*
X665220Y295447D01*
X665007Y295582D01*
X664792Y295712D01*
X664574Y295837D01*
X664353Y295956D01*
X664129Y296070D01*
X663902Y296179D01*
X663672Y296282D01*
X663441Y296379D01*
X663207Y296471D01*
X662970Y296557D01*
X662732Y296638D01*
X662492Y296713D01*
X662250Y296781D01*
X662007Y296844D01*
X661762Y296901D01*
X661516Y296952D01*
X661268Y296997D01*
X661020Y297036D01*
X660771Y297070D01*
X660773Y319523D01*
X661576Y319483D01*
X662377Y319423D01*
X663177Y319343D01*
X663974Y319244D01*
X664769Y319126D01*
X665561Y318988D01*
X666349Y318830D01*
X667133Y318653D01*
X667912Y318457D01*
X668686Y318242D01*
X669455Y318009D01*
X670218Y317756D01*
X670974Y317485D01*
X671724Y317195D01*
X672466Y316887D01*
X673201Y316561D01*
X673927Y316217D01*
X674645Y315855D01*
X675353Y315476D01*
X676052Y315080D01*
X676741Y314667D01*
X677420Y314236D01*
X678088Y313790D01*
X678745Y313327D01*
X679390Y312848D01*
X680024Y312354D01*
X680645Y311844D01*
X681253Y311319D01*
X681849Y310779D01*
X682431Y310225D01*
X682999Y309657D01*
X683553Y309075D01*
X684093Y308479D01*
X684618Y307871D01*
X685128Y307250D01*
X685622Y306616D01*
X686101Y305971D01*
X686564Y305314D01*
X687010Y304646D01*
X687441Y303967D01*
X687854Y303278D01*
X688250Y302579D01*
X688629Y301871D01*
X688991Y301153D01*
X689335Y300427D01*
X689661Y299692D01*
X689969Y298950D01*
X690259Y298200D01*
X690530Y297444D01*
X690783Y296681D01*
X691016Y295912D01*
X691231Y295138D01*
X691427Y294359D01*
X691604Y293575D01*
X691762Y292787D01*
X691900Y291995D01*
X692018Y291200D01*
X692117Y290403D01*
X692197Y289603D01*
X692257Y288802D01*
X692297Y287999D01*
X689932Y287999D01*
X689892Y288741D01*
X689835Y289481D01*
X689759Y290220D01*
X689665Y290957D01*
X689554Y291691D01*
X689425Y292423D01*
X689277Y293151D01*
X689112Y293875D01*
X688930Y294595D01*
X688730Y295310D01*
X688512Y296020D01*
X688277Y296725D01*
X688025Y297423D01*
X687757Y298116D01*
X687471Y298801D01*
X687169Y299480D01*
X686850Y300151D01*
X686515Y300813D01*
X686163Y301468D01*
X685796Y302114D01*
X685414Y302750D01*
X685016Y303377D01*
X684602Y303994D01*
X684174Y304601D01*
X683731Y305197D01*
X683274Y305783D01*
X682802Y306356D01*
X682317Y306919D01*
X681818Y307469D01*
X681306Y308007D01*
X680781Y308532D01*
X680243Y309044D01*
X679693Y309543D01*
X679130Y310028D01*
X678557Y310500D01*
X677971Y310957D01*
X677375Y311400D01*
X676768Y311828D01*
X676151Y312242D01*
X675524Y312640D01*
X674888Y313022D01*
X674242Y313389D01*
X673587Y313741D01*
X672925Y314076D01*
X672254Y314395D01*
X671575Y314697D01*
X670890Y314983D01*
X670197Y315251D01*
X669499Y315503D01*
X668794Y315738D01*
X668084Y315956D01*
X667369Y316156D01*
X666649Y316338D01*
X665925Y316503D01*
X665197Y316651D01*
X664465Y316780D01*
X663731Y316891D01*
X662994Y316985D01*
X662255Y317061D01*
X661515Y317118D01*
X660773Y317158D01*
X660773Y314791D01*
X661454Y314753D01*
X662133Y314698D01*
X662812Y314626D01*
X663488Y314538D01*
X664162Y314434D01*
X664833Y314313D01*
X665501Y314176D01*
X666165Y314023D01*
X666825Y313854D01*
X667482Y313669D01*
X668133Y313467D01*
X668780Y313251D01*
X669421Y313018D01*
X670056Y312770D01*
X670685Y312507D01*
X671307Y312228D01*
X671922Y311934D01*
X672530Y311626D01*
X673131Y311303D01*
X673723Y310965D01*
X674307Y310613D01*
X674882Y310247D01*
X675449Y309867D01*
X676005Y309473D01*
X676552Y309066D01*
X677089Y308646D01*
X677616Y308213D01*
X678132Y307767D01*
X678637Y307309D01*
X679131Y306839D01*
X679613Y306357D01*
X680083Y305863D01*
X680541Y305358D01*
X680987Y304842D01*
X681420Y304315D01*
X681840Y303778D01*
X682247Y303231D01*
X682641Y302675D01*
X683021Y302108D01*
X683387Y301533D01*
X683739Y300949D01*
X684077Y300357D01*
X684400Y299756D01*
X684708Y299148D01*
X685002Y298533D01*
X685281Y297911D01*
X685544Y297282D01*
X685792Y296647D01*
X686025Y296006D01*
X686241Y295359D01*
X686443Y294708D01*
X686628Y294051D01*
X686797Y293391D01*
X686950Y292727D01*
X687087Y292059D01*
X687208Y291388D01*
X687312Y290714D01*
X687400Y290038D01*
X687472Y289359D01*
X687527Y288680D01*
X687565Y287999D01*
X685199Y287999D01*
X685161Y288619D01*
X685109Y289238D01*
X685041Y289855D01*
X684959Y290470D01*
X684862Y291084D01*
X684750Y291695D01*
X684623Y292302D01*
X684482Y292907D01*
X684326Y293508D01*
X684155Y294105D01*
X683971Y294698D01*
X683772Y295286D01*
X683558Y295870D01*
X683331Y296448D01*
X683090Y297020D01*
X682835Y297586D01*
X682567Y298146D01*
X682285Y298699D01*
X681990Y299246D01*
X681681Y299785D01*
X681360Y300316D01*
X681026Y300839D01*
X680679Y301355D01*
X680320Y301861D01*
X679949Y302359D01*
X679566Y302848D01*
X679172Y303328D01*
X678766Y303797D01*
X678348Y304257D01*
X677920Y304707D01*
X677481Y305146D01*
X677031Y305574D01*
X676571Y305992D01*
X676102Y306398D01*
X675622Y306792D01*
X675133Y307175D01*
X674635Y307546D01*
X674129Y307905D01*
X673613Y308252D01*
X673090Y308586D01*
X672559Y308907D01*
X672020Y309216D01*
X671473Y309511D01*
X670920Y309793D01*
X670360Y310061D01*
X669794Y310316D01*
X669222Y310557D01*
X668644Y310784D01*
X668060Y310998D01*
X667472Y311197D01*
X666879Y311381D01*
X666282Y311552D01*
X665681Y311708D01*
X665076Y311849D01*
X664469Y311976D01*
X663858Y312088D01*
X663244Y312185D01*
X662629Y312267D01*
X662012Y312335D01*
X661393Y312387D01*
X660773Y312425D01*
X660773Y310058D01*
X661341Y310021D01*
X661908Y309969D01*
X662474Y309904D01*
X663038Y309826D01*
X663600Y309733D01*
X664159Y309627D01*
X664716Y309507D01*
X665270Y309374D01*
X665820Y309227D01*
X666366Y309067D01*
X666909Y308893D01*
X667447Y308707D01*
X667980Y308507D01*
X668508Y308294D01*
X669031Y308069D01*
X669548Y307831D01*
X670059Y307580D01*
X670564Y307317D01*
X671063Y307041D01*
X671554Y306754D01*
X672039Y306455D01*
X672516Y306143D01*
X672985Y305821D01*
X673446Y305487D01*
X673899Y305142D01*
X674343Y304786D01*
X674779Y304419D01*
X675205Y304041D01*
X675623Y303654D01*
X676030Y303256D01*
X676428Y302849D01*
X676815Y302431D01*
X677193Y302005D01*
X677560Y301569D01*
X677916Y301125D01*
X678261Y300672D01*
X678595Y300211D01*
X678917Y299742D01*
X679229Y299265D01*
X679528Y298780D01*
X679815Y298289D01*
X680091Y297790D01*
X680354Y297285D01*
X680605Y296774D01*
X680843Y296257D01*
X681068Y295734D01*
X681281Y295206D01*
X681481Y294673D01*
X681667Y294135D01*
X681841Y293592D01*
X682001Y293046D01*
X682148Y292496D01*
X682281Y291942D01*
X682401Y291385D01*
X682507Y290826D01*
X682600Y290264D01*
X682678Y289700D01*
X682743Y289134D01*
X682795Y288567D01*
X682832Y287999D01*
X680464Y287999D01*
X680428Y288505D01*
X680379Y289010D01*
X680319Y289514D01*
X680246Y290016D01*
X680161Y290517D01*
X680064Y291015D01*
X679955Y291511D01*
X679834Y292004D01*
X679701Y292493D01*
X679556Y292980D01*
X679399Y293463D01*
X679231Y293942D01*
X679052Y294416D01*
X678860Y294886D01*
X678658Y295352D01*
X678444Y295812D01*
X678220Y296267D01*
X677984Y296717D01*
X677737Y297161D01*
X677480Y297598D01*
X677213Y298029D01*
X676935Y298454D01*
X676646Y298872D01*
X676348Y299283D01*
X676040Y299686D01*
X675722Y300082D01*
X675395Y300470D01*
X675059Y300850D01*
X674713Y301221D01*
X674358Y301584D01*
X673995Y301939D01*
X673624Y302285D01*
X673244Y302621D01*
X672856Y302948D01*
X672460Y303266D01*
X672057Y303574D01*
X671646Y303872D01*
X671228Y304161D01*
X670803Y304439D01*
X670372Y304706D01*
X669935Y304963D01*
X669491Y305210D01*
X669041Y305446D01*
X668586Y305670D01*
X668126Y305884D01*
X667660Y306086D01*
X667190Y306278D01*
X666716Y306457D01*
X666237Y306625D01*
X665754Y306782D01*
X665267Y306927D01*
X664778Y307060D01*
X664285Y307181D01*
X663789Y307290D01*
X663291Y307387D01*
X662790Y307472D01*
X662288Y307545D01*
X661784Y307605D01*
X661279Y307654D01*
X660773Y307690D01*
X660773Y305321D01*
X661224Y305286D01*
X661675Y305239D01*
X662125Y305181D01*
X662573Y305112D01*
X663019Y305033D01*
X663463Y304942D01*
X663905Y304841D01*
X664344Y304729D01*
X664780Y304607D01*
X665213Y304473D01*
X665643Y304330D01*
X666069Y304176D01*
X666492Y304011D01*
X666910Y303837D01*
X667324Y303652D01*
X667733Y303457D01*
X668137Y303252D01*
X668537Y303038D01*
X668930Y302813D01*
X669319Y302580D01*
X669701Y302337D01*
X670078Y302084D01*
X670448Y301823D01*
X670812Y301552D01*
X671169Y301273D01*
X671519Y300985D01*
X671862Y300689D01*
X672197Y300385D01*
X672526Y300072D01*
X672846Y299752D01*
X673159Y299423D01*
X673463Y299088D01*
X673759Y298745D01*
X674047Y298395D01*
X674326Y298038D01*
X674597Y297674D01*
X674858Y297304D01*
X675111Y296927D01*
X675354Y296545D01*
X675587Y296156D01*
X675812Y295763D01*
X676026Y295363D01*
X676231Y294959D01*
X676426Y294550D01*
X676611Y294136D01*
X676785Y293718D01*
X676950Y293295D01*
X677104Y292869D01*
X677247Y292439D01*
X677381Y292006D01*
X677503Y291570D01*
X677615Y291131D01*
X677716Y290689D01*
X677807Y290245D01*
X677886Y289799D01*
X677955Y289351D01*
X678013Y288901D01*
X678060Y288450D01*
X678095Y287999D01*
X675725Y287998D01*
X675690Y288394D01*
X675645Y288788D01*
X675591Y289181D01*
X675527Y289573D01*
X675453Y289963D01*
X675370Y290352D01*
X675277Y290738D01*
X675175Y291121D01*
X675064Y291502D01*
X674943Y291881D01*
X674813Y292256D01*
X674674Y292628D01*
X674526Y292996D01*
X674369Y293361D01*
X674203Y293721D01*
X674029Y294078D01*
X673845Y294430D01*
X673654Y294778D01*
X673453Y295120D01*
X673245Y295458D01*
X673028Y295791D01*
X672803Y296118D01*
X672570Y296440D01*
X672330Y296755D01*
X672082Y297065D01*
X671826Y297369D01*
X671563Y297666D01*
X671293Y297957D01*
X671015Y298241D01*
X670731Y298519D01*
X670440Y298789D01*
X670143Y299052D01*
X669839Y299308D01*
X669529Y299556D01*
X669214Y299796D01*
X668892Y300029D01*
X668565Y300254D01*
X668232Y300471D01*
X667894Y300679D01*
X667552Y300880D01*
X667204Y301071D01*
X666852Y301255D01*
X666495Y301429D01*
X666135Y301595D01*
X665770Y301752D01*
X665402Y301900D01*
X665030Y302039D01*
X664655Y302169D01*
X664276Y302290D01*
X663895Y302401D01*
X663512Y302503D01*
X663126Y302596D01*
X662737Y302679D01*
X662347Y302753D01*
X661955Y302817D01*
X661562Y302871D01*
X661168Y302916D01*
X660772Y302951D01*
X660772Y300579D01*
X661109Y300545D01*
X661445Y300502D01*
X661780Y300451D01*
X662114Y300392D01*
X662446Y300325D01*
X662776Y300250D01*
X663105Y300167D01*
X663431Y300075D01*
X663755Y299976D01*
X664076Y299869D01*
X664395Y299754D01*
X664711Y299631D01*
X665024Y299501D01*
X665333Y299363D01*
X665639Y299218D01*
X665942Y299065D01*
X666240Y298905D01*
X666535Y298737D01*
X666825Y298563D01*
X667111Y298381D01*
X667393Y298193D01*
X667670Y297997D01*
X667942Y297795D01*
X668208Y297586D01*
X668470Y297371D01*
X668727Y297150D01*
X668978Y296922D01*
X669223Y296689D01*
X669463Y296449D01*
X669696Y296204D01*
X669924Y295953D01*
X670145Y295696D01*
X670360Y295434D01*
X670569Y295168D01*
X670771Y294896D01*
X670967Y294619D01*
X671155Y294337D01*
X671337Y294051D01*
X671511Y293761D01*
X671679Y293466D01*
X671839Y293168D01*
X671992Y292865D01*
X672137Y292559D01*
X672275Y292250D01*
X672405Y291937D01*
X672528Y291621D01*
X672643Y291302D01*
X672750Y290981D01*
X672849Y290657D01*
X672941Y290331D01*
X673024Y290002D01*
X673099Y289672D01*
X673166Y289340D01*
X673225Y289006D01*
X673276Y288671D01*
X673319Y288335D01*
X673353Y287998D01*
X670978Y287997D01*
X670944Y288274D01*
X670904Y288549D01*
X670858Y288824D01*
X670804Y289097D01*
X670744Y289369D01*
X670678Y289640D01*
X670605Y289909D01*
X670525Y290176D01*
X670439Y290441D01*
X670347Y290703D01*
X670248Y290964D01*
X670143Y291222D01*
X670032Y291477D01*
X669915Y291730D01*
X669791Y291980D01*
X669662Y292227D01*
X669527Y292470D01*
X669386Y292710D01*
X669239Y292947D01*
X669086Y293180D01*
X668928Y293409D01*
X668764Y293635D01*
X668595Y293856D01*
X668421Y294073D01*
X668241Y294286D01*
X668056Y294495D01*
X667867Y294699D01*
X667672Y294898D01*
X667473Y295093D01*
X667269Y295282D01*
X667060Y295467D01*
X666847Y295647D01*
X666630Y295821D01*
X666409Y295990D01*
X666183Y296154D01*
X665954Y296312D01*
X665721Y296465D01*
X665484Y296612D01*
X665244Y296753D01*
X665001Y296888D01*
X664754Y297017D01*
X664504Y297141D01*
X664251Y297258D01*
X663996Y297369D01*
X663738Y297474D01*
X663477Y297573D01*
X663215Y297665D01*
X662950Y297751D01*
X662683Y297831D01*
X662414Y297904D01*
X662143Y297970D01*
X661871Y298030D01*
X661598Y298084D01*
X661323Y298130D01*
X661048Y298170D01*
X660771Y298204D01*
D12*
X625239Y286755D02*
X625249Y287597D01*
X625280Y288438D01*
X625332Y289278D01*
X625404Y290116D01*
X625497Y290952D01*
X625610Y291786D01*
X625744Y292617D01*
X625898Y293445D01*
X626072Y294268D01*
X626267Y295087D01*
X626481Y295901D01*
X626716Y296709D01*
X626970Y297511D01*
X627243Y298307D01*
X627537Y299096D01*
X627849Y299877D01*
X628181Y300651D01*
X628531Y301416D01*
X628900Y302172D01*
X629288Y302919D01*
X629694Y303656D01*
X630117Y304384D01*
X630559Y305100D01*
X631018Y305806D01*
X631494Y306499D01*
X631987Y307182D01*
X632497Y307851D01*
X633022Y308508D01*
X633564Y309152D01*
X634122Y309783D01*
X634695Y310399D01*
X635282Y311002D01*
X635885Y311589D01*
X636501Y312162D01*
X637132Y312720D01*
X637776Y313262D01*
X638433Y313787D01*
X639102Y314297D01*
X639785Y314790D01*
X640478Y315266D01*
X641184Y315725D01*
X641900Y316167D01*
X642628Y316590D01*
X643365Y316996D01*
X644112Y317384D01*
X644868Y317753D01*
X645633Y318103D01*
X646407Y318435D01*
X647188Y318747D01*
X647977Y319041D01*
X648773Y319314D01*
X649575Y319568D01*
X650383Y319803D01*
X651197Y320017D01*
X652016Y320212D01*
X652839Y320386D01*
X653667Y320540D01*
X654498Y320674D01*
X655332Y320787D01*
X656168Y320880D01*
X657006Y320952D01*
X657846Y321004D01*
X658687Y321035D01*
X659529Y321045D01*
X660371Y321035D01*
X661212Y321004D01*
X662052Y320952D01*
X662890Y320880D01*
X663726Y320787D01*
X664560Y320674D01*
X665391Y320540D01*
X666219Y320386D01*
X667042Y320212D01*
X667861Y320017D01*
X668675Y319803D01*
X669483Y319568D01*
X670285Y319314D01*
X671081Y319041D01*
X671870Y318747D01*
X672651Y318435D01*
X673425Y318103D01*
X674190Y317753D01*
X674946Y317384D01*
X675693Y316996D01*
X676430Y316590D01*
X677158Y316167D01*
X677874Y315725D01*
X678580Y315266D01*
X679273Y314790D01*
X679956Y314297D01*
X680625Y313787D01*
X681282Y313262D01*
X681926Y312720D01*
X682557Y312162D01*
X683173Y311589D01*
X683776Y311002D01*
X684363Y310399D01*
X684936Y309783D01*
X685494Y309152D01*
X686036Y308508D01*
X686561Y307851D01*
X687071Y307182D01*
X687564Y306499D01*
X688040Y305806D01*
X688499Y305100D01*
X688941Y304384D01*
X689364Y303656D01*
X689770Y302919D01*
X690158Y302172D01*
X690527Y301416D01*
X690877Y300651D01*
X691209Y299877D01*
X691521Y299096D01*
X691815Y298307D01*
X692088Y297511D01*
X692342Y296709D01*
X692577Y295901D01*
X692791Y295087D01*
X692986Y294268D01*
X693160Y293445D01*
X693314Y292617D01*
X693448Y291786D01*
X693561Y290952D01*
X693654Y290116D01*
X693726Y289278D01*
X693778Y288438D01*
X693809Y287597D01*
X693819Y286755D01*
X693809Y285913D01*
X693778Y285072D01*
X693726Y284232D01*
X693654Y283394D01*
X693561Y282558D01*
X693448Y281724D01*
X693314Y280893D01*
X693160Y280065D01*
X692986Y279242D01*
X692791Y278423D01*
X692577Y277609D01*
X692342Y276801D01*
X692088Y275999D01*
X691815Y275203D01*
X691521Y274414D01*
X691209Y273633D01*
X690877Y272859D01*
X690527Y272094D01*
X690158Y271338D01*
X689770Y270591D01*
X689364Y269854D01*
X688941Y269126D01*
X688499Y268410D01*
X688040Y267704D01*
X687564Y267011D01*
X687071Y266328D01*
X686561Y265659D01*
X686036Y265002D01*
X685494Y264358D01*
X684936Y263727D01*
X684363Y263111D01*
X683776Y262508D01*
X683173Y261921D01*
X682557Y261348D01*
X681926Y260790D01*
X681282Y260248D01*
X680625Y259723D01*
X679956Y259213D01*
X679273Y258720D01*
X678580Y258244D01*
X677874Y257785D01*
X677158Y257343D01*
X676430Y256920D01*
X675693Y256514D01*
X674946Y256126D01*
X674190Y255757D01*
X673425Y255407D01*
X672651Y255075D01*
X671870Y254763D01*
X671081Y254469D01*
X670285Y254196D01*
X669483Y253942D01*
X668675Y253707D01*
X667861Y253493D01*
X667042Y253298D01*
X666219Y253124D01*
X665391Y252970D01*
X664560Y252836D01*
X663726Y252723D01*
X662890Y252630D01*
X662052Y252558D01*
X661212Y252506D01*
X660371Y252475D01*
X659529Y252465D01*
X658687Y252475D01*
X657846Y252506D01*
X657006Y252558D01*
X656168Y252630D01*
X655332Y252723D01*
X654498Y252836D01*
X653667Y252970D01*
X652839Y253124D01*
X652016Y253298D01*
X651197Y253493D01*
X650383Y253707D01*
X649575Y253942D01*
X648773Y254196D01*
X647977Y254469D01*
X647188Y254763D01*
X646407Y255075D01*
X645633Y255407D01*
X644868Y255757D01*
X644112Y256126D01*
X643365Y256514D01*
X642628Y256920D01*
X641900Y257343D01*
X641184Y257785D01*
X640478Y258244D01*
X639785Y258720D01*
X639102Y259213D01*
X638433Y259723D01*
X637776Y260248D01*
X637132Y260790D01*
X636501Y261348D01*
X635885Y261921D01*
X635282Y262508D01*
X634695Y263111D01*
X634122Y263727D01*
X633564Y264358D01*
X633022Y265002D01*
X632497Y265659D01*
X631987Y266328D01*
X631494Y267011D01*
X631018Y267704D01*
X630559Y268410D01*
X630117Y269126D01*
X629694Y269854D01*
X629288Y270591D01*
X628900Y271338D01*
X628531Y272094D01*
X628181Y272859D01*
X627849Y273633D01*
X627537Y274414D01*
X627243Y275203D01*
X626970Y275999D01*
X626716Y276801D01*
X626481Y277609D01*
X626267Y278423D01*
X626072Y279242D01*
X625898Y280065D01*
X625744Y280893D01*
X625610Y281724D01*
X625497Y282558D01*
X625404Y283394D01*
X625332Y284232D01*
X625280Y285072D01*
X625249Y285913D01*
X625239Y286755D01*
D16*
X651909Y286755D02*
X651911Y286942D01*
X651918Y287129D01*
X651930Y287316D01*
X651946Y287502D01*
X651966Y287688D01*
X651991Y287873D01*
X652021Y288058D01*
X652055Y288242D01*
X652094Y288425D01*
X652137Y288607D01*
X652185Y288787D01*
X652237Y288967D01*
X652294Y289145D01*
X652354Y289322D01*
X652420Y289497D01*
X652489Y289671D01*
X652563Y289843D01*
X652641Y290013D01*
X652723Y290181D01*
X652809Y290347D01*
X652899Y290511D01*
X652993Y290672D01*
X653091Y290832D01*
X653193Y290988D01*
X653299Y291143D01*
X653409Y291294D01*
X653522Y291443D01*
X653639Y291589D01*
X653759Y291732D01*
X653883Y291872D01*
X654010Y292009D01*
X654141Y292143D01*
X654275Y292274D01*
X654412Y292401D01*
X654552Y292525D01*
X654695Y292645D01*
X654841Y292762D01*
X654990Y292875D01*
X655141Y292985D01*
X655296Y293091D01*
X655452Y293193D01*
X655612Y293291D01*
X655773Y293385D01*
X655937Y293475D01*
X656103Y293561D01*
X656271Y293643D01*
X656441Y293721D01*
X656613Y293795D01*
X656787Y293864D01*
X656962Y293930D01*
X657139Y293990D01*
X657317Y294047D01*
X657497Y294099D01*
X657677Y294147D01*
X657859Y294190D01*
X658042Y294229D01*
X658226Y294263D01*
X658411Y294293D01*
X658596Y294318D01*
X658782Y294338D01*
X658968Y294354D01*
X659155Y294366D01*
X659342Y294373D01*
X659529Y294375D01*
X659716Y294373D01*
X659903Y294366D01*
X660090Y294354D01*
X660276Y294338D01*
X660462Y294318D01*
X660647Y294293D01*
X660832Y294263D01*
X661016Y294229D01*
X661199Y294190D01*
X661381Y294147D01*
X661561Y294099D01*
X661741Y294047D01*
X661919Y293990D01*
X662096Y293930D01*
X662271Y293864D01*
X662445Y293795D01*
X662617Y293721D01*
X662787Y293643D01*
X662955Y293561D01*
X663121Y293475D01*
X663285Y293385D01*
X663446Y293291D01*
X663606Y293193D01*
X663762Y293091D01*
X663917Y292985D01*
X664068Y292875D01*
X664217Y292762D01*
X664363Y292645D01*
X664506Y292525D01*
X664646Y292401D01*
X664783Y292274D01*
X664917Y292143D01*
X665048Y292009D01*
X665175Y291872D01*
X665299Y291732D01*
X665419Y291589D01*
X665536Y291443D01*
X665649Y291294D01*
X665759Y291143D01*
X665865Y290988D01*
X665967Y290832D01*
X666065Y290672D01*
X666159Y290511D01*
X666249Y290347D01*
X666335Y290181D01*
X666417Y290013D01*
X666495Y289843D01*
X666569Y289671D01*
X666638Y289497D01*
X666704Y289322D01*
X666764Y289145D01*
X666821Y288967D01*
X666873Y288787D01*
X666921Y288607D01*
X666964Y288425D01*
X667003Y288242D01*
X667037Y288058D01*
X667067Y287873D01*
X667092Y287688D01*
X667112Y287502D01*
X667128Y287316D01*
X667140Y287129D01*
X667147Y286942D01*
X667149Y286755D01*
X667147Y286568D01*
X667140Y286381D01*
X667128Y286194D01*
X667112Y286008D01*
X667092Y285822D01*
X667067Y285637D01*
X667037Y285452D01*
X667003Y285268D01*
X666964Y285085D01*
X666921Y284903D01*
X666873Y284723D01*
X666821Y284543D01*
X666764Y284365D01*
X666704Y284188D01*
X666638Y284013D01*
X666569Y283839D01*
X666495Y283667D01*
X666417Y283497D01*
X666335Y283329D01*
X666249Y283163D01*
X666159Y282999D01*
X666065Y282838D01*
X665967Y282678D01*
X665865Y282522D01*
X665759Y282367D01*
X665649Y282216D01*
X665536Y282067D01*
X665419Y281921D01*
X665299Y281778D01*
X665175Y281638D01*
X665048Y281501D01*
X664917Y281367D01*
X664783Y281236D01*
X664646Y281109D01*
X664506Y280985D01*
X664363Y280865D01*
X664217Y280748D01*
X664068Y280635D01*
X663917Y280525D01*
X663762Y280419D01*
X663606Y280317D01*
X663446Y280219D01*
X663285Y280125D01*
X663121Y280035D01*
X662955Y279949D01*
X662787Y279867D01*
X662617Y279789D01*
X662445Y279715D01*
X662271Y279646D01*
X662096Y279580D01*
X661919Y279520D01*
X661741Y279463D01*
X661561Y279411D01*
X661381Y279363D01*
X661199Y279320D01*
X661016Y279281D01*
X660832Y279247D01*
X660647Y279217D01*
X660462Y279192D01*
X660276Y279172D01*
X660090Y279156D01*
X659903Y279144D01*
X659716Y279137D01*
X659529Y279135D01*
X659342Y279137D01*
X659155Y279144D01*
X658968Y279156D01*
X658782Y279172D01*
X658596Y279192D01*
X658411Y279217D01*
X658226Y279247D01*
X658042Y279281D01*
X657859Y279320D01*
X657677Y279363D01*
X657497Y279411D01*
X657317Y279463D01*
X657139Y279520D01*
X656962Y279580D01*
X656787Y279646D01*
X656613Y279715D01*
X656441Y279789D01*
X656271Y279867D01*
X656103Y279949D01*
X655937Y280035D01*
X655773Y280125D01*
X655612Y280219D01*
X655452Y280317D01*
X655296Y280419D01*
X655141Y280525D01*
X654990Y280635D01*
X654841Y280748D01*
X654695Y280865D01*
X654552Y280985D01*
X654412Y281109D01*
X654275Y281236D01*
X654141Y281367D01*
X654010Y281501D01*
X653883Y281638D01*
X653759Y281778D01*
X653639Y281921D01*
X653522Y282067D01*
X653409Y282216D01*
X653299Y282367D01*
X653193Y282522D01*
X653091Y282678D01*
X652993Y282838D01*
X652899Y282999D01*
X652809Y283163D01*
X652723Y283329D01*
X652641Y283497D01*
X652563Y283667D01*
X652489Y283839D01*
X652420Y284013D01*
X652354Y284188D01*
X652294Y284365D01*
X652237Y284543D01*
X652185Y284723D01*
X652137Y284903D01*
X652094Y285085D01*
X652055Y285268D01*
X652021Y285452D01*
X651991Y285637D01*
X651966Y285822D01*
X651946Y286008D01*
X651930Y286194D01*
X651918Y286381D01*
X651911Y286568D01*
X651909Y286755D01*
D12*
X642529Y286755D02*
X642534Y287172D01*
X642549Y287589D01*
X642575Y288006D01*
X642611Y288421D01*
X642657Y288836D01*
X642713Y289249D01*
X642779Y289661D01*
X642856Y290072D01*
X642942Y290480D01*
X643038Y290886D01*
X643145Y291289D01*
X643261Y291690D01*
X643387Y292088D01*
X643523Y292482D01*
X643668Y292873D01*
X643823Y293261D01*
X643987Y293644D01*
X644161Y294023D01*
X644344Y294398D01*
X644536Y294769D01*
X644738Y295134D01*
X644948Y295495D01*
X645166Y295850D01*
X645394Y296200D01*
X645630Y296544D01*
X645874Y296882D01*
X646127Y297214D01*
X646388Y297540D01*
X646656Y297859D01*
X646933Y298172D01*
X647217Y298477D01*
X647508Y298776D01*
X647807Y299067D01*
X648112Y299351D01*
X648425Y299628D01*
X648744Y299896D01*
X649070Y300157D01*
X649402Y300410D01*
X649740Y300654D01*
X650084Y300890D01*
X650434Y301118D01*
X650789Y301336D01*
X651150Y301546D01*
X651515Y301748D01*
X651886Y301940D01*
X652261Y302123D01*
X652640Y302297D01*
X653023Y302461D01*
X653411Y302616D01*
X653802Y302761D01*
X654196Y302897D01*
X654594Y303023D01*
X654995Y303139D01*
X655398Y303246D01*
X655804Y303342D01*
X656212Y303428D01*
X656623Y303505D01*
X657035Y303571D01*
X657448Y303627D01*
X657863Y303673D01*
X658278Y303709D01*
X658695Y303735D01*
X659112Y303750D01*
X659529Y303755D01*
X659946Y303750D01*
X660363Y303735D01*
X660780Y303709D01*
X661195Y303673D01*
X661610Y303627D01*
X662023Y303571D01*
X662435Y303505D01*
X662846Y303428D01*
X663254Y303342D01*
X663660Y303246D01*
X664063Y303139D01*
X664464Y303023D01*
X664862Y302897D01*
X665256Y302761D01*
X665647Y302616D01*
X666035Y302461D01*
X666418Y302297D01*
X666797Y302123D01*
X667172Y301940D01*
X667543Y301748D01*
X667908Y301546D01*
X668269Y301336D01*
X668624Y301118D01*
X668974Y300890D01*
X669318Y300654D01*
X669656Y300410D01*
X669988Y300157D01*
X670314Y299896D01*
X670633Y299628D01*
X670946Y299351D01*
X671251Y299067D01*
X671550Y298776D01*
X671841Y298477D01*
X672125Y298172D01*
X672402Y297859D01*
X672670Y297540D01*
X672931Y297214D01*
X673184Y296882D01*
X673428Y296544D01*
X673664Y296200D01*
X673892Y295850D01*
X674110Y295495D01*
X674320Y295134D01*
X674522Y294769D01*
X674714Y294398D01*
X674897Y294023D01*
X675071Y293644D01*
X675235Y293261D01*
X675390Y292873D01*
X675535Y292482D01*
X675671Y292088D01*
X675797Y291690D01*
X675913Y291289D01*
X676020Y290886D01*
X676116Y290480D01*
X676202Y290072D01*
X676279Y289661D01*
X676345Y289249D01*
X676401Y288836D01*
X676447Y288421D01*
X676483Y288006D01*
X676509Y287589D01*
X676524Y287172D01*
X676529Y286755D01*
X676524Y286338D01*
X676509Y285921D01*
X676483Y285504D01*
X676447Y285089D01*
X676401Y284674D01*
X676345Y284261D01*
X676279Y283849D01*
X676202Y283438D01*
X676116Y283030D01*
X676020Y282624D01*
X675913Y282221D01*
X675797Y281820D01*
X675671Y281422D01*
X675535Y281028D01*
X675390Y280637D01*
X675235Y280249D01*
X675071Y279866D01*
X674897Y279487D01*
X674714Y279112D01*
X674522Y278741D01*
X674320Y278376D01*
X674110Y278015D01*
X673892Y277660D01*
X673664Y277310D01*
X673428Y276966D01*
X673184Y276628D01*
X672931Y276296D01*
X672670Y275970D01*
X672402Y275651D01*
X672125Y275338D01*
X671841Y275033D01*
X671550Y274734D01*
X671251Y274443D01*
X670946Y274159D01*
X670633Y273882D01*
X670314Y273614D01*
X669988Y273353D01*
X669656Y273100D01*
X669318Y272856D01*
X668974Y272620D01*
X668624Y272392D01*
X668269Y272174D01*
X667908Y271964D01*
X667543Y271762D01*
X667172Y271570D01*
X666797Y271387D01*
X666418Y271213D01*
X666035Y271049D01*
X665647Y270894D01*
X665256Y270749D01*
X664862Y270613D01*
X664464Y270487D01*
X664063Y270371D01*
X663660Y270264D01*
X663254Y270168D01*
X662846Y270082D01*
X662435Y270005D01*
X662023Y269939D01*
X661610Y269883D01*
X661195Y269837D01*
X660780Y269801D01*
X660363Y269775D01*
X659946Y269760D01*
X659529Y269755D01*
X659112Y269760D01*
X658695Y269775D01*
X658278Y269801D01*
X657863Y269837D01*
X657448Y269883D01*
X657035Y269939D01*
X656623Y270005D01*
X656212Y270082D01*
X655804Y270168D01*
X655398Y270264D01*
X654995Y270371D01*
X654594Y270487D01*
X654196Y270613D01*
X653802Y270749D01*
X653411Y270894D01*
X653023Y271049D01*
X652640Y271213D01*
X652261Y271387D01*
X651886Y271570D01*
X651515Y271762D01*
X651150Y271964D01*
X650789Y272174D01*
X650434Y272392D01*
X650084Y272620D01*
X649740Y272856D01*
X649402Y273100D01*
X649070Y273353D01*
X648744Y273614D01*
X648425Y273882D01*
X648112Y274159D01*
X647807Y274443D01*
X647508Y274734D01*
X647217Y275033D01*
X646933Y275338D01*
X646656Y275651D01*
X646388Y275970D01*
X646127Y276296D01*
X645874Y276628D01*
X645630Y276966D01*
X645394Y277310D01*
X645166Y277660D01*
X644948Y278015D01*
X644738Y278376D01*
X644536Y278741D01*
X644344Y279112D01*
X644161Y279487D01*
X643987Y279866D01*
X643823Y280249D01*
X643668Y280637D01*
X643523Y281028D01*
X643387Y281422D01*
X643261Y281820D01*
X643145Y282221D01*
X643038Y282624D01*
X642942Y283030D01*
X642856Y283438D01*
X642779Y283849D01*
X642713Y284261D01*
X642657Y284674D01*
X642611Y285089D01*
X642575Y285504D01*
X642549Y285921D01*
X642534Y286338D01*
X642529Y286755D01*
D10*
X761029Y571405D02*
X766279Y571405D01*
X761029Y571405D02*
X706029Y571405D01*
X700779Y571405D01*
X700779Y531405D01*
X702279Y531405D01*
X764779Y531405D01*
X766279Y531405D01*
X766279Y571405D01*
D11*
X766029Y541405D02*
X761029Y541405D01*
X758529Y541405D01*
X758529Y547655D01*
X708529Y547655D01*
X708529Y541405D02*
X706029Y541405D01*
X701029Y541405D01*
X708529Y541405D02*
X708529Y547655D01*
X761029Y565155D02*
X766029Y565155D01*
X761029Y565155D02*
X761029Y571405D01*
X706029Y565155D02*
X701029Y565155D01*
X706029Y565155D02*
X706029Y571405D01*
X761029Y541405D02*
X761029Y535155D01*
X706029Y535155D01*
X706029Y541405D01*
X761029Y535155D02*
X764779Y531405D01*
X706029Y535155D02*
X702279Y531405D01*
X754779Y565155D02*
X754779Y570155D01*
X754779Y565155D02*
X749779Y565155D01*
X749779Y570155D01*
X742279Y570155D02*
X742279Y565155D01*
X737279Y565155D01*
X737279Y570155D01*
X729779Y570155D02*
X729779Y565155D01*
X724779Y565155D01*
X724779Y570155D01*
X717279Y570155D02*
X717279Y565155D01*
X712279Y565155D01*
X712279Y570155D01*
D10*
X767279Y535155D02*
X786029Y535155D01*
X786029Y565155D01*
X767279Y565155D01*
X699779Y565155D02*
X681029Y565155D01*
X681029Y535155D01*
X699779Y535155D01*
D12*
X685389Y555442D02*
X690328Y559393D01*
X690328Y541613D01*
X685389Y541613D02*
X695267Y541613D01*
D17*
X752279Y543280D03*
X739779Y543280D03*
X727279Y543280D03*
X714779Y543280D03*
D14*
X694018Y528397D02*
X697912Y516713D01*
X701807Y528397D01*
X705603Y515415D02*
X710796Y515415D01*
X718754Y516713D02*
X718853Y516715D01*
X718953Y516721D01*
X719052Y516730D01*
X719150Y516743D01*
X719248Y516760D01*
X719346Y516781D01*
X719442Y516806D01*
X719537Y516834D01*
X719631Y516866D01*
X719724Y516901D01*
X719816Y516940D01*
X719906Y516983D01*
X719994Y517028D01*
X720081Y517078D01*
X720165Y517130D01*
X720248Y517186D01*
X720328Y517244D01*
X720406Y517306D01*
X720481Y517371D01*
X720554Y517439D01*
X720624Y517509D01*
X720692Y517582D01*
X720757Y517657D01*
X720819Y517735D01*
X720877Y517815D01*
X720933Y517898D01*
X720985Y517982D01*
X721035Y518069D01*
X721080Y518157D01*
X721123Y518247D01*
X721162Y518339D01*
X721197Y518432D01*
X721229Y518526D01*
X721257Y518621D01*
X721282Y518717D01*
X721303Y518815D01*
X721320Y518913D01*
X721333Y519011D01*
X721342Y519110D01*
X721348Y519210D01*
X721350Y519309D01*
X718754Y516713D02*
X718610Y516715D01*
X718465Y516721D01*
X718321Y516730D01*
X718178Y516743D01*
X718034Y516760D01*
X717891Y516781D01*
X717749Y516806D01*
X717608Y516834D01*
X717467Y516866D01*
X717327Y516902D01*
X717188Y516941D01*
X717050Y516984D01*
X716914Y517031D01*
X716778Y517081D01*
X716644Y517135D01*
X716512Y517192D01*
X716381Y517253D01*
X716252Y517317D01*
X716124Y517385D01*
X715998Y517455D01*
X715874Y517530D01*
X715753Y517607D01*
X715633Y517688D01*
X715515Y517771D01*
X715400Y517858D01*
X715287Y517948D01*
X715176Y518041D01*
X715068Y518136D01*
X714962Y518235D01*
X714859Y518336D01*
X715185Y525800D02*
X715187Y525899D01*
X715193Y525999D01*
X715202Y526098D01*
X715215Y526196D01*
X715232Y526294D01*
X715253Y526392D01*
X715278Y526488D01*
X715306Y526583D01*
X715338Y526677D01*
X715373Y526770D01*
X715412Y526862D01*
X715455Y526952D01*
X715500Y527040D01*
X715550Y527127D01*
X715602Y527211D01*
X715658Y527294D01*
X715716Y527374D01*
X715778Y527452D01*
X715843Y527527D01*
X715911Y527600D01*
X715981Y527670D01*
X716054Y527738D01*
X716129Y527803D01*
X716207Y527865D01*
X716287Y527923D01*
X716370Y527979D01*
X716454Y528031D01*
X716541Y528081D01*
X716629Y528126D01*
X716719Y528169D01*
X716811Y528208D01*
X716904Y528243D01*
X716998Y528275D01*
X717093Y528303D01*
X717190Y528328D01*
X717287Y528349D01*
X717385Y528366D01*
X717483Y528379D01*
X717582Y528388D01*
X717682Y528394D01*
X717781Y528396D01*
X717917Y528394D01*
X718053Y528388D01*
X718189Y528379D01*
X718325Y528366D01*
X718460Y528348D01*
X718594Y528328D01*
X718728Y528303D01*
X718862Y528275D01*
X718994Y528242D01*
X719125Y528207D01*
X719256Y528167D01*
X719385Y528124D01*
X719513Y528078D01*
X719639Y528027D01*
X719765Y527974D01*
X719888Y527916D01*
X720010Y527856D01*
X720130Y527792D01*
X720249Y527724D01*
X720365Y527654D01*
X720479Y527580D01*
X720592Y527503D01*
X720702Y527422D01*
X716482Y523528D02*
X716396Y523581D01*
X716312Y523638D01*
X716230Y523697D01*
X716150Y523760D01*
X716073Y523826D01*
X715998Y523894D01*
X715926Y523966D01*
X715857Y524040D01*
X715791Y524117D01*
X715728Y524196D01*
X715668Y524278D01*
X715611Y524362D01*
X715557Y524448D01*
X715507Y524536D01*
X715460Y524626D01*
X715416Y524717D01*
X715377Y524811D01*
X715340Y524905D01*
X715308Y525001D01*
X715279Y525099D01*
X715254Y525197D01*
X715233Y525296D01*
X715215Y525396D01*
X715202Y525496D01*
X715192Y525597D01*
X715186Y525699D01*
X715184Y525800D01*
X720053Y521581D02*
X720139Y521528D01*
X720223Y521471D01*
X720305Y521412D01*
X720385Y521349D01*
X720462Y521283D01*
X720537Y521215D01*
X720609Y521143D01*
X720678Y521069D01*
X720744Y520992D01*
X720807Y520913D01*
X720867Y520831D01*
X720924Y520747D01*
X720978Y520661D01*
X721028Y520573D01*
X721075Y520483D01*
X721119Y520392D01*
X721158Y520298D01*
X721195Y520204D01*
X721227Y520108D01*
X721256Y520010D01*
X721281Y519912D01*
X721302Y519813D01*
X721320Y519713D01*
X721333Y519613D01*
X721343Y519512D01*
X721349Y519410D01*
X721351Y519309D01*
X720053Y521581D02*
X716483Y523528D01*
X726312Y516713D02*
X731505Y516713D01*
X726312Y516713D02*
X726312Y528397D01*
X731505Y528397D01*
X730207Y523204D02*
X726312Y523204D01*
X736196Y528397D02*
X736196Y516713D01*
X742687Y516713D02*
X736196Y528397D01*
X742687Y528397D02*
X742687Y516713D01*
X751520Y516713D02*
X751619Y516715D01*
X751719Y516721D01*
X751818Y516730D01*
X751916Y516743D01*
X752014Y516760D01*
X752112Y516781D01*
X752208Y516806D01*
X752303Y516834D01*
X752397Y516866D01*
X752490Y516901D01*
X752582Y516940D01*
X752672Y516983D01*
X752760Y517028D01*
X752847Y517078D01*
X752931Y517130D01*
X753014Y517186D01*
X753094Y517244D01*
X753172Y517306D01*
X753247Y517371D01*
X753320Y517439D01*
X753390Y517509D01*
X753458Y517582D01*
X753523Y517657D01*
X753585Y517735D01*
X753643Y517815D01*
X753699Y517898D01*
X753751Y517982D01*
X753801Y518069D01*
X753846Y518157D01*
X753889Y518247D01*
X753928Y518339D01*
X753963Y518432D01*
X753995Y518526D01*
X754023Y518621D01*
X754048Y518717D01*
X754069Y518815D01*
X754086Y518913D01*
X754099Y519011D01*
X754108Y519110D01*
X754114Y519210D01*
X754116Y519309D01*
X751520Y516713D02*
X751376Y516715D01*
X751231Y516721D01*
X751087Y516730D01*
X750944Y516743D01*
X750800Y516760D01*
X750657Y516781D01*
X750515Y516806D01*
X750374Y516834D01*
X750233Y516866D01*
X750093Y516902D01*
X749954Y516941D01*
X749816Y516984D01*
X749680Y517031D01*
X749544Y517081D01*
X749410Y517135D01*
X749278Y517192D01*
X749147Y517253D01*
X749018Y517317D01*
X748890Y517385D01*
X748764Y517455D01*
X748640Y517530D01*
X748519Y517607D01*
X748399Y517688D01*
X748281Y517771D01*
X748166Y517858D01*
X748053Y517948D01*
X747942Y518041D01*
X747834Y518136D01*
X747728Y518235D01*
X747625Y518336D01*
X747951Y525800D02*
X747953Y525899D01*
X747959Y525999D01*
X747968Y526098D01*
X747981Y526196D01*
X747998Y526294D01*
X748019Y526392D01*
X748044Y526488D01*
X748072Y526583D01*
X748104Y526677D01*
X748139Y526770D01*
X748178Y526862D01*
X748221Y526952D01*
X748266Y527040D01*
X748316Y527127D01*
X748368Y527211D01*
X748424Y527294D01*
X748482Y527374D01*
X748544Y527452D01*
X748609Y527527D01*
X748677Y527600D01*
X748747Y527670D01*
X748820Y527738D01*
X748895Y527803D01*
X748973Y527865D01*
X749053Y527923D01*
X749136Y527979D01*
X749220Y528031D01*
X749307Y528081D01*
X749395Y528126D01*
X749485Y528169D01*
X749577Y528208D01*
X749670Y528243D01*
X749764Y528275D01*
X749859Y528303D01*
X749956Y528328D01*
X750053Y528349D01*
X750151Y528366D01*
X750249Y528379D01*
X750348Y528388D01*
X750448Y528394D01*
X750547Y528396D01*
X750683Y528394D01*
X750819Y528388D01*
X750955Y528379D01*
X751091Y528366D01*
X751226Y528348D01*
X751360Y528328D01*
X751494Y528303D01*
X751628Y528275D01*
X751760Y528242D01*
X751891Y528207D01*
X752022Y528167D01*
X752151Y528124D01*
X752279Y528078D01*
X752405Y528027D01*
X752531Y527974D01*
X752654Y527916D01*
X752776Y527856D01*
X752896Y527792D01*
X753015Y527724D01*
X753131Y527654D01*
X753245Y527580D01*
X753358Y527503D01*
X753468Y527422D01*
X749248Y523528D02*
X749162Y523581D01*
X749078Y523638D01*
X748996Y523697D01*
X748916Y523760D01*
X748839Y523826D01*
X748764Y523894D01*
X748692Y523966D01*
X748623Y524040D01*
X748557Y524117D01*
X748494Y524196D01*
X748434Y524278D01*
X748377Y524362D01*
X748323Y524448D01*
X748273Y524536D01*
X748226Y524626D01*
X748182Y524717D01*
X748143Y524811D01*
X748106Y524905D01*
X748074Y525001D01*
X748045Y525099D01*
X748020Y525197D01*
X747999Y525296D01*
X747981Y525396D01*
X747968Y525496D01*
X747958Y525597D01*
X747952Y525699D01*
X747950Y525800D01*
X752819Y521581D02*
X752905Y521528D01*
X752989Y521471D01*
X753071Y521412D01*
X753151Y521349D01*
X753228Y521283D01*
X753303Y521215D01*
X753375Y521143D01*
X753444Y521069D01*
X753510Y520992D01*
X753573Y520913D01*
X753633Y520831D01*
X753690Y520747D01*
X753744Y520661D01*
X753794Y520573D01*
X753841Y520483D01*
X753885Y520392D01*
X753924Y520298D01*
X753961Y520204D01*
X753993Y520108D01*
X754022Y520010D01*
X754047Y519912D01*
X754068Y519813D01*
X754086Y519713D01*
X754099Y519613D01*
X754109Y519512D01*
X754115Y519410D01*
X754117Y519309D01*
X752819Y521581D02*
X749248Y523528D01*
X759078Y516713D02*
X764271Y516713D01*
X759078Y516713D02*
X759078Y528397D01*
X764271Y528397D01*
X762973Y523204D02*
X759078Y523204D01*
M02*
