G04 EAGLE Gerber RS-274X export*
G75*
%MOMM*%
%FSLAX34Y34*%
%LPD*%
%INSolderpaste Top*%
%IPPOS*%
%AMOC8*
5,1,8,0,0,1.08239X$1,22.5*%
G01*
%ADD10C,2.108200*%
%ADD11R,0.800000X1.800000*%
%ADD12R,2.100000X3.000000*%
%ADD13R,0.800000X2.000000*%


D10*
X1203288Y206014D02*
X1203288Y176296D01*
X1198970Y176296D01*
X1198970Y206014D01*
X1203288Y206014D01*
X1203288Y196324D02*
X1198970Y196324D01*
X1233288Y206014D02*
X1233288Y176296D01*
X1228970Y176296D01*
X1228970Y206014D01*
X1233288Y206014D01*
X1233288Y196324D02*
X1228970Y196324D01*
X1003288Y202214D02*
X1003288Y172496D01*
X998970Y172496D01*
X998970Y202214D01*
X1003288Y202214D01*
X1003288Y192524D02*
X998970Y192524D01*
X1033288Y202214D02*
X1033288Y172496D01*
X1028970Y172496D01*
X1028970Y202214D01*
X1033288Y202214D01*
X1033288Y192524D02*
X1028970Y192524D01*
X753288Y178696D02*
X753288Y208414D01*
X753288Y178696D02*
X748970Y178696D01*
X748970Y208414D01*
X753288Y208414D01*
X753288Y198724D02*
X748970Y198724D01*
X783288Y208414D02*
X783288Y178696D01*
X778970Y178696D01*
X778970Y208414D01*
X783288Y208414D01*
X783288Y198724D02*
X778970Y198724D01*
X513288Y204614D02*
X513288Y174896D01*
X508970Y174896D01*
X508970Y204614D01*
X513288Y204614D01*
X513288Y194924D02*
X508970Y194924D01*
X543288Y204614D02*
X543288Y174896D01*
X538970Y174896D01*
X538970Y204614D01*
X543288Y204614D01*
X543288Y194924D02*
X538970Y194924D01*
X293288Y181096D02*
X293288Y210814D01*
X293288Y181096D02*
X288970Y181096D01*
X288970Y210814D01*
X293288Y210814D01*
X293288Y201124D02*
X288970Y201124D01*
X323288Y210814D02*
X323288Y181096D01*
X318970Y181096D01*
X318970Y210814D01*
X323288Y210814D01*
X323288Y201124D02*
X318970Y201124D01*
X76288Y208014D02*
X76288Y178296D01*
X71970Y178296D01*
X71970Y208014D01*
X76288Y208014D01*
X76288Y198324D02*
X71970Y198324D01*
X106288Y208014D02*
X106288Y178296D01*
X101970Y178296D01*
X101970Y208014D01*
X106288Y208014D01*
X106288Y198324D02*
X101970Y198324D01*
D11*
X581329Y522655D03*
X568829Y522655D03*
X556329Y522655D03*
X543829Y522655D03*
X531329Y522655D03*
X518829Y522655D03*
X506329Y522655D03*
D12*
X606329Y553905D03*
X481329Y553905D03*
D13*
X714779Y582655D03*
X727279Y582655D03*
X739779Y582655D03*
X752279Y582655D03*
D12*
X689779Y551405D03*
X777279Y551405D03*
M02*
