M48
;GenerationSoftware,Autodesk,EAGLE,9.2.2*%
;CreationDate,2019-01-10T17:44:10Z*%
FMAT,2
ICI,OFF
METRIC,TZ,000.000
T3C0.813
T2C1.300
T1C1.321
%
G90
M71
T1
X50460Y2851
X50292Y7874
X74248Y7855
X74058Y2729
X5580Y31123
X5585Y36533
X12700Y24130
X12700Y19050
T2
X58414Y28008
X58414Y7848
X65974Y28008
X65974Y2808
X65974Y7848
X58414Y2808
T3
X19125Y33928
X19125Y36468
X19125Y39008
X19125Y41548
X19125Y44088
X19125Y31388
X24632Y5323
X9392Y5323
X10458Y8881
X25698Y8881
X33365Y18658
X48605Y18658
X13560Y16419
X28800Y16419
X51667Y27379
X51667Y12139
X45324Y43470
X45324Y28230
X28343Y22151
X28343Y37391
X24868Y13289
X9628Y13289
X31041Y12297
X46281Y12297
X55367Y33531
X70607Y33531
X52653Y33302
X51383Y31397
X50113Y33302
X11505Y41548
X11505Y28848
X19125Y28848
X11505Y39008
X11505Y36468
X11505Y31388
X11505Y33928
X11505Y44088
X7620Y24130
X7620Y19050
X33020Y40640
X33020Y38100
X33020Y25400
X40640Y25400
X33020Y35560
X33020Y33020
X33020Y27940
X33020Y30480
X40640Y27940
X40640Y30480
X40640Y33020
X40640Y35560
X40640Y38100
X40640Y40640
M30