M48
;GenerationSoftware,Autodesk,EAGLE,9.2.2*%
;CreationDate,2020-02-11T13:28:04Z*%
FMAT,2
ICI,OFF
METRIC,TZ,000.000
T13C0.350
T12C0.800
T11C0.813
T10C0.914
T9C1.000
T8C1.016
T7C1.092
T6C1.118
T5C1.194
T4C1.300
T3C1.321
T2C3.000
T1C3.048
%
G90
M71
T1
X130607Y8890
X105613Y8890
T2
X7500Y8000
X7500Y107000
X157500Y107000
X157500Y8000
T3
X132080Y46990
X142240Y46990
X142240Y24130
X132080Y24130
T4
X146655Y98325
X146655Y93285
X139095Y98325
X139095Y73125
X146655Y73125
X139095Y93285
T5
X141605Y8295
X144105Y106045
X139105Y106045
X141605Y13295
T6
X147955Y66675
X137795Y66675
T7
X123647Y7468
X120879Y7468
X118110Y7468
X115341Y7468
X112573Y7468
X122263Y10312
X119494Y10312
X116726Y10312
X113957Y10312
T8
X121920Y46990
X124460Y46990
X119380Y46990
T9
X121920Y77470
X119380Y80010
X119380Y77470
X116840Y80010
X116840Y77470
X114300Y80010
X114300Y77470
X121920Y101600
X119380Y104140
X109220Y27940
X111760Y27940
X109220Y25400
X111760Y25400
X109220Y22860
X111760Y22860
X109220Y20320
X111760Y20320
X116840Y104140
X116840Y101600
X114300Y104140
X114300Y101600
X120650Y33020
X123190Y33020
X120650Y30480
X123190Y30480
X120650Y27940
X123190Y25400
X120650Y25400
X119380Y101600
X123190Y27940
X111760Y58420
X109220Y58420
X111760Y60960
X109220Y60960
X111760Y63500
X109220Y63500
X111760Y66040
X109220Y66040
X111760Y39370
X109220Y39370
X111760Y41910
X109220Y41910
X111760Y44450
X109220Y44450
X111760Y46990
X109220Y46990
X121920Y80010
X121920Y104140
T10
X68580Y35560
X66040Y35560
X68580Y43180
X66040Y43180
X68580Y31750
X66040Y31750
X68580Y39370
X66040Y39370
T11
X132080Y55880
X129540Y55880
X132080Y52070
X86360Y20320
X86360Y22860
X92710Y26670
X90170Y26670
X137160Y52070
X124460Y41910
X119380Y41910
X102235Y31750
X102235Y34290
X93345Y29210
X95885Y29210
X102235Y39370
X102235Y36830
X83185Y31750
X98425Y29210
X86995Y72390
X86995Y67310
X36830Y90170
X31750Y90170
X100965Y29210
X80645Y31750
T12
X53340Y17780
X55880Y17780
X58420Y17780
X60960Y17780
X63500Y17780
X66040Y17780
X68580Y17780
X71120Y17780
X71120Y15240
X68580Y15240
X66040Y15240
X63500Y15240
X60960Y15240
X58420Y15240
X55880Y15240
X53340Y15240
X50800Y15240
X48260Y15240
X45720Y15240
X43180Y15240
X40640Y15240
X38100Y15240
X35560Y15240
X33020Y15240
X30480Y15240
X27940Y15240
X27940Y43180
X27940Y40640
X27940Y38100
X27940Y35560
X27940Y33020
X27940Y30480
X27940Y27940
X27940Y25400
X27940Y66040
X27940Y63500
X27940Y60960
X27940Y58420
X27940Y55880
X27940Y53340
X27940Y50800
X27940Y48260
X27940Y92710
X27940Y90170
X27940Y87630
X27940Y85090
X27940Y82550
X27940Y80010
X27940Y77470
X27940Y74930
X27940Y72390
X27940Y69850
X48260Y48260
X50800Y48260
X53340Y48260
X53340Y45720
X50800Y45720
X48260Y45720
X76200Y38100
X76200Y35560
X76200Y33020
X76200Y30480
X76200Y27940
X76200Y25400
X76200Y22860
X76200Y20320
X76200Y60960
X76200Y58420
X76200Y55880
X76200Y53340
X76200Y50800
X76200Y48260
X76200Y45720
X76200Y43180
X76200Y83820
X76200Y81280
X76200Y78740
X76200Y76200
X76200Y73660
X76200Y71120
X76200Y68580
X76200Y66040
X27940Y17780
X30480Y17780
X33020Y17780
X35560Y17780
X38100Y17780
X40640Y17780
X43180Y17780
X45720Y17780
X48260Y17780
X50800Y17780
T13
X80010Y38735
X80010Y41910
X115570Y27940
X97155Y83820
X39370Y102870
X73660Y11430
X61595Y62865
X80645Y74295
X104140Y74930
X61595Y64135
X79375Y74930
X104140Y83185
X124460Y95250
X38100Y1905
X33020Y5080
X30480Y100330
X33020Y100330
X102235Y6985
X83820Y36830
X86052Y37138
X81280Y62865
X87630Y77470
X118110Y29845
X112395Y73025
X63500Y83820
X123190Y13970
X119380Y13970
X106045Y100965
X100965Y8890
X49530Y81280
X92710Y72390
X34290Y82550
X97790Y73660
X44450Y102870
M30